<svg width="484" height="373" viewBox="0 0 484 373" fill="none" xmlns="http://www.w3.org/2000/svg">
<path d="M331.457 60.175C331.457 48.9038 322.313 39.7667 311.032 39.7667H288.021C277.169 39.7667 268.372 30.9765 268.372 20.1333C268.372 9.29014 259.574 0.5 248.722 0.5H31.0256C13.8907 0.5 0 14.3792 0 31.5V180.042C0 194.452 11.6913 206.133 26.1133 206.133C40.5352 206.133 52.2265 217.815 52.2265 232.225L52.2265 341.5C52.2265 358.621 66.1172 372.5 83.2522 372.5H387.821C404.956 372.5 418.846 358.621 418.846 341.5V287.767C418.846 270.646 432.737 256.767 449.872 256.767H452.974C470.109 256.767 484 242.887 484 225.767V111.583C484 94.4625 470.109 80.5833 452.974 80.5833H351.882C340.602 80.5833 331.457 71.4462 331.457 60.175Z" fill="url(#paint0_linear_253_506)"/>
<path d="M44.252 78.972C44.0093 78.972 43.784 78.9373 43.576 78.868C42.9173 78.7293 42.4493 78.3307 42.172 77.672C41.964 77.0827 42.016 76.424 42.328 75.696C42.6747 74.968 43.1253 74.1533 43.68 73.252C43.888 72.94 44.0787 72.628 44.252 72.316C44.46 71.9693 44.6333 71.6573 44.772 71.38C44.8413 71.276 44.8933 71.1893 44.928 71.12C44.9627 71.016 44.9973 70.9293 45.032 70.86C43.992 70.6867 42.7787 70.652 41.392 70.756C40.04 70.8253 38.5147 71.0853 36.816 71.536C35.3253 71.9173 33.7133 72.42 31.98 73.044C30.2813 73.6333 28.4787 74.344 26.572 75.176C26.1907 75.3147 25.8093 75.3147 25.428 75.176C25.0467 75.0373 24.7693 74.7773 24.596 74.396C24.388 74.0147 24.3707 73.616 24.544 73.2C24.7173 72.7493 24.9947 72.4547 25.376 72.316C27.3173 71.4493 29.172 70.704 30.94 70.08C32.7427 69.4213 34.4413 68.9013 36.036 68.52C40.3 67.4453 43.784 67.272 46.488 68C47.2853 68.208 47.84 68.6933 48.152 69.456C48.464 70.2187 48.3947 71.068 47.944 72.004C47.4933 72.94 46.956 73.9107 46.332 74.916C46.2973 74.9853 46.2453 75.072 46.176 75.176C46.1067 75.28 46.0373 75.4013 45.968 75.54C46.7653 75.3667 47.944 75.02 49.504 74.5C51.064 73.98 53.2133 73.2173 55.952 72.212C56.3333 72.0733 56.7147 72.108 57.096 72.316C57.512 72.4893 57.7893 72.784 57.928 73.2C58.1013 73.5813 58.1013 73.98 57.928 74.396C57.7547 74.7773 57.4427 75.0547 56.992 75.228C55.3973 75.7827 53.9413 76.2853 52.624 76.736C51.3067 77.1867 50.128 77.568 49.088 77.88C47.7013 78.296 46.644 78.5907 45.916 78.764C45.188 78.9027 44.6333 78.972 44.252 78.972ZM60.7811 82.456C60.5384 82.456 60.2958 82.4213 60.0531 82.352C59.8104 82.3173 59.5678 82.2827 59.3251 82.248C58.7011 82.0747 58.2678 81.7107 58.0251 81.156C57.7131 80.4627 57.7131 79.6307 58.0251 78.66C58.3718 77.6547 58.9264 76.372 59.6891 74.812C59.8278 74.5347 59.9664 74.2227 60.1051 73.876C60.2784 73.5293 60.4344 73.2 60.5731 72.888C60.1224 73.0613 59.6371 73.356 59.1171 73.772C58.6318 74.1533 58.1291 74.552 57.6091 74.968C57.2624 75.2107 56.8811 75.3147 56.4651 75.28C56.0144 75.2107 55.6504 75.02 55.3731 74.708C55.1304 74.3613 55.0438 73.98 55.1131 73.564C55.1478 73.148 55.3211 72.784 55.6331 72.472C56.1184 72.1253 56.6211 71.744 57.1411 71.328C57.6958 70.912 58.2504 70.5653 58.8051 70.288C60.2264 69.56 61.5264 69.3693 62.7051 69.716C63.2598 69.82 63.6758 70.1667 63.9531 70.756C64.2304 71.3107 64.2131 72.004 63.9011 72.836C63.6238 73.668 63.1384 74.7947 62.4451 76.216C62.2718 76.632 62.0811 77.048 61.8731 77.464C61.6998 77.88 61.5264 78.2787 61.3531 78.66C61.3184 78.7987 61.2664 78.92 61.1971 79.024C61.1624 79.128 61.1278 79.232 61.0931 79.336C61.8211 79.232 62.8784 78.868 64.2651 78.244C65.6864 77.5853 67.5931 76.3027 69.9851 74.396C71.2678 73.3907 72.4291 72.42 73.4691 71.484C74.5091 70.5133 75.3411 69.716 75.9651 69.092C76.5891 68.468 76.9011 68.156 76.9011 68.156C77.3171 67.6707 77.8198 67.5147 78.4091 67.688C78.6864 67.7227 78.9118 67.844 79.0851 68.052C79.2584 68.2253 79.3971 68.3987 79.5011 68.572C79.7438 69.0573 79.7611 69.6293 79.5531 70.288C79.3798 70.912 78.9984 71.9347 78.4091 73.356C78.2011 73.8067 77.9931 74.2573 77.7851 74.708C77.6118 75.1587 77.4384 75.5747 77.2651 75.956C77.2304 76.0947 77.1958 76.216 77.1611 76.32C77.1611 76.3893 77.1438 76.4587 77.1091 76.528C77.7678 76.424 78.4611 76.1467 79.1891 75.696C79.9518 75.2107 80.6798 74.6733 81.3731 74.084C82.1011 73.4947 82.7078 72.992 83.1931 72.576C83.5398 72.264 83.9211 72.1253 84.3371 72.16C84.7531 72.1947 85.1171 72.368 85.4291 72.68C85.7064 73.0267 85.8278 73.408 85.7931 73.824C85.7931 74.24 85.6198 74.604 85.2731 74.916C84.1984 75.852 83.0891 76.736 81.9451 77.568C80.8358 78.4 79.7091 79.024 78.5651 79.44C77.4558 79.8213 76.3291 79.8733 75.1851 79.596C74.6304 79.3533 74.2318 79.0067 73.9891 78.556C73.7811 78.0707 73.7118 77.5333 73.7811 76.944C73.8851 76.3547 74.0931 75.6267 74.4051 74.76C74.0238 75.1067 73.6251 75.436 73.2091 75.748C72.8278 76.06 72.4118 76.4067 71.9611 76.788C67.1771 80.5667 63.4504 82.456 60.7811 82.456ZM102.549 78.972C102.306 78.972 102.081 78.9373 101.873 78.868C101.214 78.7293 100.746 78.3307 100.469 77.672C100.261 77.0827 100.313 76.424 100.625 75.696C100.972 74.968 101.422 74.1533 101.977 73.252C102.185 72.94 102.376 72.628 102.549 72.316C102.757 71.9693 102.93 71.6573 103.069 71.38C103.138 71.276 103.19 71.1893 103.225 71.12C103.26 71.016 103.294 70.9293 103.329 70.86C102.289 70.6867 101.076 70.652 99.6889 70.756C98.3369 70.8253 96.8115 71.0853 95.1129 71.536C93.6222 71.9173 92.0102 72.42 90.2769 73.044C88.5782 73.6333 86.7755 74.344 84.8689 75.176C84.4875 75.3147 84.1062 75.3147 83.7249 75.176C83.3435 75.0373 83.0662 74.7773 82.8929 74.396C82.6849 74.0147 82.6675 73.616 82.8409 73.2C83.0142 72.7493 83.2915 72.4547 83.6729 72.316C85.6142 71.4493 87.4689 70.704 89.2369 70.08C91.0395 69.4213 92.7382 68.9013 94.3329 68.52C98.5969 67.4453 102.081 67.272 104.785 68C105.582 68.208 106.137 68.6933 106.449 69.456C106.761 70.2187 106.692 71.068 106.241 72.004C105.79 72.94 105.253 73.9107 104.629 74.916C104.594 74.9853 104.542 75.072 104.473 75.176C104.404 75.28 104.334 75.4013 104.265 75.54C105.062 75.3667 106.241 75.02 107.801 74.5C109.361 73.98 111.51 73.2173 114.249 72.212C114.63 72.0733 115.012 72.108 115.393 72.316C115.809 72.4893 116.086 72.784 116.225 73.2C116.398 73.5813 116.398 73.98 116.225 74.396C116.052 74.7773 115.74 75.0547 115.289 75.228C113.694 75.7827 112.238 76.2853 110.921 76.736C109.604 77.1867 108.425 77.568 107.385 77.88C105.998 78.296 104.941 78.5907 104.213 78.764C103.485 78.9027 102.93 78.972 102.549 78.972ZM121.47 82.56C121.297 82.56 121.123 82.5427 120.95 82.508C120.777 82.508 120.586 82.4907 120.378 82.456C119.962 82.3173 119.615 82.0227 119.338 81.572C119.199 81.2947 119.13 80.9133 119.13 80.428C119.13 79.9427 119.286 79.1453 119.598 78.036C119.91 76.9267 120.413 75.28 121.106 73.096C120.343 73.3733 119.459 73.7027 118.454 74.084C117.483 74.4653 116.478 74.8467 115.438 75.228C115.057 75.3667 114.675 75.3493 114.294 75.176C113.878 74.968 113.583 74.656 113.41 74.24C113.271 73.8587 113.306 73.4773 113.514 73.096C113.687 72.68 113.982 72.3853 114.398 72.212C115.889 71.6573 117.275 71.1373 118.558 70.652C119.875 70.1667 120.95 69.768 121.782 69.456C122.614 69.144 123.03 68.988 123.03 68.988C123.377 68.8493 123.706 68.832 124.018 68.936C124.469 69.04 124.798 69.3 125.006 69.716C125.179 70.028 125.231 70.3053 125.162 70.548C125.127 70.7907 125.075 71.0507 125.006 71.328C124.937 71.4667 124.885 71.6227 124.85 71.796C124.815 71.9347 124.763 72.108 124.694 72.316C124.451 72.9053 124.191 73.6333 123.914 74.5C123.671 75.332 123.411 76.1813 123.134 77.048C122.961 77.5333 122.822 77.9493 122.718 78.296C122.614 78.6427 122.527 78.9547 122.458 79.232C123.117 79.0933 124.07 78.6947 125.318 78.036C126.393 77.4467 127.537 76.7707 128.75 76.008C129.998 75.2107 131.263 74.3787 132.546 73.512C132.823 73.3387 133.101 73.1653 133.378 72.992C133.69 72.8187 133.967 72.628 134.21 72.42C134.591 72.1773 134.99 72.108 135.406 72.212C135.857 72.2813 136.203 72.5067 136.446 72.888C136.689 73.2347 136.758 73.616 136.654 74.032C136.585 74.448 136.359 74.7773 135.978 75.02C135.701 75.228 135.406 75.436 135.094 75.644C134.817 75.8173 134.522 76.008 134.21 76.216C132.893 77.0827 131.61 77.9147 130.362 78.712C129.114 79.5093 127.935 80.2027 126.826 80.792C124.573 81.9707 122.787 82.56 121.47 82.56ZM178.721 78.972C178.478 78.972 178.253 78.9373 178.045 78.868C177.386 78.7293 176.918 78.3307 176.641 77.672C176.433 77.0827 176.485 76.424 176.797 75.696C177.143 74.968 177.594 74.1533 178.149 73.252C178.357 72.94 178.547 72.628 178.721 72.316C178.929 71.9693 179.102 71.6573 179.241 71.38C179.31 71.276 179.362 71.1893 179.397 71.12C179.431 71.016 179.466 70.9293 179.501 70.86C178.461 70.6867 177.247 70.652 175.861 70.756C174.509 70.8253 172.983 71.0853 171.285 71.536C169.794 71.9173 168.182 72.42 166.449 73.044C164.75 73.6333 162.947 74.344 161.041 75.176C160.659 75.3147 160.278 75.3147 159.897 75.176C159.515 75.0373 159.238 74.7773 159.065 74.396C158.857 74.0147 158.839 73.616 159.013 73.2C159.186 72.7493 159.463 72.4547 159.845 72.316C161.786 71.4493 163.641 70.704 165.409 70.08C167.211 69.4213 168.91 68.9013 170.505 68.52C174.769 67.4453 178.253 67.272 180.957 68C181.754 68.208 182.309 68.6933 182.621 69.456C182.933 70.2187 182.863 71.068 182.413 72.004C181.962 72.94 181.425 73.9107 180.801 74.916C180.766 74.9853 180.714 75.072 180.645 75.176C180.575 75.28 180.506 75.4013 180.437 75.54C181.234 75.3667 182.413 75.02 183.973 74.5C185.533 73.98 187.682 73.2173 190.421 72.212C190.802 72.0733 191.183 72.108 191.565 72.316C191.981 72.4893 192.258 72.784 192.397 73.2C192.57 73.5813 192.57 73.98 192.397 74.396C192.223 74.7773 191.911 75.0547 191.461 75.228C189.866 75.7827 188.41 76.2853 187.093 76.736C185.775 77.1867 184.597 77.568 183.557 77.88C182.17 78.296 181.113 78.5907 180.385 78.764C179.657 78.9027 179.102 78.972 178.721 78.972ZM195.25 82.456C195.007 82.456 194.765 82.4213 194.522 82.352C194.279 82.3173 194.037 82.2827 193.794 82.248C193.17 82.0747 192.737 81.7107 192.494 81.156C192.182 80.4627 192.182 79.6307 192.494 78.66C192.841 77.6547 193.395 76.372 194.158 74.812C194.297 74.5347 194.435 74.2227 194.574 73.876C194.747 73.5293 194.903 73.2 195.042 72.888C194.591 73.0613 194.106 73.356 193.586 73.772C193.101 74.1533 192.598 74.552 192.078 74.968C191.731 75.2107 191.35 75.3147 190.934 75.28C190.483 75.2107 190.119 75.02 189.842 74.708C189.599 74.3613 189.513 73.98 189.582 73.564C189.617 73.148 189.79 72.784 190.102 72.472C190.587 72.1253 191.09 71.744 191.61 71.328C192.165 70.912 192.719 70.5653 193.274 70.288C194.695 69.56 195.995 69.3693 197.174 69.716C197.729 69.82 198.145 70.1667 198.422 70.756C198.699 71.3107 198.682 72.004 198.37 72.836C198.093 73.668 197.607 74.7947 196.914 76.216C196.741 76.632 196.55 77.048 196.342 77.464C196.169 77.88 195.995 78.2787 195.822 78.66C195.787 78.7987 195.735 78.92 195.666 79.024C195.631 79.128 195.597 79.232 195.562 79.336C196.29 79.232 197.347 78.868 198.734 78.244C200.155 77.5853 202.062 76.3027 204.454 74.396C205.737 73.3907 206.898 72.42 207.938 71.484C208.978 70.5133 209.81 69.716 210.434 69.092C211.058 68.468 211.37 68.156 211.37 68.156C211.786 67.6707 212.289 67.5147 212.878 67.688C213.155 67.7227 213.381 67.844 213.554 68.052C213.727 68.2253 213.866 68.3987 213.97 68.572C214.213 69.0573 214.23 69.6293 214.022 70.288C213.849 70.912 213.467 71.9347 212.878 73.356C212.67 73.8067 212.462 74.2573 212.254 74.708C212.081 75.1587 211.907 75.5747 211.734 75.956C211.699 76.0947 211.665 76.216 211.63 76.32C211.63 76.3893 211.613 76.4587 211.578 76.528C212.237 76.424 212.93 76.1467 213.658 75.696C214.421 75.2107 215.149 74.6733 215.842 74.084C216.57 73.4947 217.177 72.992 217.662 72.576C218.009 72.264 218.39 72.1253 218.806 72.16C219.222 72.1947 219.586 72.368 219.898 72.68C220.175 73.0267 220.297 73.408 220.262 73.824C220.262 74.24 220.089 74.604 219.742 74.916C218.667 75.852 217.558 76.736 216.414 77.568C215.305 78.4 214.178 79.024 213.034 79.44C211.925 79.8213 210.798 79.8733 209.654 79.596C209.099 79.3533 208.701 79.0067 208.458 78.556C208.25 78.0707 208.181 77.5333 208.25 76.944C208.354 76.3547 208.562 75.6267 208.874 74.76C208.493 75.1067 208.094 75.436 207.678 75.748C207.297 76.06 206.881 76.4067 206.43 76.788C201.646 80.5667 197.919 82.456 195.25 82.456ZM225.682 77.932C225.508 77.932 225.37 77.9147 225.266 77.88C224.711 77.7413 224.312 77.5333 224.07 77.256C223.862 76.944 223.723 76.7013 223.654 76.528C223.411 75.7653 223.498 74.9853 223.914 74.188C224.33 73.356 224.867 72.4893 225.526 71.588C225.734 71.3107 225.924 71.016 226.098 70.704C226.306 70.3573 226.479 70.0627 226.618 69.82C226.652 69.7853 226.704 69.716 226.774 69.612C226.566 69.6813 226.306 69.7853 225.994 69.924C225.716 70.0627 225.387 70.2707 225.006 70.548C224.382 70.9293 223.723 71.432 223.03 72.056C222.336 72.6453 221.626 73.2693 220.898 73.928C220.724 74.0667 220.534 74.2227 220.326 74.396C220.152 74.5693 219.979 74.7427 219.806 74.916C219.494 75.1933 219.13 75.332 218.714 75.332C218.263 75.2973 217.899 75.1067 217.622 74.76C217.31 74.448 217.171 74.084 217.206 73.668C217.24 73.2173 217.414 72.8533 217.726 72.576C217.899 72.4027 218.09 72.2293 218.298 72.056C218.471 71.8827 218.644 71.7267 218.818 71.588C219.927 70.5827 221.019 69.664 222.094 68.832C223.168 67.9653 224.226 67.3067 225.266 66.856C226.306 66.4053 227.311 66.3187 228.282 66.596C228.871 66.7347 229.287 66.9773 229.53 67.324C229.807 67.636 229.963 67.9133 229.998 68.156C230.31 68.9187 230.24 69.7333 229.79 70.6C229.339 71.432 228.767 72.3507 228.074 73.356C228.004 73.4253 227.918 73.5467 227.814 73.72C227.744 73.8587 227.658 73.9973 227.554 74.136C228.074 73.928 228.75 73.668 229.582 73.356C230.414 73.044 231.419 72.6627 232.598 72.212C233.048 72.0733 233.464 72.108 233.846 72.316C234.227 72.4893 234.487 72.784 234.626 73.2C234.799 73.5813 234.782 73.98 234.574 74.396C234.4 74.7773 234.123 75.0547 233.742 75.228C232.632 75.6093 231.627 75.956 230.726 76.268C229.824 76.58 229.062 76.8573 228.438 77.1C228.091 77.2387 227.779 77.36 227.502 77.464C227.259 77.5333 227.034 77.6027 226.826 77.672C226.583 77.7413 226.375 77.8107 226.202 77.88C226.028 77.9147 225.855 77.932 225.682 77.932ZM239.638 82.56C239.465 82.56 239.291 82.5427 239.118 82.508C238.945 82.508 238.754 82.4907 238.546 82.456C238.13 82.3173 237.783 82.0227 237.506 81.572C237.367 81.2947 237.298 80.9133 237.298 80.428C237.298 79.9427 237.454 79.1453 237.766 78.036C238.078 76.9267 238.581 75.28 239.274 73.096C238.511 73.3733 237.627 73.7027 236.622 74.084C235.651 74.4653 234.646 74.8467 233.606 75.228C233.225 75.3667 232.843 75.3493 232.462 75.176C232.046 74.968 231.751 74.656 231.578 74.24C231.439 73.8587 231.474 73.4773 231.682 73.096C231.855 72.68 232.15 72.3853 232.566 72.212C234.057 71.6573 235.443 71.1373 236.726 70.652C238.043 70.1667 239.118 69.768 239.95 69.456C240.782 69.144 241.198 68.988 241.198 68.988C241.545 68.8493 241.874 68.832 242.186 68.936C242.637 69.04 242.966 69.3 243.174 69.716C243.347 70.028 243.399 70.3053 243.33 70.548C243.295 70.7907 243.243 71.0507 243.174 71.328C243.105 71.4667 243.053 71.6227 243.018 71.796C242.983 71.9347 242.931 72.108 242.862 72.316C242.619 72.9053 242.359 73.6333 242.082 74.5C241.839 75.332 241.579 76.1813 241.302 77.048C241.129 77.5333 240.99 77.9493 240.886 78.296C240.782 78.6427 240.695 78.9547 240.626 79.232C241.285 79.0933 242.238 78.6947 243.486 78.036C244.561 77.4467 245.705 76.7707 246.918 76.008C248.166 75.2107 249.431 74.3787 250.714 73.512C250.991 73.3387 251.269 73.1653 251.546 72.992C251.858 72.8187 252.135 72.628 252.378 72.42C252.759 72.1773 253.158 72.108 253.574 72.212C254.025 72.2813 254.371 72.5067 254.614 72.888C254.857 73.2347 254.926 73.616 254.822 74.032C254.753 74.448 254.527 74.7773 254.146 75.02C253.869 75.228 253.574 75.436 253.262 75.644C252.985 75.8173 252.69 76.008 252.378 76.216C251.061 77.0827 249.778 77.9147 248.53 78.712C247.282 79.5093 246.103 80.2027 244.994 80.792C242.741 81.9707 240.955 82.56 239.638 82.56ZM265.204 79.492C264.788 79.492 264.441 79.3707 264.164 79.128C263.609 78.6773 263.453 78.1053 263.696 77.412C263.696 77.3773 263.817 76.9613 264.06 76.164C264.337 75.3667 264.649 74.4653 264.996 73.46C265.169 72.8707 265.325 72.368 265.464 71.952C265.602 71.5013 265.724 71.1027 265.828 70.756C264.892 71.1027 263.748 71.536 262.396 72.056C261.044 72.5413 259.622 73.0613 258.132 73.616C256.676 74.1707 255.254 74.708 253.868 75.228C253.486 75.3667 253.105 75.3493 252.724 75.176C252.308 74.968 252.013 74.656 251.84 74.24C251.701 73.8587 251.736 73.4773 251.944 73.096C252.117 72.68 252.412 72.3853 252.828 72.212C254.388 71.6573 256 71.0853 257.664 70.496C259.328 69.872 260.87 69.3 262.292 68.78C263.713 68.2253 264.874 67.7747 265.776 67.428C266.677 67.0813 267.128 66.908 267.128 66.908C267.301 66.8733 267.474 66.856 267.648 66.856C267.821 66.8213 267.977 66.8387 268.116 66.908C268.601 66.9773 268.948 67.2547 269.156 67.74C269.329 68.0173 269.398 68.3813 269.364 68.832C269.364 69.248 269.277 69.8547 269.104 70.652C269 71.1027 268.861 71.6053 268.688 72.16C268.549 72.68 268.358 73.2867 268.116 73.98C268.081 74.1187 268.046 74.24 268.012 74.344C267.977 74.448 267.942 74.5693 267.908 74.708C269.294 73.9453 270.993 73.148 273.004 72.316C273.385 72.1427 273.766 72.1427 274.148 72.316C274.564 72.4547 274.841 72.7147 274.98 73.096C275.188 73.4773 275.205 73.876 275.032 74.292C274.858 74.708 274.581 75.0027 274.2 75.176C272.64 75.8693 271.236 76.528 269.988 77.152C268.774 77.776 267.804 78.2787 267.076 78.66C266.348 79.0413 265.984 79.232 265.984 79.232C265.776 79.4053 265.516 79.492 265.204 79.492ZM37.856 131.492C37.44 131.492 37.0933 131.371 36.816 131.128C36.2613 130.677 36.1053 130.105 36.348 129.412C36.348 129.377 36.4693 128.961 36.712 128.164C36.9893 127.367 37.3013 126.465 37.648 125.46C37.8213 124.871 37.9773 124.368 38.116 123.952C38.2547 123.501 38.376 123.103 38.48 122.756C37.544 123.103 36.4 123.536 35.048 124.056C33.696 124.541 32.2747 125.061 30.784 125.616C29.328 126.171 27.9067 126.708 26.52 127.228C26.1387 127.367 25.7573 127.349 25.376 127.176C24.96 126.968 24.6653 126.656 24.492 126.24C24.3533 125.859 24.388 125.477 24.596 125.096C24.7693 124.68 25.064 124.385 25.48 124.212C27.04 123.657 28.652 123.085 30.316 122.496C31.98 121.872 33.5227 121.3 34.944 120.78C36.3653 120.225 37.5267 119.775 38.428 119.428C39.3293 119.081 39.78 118.908 39.78 118.908C39.9533 118.873 40.1267 118.856 40.3 118.856C40.4733 118.821 40.6293 118.839 40.768 118.908C41.2533 118.977 41.6 119.255 41.808 119.74C41.9813 120.017 42.0507 120.381 42.016 120.832C42.016 121.248 41.9293 121.855 41.756 122.652C41.652 123.103 41.5133 123.605 41.34 124.16C41.2013 124.68 41.0107 125.287 40.768 125.98C40.7333 126.119 40.6987 126.24 40.664 126.344C40.6293 126.448 40.5947 126.569 40.56 126.708C41.9467 125.945 43.6453 125.148 45.656 124.316C46.0373 124.143 46.4187 124.143 46.8 124.316C47.216 124.455 47.4933 124.715 47.632 125.096C47.84 125.477 47.8573 125.876 47.684 126.292C47.5107 126.708 47.2333 127.003 46.852 127.176C45.292 127.869 43.888 128.528 42.64 129.152C41.4267 129.776 40.456 130.279 39.728 130.66C39 131.041 38.636 131.232 38.636 131.232C38.428 131.405 38.168 131.492 37.856 131.492ZM52.7629 134.56C52.5896 134.56 52.4163 134.543 52.2429 134.508C52.0696 134.508 51.8789 134.491 51.6709 134.456C51.2549 134.317 50.9083 134.023 50.6309 133.572C50.4923 133.295 50.4229 132.913 50.4229 132.428C50.4229 131.943 50.5789 131.145 50.8909 130.036C51.2029 128.927 51.7056 127.28 52.3989 125.096C51.6363 125.373 50.7523 125.703 49.7469 126.084C48.7763 126.465 47.7709 126.847 46.7309 127.228C46.3496 127.367 45.9683 127.349 45.5869 127.176C45.1709 126.968 44.8763 126.656 44.7029 126.24C44.5643 125.859 44.5989 125.477 44.8069 125.096C44.9803 124.68 45.2749 124.385 45.6909 124.212C47.1816 123.657 48.5683 123.137 49.8509 122.652C51.1683 122.167 52.2429 121.768 53.0749 121.456C53.9069 121.144 54.3229 120.988 54.3229 120.988C54.6696 120.849 54.9989 120.832 55.3109 120.936C55.7616 121.04 56.0909 121.3 56.2989 121.716C56.4723 122.028 56.5243 122.305 56.4549 122.548C56.4203 122.791 56.3683 123.051 56.2989 123.328C56.2296 123.467 56.1776 123.623 56.1429 123.796C56.1083 123.935 56.0563 124.108 55.9869 124.316C55.7443 124.905 55.4843 125.633 55.2069 126.5C54.9643 127.332 54.7043 128.181 54.4269 129.048C54.2536 129.533 54.1149 129.949 54.0109 130.296C53.9069 130.643 53.8203 130.955 53.7509 131.232C54.4096 131.093 55.3629 130.695 56.6109 130.036C57.6856 129.447 58.8296 128.771 60.0429 128.008C61.2909 127.211 62.5563 126.379 63.8389 125.512C64.1163 125.339 64.3936 125.165 64.6709 124.992C64.9829 124.819 65.2603 124.628 65.5029 124.42C65.8843 124.177 66.2829 124.108 66.6989 124.212C67.1496 124.281 67.4963 124.507 67.7389 124.888C67.9816 125.235 68.0509 125.616 67.9469 126.032C67.8776 126.448 67.6523 126.777 67.2709 127.02C66.9936 127.228 66.6989 127.436 66.3869 127.644C66.1096 127.817 65.8149 128.008 65.5029 128.216C64.1856 129.083 62.9029 129.915 61.6549 130.712C60.4069 131.509 59.2283 132.203 58.1189 132.792C55.8656 133.971 54.0803 134.56 52.7629 134.56ZM78.3287 131.492C77.9127 131.492 77.566 131.371 77.2887 131.128C76.734 130.677 76.578 130.105 76.8207 129.412C76.8207 129.377 76.942 128.961 77.1847 128.164C77.462 127.367 77.774 126.465 78.1207 125.46C78.294 124.871 78.45 124.368 78.5887 123.952C78.7273 123.501 78.8487 123.103 78.9527 122.756C78.0167 123.103 76.8727 123.536 75.5207 124.056C74.1687 124.541 72.7473 125.061 71.2567 125.616C69.8007 126.171 68.3793 126.708 66.9927 127.228C66.6113 127.367 66.23 127.349 65.8487 127.176C65.4327 126.968 65.138 126.656 64.9647 126.24C64.826 125.859 64.8607 125.477 65.0687 125.096C65.242 124.68 65.5367 124.385 65.9527 124.212C67.5127 123.657 69.1247 123.085 70.7887 122.496C72.4527 121.872 73.9953 121.3 75.4167 120.78C76.838 120.225 77.9993 119.775 78.9007 119.428C79.802 119.081 80.2527 118.908 80.2527 118.908C80.426 118.873 80.5993 118.856 80.7727 118.856C80.946 118.821 81.102 118.839 81.2407 118.908C81.726 118.977 82.0727 119.255 82.2807 119.74C82.454 120.017 82.5233 120.381 82.4887 120.832C82.4887 121.248 82.402 121.855 82.2287 122.652C82.1247 123.103 81.986 123.605 81.8127 124.16C81.674 124.68 81.4833 125.287 81.2407 125.98C81.206 126.119 81.1713 126.24 81.1367 126.344C81.102 126.448 81.0673 126.569 81.0327 126.708C82.4193 125.945 84.118 125.148 86.1287 124.316C86.51 124.143 86.8913 124.143 87.2727 124.316C87.6887 124.455 87.966 124.715 88.1047 125.096C88.3127 125.477 88.33 125.876 88.1567 126.292C87.9833 126.708 87.706 127.003 87.3247 127.176C85.7647 127.869 84.3607 128.528 83.1127 129.152C81.8993 129.776 80.9287 130.279 80.2007 130.66C79.4727 131.041 79.1087 131.232 79.1087 131.232C78.9007 131.405 78.6407 131.492 78.3287 131.492ZM93.2356 134.56C93.0623 134.56 92.8889 134.543 92.7156 134.508C92.5423 134.508 92.3516 134.491 92.1436 134.456C91.7276 134.317 91.3809 134.023 91.1036 133.572C90.9649 133.295 90.8956 132.913 90.8956 132.428C90.8956 131.943 91.0516 131.145 91.3636 130.036C91.6756 128.927 92.1783 127.28 92.8716 125.096C92.1089 125.373 91.2249 125.703 90.2196 126.084C89.2489 126.465 88.2436 126.847 87.2036 127.228C86.8223 127.367 86.4409 127.349 86.0596 127.176C85.6436 126.968 85.3489 126.656 85.1756 126.24C85.0369 125.859 85.0716 125.477 85.2796 125.096C85.4529 124.68 85.7476 124.385 86.1636 124.212C87.6543 123.657 89.0409 123.137 90.3236 122.652C91.6409 122.167 92.7156 121.768 93.5476 121.456C94.3796 121.144 94.7956 120.988 94.7956 120.988C95.1423 120.849 95.4716 120.832 95.7836 120.936C96.2343 121.04 96.5636 121.3 96.7716 121.716C96.9449 122.028 96.9969 122.305 96.9276 122.548C96.8929 122.791 96.8409 123.051 96.7716 123.328C96.7023 123.467 96.6503 123.623 96.6156 123.796C96.5809 123.935 96.5289 124.108 96.4596 124.316C96.2169 124.905 95.9569 125.633 95.6796 126.5C95.4369 127.332 95.1769 128.181 94.8996 129.048C94.7263 129.533 94.5876 129.949 94.4836 130.296C94.3796 130.643 94.2929 130.955 94.2236 131.232C94.8823 131.093 95.8356 130.695 97.0836 130.036C98.1583 129.447 99.3023 128.771 100.516 128.008C101.764 127.211 103.029 126.379 104.312 125.512C104.589 125.339 104.866 125.165 105.144 124.992C105.456 124.819 105.733 124.628 105.976 124.42C106.357 124.177 106.756 124.108 107.172 124.212C107.622 124.281 107.969 124.507 108.212 124.888C108.454 125.235 108.524 125.616 108.42 126.032C108.35 126.448 108.125 126.777 107.744 127.02C107.466 127.228 107.172 127.436 106.86 127.644C106.582 127.817 106.288 128.008 105.976 128.216C104.658 129.083 103.376 129.915 102.128 130.712C100.88 131.509 99.7009 132.203 98.5916 132.792C96.3383 133.971 94.5529 134.56 93.2356 134.56ZM125.197 130.972C124.955 130.972 124.729 130.937 124.521 130.868C123.863 130.729 123.395 130.331 123.117 129.672C122.909 129.083 122.961 128.424 123.273 127.696C123.62 126.968 124.071 126.153 124.625 125.252C124.833 124.94 125.024 124.628 125.197 124.316C125.405 123.969 125.579 123.657 125.717 123.38C125.787 123.276 125.839 123.189 125.873 123.12C125.908 123.016 125.943 122.929 125.977 122.86C124.937 122.687 123.724 122.652 122.337 122.756C120.985 122.825 119.46 123.085 117.761 123.536C116.271 123.917 114.659 124.42 112.925 125.044C111.227 125.633 109.424 126.344 107.517 127.176C107.136 127.315 106.755 127.315 106.373 127.176C105.992 127.037 105.715 126.777 105.541 126.396C105.333 126.015 105.316 125.616 105.489 125.2C105.663 124.749 105.94 124.455 106.321 124.316C108.263 123.449 110.117 122.704 111.885 122.08C113.688 121.421 115.387 120.901 116.981 120.52C121.245 119.445 124.729 119.272 127.433 120C128.231 120.208 128.785 120.693 129.097 121.456C129.409 122.219 129.34 123.068 128.889 124.004C128.439 124.94 127.901 125.911 127.277 126.916C127.243 126.985 127.191 127.072 127.121 127.176C127.052 127.28 126.983 127.401 126.913 127.54C127.711 127.367 128.889 127.02 130.449 126.5C132.009 125.98 134.159 125.217 136.897 124.212C137.279 124.073 137.66 124.108 138.041 124.316C138.457 124.489 138.735 124.784 138.873 125.2C139.047 125.581 139.047 125.98 138.873 126.396C138.7 126.777 138.388 127.055 137.937 127.228C136.343 127.783 134.887 128.285 133.569 128.736C132.252 129.187 131.073 129.568 130.033 129.88C128.647 130.296 127.589 130.591 126.861 130.764C126.133 130.903 125.579 130.972 125.197 130.972ZM149.422 131.492C149.006 131.492 148.66 131.371 148.382 131.128C147.828 130.677 147.672 130.105 147.914 129.412C147.914 129.377 148.036 128.961 148.278 128.164C148.556 127.367 148.868 126.465 149.214 125.46C149.388 124.871 149.544 124.368 149.682 123.952C149.821 123.501 149.942 123.103 150.046 122.756C149.11 123.103 147.966 123.536 146.614 124.056C145.262 124.541 143.841 125.061 142.35 125.616C140.894 126.171 139.473 126.708 138.086 127.228C137.705 127.367 137.324 127.349 136.942 127.176C136.526 126.968 136.232 126.656 136.058 126.24C135.92 125.859 135.954 125.477 136.162 125.096C136.336 124.68 136.63 124.385 137.046 124.212C138.606 123.657 140.218 123.085 141.882 122.496C143.546 121.872 145.089 121.3 146.51 120.78C147.932 120.225 149.093 119.775 149.994 119.428C150.896 119.081 151.346 118.908 151.346 118.908C151.52 118.873 151.693 118.856 151.866 118.856C152.04 118.821 152.196 118.839 152.334 118.908C152.82 118.977 153.166 119.255 153.374 119.74C153.548 120.017 153.617 120.381 153.582 120.832C153.582 121.248 153.496 121.855 153.322 122.652C153.218 123.103 153.08 123.605 152.906 124.16C152.768 124.68 152.577 125.287 152.334 125.98C152.3 126.119 152.265 126.24 152.23 126.344C152.196 126.448 152.161 126.569 152.126 126.708C153.513 125.945 155.212 125.148 157.222 124.316C157.604 124.143 157.985 124.143 158.366 124.316C158.782 124.455 159.06 124.715 159.198 125.096C159.406 125.477 159.424 125.876 159.25 126.292C159.077 126.708 158.8 127.003 158.418 127.176C156.858 127.869 155.454 128.528 154.206 129.152C152.993 129.776 152.022 130.279 151.294 130.66C150.566 131.041 150.202 131.232 150.202 131.232C149.994 131.405 149.734 131.492 149.422 131.492Z" fill="white"/>
<defs>
<linearGradient id="paint0_linear_253_506" x1="242.018" y1="372.22" x2="167.008" y2="16.3089" gradientUnits="userSpaceOnUse">
<stop stop-color="#2492FF"/>
<stop offset="1" stop-color="#045C94"/>
</linearGradient>
</defs>
</svg>
