<svg width="450" height="500" viewBox="0 0 450 500" fill="none" xmlns="http://www.w3.org/2000/svg">
<path fill-rule="evenodd" clip-rule="evenodd" d="M112 50C112 22.3858 89.6142 0 62 0H50C22.3858 0 0 22.3858 0 50V450C0 477.614 22.3858 500 50 500H400C427.614 500 450 477.614 450 450V50C450 22.3858 427.614 0 400 0H388C360.386 0 338 22.3858 338 50V80C338 107.614 315.614 130 288 130H162C134.386 130 112 107.614 112 80V50Z" fill="url(#paint0_linear_344_527)"/>
<path d="M26.028 321.752C26.028 321.509 26.0627 321.284 26.132 321.076C26.2707 320.417 26.6693 319.949 27.328 319.672C27.9173 319.464 28.576 319.516 29.304 319.828C30.032 320.175 30.8467 320.625 31.748 321.18C32.06 321.388 32.372 321.579 32.684 321.752C33.0307 321.96 33.3427 322.133 33.62 322.272C33.724 322.341 33.8107 322.393 33.88 322.428C33.984 322.463 34.0707 322.497 34.14 322.532C34.3133 321.492 34.348 320.279 34.244 318.892C34.1747 317.54 33.9147 316.015 33.464 314.316C33.0827 312.825 32.58 311.213 31.956 309.48C31.3667 307.781 30.656 305.979 29.824 304.072C29.6853 303.691 29.6853 303.309 29.824 302.928C29.9627 302.547 30.2227 302.269 30.604 302.096C30.9853 301.888 31.384 301.871 31.8 302.044C32.2507 302.217 32.5453 302.495 32.684 302.876C33.5507 304.817 34.296 306.672 34.92 308.44C35.5787 310.243 36.0987 311.941 36.48 313.536C37.5547 317.8 37.728 321.284 37 323.988C36.792 324.785 36.3067 325.34 35.544 325.652C34.7813 325.964 33.932 325.895 32.996 325.444C32.06 324.993 31.0893 324.456 30.084 323.832C30.0147 323.797 29.928 323.745 29.824 323.676C29.72 323.607 29.5987 323.537 29.46 323.468C29.6333 324.265 29.98 325.444 30.5 327.004C31.02 328.564 31.7827 330.713 32.788 333.452C32.9267 333.833 32.892 334.215 32.684 334.596C32.5107 335.012 32.216 335.289 31.8 335.428C31.4187 335.601 31.02 335.601 30.604 335.428C30.2227 335.255 29.9453 334.943 29.772 334.492C29.2173 332.897 28.7147 331.441 28.264 330.124C27.8133 328.807 27.432 327.628 27.12 326.588C26.704 325.201 26.4093 324.144 26.236 323.416C26.0973 322.688 26.028 322.133 26.028 321.752ZM22.44 340.673C22.44 340.5 22.4573 340.326 22.492 340.153C22.492 339.98 22.5093 339.789 22.544 339.581C22.6827 339.165 22.9773 338.818 23.428 338.541C23.7053 338.402 24.0867 338.333 24.572 338.333C25.0573 338.333 25.8547 338.489 26.964 338.801C28.0733 339.113 29.72 339.616 31.904 340.309C31.6267 339.546 31.2973 338.662 30.916 337.657C30.5347 336.686 30.1533 335.681 29.772 334.641C29.6333 334.26 29.6507 333.878 29.824 333.497C30.032 333.081 30.344 332.786 30.76 332.613C31.1413 332.474 31.5227 332.509 31.904 332.717C32.32 332.89 32.6147 333.185 32.788 333.601C33.3427 335.092 33.8627 336.478 34.348 337.761C34.8333 339.078 35.232 340.153 35.544 340.985C35.856 341.817 36.012 342.233 36.012 342.233C36.1507 342.58 36.168 342.909 36.064 343.221C35.96 343.672 35.7 344.001 35.284 344.209C34.972 344.382 34.6947 344.434 34.452 344.365C34.2093 344.33 33.9493 344.278 33.672 344.209C33.5333 344.14 33.3773 344.088 33.204 344.053C33.0653 344.018 32.892 343.966 32.684 343.897C32.0947 343.654 31.3667 343.394 30.5 343.117C29.668 342.874 28.8187 342.614 27.952 342.337C27.4667 342.164 27.0507 342.025 26.704 341.921C26.3573 341.817 26.0453 341.73 25.768 341.661C25.9067 342.32 26.3053 343.273 26.964 344.521C27.5533 345.596 28.2293 346.74 28.992 347.953C29.7893 349.201 30.6213 350.466 31.488 351.749C31.6613 352.026 31.8347 352.304 32.008 352.581C32.1813 352.893 32.372 353.17 32.58 353.413C32.8227 353.794 32.892 354.193 32.788 354.609C32.7187 355.06 32.4933 355.406 32.112 355.649C31.7653 355.892 31.384 355.961 30.968 355.857C30.552 355.788 30.2227 355.562 29.98 355.181C29.772 354.904 29.564 354.609 29.356 354.297C29.1827 354.02 28.992 353.725 28.784 353.413C27.9173 352.096 27.0853 350.813 26.288 349.565C25.4907 348.317 24.7973 347.138 24.208 346.029C23.0293 343.776 22.44 341.99 22.44 340.673ZM25.508 366.239C25.508 365.823 25.6293 365.476 25.872 365.199C26.3227 364.644 26.8947 364.488 27.588 364.731C27.6227 364.731 28.0387 364.852 28.836 365.095C29.6333 365.372 30.5347 365.684 31.54 366.031C32.1293 366.204 32.632 366.36 33.048 366.499C33.4987 366.637 33.8973 366.759 34.244 366.863C33.8973 365.927 33.464 364.783 32.944 363.431C32.4587 362.079 31.9387 360.657 31.384 359.167C30.8293 357.711 30.292 356.289 29.772 354.903C29.6333 354.521 29.6507 354.14 29.824 353.759C30.032 353.343 30.344 353.048 30.76 352.875C31.1413 352.736 31.5227 352.771 31.904 352.979C32.32 353.152 32.6147 353.447 32.788 353.863C33.3427 355.423 33.9147 357.035 34.504 358.699C35.128 360.363 35.7 361.905 36.22 363.327C36.7747 364.748 37.2253 365.909 37.572 366.811C37.9187 367.712 38.092 368.163 38.092 368.163C38.1267 368.336 38.144 368.509 38.144 368.683C38.1787 368.856 38.1613 369.012 38.092 369.151C38.0227 369.636 37.7453 369.983 37.26 370.191C36.9827 370.364 36.6187 370.433 36.168 370.399C35.752 370.399 35.1453 370.312 34.348 370.139C33.8973 370.035 33.3947 369.896 32.84 369.723C32.32 369.584 31.7133 369.393 31.02 369.151C30.8813 369.116 30.76 369.081 30.656 369.047C30.552 369.012 30.4307 368.977 30.292 368.943C31.0547 370.329 31.852 372.028 32.684 374.039C32.8573 374.42 32.8573 374.801 32.684 375.183C32.5453 375.599 32.2853 375.876 31.904 376.015C31.5227 376.223 31.124 376.24 30.708 376.067C30.292 375.893 29.9973 375.616 29.824 375.235C29.1307 373.675 28.472 372.271 27.848 371.023C27.224 369.809 26.7213 368.839 26.34 368.111C25.9587 367.383 25.768 367.019 25.768 367.019C25.5947 366.811 25.508 366.551 25.508 366.239ZM26.028 392.846C26.028 392.603 26.0627 392.378 26.132 392.17C26.2707 391.511 26.6693 391.043 27.328 390.766C27.9173 390.558 28.576 390.61 29.304 390.922C30.032 391.268 30.8467 391.719 31.748 392.274C32.06 392.482 32.372 392.672 32.684 392.846C33.0307 393.054 33.3427 393.227 33.62 393.366C33.724 393.435 33.8107 393.487 33.88 393.522C33.984 393.556 34.0707 393.591 34.14 393.626C34.3133 392.586 34.348 391.372 34.244 389.986C34.1747 388.634 33.9147 387.108 33.464 385.41C33.0827 383.919 32.58 382.307 31.956 380.574C31.3667 378.875 30.656 377.072 29.824 375.166C29.6853 374.784 29.6853 374.403 29.824 374.022C29.9627 373.64 30.2227 373.363 30.604 373.19C30.9853 372.982 31.384 372.964 31.8 373.138C32.2507 373.311 32.5453 373.588 32.684 373.97C33.5507 375.911 34.296 377.766 34.92 379.534C35.5787 381.336 36.0987 383.035 36.48 384.63C37.5547 388.894 37.728 392.378 37 395.082C36.792 395.879 36.3067 396.434 35.544 396.746C34.7813 397.058 33.932 396.988 32.996 396.538C32.06 396.087 31.0893 395.55 30.084 394.926C30.0147 394.891 29.928 394.839 29.824 394.77C29.72 394.7 29.5987 394.631 29.46 394.562C29.6333 395.359 29.98 396.538 30.5 398.098C31.02 399.658 31.7827 401.807 32.788 404.546C32.9267 404.927 32.892 405.308 32.684 405.69C32.5107 406.106 32.216 406.383 31.8 406.522C31.4187 406.695 31.02 406.695 30.604 406.522C30.2227 406.348 29.9453 406.036 29.772 405.586C29.2173 403.991 28.7147 402.535 28.264 401.218C27.8133 399.9 27.432 398.722 27.12 397.682C26.704 396.295 26.4093 395.238 26.236 394.51C26.0973 393.782 26.028 393.227 26.028 392.846ZM22.544 409.375C22.544 409.132 22.5787 408.89 22.648 408.647C22.6827 408.404 22.7173 408.162 22.752 407.919C22.9253 407.295 23.2893 406.862 23.844 406.619C24.5373 406.307 25.3693 406.307 26.34 406.619C27.3453 406.966 28.628 407.52 30.188 408.283C30.4653 408.422 30.7773 408.56 31.124 408.699C31.4707 408.872 31.8 409.028 32.112 409.167C31.9387 408.716 31.644 408.231 31.228 407.711C30.8467 407.226 30.448 406.723 30.032 406.203C29.7893 405.856 29.6853 405.475 29.72 405.059C29.7893 404.608 29.98 404.244 30.292 403.967C30.6387 403.724 31.02 403.638 31.436 403.707C31.852 403.742 32.216 403.915 32.528 404.227C32.8747 404.712 33.256 405.215 33.672 405.735C34.088 406.29 34.4347 406.844 34.712 407.399C35.44 408.82 35.6307 410.12 35.284 411.299C35.18 411.854 34.8333 412.27 34.244 412.547C33.6893 412.824 32.996 412.807 32.164 412.495C31.332 412.218 30.2053 411.732 28.784 411.039C28.368 410.866 27.952 410.675 27.536 410.467C27.12 410.294 26.7213 410.12 26.34 409.947C26.2013 409.912 26.08 409.86 25.976 409.791C25.872 409.756 25.768 409.722 25.664 409.687C25.768 410.415 26.132 411.472 26.756 412.859C27.4147 414.28 28.6973 416.187 30.604 418.579C31.6093 419.862 32.58 421.023 33.516 422.063C34.4867 423.103 35.284 423.935 35.908 424.559C36.532 425.183 36.844 425.495 36.844 425.495C37.3293 425.911 37.4853 426.414 37.312 427.003C37.2773 427.28 37.156 427.506 36.948 427.679C36.7747 427.852 36.6013 427.991 36.428 428.095C35.9427 428.338 35.3707 428.355 34.712 428.147C34.088 427.974 33.0653 427.592 31.644 427.003C31.1933 426.795 30.7427 426.587 30.292 426.379C29.8413 426.206 29.4253 426.032 29.044 425.859C28.9053 425.824 28.784 425.79 28.68 425.755C28.6107 425.755 28.5413 425.738 28.472 425.703C28.576 426.362 28.8533 427.055 29.304 427.783C29.7893 428.546 30.3267 429.274 30.916 429.967C31.5053 430.695 32.008 431.302 32.424 431.787C32.736 432.134 32.8747 432.515 32.84 432.931C32.8053 433.347 32.632 433.711 32.32 434.023C31.9733 434.3 31.592 434.422 31.176 434.387C30.76 434.387 30.396 434.214 30.084 433.867C29.148 432.792 28.264 431.683 27.432 430.539C26.6 429.43 25.976 428.303 25.56 427.159C25.1787 426.05 25.1267 424.923 25.404 423.779C25.6467 423.224 25.9933 422.826 26.444 422.583C26.9293 422.375 27.4667 422.306 28.056 422.375C28.6453 422.479 29.3733 422.687 30.24 422.999C29.8933 422.618 29.564 422.219 29.252 421.803C28.94 421.422 28.5933 421.006 28.212 420.555C24.4333 415.771 22.544 412.044 22.544 409.375ZM26.028 451.143C26.028 450.9 26.0627 450.675 26.132 450.467C26.2707 449.808 26.6693 449.34 27.328 449.063C27.9173 448.855 28.576 448.907 29.304 449.219C30.032 449.565 30.8467 450.016 31.748 450.571C32.06 450.779 32.372 450.969 32.684 451.143C33.0307 451.351 33.3427 451.524 33.62 451.663C33.724 451.732 33.8107 451.784 33.88 451.819C33.984 451.853 34.0707 451.888 34.14 451.923C34.3133 450.883 34.348 449.669 34.244 448.283C34.1747 446.931 33.9147 445.405 33.464 443.707C33.0827 442.216 32.58 440.604 31.956 438.871C31.3667 437.172 30.656 435.369 29.824 433.463C29.6853 433.081 29.6853 432.7 29.824 432.319C29.9627 431.937 30.2227 431.66 30.604 431.487C30.9853 431.279 31.384 431.261 31.8 431.435C32.2507 431.608 32.5453 431.885 32.684 432.267C33.5507 434.208 34.296 436.063 34.92 437.831C35.5787 439.633 36.0987 441.332 36.48 442.927C37.5547 447.191 37.728 450.675 37 453.379C36.792 454.176 36.3067 454.731 35.544 455.043C34.7813 455.355 33.932 455.285 32.996 454.835C32.06 454.384 31.0893 453.847 30.084 453.223C30.0147 453.188 29.928 453.136 29.824 453.067C29.72 452.997 29.5987 452.928 29.46 452.859C29.6333 453.656 29.98 454.835 30.5 456.395C31.02 457.955 31.7827 460.104 32.788 462.843C32.9267 463.224 32.892 463.605 32.684 463.987C32.5107 464.403 32.216 464.68 31.8 464.819C31.4187 464.992 31.02 464.992 30.604 464.819C30.2227 464.645 29.9453 464.333 29.772 463.883C29.2173 462.288 28.7147 460.832 28.264 459.515C27.8133 458.197 27.432 457.019 27.12 455.979C26.704 454.592 26.4093 453.535 26.236 452.807C26.0973 452.079 26.028 451.524 26.028 451.143Z" fill="white"/>
<path d="M405.456 356.34C405.456 356.583 405.421 356.825 405.352 357.068C405.317 357.311 405.283 357.553 405.248 357.796C405.075 358.42 404.711 358.853 404.156 359.096C403.463 359.408 402.631 359.408 401.66 359.096C400.655 358.749 399.372 358.195 397.812 357.432C397.535 357.293 397.223 357.155 396.876 357.016C396.529 356.843 396.2 356.687 395.888 356.548C396.061 356.999 396.356 357.484 396.772 358.004C397.153 358.489 397.552 358.992 397.968 359.512C398.211 359.859 398.315 360.24 398.28 360.656C398.211 361.107 398.02 361.471 397.708 361.748C397.361 361.991 396.98 362.077 396.564 362.008C396.148 361.973 395.784 361.8 395.472 361.488C395.125 361.003 394.744 360.5 394.328 359.98C393.912 359.425 393.565 358.871 393.288 358.316C392.56 356.895 392.369 355.595 392.716 354.416C392.82 353.861 393.167 353.445 393.756 353.168C394.311 352.891 395.004 352.908 395.836 353.22C396.668 353.497 397.795 353.983 399.216 354.676C399.632 354.849 400.048 355.04 400.464 355.248C400.88 355.421 401.279 355.595 401.66 355.768C401.799 355.803 401.92 355.855 402.024 355.924C402.128 355.959 402.232 355.993 402.336 356.028C402.232 355.3 401.868 354.243 401.244 352.856C400.585 351.435 399.303 349.528 397.396 347.136C396.391 345.853 395.42 344.692 394.484 343.652C393.513 342.612 392.716 341.78 392.092 341.156C391.468 340.532 391.156 340.22 391.156 340.22C390.671 339.804 390.515 339.301 390.688 338.712C390.723 338.435 390.844 338.209 391.052 338.036C391.225 337.863 391.399 337.724 391.572 337.62C392.057 337.377 392.629 337.36 393.288 337.568C393.912 337.741 394.935 338.123 396.356 338.712C396.807 338.92 397.257 339.128 397.708 339.336C398.159 339.509 398.575 339.683 398.956 339.856C399.095 339.891 399.216 339.925 399.32 339.96C399.389 339.96 399.459 339.977 399.528 340.012C399.424 339.353 399.147 338.66 398.696 337.932C398.211 337.169 397.673 336.441 397.084 335.748C396.495 335.02 395.992 334.413 395.576 333.928C395.264 333.581 395.125 333.2 395.16 332.784C395.195 332.368 395.368 332.004 395.68 331.692C396.027 331.415 396.408 331.293 396.824 331.328C397.24 331.328 397.604 331.501 397.916 331.848C398.852 332.923 399.736 334.032 400.568 335.176C401.4 336.285 402.024 337.412 402.44 338.556C402.821 339.665 402.873 340.792 402.596 341.936C402.353 342.491 402.007 342.889 401.556 343.132C401.071 343.34 400.533 343.409 399.944 343.34C399.355 343.236 398.627 343.028 397.76 342.716C398.107 343.097 398.436 343.496 398.748 343.912C399.06 344.293 399.407 344.709 399.788 345.16C403.567 349.944 405.456 353.671 405.456 356.34ZM400.932 325.908C400.932 326.082 400.915 326.22 400.88 326.324C400.741 326.879 400.533 327.278 400.256 327.52C399.944 327.728 399.701 327.867 399.528 327.936C398.765 328.179 397.985 328.092 397.188 327.676C396.356 327.26 395.489 326.723 394.588 326.064C394.311 325.856 394.016 325.666 393.704 325.492C393.357 325.284 393.063 325.111 392.82 324.972C392.785 324.938 392.716 324.886 392.612 324.816C392.681 325.024 392.785 325.284 392.924 325.596C393.063 325.874 393.271 326.203 393.548 326.584C393.929 327.208 394.432 327.867 395.056 328.56C395.645 329.254 396.269 329.964 396.928 330.692C397.067 330.866 397.223 331.056 397.396 331.264C397.569 331.438 397.743 331.611 397.916 331.784C398.193 332.096 398.332 332.46 398.332 332.876C398.297 333.327 398.107 333.691 397.76 333.968C397.448 334.28 397.084 334.419 396.668 334.384C396.217 334.35 395.853 334.176 395.576 333.864C395.403 333.691 395.229 333.5 395.056 333.292C394.883 333.119 394.727 332.946 394.588 332.772C393.583 331.663 392.664 330.571 391.832 329.496C390.965 328.422 390.307 327.364 389.856 326.324C389.405 325.284 389.319 324.279 389.596 323.308C389.735 322.719 389.977 322.303 390.324 322.06C390.636 321.783 390.913 321.627 391.156 321.592C391.919 321.28 392.733 321.35 393.6 321.8C394.432 322.251 395.351 322.823 396.356 323.516C396.425 323.586 396.547 323.672 396.72 323.776C396.859 323.846 396.997 323.932 397.136 324.036C396.928 323.516 396.668 322.84 396.356 322.008C396.044 321.176 395.663 320.171 395.212 318.992C395.073 318.542 395.108 318.126 395.316 317.744C395.489 317.363 395.784 317.103 396.2 316.964C396.581 316.791 396.98 316.808 397.396 317.016C397.777 317.19 398.055 317.467 398.228 317.848C398.609 318.958 398.956 319.963 399.268 320.864C399.58 321.766 399.857 322.528 400.1 323.152C400.239 323.499 400.36 323.811 400.464 324.088C400.533 324.331 400.603 324.556 400.672 324.764C400.741 325.007 400.811 325.215 400.88 325.388C400.915 325.562 400.932 325.735 400.932 325.908ZM401.972 300.252C401.972 300.495 401.937 300.72 401.868 300.928C401.729 301.587 401.331 302.055 400.672 302.332C400.083 302.54 399.424 302.488 398.696 302.176C397.968 301.829 397.153 301.379 396.252 300.824C395.94 300.616 395.628 300.425 395.316 300.252C394.969 300.044 394.657 299.871 394.38 299.732C394.276 299.663 394.189 299.611 394.12 299.576C394.016 299.541 393.929 299.507 393.86 299.472C393.687 300.512 393.652 301.725 393.756 303.112C393.825 304.464 394.085 305.989 394.536 307.688C394.917 309.179 395.42 310.791 396.044 312.524C396.633 314.223 397.344 316.025 398.176 317.932C398.315 318.313 398.315 318.695 398.176 319.076C398.037 319.457 397.777 319.735 397.396 319.908C397.015 320.116 396.616 320.133 396.2 319.96C395.749 319.787 395.455 319.509 395.316 319.128C394.449 317.187 393.704 315.332 393.08 313.564C392.421 311.761 391.901 310.063 391.52 308.468C390.445 304.204 390.272 300.72 391 298.016C391.208 297.219 391.693 296.664 392.456 296.352C393.219 296.04 394.068 296.109 395.004 296.56C395.94 297.011 396.911 297.548 397.916 298.172C397.985 298.207 398.072 298.259 398.176 298.328C398.28 298.397 398.401 298.467 398.54 298.536C398.367 297.739 398.02 296.56 397.5 295C396.98 293.44 396.217 291.291 395.212 288.552C395.073 288.171 395.108 287.789 395.316 287.408C395.489 286.992 395.784 286.715 396.2 286.576C396.581 286.403 396.98 286.403 397.396 286.576C397.777 286.749 398.055 287.061 398.228 287.512C398.783 289.107 399.285 290.563 399.736 291.88C400.187 293.197 400.568 294.376 400.88 295.416C401.296 296.803 401.591 297.86 401.764 298.588C401.903 299.316 401.972 299.871 401.972 300.252ZM405.456 283.723C405.456 283.965 405.421 284.208 405.352 284.451C405.317 284.693 405.283 284.936 405.248 285.179C405.075 285.803 404.711 286.236 404.156 286.479C403.463 286.791 402.631 286.791 401.66 286.479C400.655 286.132 399.372 285.577 397.812 284.815C397.535 284.676 397.223 284.537 396.876 284.399C396.529 284.225 396.2 284.069 395.888 283.931C396.061 284.381 396.356 284.867 396.772 285.387C397.153 285.872 397.552 286.375 397.968 286.895C398.211 287.241 398.315 287.623 398.28 288.039C398.211 288.489 398.02 288.853 397.708 289.131C397.361 289.373 396.98 289.46 396.564 289.391C396.148 289.356 395.784 289.183 395.472 288.871C395.125 288.385 394.744 287.883 394.328 287.363C393.912 286.808 393.565 286.253 393.288 285.699C392.56 284.277 392.369 282.977 392.716 281.799C392.82 281.244 393.167 280.828 393.756 280.551C394.311 280.273 395.004 280.291 395.836 280.603C396.668 280.88 397.795 281.365 399.216 282.059C399.632 282.232 400.048 282.423 400.464 282.631C400.88 282.804 401.279 282.977 401.66 283.151C401.799 283.185 401.92 283.237 402.024 283.307C402.128 283.341 402.232 283.376 402.336 283.411C402.232 282.683 401.868 281.625 401.244 280.239C400.585 278.817 399.303 276.911 397.396 274.519C396.391 273.236 395.42 272.075 394.484 271.035C393.513 269.995 392.716 269.163 392.092 268.539C391.468 267.915 391.156 267.603 391.156 267.603C390.671 267.187 390.515 266.684 390.688 266.095C390.723 265.817 390.844 265.592 391.052 265.419C391.225 265.245 391.399 265.107 391.572 265.003C392.057 264.76 392.629 264.743 393.288 264.951C393.912 265.124 394.935 265.505 396.356 266.095C396.807 266.303 397.257 266.511 397.708 266.719C398.159 266.892 398.575 267.065 398.956 267.239C399.095 267.273 399.216 267.308 399.32 267.343C399.389 267.343 399.459 267.36 399.528 267.395C399.424 266.736 399.147 266.043 398.696 265.315C398.211 264.552 397.673 263.824 397.084 263.131C396.495 262.403 395.992 261.796 395.576 261.311C395.264 260.964 395.125 260.583 395.16 260.167C395.195 259.751 395.368 259.387 395.68 259.075C396.027 258.797 396.408 258.676 396.824 258.711C397.24 258.711 397.604 258.884 397.916 259.231C398.852 260.305 399.736 261.415 400.568 262.559C401.4 263.668 402.024 264.795 402.44 265.939C402.821 267.048 402.873 268.175 402.596 269.319C402.353 269.873 402.007 270.272 401.556 270.515C401.071 270.723 400.533 270.792 399.944 270.723C399.355 270.619 398.627 270.411 397.76 270.099C398.107 270.48 398.436 270.879 398.748 271.295C399.06 271.676 399.407 272.092 399.788 272.543C403.567 277.327 405.456 281.053 405.456 283.723ZM402.492 223.062C402.492 223.478 402.371 223.825 402.128 224.102C401.677 224.657 401.105 224.813 400.412 224.57C400.377 224.57 399.961 224.449 399.164 224.206C398.367 223.929 397.465 223.617 396.46 223.27C395.871 223.097 395.368 222.941 394.952 222.802C394.501 222.663 394.103 222.542 393.756 222.438C394.103 223.374 394.536 224.518 395.056 225.87C395.541 227.222 396.061 228.643 396.616 230.134C397.171 231.59 397.708 233.011 398.228 234.398C398.367 234.779 398.349 235.161 398.176 235.542C397.968 235.958 397.656 236.253 397.24 236.426C396.859 236.565 396.477 236.53 396.096 236.322C395.68 236.149 395.385 235.854 395.212 235.438C394.657 233.878 394.085 232.266 393.496 230.602C392.872 228.938 392.3 227.395 391.78 225.974C391.225 224.553 390.775 223.391 390.428 222.49C390.081 221.589 389.908 221.138 389.908 221.138C389.873 220.965 389.856 220.791 389.856 220.618C389.821 220.445 389.839 220.289 389.908 220.15C389.977 219.665 390.255 219.318 390.74 219.11C391.017 218.937 391.381 218.867 391.832 218.902C392.248 218.902 392.855 218.989 393.652 219.162C394.103 219.266 394.605 219.405 395.16 219.578C395.68 219.717 396.287 219.907 396.98 220.15C397.119 220.185 397.24 220.219 397.344 220.254C397.448 220.289 397.569 220.323 397.708 220.358C396.945 218.971 396.148 217.273 395.316 215.262C395.143 214.881 395.143 214.499 395.316 214.118C395.455 213.702 395.715 213.425 396.096 213.286C396.477 213.078 396.876 213.061 397.292 213.234C397.708 213.407 398.003 213.685 398.176 214.066C398.869 215.626 399.528 217.03 400.152 218.278C400.776 219.491 401.279 220.462 401.66 221.19C402.041 221.918 402.232 222.282 402.232 222.282C402.405 222.49 402.492 222.75 402.492 223.062ZM405.56 208.155C405.56 208.328 405.543 208.502 405.508 208.675C405.508 208.848 405.491 209.039 405.456 209.247C405.317 209.663 405.023 210.01 404.572 210.287C404.295 210.426 403.913 210.495 403.428 210.495C402.943 210.495 402.145 210.339 401.036 210.027C399.927 209.715 398.28 209.212 396.096 208.519C396.373 209.282 396.703 210.166 397.084 211.171C397.465 212.142 397.847 213.147 398.228 214.187C398.367 214.568 398.349 214.95 398.176 215.331C397.968 215.747 397.656 216.042 397.24 216.215C396.859 216.354 396.477 216.319 396.096 216.111C395.68 215.938 395.385 215.643 395.212 215.227C394.657 213.736 394.137 212.35 393.652 211.067C393.167 209.75 392.768 208.675 392.456 207.843C392.144 207.011 391.988 206.595 391.988 206.595C391.849 206.248 391.832 205.919 391.936 205.607C392.04 205.156 392.3 204.827 392.716 204.619C393.028 204.446 393.305 204.394 393.548 204.463C393.791 204.498 394.051 204.55 394.328 204.619C394.467 204.688 394.623 204.74 394.796 204.775C394.935 204.81 395.108 204.862 395.316 204.931C395.905 205.174 396.633 205.434 397.5 205.711C398.332 205.954 399.181 206.214 400.048 206.491C400.533 206.664 400.949 206.803 401.296 206.907C401.643 207.011 401.955 207.098 402.232 207.167C402.093 206.508 401.695 205.555 401.036 204.307C400.447 203.232 399.771 202.088 399.008 200.875C398.211 199.627 397.379 198.362 396.512 197.079C396.339 196.802 396.165 196.524 395.992 196.247C395.819 195.935 395.628 195.658 395.42 195.415C395.177 195.034 395.108 194.635 395.212 194.219C395.281 193.768 395.507 193.422 395.888 193.179C396.235 192.936 396.616 192.867 397.032 192.971C397.448 193.04 397.777 193.266 398.02 193.647C398.228 193.924 398.436 194.219 398.644 194.531C398.817 194.808 399.008 195.103 399.216 195.415C400.083 196.732 400.915 198.015 401.712 199.263C402.509 200.511 403.203 201.69 403.792 202.799C404.971 205.052 405.56 206.838 405.56 208.155ZM402.492 182.589C402.492 183.005 402.371 183.352 402.128 183.629C401.677 184.184 401.105 184.34 400.412 184.097C400.377 184.097 399.961 183.976 399.164 183.733C398.367 183.456 397.465 183.144 396.46 182.797C395.871 182.624 395.368 182.468 394.952 182.329C394.501 182.191 394.103 182.069 393.756 181.965C394.103 182.901 394.536 184.045 395.056 185.397C395.541 186.749 396.061 188.171 396.616 189.661C397.171 191.117 397.708 192.539 398.228 193.925C398.367 194.307 398.349 194.688 398.176 195.069C397.968 195.485 397.656 195.78 397.24 195.953C396.859 196.092 396.477 196.057 396.096 195.849C395.68 195.676 395.385 195.381 395.212 194.965C394.657 193.405 394.085 191.793 393.496 190.129C392.872 188.465 392.3 186.923 391.78 185.501C391.225 184.08 390.775 182.919 390.428 182.017C390.081 181.116 389.908 180.665 389.908 180.665C389.873 180.492 389.856 180.319 389.856 180.145C389.821 179.972 389.839 179.816 389.908 179.677C389.977 179.192 390.255 178.845 390.74 178.637C391.017 178.464 391.381 178.395 391.832 178.429C392.248 178.429 392.855 178.516 393.652 178.689C394.103 178.793 394.605 178.932 395.16 179.105C395.68 179.244 396.287 179.435 396.98 179.677C397.119 179.712 397.24 179.747 397.344 179.781C397.448 179.816 397.569 179.851 397.708 179.885C396.945 178.499 396.148 176.8 395.316 174.789C395.143 174.408 395.143 174.027 395.316 173.645C395.455 173.229 395.715 172.952 396.096 172.813C396.477 172.605 396.876 172.588 397.292 172.761C397.708 172.935 398.003 173.212 398.176 173.593C398.869 175.153 399.528 176.557 400.152 177.805C400.776 179.019 401.279 179.989 401.66 180.717C402.041 181.445 402.232 181.809 402.232 181.809C402.405 182.017 402.492 182.277 402.492 182.589ZM405.56 167.682C405.56 167.856 405.543 168.029 405.508 168.202C405.508 168.376 405.491 168.566 405.456 168.774C405.317 169.19 405.023 169.537 404.572 169.814C404.295 169.953 403.913 170.022 403.428 170.022C402.943 170.022 402.145 169.866 401.036 169.554C399.927 169.242 398.28 168.74 396.096 168.046C396.373 168.809 396.703 169.693 397.084 170.698C397.465 171.669 397.847 172.674 398.228 173.714C398.367 174.096 398.349 174.477 398.176 174.858C397.968 175.274 397.656 175.569 397.24 175.742C396.859 175.881 396.477 175.846 396.096 175.638C395.68 175.465 395.385 175.17 395.212 174.754C394.657 173.264 394.137 171.877 393.652 170.594C393.167 169.277 392.768 168.202 392.456 167.37C392.144 166.538 391.988 166.122 391.988 166.122C391.849 165.776 391.832 165.446 391.936 165.134C392.04 164.684 392.3 164.354 392.716 164.146C393.028 163.973 393.305 163.921 393.548 163.99C393.791 164.025 394.051 164.077 394.328 164.146C394.467 164.216 394.623 164.268 394.796 164.302C394.935 164.337 395.108 164.389 395.316 164.458C395.905 164.701 396.633 164.961 397.5 165.238C398.332 165.481 399.181 165.741 400.048 166.018C400.533 166.192 400.949 166.33 401.296 166.434C401.643 166.538 401.955 166.625 402.232 166.694C402.093 166.036 401.695 165.082 401.036 163.834C400.447 162.76 399.771 161.616 399.008 160.402C398.211 159.154 397.379 157.889 396.512 156.606C396.339 156.329 396.165 156.052 395.992 155.774C395.819 155.462 395.628 155.185 395.42 154.942C395.177 154.561 395.108 154.162 395.212 153.746C395.281 153.296 395.507 152.949 395.888 152.706C396.235 152.464 396.616 152.394 397.032 152.498C397.448 152.568 397.777 152.793 398.02 153.174C398.228 153.452 398.436 153.746 398.644 154.058C398.817 154.336 399.008 154.63 399.216 154.942C400.083 156.26 400.915 157.542 401.712 158.79C402.509 160.038 403.203 161.217 403.792 162.326C404.971 164.58 405.56 166.365 405.56 167.682ZM401.972 135.721C401.972 135.963 401.937 136.189 401.868 136.397C401.729 137.055 401.331 137.523 400.672 137.801C400.083 138.009 399.424 137.957 398.696 137.645C397.968 137.298 397.153 136.847 396.252 136.293C395.94 136.085 395.628 135.894 395.316 135.721C394.969 135.513 394.657 135.339 394.38 135.201C394.276 135.131 394.189 135.079 394.12 135.045C394.016 135.01 393.929 134.975 393.86 134.941C393.687 135.981 393.652 137.194 393.756 138.581C393.825 139.933 394.085 141.458 394.536 143.157C394.917 144.647 395.42 146.259 396.044 147.993C396.633 149.691 397.344 151.494 398.176 153.401C398.315 153.782 398.315 154.163 398.176 154.545C398.037 154.926 397.777 155.203 397.396 155.377C397.015 155.585 396.616 155.602 396.2 155.429C395.749 155.255 395.455 154.978 395.316 154.597C394.449 152.655 393.704 150.801 393.08 149.033C392.421 147.23 391.901 145.531 391.52 143.937C390.445 139.673 390.272 136.189 391 133.485C391.208 132.687 391.693 132.133 392.456 131.821C393.219 131.509 394.068 131.578 395.004 132.029C395.94 132.479 396.911 133.017 397.916 133.641C397.985 133.675 398.072 133.727 398.176 133.797C398.28 133.866 398.401 133.935 398.54 134.005C398.367 133.207 398.02 132.029 397.5 130.469C396.98 128.909 396.217 126.759 395.212 124.021C395.073 123.639 395.108 123.258 395.316 122.877C395.489 122.461 395.784 122.183 396.2 122.045C396.581 121.871 396.98 121.871 397.396 122.045C397.777 122.218 398.055 122.53 398.228 122.981C398.783 124.575 399.285 126.031 399.736 127.349C400.187 128.666 400.568 129.845 400.88 130.885C401.296 132.271 401.591 133.329 401.764 134.057C401.903 134.785 401.972 135.339 401.972 135.721ZM405.456 119.192C405.456 119.434 405.421 119.677 405.352 119.92C405.317 120.162 405.283 120.405 405.248 120.648C405.075 121.272 404.711 121.705 404.156 121.948C403.463 122.26 402.631 122.26 401.66 121.948C400.655 121.601 399.372 121.046 397.812 120.284C397.535 120.145 397.223 120.006 396.876 119.868C396.529 119.694 396.2 119.538 395.888 119.4C396.061 119.85 396.356 120.336 396.772 120.856C397.153 121.341 397.552 121.844 397.968 122.364C398.211 122.71 398.315 123.092 398.28 123.508C398.211 123.958 398.02 124.322 397.708 124.6C397.361 124.842 396.98 124.929 396.564 124.86C396.148 124.825 395.784 124.652 395.472 124.34C395.125 123.854 394.744 123.352 394.328 122.832C393.912 122.277 393.565 121.722 393.288 121.168C392.56 119.746 392.369 118.446 392.716 117.268C392.82 116.713 393.167 116.297 393.756 116.02C394.311 115.742 395.004 115.76 395.836 116.072C396.668 116.349 397.795 116.834 399.216 117.528C399.632 117.701 400.048 117.892 400.464 118.1C400.88 118.273 401.279 118.446 401.66 118.62C401.799 118.654 401.92 118.706 402.024 118.776C402.128 118.81 402.232 118.845 402.336 118.88C402.232 118.152 401.868 117.094 401.244 115.708C400.585 114.286 399.303 112.38 397.396 109.988C396.391 108.705 395.42 107.544 394.484 106.504C393.513 105.464 392.716 104.632 392.092 104.008C391.468 103.384 391.156 103.072 391.156 103.072C390.671 102.656 390.515 102.153 390.688 101.564C390.723 101.286 390.844 101.061 391.052 100.888C391.225 100.714 391.399 100.576 391.572 100.472C392.057 100.229 392.629 100.212 393.288 100.42C393.912 100.593 394.935 100.974 396.356 101.564C396.807 101.772 397.257 101.98 397.708 102.188C398.159 102.361 398.575 102.534 398.956 102.708C399.095 102.742 399.216 102.777 399.32 102.812C399.389 102.812 399.459 102.829 399.528 102.864C399.424 102.205 399.147 101.512 398.696 100.784C398.211 100.021 397.673 99.2929 397.084 98.5996C396.495 97.8716 395.992 97.2649 395.576 96.7796C395.264 96.4329 395.125 96.0516 395.16 95.6356C395.195 95.2196 395.368 94.8556 395.68 94.5436C396.027 94.2662 396.408 94.1449 396.824 94.1796C397.24 94.1796 397.604 94.3529 397.916 94.6996C398.852 95.7742 399.736 96.8836 400.568 98.0276C401.4 99.1369 402.024 100.264 402.44 101.408C402.821 102.517 402.873 103.644 402.596 104.788C402.353 105.342 402.007 105.741 401.556 105.984C401.071 106.192 400.533 106.261 399.944 106.192C399.355 106.088 398.627 105.88 397.76 105.568C398.107 105.949 398.436 106.348 398.748 106.764C399.06 107.145 399.407 107.561 399.788 108.012C403.567 112.796 405.456 116.522 405.456 119.192Z" fill="white"/>
<defs>
<linearGradient id="paint0_linear_344_527" x1="-1.93438e-05" y1="170" x2="351.062" y2="-119.837" gradientUnits="userSpaceOnUse">
<stop stop-color="#2492FF"/>
<stop offset="1" stop-color="#045C94"/>
</linearGradient>
</defs>
</svg>
