<svg width="24" height="24" viewBox="0 0 24 24" fill="none" xmlns="http://www.w3.org/2000/svg">
<rect width="24" height="24" rx="4" fill="url(#paint0_linear_237_42)"/>
<path d="M16.5 9.125C17.5312 9.125 18.375 9.96875 18.375 11.0234C18.375 11.7734 17.9062 12.4297 17.25 12.7344V14.5625C17.25 16.7422 15.3984 18.5 13.125 18.5C10.875 18.5 9.04688 16.8125 9 14.6797C7.28906 14.3281 6 12.8281 6 11V7.36719C6 7.10938 6.1875 6.875 6.44531 6.80469L7.92188 6.52344C8.22656 6.45312 8.50781 6.66406 8.57812 6.96875L8.64844 7.34375C8.71875 7.64844 8.50781 7.92969 8.20312 8L7.47656 8.14062V11C7.47656 12.2656 8.50781 13.2734 9.75 13.25C10.9922 13.25 11.9766 12.2188 11.9766 10.9766V8.14062L11.2734 8C10.9688 7.92969 10.7578 7.625 10.8281 7.32031L10.8984 6.96875C10.9688 6.66406 11.25 6.45312 11.5547 6.52344L13.0312 6.82812C13.2891 6.875 13.5 7.10938 13.5 7.36719V11C13.5 12.8281 12.1875 14.3281 10.5 14.6797C10.5469 15.9688 11.7188 17.0234 13.125 17.0234C14.5547 17.0234 15.75 15.9219 15.75 14.5859V12.7344C15.0703 12.4297 14.625 11.7734 14.625 11C14.625 9.96875 15.4453 9.125 16.5 9.125ZM16.5 11.5625C16.8047 11.5625 17.0625 11.3281 17.0625 11C17.0625 10.6953 16.8047 10.4375 16.5 10.4375C16.1719 10.4375 15.9375 10.6953 15.9375 11C15.9375 11.3281 16.1719 11.5625 16.5 11.5625Z" fill="white"/>
<defs>
<linearGradient id="paint0_linear_237_42" x1="0.330579" y1="14.8264" x2="23.5039" y2="15.707" gradientUnits="userSpaceOnUse">
<stop stopColor="#2492FF"/>
<stop offset="1" stopColor="#045C94"/>
</linearGradient>
</defs>
</svg>
