<svg width="21" height="21" viewBox="0 0 21 21" fill="none" xmlns="http://www.w3.org/2000/svg">
<path d="M19.25 14.25C19.9141 14.25 20.5 14.8359 20.5 15.5V19.25C20.5 19.9531 19.9141 20.5 19.25 20.5H1.75C1.04688 20.5 0.5 19.9531 0.5 19.25V15.5C0.5 14.8359 1.04688 14.25 1.75 14.25H6.94531L8.70312 16.0469C9.17188 16.5156 9.79688 16.75 10.5 16.75C11.1641 16.75 11.7891 16.5156 12.2578 16.0469L14.0156 14.25H19.25ZM17.375 18.3125C17.8828 18.3125 18.3125 17.9219 18.3125 17.375C18.3125 16.8672 17.8828 16.4375 17.375 16.4375C16.8281 16.4375 16.4375 16.8672 16.4375 17.375C16.4375 17.9219 16.8281 18.3125 17.375 18.3125ZM9.60156 15.1484L4.60156 10.1484C4.09375 9.67969 4.09375 8.85938 4.60156 8.39062C5.07031 7.88281 5.89062 7.88281 6.35938 8.39062L9.25 11.2422V1.75C9.25 1.08594 9.79688 0.5 10.5 0.5C11.1641 0.5 11.75 1.08594 11.75 1.75V11.2422L14.6016 8.39062C15.0703 7.88281 15.8906 7.88281 16.3594 8.39062C16.8672 8.85938 16.8672 9.67969 16.3594 10.1484L11.3594 15.1484C11.125 15.3828 10.8125 15.5 10.5 15.5C10.1484 15.5 9.83594 15.3828 9.60156 15.1484Z" fill="#2492FF"/>
</svg>
