<svg width="18" height="19" viewBox="0 0 18 19" fill="none" xmlns="http://www.w3.org/2000/svg">
<path d="M16.25 0.75C16.9141 0.75 17.5 1.33594 17.5 2.03906V17C17.5 17.7031 16.9141 18.25 16.25 18.25H1.21094C0.546875 18.25 0 17.7031 0 17V2.03906C0 1.33594 0.546875 0.75 1.21094 0.75H16.25ZM5.27344 15.75V7.42969H2.69531V15.75H5.27344ZM3.98438 6.25781C4.80469 6.25781 5.46875 5.59375 5.46875 4.77344C5.46875 3.95312 4.80469 3.25 3.98438 3.25C3.125 3.25 2.46094 3.95312 2.46094 4.77344C2.46094 5.59375 3.125 6.25781 3.98438 6.25781ZM15 15.75V11.1797C15 8.95312 14.4922 7.19531 11.875 7.19531C10.625 7.19531 9.76562 7.89844 9.41406 8.5625H9.375V7.42969H6.91406V15.75H9.49219V11.6484C9.49219 10.5547 9.6875 9.5 11.0547 9.5C12.3828 9.5 12.3828 10.75 12.3828 11.6875V15.75H15Z" fill="#2492FF"/>
</svg>
