<svg width="21" height="22" viewBox="0 0 21 22" fill="none" xmlns="http://www.w3.org/2000/svg">
<path d="M17.8125 3.59375C19.7812 5.5625 21 8.14062 21 10.9531C21 16.6719 16.2188 21.3594 10.4531 21.3594C8.71875 21.3594 7.03125 20.8906 5.48438 20.0938L0 21.5L1.45312 16.1094C0.5625 14.5625 0.046875 12.7812 0.046875 10.9062C0.046875 5.1875 4.73438 0.5 10.4531 0.5C13.2656 0.5 15.8906 1.625 17.8125 3.59375ZM10.4531 19.5781C15.2344 19.5781 19.2188 15.6875 19.2188 10.9531C19.2188 8.60938 18.2344 6.45312 16.5938 4.8125C14.9531 3.17188 12.7969 2.28125 10.5 2.28125C5.71875 2.28125 1.82812 6.17188 1.82812 10.9062C1.82812 12.5469 2.29688 14.1406 3.14062 15.5469L3.375 15.875L2.48438 19.0625L5.76562 18.1719L6.04688 18.3594C7.40625 19.1562 8.90625 19.5781 10.4531 19.5781ZM15.2344 13.1094C15.4688 13.25 15.6562 13.2969 15.7031 13.4375C15.7969 13.5312 15.7969 14.0469 15.5625 14.6562C15.3281 15.2656 14.2969 15.8281 13.8281 15.875C12.9844 16.0156 12.3281 15.9688 10.6875 15.2188C8.0625 14.0938 6.375 11.4688 6.23438 11.3281C6.09375 11.1406 5.20312 9.92188 5.20312 8.60938C5.20312 7.34375 5.85938 6.73438 6.09375 6.45312C6.32812 6.17188 6.60938 6.125 6.79688 6.125C6.9375 6.125 7.125 6.125 7.26562 6.125C7.45312 6.125 7.64062 6.07812 7.875 6.59375C8.0625 7.10938 8.625 8.375 8.67188 8.51562C8.71875 8.65625 8.76562 8.79688 8.67188 8.98438C8.20312 9.96875 7.64062 9.92188 7.92188 10.3906C8.95312 12.125 9.9375 12.7344 11.4844 13.4844C11.7188 13.625 11.8594 13.5781 12.0469 13.4375C12.1875 13.25 12.7031 12.6406 12.8438 12.4062C13.0312 12.125 13.2188 12.1719 13.4531 12.2656C13.6875 12.3594 14.9531 12.9688 15.2344 13.1094Z" fill="white"/>
</svg>
