<svg width="157" height="125" viewBox="0 0 157 125" fill="none" xmlns="http://www.w3.org/2000/svg">
<path d="M153.217 72.4522C153.217 78.4336 152.493 84.2449 151.126 89.8041C151.057 90.0835 150.987 90.3622 150.915 90.6402C147.883 102.37 141.986 112.947 134.015 121.582H27.5154C15.5952 108.669 8.31287 91.4116 8.31287 72.4523C8.31287 59.8227 11.5446 47.9478 17.2257 37.6093C17.4988 37.1125 17.7776 36.6192 18.0618 36.13C23.0955 27.4576 29.8776 19.9258 37.9242 14.0169C38.3089 13.734 38.6963 13.4553 39.0865 13.1808C50.8743 4.87695 65.2501 0 80.7651 0C103.659 0 124.072 10.6179 137.349 27.1977C137.571 27.475 137.791 27.7537 138.009 28.0338C147.541 40.301 153.217 55.7136 153.217 72.4522Z" fill="#ECF3FE"/>
<path d="M83.1635 13.1807H39.0865C38.6963 13.4552 38.3089 13.7339 37.9242 14.0168H83.1636C85.5334 14.0168 87.4614 15.9449 87.4614 18.3147V79.1192C87.4614 81.4891 85.5334 83.4171 83.1636 83.4171H22.3597C19.9899 83.4171 18.0619 81.4891 18.0619 79.1192V36.1299C17.7776 36.6191 17.4989 37.1124 17.2257 37.6092V79.1192C17.2257 81.9503 19.5286 84.2533 22.3597 84.2533H83.1636C85.9947 84.2533 88.2976 81.9503 88.2976 79.1192V18.3147C88.2976 15.4843 85.9947 13.1807 83.1635 13.1807Z" fill="white"/>
<path d="M81.1478 89.8041C80.9172 89.8041 80.7297 89.6167 80.7297 89.3861V28.452C80.7297 28.2213 80.9172 28.0339 81.1478 28.0339H138.009C137.791 27.7538 137.571 27.4751 137.349 27.1978H81.1478C80.4566 27.1978 79.8936 27.7601 79.8936 28.452V89.3861C79.8936 90.078 80.4566 90.6403 81.1478 90.6403H150.915C150.987 90.3623 151.057 90.0836 151.126 89.8042L81.1478 89.8041Z" fill="white"/>
<path d="M83.1091 125C121.838 125 153.235 122.962 153.235 120.448C153.235 117.934 121.838 115.896 83.1091 115.896C44.3797 115.896 12.9834 117.934 12.9834 120.448C12.9834 122.962 44.3797 125 83.1091 125Z" fill="#D7E4F9"/>
<path d="M106.569 109.337C107.942 107.004 113.077 101.604 122.334 100.231C123.848 100.007 127.212 99.5081 128.389 100.395C130.727 102.156 119.739 108.235 121.098 109.156C122.543 110.135 135.45 103.781 137.552 104.979C138.54 105.541 128.649 109.408 128.689 115.186C128.699 116.491 129.205 117.597 129.699 118.393L103.452 117.358C103.452 117.358 103.186 115.085 106.569 109.337Z" fill="#33DA82"/>
<path d="M84.2972 90.9272C74.1147 89.1292 67.2935 79.3824 69.0915 69.1999L72.7938 48.2339C74.5918 38.0514 84.3386 31.2303 94.5211 33.0283C104.704 34.8264 111.525 44.5732 109.727 54.7556L106.025 75.7216C104.226 85.9041 94.4796 92.7253 84.2972 90.9272ZM93.4877 38.8802C86.532 37.652 79.8739 42.3116 78.6456 49.2673L74.9434 70.2333C73.7151 77.189 78.3747 83.8471 85.3304 85.0754H85.3305C92.2862 86.3036 98.9443 81.644 100.173 74.6884L103.875 53.7223C105.103 46.7666 100.443 40.1085 93.4877 38.8802Z" fill="#C4D7F2"/>
<path d="M82.7681 90.6572C72.5857 88.8592 65.7644 79.1123 67.5625 68.9299L71.2647 47.9639C73.0628 37.7814 82.8096 30.9602 92.992 32.7583C103.174 34.5563 109.996 44.3032 108.198 54.4856L104.495 75.4516C102.697 85.6341 92.9506 92.4553 82.7681 90.6572ZM91.9587 38.6102C85.003 37.382 78.3449 42.0415 77.1166 48.9973L73.4143 69.9632C72.1861 76.9189 76.8457 83.5771 83.8014 84.8053H83.8014C90.7571 86.0336 97.4152 81.374 98.6435 74.4183L102.346 53.4523C103.574 46.4966 98.9144 39.8385 91.9587 38.6102Z" fill="white"/>
<path d="M99.3576 119.015L62.5946 112.524C58.5797 111.815 55.8997 107.985 56.6087 103.97L63.1004 67.2073C63.8094 63.1924 67.6388 60.5124 71.6537 61.2214L108.417 67.7131C112.432 68.4221 115.111 72.2514 114.403 76.2663L107.911 113.029C107.202 117.044 103.372 119.724 99.3576 119.015Z" fill="#36588E"/>
<path d="M111.057 75.6754L104.565 112.439C103.856 116.453 100.027 119.134 96.0119 118.425L59.2492 111.933C55.2343 111.224 52.5545 107.394 53.2633 103.38L59.7551 66.6165C60.4641 62.6015 64.2934 59.9216 68.3083 60.6306L105.071 67.1222C109.086 67.8312 111.766 71.6605 111.057 75.6754Z" fill="#3B82F4"/>
<path opacity="0.18" d="M111.057 75.6754L104.565 112.439C103.856 116.453 100.027 119.134 96.0119 118.425L78.4138 115.317L87.473 64.0146L105.071 67.1222C109.086 67.8311 111.766 71.6604 111.057 75.6754Z" fill="#003889"/>
<path opacity="0.18" d="M88.1971 87.5683C87.7884 89.8829 86.0126 91.6119 83.8476 92.0745L83.1233 96.1762C82.9702 97.0433 82.3056 97.6927 81.4944 97.8674C81.2355 97.9236 80.9613 97.9313 80.6843 97.8824C79.5402 97.6804 78.7759 96.5883 78.9779 95.4442L79.7022 91.3425C77.8266 90.1664 76.7503 87.9338 77.159 85.6193C77.6973 82.571 80.6049 80.5362 83.6523 81.0743C83.9177 81.1212 84.1764 81.1864 84.4256 81.2678C87.0358 82.1205 88.6885 84.7856 88.1971 87.5683Z" fill="#003889"/>
<path d="M88.197 87.5684C87.7882 89.883 86.0124 91.6119 83.8474 92.0745L83.1232 96.1762C82.97 97.0434 82.3054 97.6927 81.4943 97.8674C80.793 97.4248 80.3908 96.5879 80.544 95.7208L81.2682 91.6192C79.3926 90.443 78.3163 88.2105 78.725 85.8958C79.2164 83.1131 81.6819 81.1752 84.4255 81.2678C87.0357 82.1205 88.6883 84.7856 88.197 87.5684Z" fill="white"/>
<path opacity="0.18" d="M102.611 64.1161C102.121 62.5632 97.4934 60.5781 97.4934 60.5781L95.8525 45.8466C97.4067 45.571 98.6164 44.4859 98.5737 42.093C98.4675 36.1428 95.8193 36.1868 97.2447 30.8684C97.7463 28.997 97.353 27.2715 96.4801 25.8559L96.815 25.4862C96.8651 25.4309 96.8928 25.3653 96.9008 25.2999C98.0045 25.1876 99.2032 24.4948 98.5084 21.7883C97.676 18.5454 94.4986 20.209 92.6983 21.4709L92.4602 21.2634C92.34 21.1585 92.1455 21.1806 92.0259 21.3126L91.6428 21.7356C91.5231 21.8676 91.5236 22.0596 91.644 22.1644L91.7098 22.2217C91.6708 22.2538 91.6358 22.2829 91.6046 22.3091C90.3858 22.0925 89.0637 22.3482 87.903 23.0344C86.4939 23.8673 84.5639 25.1416 84.4934 25.9094C84.4246 26.6583 84.5504 26.8868 85.0049 26.9035C84.9228 27.1173 84.8513 27.3378 84.7925 27.5644C84.2409 29.6918 84.9538 31.652 86.4123 32.3768C86.3067 32.8226 86.1645 33.4124 86.0606 33.8416C85.9811 34.1717 85.9244 34.406 85.9244 34.406C80.9076 34.0163 74.318 38.8558 74.318 38.8558L74.6851 39.4095L74.2262 39.7908L72.0783 41.5766C72.0783 41.5766 66.6665 34.8587 66.551 34.3153C66.5202 34.1695 66.5017 33.9621 66.4789 33.7274C66.4714 33.511 66.4525 33.203 66.4069 32.8798L74.9648 30.9605C75.6617 30.8042 76.1616 30.1267 76.0814 29.4473L75.5823 25.2184C75.5021 24.539 74.8722 24.115 74.1753 24.2713L47.8067 30.1853C47.1098 30.3416 46.6099 31.019 46.6901 31.6984L47.1892 35.9274C47.2693 36.6067 47.8993 37.0308 48.5962 36.8745L62.9084 33.6645C63.3707 34.2317 63.9886 34.7317 64.3888 35.0167C65.1757 35.5764 70.0434 44.309 70.0434 44.309C70.0434 44.309 71.8026 45.445 73.28 44.6975C73.6754 44.4967 74.1323 44.2301 74.5895 43.9468C75.4398 43.4198 76.2898 42.8362 76.7461 42.517L76.9422 42.8125L80.077 40.6532C80.6303 40.8115 79.2111 51.2299 78.6768 53.3083C78.5679 53.7307 78.6 54.0462 78.7372 54.2783C78.4695 54.3099 78.139 54.32 77.9095 54.1905C77.8574 54.1611 77.7875 53.994 77.6979 53.7258C77.0953 51.942 75.5989 45.6834 72.5563 45.986C69.0578 46.3338 58.6794 54.6976 58.6794 54.6976L58.8627 55.1148L57.1169 56.4586L54.7578 58.2736C54.6044 58.2113 54.5042 58.1717 54.4889 58.1726C54.4214 58.1747 50.7375 60 49.7126 60.1204C48.8212 60.2253 48.0102 60.6531 48.1273 61.2858C48.1443 61.3806 48.1832 61.4799 48.2449 61.5841C48.7202 62.3814 58.1828 63.7974 59.3085 62.7552C59.6216 62.4649 59.8096 62.0157 59.9178 61.5195C60.1987 60.2304 59.9423 58.621 59.9423 58.621C59.9269 58.6004 59.7525 58.1769 59.4019 57.9734L59.6644 57.7788L59.9422 57.5725L60.0237 57.758C60.0237 57.758 69.3083 52.1436 69.9615 53.4214C70.4436 54.3631 71.233 59.0819 72.3859 61.2197C72.6144 61.6417 72.8566 61.9627 73.1133 62.1347C71.0092 64.5086 69.1642 66.6021 68.974 67.0046C68.5194 67.9669 67.4229 83.4042 67.4229 83.4042L67.6798 83.4104L67.4694 86.3117C67.0123 86.2571 66.6749 86.2113 66.6454 86.2205C66.5662 86.2427 62.7605 89.3653 61.5859 89.802C60.5642 90.1821 59.7342 90.8984 60.0616 91.5694C60.1101 91.67 60.1857 91.7693 60.2896 91.8673C61.0894 92.616 72.6896 91.4023 73.7077 89.9079C73.9908 89.4919 74.0786 88.9354 74.0581 88.3502C74.0047 86.8299 73.2209 85.1111 73.2209 85.1111C73.1864 85.0851 72.5361 84.2536 71.7378 84.5979C71.4603 84.7176 71.2592 84.9652 71.076 85.2416L71.2975 83.8825L71.3601 83.4996L71.5259 83.5036L74.2262 69.6732C74.2262 69.6732 79.7723 66.5094 84.7905 64.9008C87.4361 64.0533 88.8279 61.19 89.5515 58.6728C89.9854 57.165 90.1796 55.7818 90.261 55.0294C90.2635 55.0298 90.2662 55.0303 90.2687 55.0307C91.3308 55.2175 91.054 46.597 90.9807 44.6869C91.289 44.8891 91.6294 45.0745 91.99 45.2368C92.05 45.5981 92.121 46.0257 92.2009 46.5065C93.05 51.6193 94.8989 62.7322 95.1015 63.826C95.3656 65.2523 96.8953 66.4919 97.3498 66.1244C97.8042 65.757 96.746 64.4207 96.9171 64.0593C97.0871 63.6979 97.3929 63.7335 98.4093 64.3788C99.4276 65.0264 99.8641 67.0635 100.576 67.0807C101.288 67.098 99.931 65.1867 100.261 65.1407C100.591 65.0946 101.679 67.5 102.26 66.9875C102.843 66.4739 100.935 64.2519 101.137 64.1486C101.341 64.0454 101.785 64.8391 102.19 65.4307C102.594 66.0223 103.1 65.669 102.611 64.1161ZM89.1124 34.7536L89.7654 32.6509L90.0287 31.8048C90.0853 31.761 90.1413 31.7157 90.1966 31.669C90.2617 31.9729 90.2783 32.242 90.2342 32.4558C90.1441 32.8921 89.9394 33.7527 89.7257 34.8199C89.6016 34.8332 89.5313 34.8448 89.5313 34.8448L89.1124 34.7536Z" fill="#003889"/>
<path opacity="0.18" d="M95.2281 114.866C94.9708 114.789 94.6727 114.826 94.423 114.964L92.3148 116.131C92.0432 116.282 91.7049 116.214 91.5828 115.986L90.3447 113.673C90.2844 113.56 90.173 113.475 90.0333 113.437L87.6924 112.791C87.5059 112.74 87.2905 112.776 87.1203 112.887L85.2926 114.075C84.9928 114.27 84.5891 114.199 84.4589 113.928L83.4542 111.845C83.3753 111.681 83.2192 111.558 83.0212 111.503L76.3023 109.644L72.6572 108.639C74.2692 103.187 71.7844 98.0385 66.4779 96.5754C63.0339 95.6252 59.1515 96.435 55.8967 98.4684C55.0719 94.7672 52.4224 91.8019 48.3694 90.6841C41.3647 88.7525 32.7776 93.0594 29.2283 100.285C25.678 107.512 28.4891 114.962 35.4939 116.894C39.8073 118.083 44.7208 116.907 48.6869 114.141C49.5536 116.966 51.7288 119.194 54.9329 120.077C60.0341 121.484 66.0962 119.032 69.6582 114.456L94.7454 121.375C94.918 121.423 95.1228 121.372 95.2841 121.242C95.3143 121.216 95.3473 121.189 95.3825 121.159C95.4019 121.142 95.4218 121.125 95.4428 121.106C95.4461 121.103 95.4494 121.1 95.4532 121.097C95.4681 121.083 95.483 121.07 95.4995 121.056C95.5968 120.968 95.7063 120.864 95.8247 120.745C95.8504 120.719 95.8769 120.692 95.9038 120.664C95.9684 120.597 96.0349 120.526 96.1028 120.45L96.1028 120.45C96.2755 120.258 96.4603 120.036 96.6506 119.783C96.6507 119.783 96.6507 119.783 96.6508 119.783C96.9348 119.404 97.2295 118.956 97.512 118.433C97.5798 118.306 97.648 118.175 97.7146 118.039C98.6576 116.119 96.2427 115.17 95.2281 114.866ZM53.8961 107.088C53.6651 107.56 53.4107 108.017 53.1361 108.461C53.1271 108.435 53.1182 108.409 53.1107 108.382C53.1029 108.357 53.0952 108.331 53.089 108.306C53.0876 108.302 53.087 108.299 53.0863 108.296C53.08 108.273 53.0744 108.251 53.0695 108.228C53.0549 108.164 53.0425 108.099 53.0325 108.032C53.0288 108.005 53.0251 107.977 53.0221 107.948C53.0182 107.915 53.0151 107.881 53.0134 107.847C53.0114 107.824 53.0101 107.801 53.0097 107.777C53.0082 107.755 53.0077 107.732 53.0072 107.708C53.0066 107.679 53.0067 107.65 53.0075 107.62C53.0074 107.608 53.0079 107.596 53.0086 107.583C53.0088 107.562 53.0098 107.542 53.0108 107.521C53.0131 107.485 53.0153 107.449 53.0188 107.413L53.0196 107.41C53.0223 107.378 53.0257 107.346 53.0305 107.314C53.0336 107.287 53.0374 107.26 53.0426 107.233C53.045 107.215 53.0482 107.197 53.0514 107.179C53.0866 106.981 53.144 106.78 53.2243 106.58C53.3139 106.356 53.4254 106.144 53.5557 105.945C53.6204 105.845 53.69 105.749 53.7638 105.657C53.7638 105.657 53.7645 105.657 53.7646 105.656C53.8133 105.595 53.864 105.534 53.9164 105.476C54.0476 105.33 54.1892 105.195 54.3401 105.071C54.3402 105.07 54.3402 105.07 54.3418 105.069C54.4082 105.033 54.4763 104.998 54.5447 104.965C54.5712 104.953 54.5975 104.94 54.6244 104.929C54.67 104.908 54.7153 104.889 54.7611 104.87C54.7664 104.868 54.7725 104.866 54.7785 104.864C54.553 105.603 54.261 106.346 53.8961 107.088ZM54.4351 109.799C54.4009 109.786 54.3678 109.772 54.3353 109.758C54.3028 109.744 54.2711 109.729 54.2402 109.714C54.2388 109.714 54.2383 109.714 54.2377 109.713C54.2056 109.697 54.1743 109.681 54.1437 109.664C54.1145 109.648 54.086 109.632 54.0583 109.615C54.0564 109.614 54.0544 109.613 54.0535 109.611C54.0351 109.6 54.0166 109.588 53.9983 109.577C53.9608 109.553 53.9253 109.527 53.89 109.501C53.867 109.483 53.8444 109.466 53.8222 109.448C53.8009 109.431 53.7797 109.413 53.7592 109.395C53.7543 109.391 53.7496 109.387 53.7448 109.383C53.7331 109.373 53.7215 109.362 53.7099 109.351C53.6908 109.333 53.6717 109.315 53.6527 109.297C53.6292 109.273 53.606 109.249 53.5835 109.223C53.5779 109.217 53.5727 109.212 53.5673 109.205C53.5616 109.199 53.5561 109.192 53.5506 109.185C53.95 108.58 54.3133 107.948 54.6359 107.292C54.8435 106.871 55.0282 106.449 55.1922 106.026C55.3728 105.562 55.5276 105.098 55.6576 104.636C55.6685 104.634 55.6792 104.633 55.6899 104.632C55.7086 104.63 55.727 104.628 55.7456 104.626C55.7541 104.626 55.7618 104.625 55.7704 104.624C55.796 104.621 55.8214 104.62 55.8462 104.618C55.8526 104.617 55.8596 104.617 55.8659 104.617C55.8885 104.616 55.9111 104.615 55.9335 104.614C55.9694 104.613 56.0043 104.612 56.0399 104.612C56.3787 104.611 56.7126 104.668 57.0273 104.788C57.1297 104.828 57.2272 104.872 57.3193 104.923C57.3498 104.94 57.3802 104.958 57.4096 104.976C57.4687 105.012 57.5257 105.051 57.5803 105.092C57.6072 105.113 57.6341 105.134 57.6601 105.155C57.6601 105.155 57.6601 105.155 57.6608 105.155C57.7127 105.199 57.762 105.244 57.8097 105.291H57.8105C57.8571 105.339 57.9021 105.389 57.9441 105.439C57.9584 105.457 57.9727 105.475 57.9868 105.493C58.043 105.565 58.0942 105.641 58.1412 105.72C58.1647 105.76 58.1866 105.8 58.2069 105.841C58.2171 105.861 58.2274 105.882 58.2368 105.903C58.2432 105.917 58.2494 105.931 58.2555 105.945C58.2751 105.989 58.2939 106.033 58.3102 106.078C58.3204 106.105 58.3297 106.133 58.3384 106.16C58.3533 106.205 58.3657 106.25 58.3775 106.295C58.3892 106.341 58.4002 106.387 58.409 106.433C58.409 106.433 58.4097 106.433 58.4095 106.434C58.4289 106.533 58.4418 106.635 58.4492 106.739C58.4552 106.826 58.4575 106.914 58.4546 107.003C58.4574 106.918 58.4553 106.834 58.4498 106.751C58.4553 106.834 58.4576 106.918 58.4549 107.003C58.4534 107.039 58.4519 107.075 58.4495 107.111C58.4483 107.12 58.4478 107.129 58.4475 107.137C58.4468 107.143 58.4462 107.149 58.4456 107.156C58.4432 107.183 58.4401 107.21 58.4372 107.236C58.4352 107.252 58.4332 107.267 58.4314 107.282C58.4294 107.298 58.4274 107.314 58.4247 107.329C58.4209 107.356 58.4163 107.384 58.4112 107.411C58.3755 107.608 58.3177 107.807 58.2382 108.007C58.1931 108.119 58.143 108.228 58.0881 108.334C58.0881 108.334 58.0886 108.334 58.0878 108.335C58.0133 108.476 57.931 108.612 57.8409 108.741C57.6363 109.033 57.393 109.294 57.1214 109.519C56.273 109.984 55.2853 110.123 54.4351 109.799ZM35.8688 116.131C29.2718 114.312 26.6247 107.294 29.9672 100.489C33.3105 93.684 41.3974 89.6274 47.9944 91.4471C51.885 92.5201 54.4029 95.4013 55.1275 98.9798C53.0521 100.448 51.2865 102.43 50.1361 104.772C50.0425 104.963 49.9535 105.155 49.8696 105.346C49.7696 105.528 49.6747 105.712 49.5828 105.899C48.4451 108.214 48.0702 110.553 48.3609 112.66C48.3954 112.91 48.4396 113.156 48.4924 113.398C44.7229 116.103 40.0028 117.271 35.8688 116.131Z" fill="#003889"/>
<path d="M60.4124 95.8966C56.7625 94.9204 53.0555 95.7524 50.2411 97.8414C50.0153 98.0086 49.7958 98.1842 49.5826 98.3668C47.8253 99.8754 46.4888 101.911 45.8457 104.318C45.7934 104.514 45.746 104.711 45.7036 104.908C44.3845 111.065 48.1152 117.239 54.2666 118.884C60.4221 120.53 66.7414 117.035 68.666 111.033C68.7259 110.845 68.7817 110.656 68.8332 110.463C70.5306 104.115 66.7603 97.5933 60.4124 95.8966ZM50.1073 106.697C49.9785 107.181 49.8231 107.651 49.6447 108.107C49.63 108.081 49.6154 108.054 49.6022 108.027C49.589 108.001 49.5757 107.974 49.5639 107.948C49.5618 107.944 49.5604 107.941 49.559 107.937C49.5478 107.914 49.5374 107.891 49.5276 107.868C49.4991 107.802 49.4726 107.735 49.4482 107.667C49.4385 107.638 49.4287 107.61 49.4197 107.581C49.4085 107.546 49.3981 107.512 49.389 107.477C49.3821 107.453 49.3758 107.429 49.3702 107.405C49.3639 107.382 49.3584 107.358 49.3528 107.334C49.3458 107.304 49.3395 107.274 49.334 107.243C49.3312 107.231 49.3291 107.218 49.327 107.205C49.3228 107.184 49.3194 107.163 49.3158 107.142C49.3103 107.105 49.3047 107.068 49.3005 107.031V107.027C49.2964 106.995 49.2928 106.962 49.2908 106.929C49.288 106.901 49.2858 106.873 49.2852 106.845C49.2838 106.827 49.2831 106.809 49.2824 106.79C49.2748 106.587 49.2887 106.381 49.3256 106.175C49.3667 105.945 49.4322 105.727 49.5193 105.522C49.5626 105.42 49.6113 105.322 49.665 105.226C49.665 105.226 49.6657 105.226 49.6657 105.225C49.7012 105.163 49.7388 105.101 49.7786 105.041C49.8782 104.891 49.9904 104.752 50.1144 104.624C50.1144 104.623 50.1144 104.623 50.1158 104.623C50.1743 104.585 50.235 104.549 50.2963 104.516C50.32 104.503 50.3437 104.49 50.3681 104.478C50.4091 104.457 50.4503 104.437 50.4921 104.418C50.497 104.416 50.5025 104.414 50.5081 104.412C50.4425 105.171 50.3115 105.935 50.1073 106.697ZM54.569 107.978C54.5251 108.123 54.4721 108.262 54.4101 108.395C54.2687 108.695 54.0819 108.963 53.859 109.194C53.1113 109.672 52.1539 109.815 51.2334 109.482C51.1965 109.469 51.1603 109.454 51.1247 109.44C51.0892 109.426 51.0544 109.41 51.0202 109.395C51.0188 109.395 51.0181 109.394 51.0174 109.394C50.9819 109.378 50.9471 109.361 50.9129 109.343C50.8801 109.327 50.8481 109.31 50.8167 109.293C50.8147 109.292 50.8126 109.291 50.8112 109.289C50.7903 109.277 50.7693 109.265 50.7485 109.254C50.7059 109.229 50.6647 109.202 50.6238 109.175C50.597 109.158 50.5706 109.14 50.5444 109.121C50.5194 109.103 50.4945 109.085 50.4701 109.067C50.4644 109.063 50.4587 109.059 50.453 109.054C50.4481 109.051 50.4432 109.047 50.4384 109.044C50.4293 109.036 50.4203 109.029 50.4112 109.022C50.3882 109.003 50.3652 108.985 50.3422 108.966C50.3136 108.941 50.285 108.916 50.2572 108.891C50.2502 108.884 50.2439 108.879 50.237 108.872C50.23 108.865 50.223 108.858 50.216 108.851C50.4843 108.229 50.7108 107.581 50.8912 106.906C51.0076 106.473 51.101 106.04 51.1735 105.606C51.2536 105.129 51.308 104.653 51.3379 104.178C51.3484 104.176 51.3588 104.175 51.3693 104.174C51.3874 104.171 51.4055 104.17 51.4236 104.168C51.432 104.167 51.4397 104.166 51.448 104.166C51.4731 104.163 51.4981 104.161 51.5225 104.159C51.5288 104.159 51.5358 104.159 51.5421 104.159C51.5643 104.157 51.5867 104.156 51.6089 104.155C51.6445 104.154 51.6793 104.153 51.7149 104.153C52.0535 104.152 52.3998 104.211 52.7405 104.334C52.8513 104.375 52.9587 104.421 53.0618 104.473C53.0959 104.49 53.1301 104.508 53.1635 104.527C53.2304 104.564 53.2959 104.605 53.3593 104.646C53.3906 104.667 53.422 104.689 53.4527 104.711C53.4527 104.711 53.4527 104.711 53.4534 104.711C53.5147 104.756 53.5739 104.802 53.6318 104.85H53.6325C53.6896 104.9 53.7453 104.951 53.7983 105.003C53.8165 105.021 53.8345 105.039 53.8527 105.058C53.9245 105.132 53.992 105.21 54.0561 105.291C54.0882 105.332 54.1189 105.373 54.1481 105.416C54.1627 105.436 54.1774 105.457 54.1914 105.479C54.1948 105.485 54.199 105.49 54.2025 105.495C54.2381 105.549 54.2715 105.604 54.3028 105.659C54.3188 105.687 54.3342 105.716 54.3488 105.744C54.3732 105.789 54.3955 105.836 54.4171 105.882C54.4387 105.929 54.4596 105.976 54.4784 106.024C54.4784 106.024 54.4791 106.024 54.4791 106.025C54.5544 106.213 54.6115 106.408 54.6477 106.609C54.654 106.646 54.6603 106.683 54.6658 106.721C54.6666 106.73 54.668 106.739 54.6693 106.747C54.67 106.753 54.6707 106.76 54.6714 106.766C54.675 106.794 54.6777 106.822 54.6805 106.849C54.6819 106.865 54.6833 106.881 54.6847 106.896C54.686 106.912 54.6875 106.928 54.6882 106.944C54.6903 106.972 54.6917 107.001 54.6924 107.029C54.6993 107.231 54.6847 107.436 54.6484 107.64C54.6276 107.755 54.6011 107.868 54.569 107.976C54.569 107.976 54.5696 107.977 54.569 107.978Z" fill="#C4D7F2"/>
<path d="M82.1515 113.724C82.3403 114.002 82.7593 114.075 83.017 113.875L84.5873 112.654C84.7334 112.54 84.9411 112.503 85.1387 112.556L87.6195 113.219C87.7675 113.259 87.8973 113.346 87.982 113.462L89.7211 115.839C89.8926 116.073 90.2454 116.142 90.4845 115.988L92.3399 114.788C92.5598 114.647 92.8499 114.608 93.1237 114.687C94.2043 115 96.8247 115.975 96.2974 117.948C96.2602 118.087 96.2204 118.222 96.18 118.352C96.011 118.89 95.8133 119.35 95.6113 119.739C95.4756 119.999 95.339 120.227 95.2079 120.424C95.1563 120.502 95.1051 120.575 95.0549 120.644C95.0342 120.673 95.0136 120.701 94.9935 120.727C94.901 120.85 94.8138 120.956 94.7356 121.046C94.7222 121.061 94.7101 121.075 94.6981 121.089C94.6952 121.093 94.6926 121.096 94.6899 121.099C94.6727 121.117 94.6567 121.135 94.6409 121.153C94.6122 121.183 94.5851 121.211 94.5604 121.237C94.4275 121.372 94.2335 121.423 94.0507 121.375L65.6162 113.772L67.2235 107.761L73.0671 109.323L80.1885 111.233C80.3983 111.289 80.5811 111.415 80.6955 111.584L82.1515 113.724Z" fill="#36588E"/>
<path d="M66.247 110.349L96.18 118.352C96.011 118.89 95.8133 119.35 95.6113 119.739C95.4757 119.999 95.339 120.227 95.2079 120.424C95.1563 120.502 95.1051 120.575 95.055 120.644C95.0342 120.673 95.0136 120.701 94.9935 120.727C94.901 120.85 94.8138 120.956 94.7356 121.046C94.7222 121.061 94.7102 121.075 94.6982 121.088C94.6953 121.092 94.6926 121.095 94.6899 121.098C94.6728 121.117 94.6567 121.135 94.6409 121.152C94.6122 121.183 94.5851 121.211 94.5604 121.237C94.4275 121.372 94.2336 121.423 94.0507 121.374L65.3507 113.701L66.247 110.349Z" fill="white"/>
<path d="M67.5607 112.24L95.6112 119.739C95.4756 119.999 95.3389 120.227 95.2078 120.425L67.3628 112.98L67.5607 112.24Z" fill="#36588E"/>
<path d="M60.103 97.0539C56.964 96.2143 53.783 96.7118 51.1637 98.1967C50.9498 98.3186 50.7394 98.4461 50.5332 98.5799C50.5032 98.5988 50.4739 98.6175 50.4447 98.6371C50.2405 98.7729 50.0405 98.9151 49.8448 99.0635C47.9536 100.495 46.475 102.499 45.7037 104.908C45.643 105.094 45.588 105.283 45.5364 105.475C44.9002 107.854 45.0319 110.257 45.7789 112.421C45.8674 112.678 45.965 112.931 46.0702 113.179C46.0743 113.188 46.0778 113.198 46.082 113.208C46.1043 113.26 46.1266 113.311 46.1496 113.363C46.1712 113.412 46.1935 113.462 46.2165 113.51C46.2339 113.549 46.2527 113.588 46.2708 113.627C46.2917 113.672 46.3133 113.717 46.3349 113.761C46.3649 113.822 46.3948 113.882 46.4255 113.942C47.9041 116.845 50.5617 119.134 53.9572 120.042C60.3051 121.739 66.8265 117.969 68.5239 111.621C68.5762 111.425 68.6236 111.228 68.6661 111.033C69.9858 104.875 66.2551 98.6984 60.103 97.0539ZM52.7406 104.334C52.8514 104.375 52.9587 104.421 53.0618 104.473C53.096 104.49 53.1301 104.508 53.1636 104.527C53.2305 104.564 53.296 104.605 53.3593 104.646C53.3907 104.667 53.4221 104.689 53.4527 104.711C53.4527 104.711 53.4527 104.711 53.4534 104.711C53.5148 104.756 53.574 104.802 53.6318 104.85H53.6325C53.6897 104.9 53.7454 104.951 53.7984 105.003C53.8165 105.021 53.8346 105.039 53.8527 105.058C53.9245 105.132 53.9921 105.21 54.0562 105.291C54.0883 105.332 54.1189 105.373 54.1482 105.416C54.1628 105.436 54.1774 105.457 54.1914 105.479C54.1949 105.485 54.1991 105.49 54.2025 105.495C54.2381 105.549 54.2715 105.604 54.3029 105.659C54.3189 105.687 54.3342 105.716 54.3489 105.744C54.3733 105.789 54.3955 105.836 54.4171 105.882C54.4387 105.929 54.4596 105.976 54.4785 106.024C54.4785 106.024 54.4792 106.024 54.4792 106.025C54.5544 106.213 54.6116 106.408 54.6478 106.609C54.6541 106.646 54.6604 106.683 54.6659 106.721C54.6666 106.73 54.668 106.739 54.6694 106.747C54.6701 106.753 54.6708 106.76 54.6715 106.766C54.675 106.794 54.6778 106.822 54.6806 106.849C54.682 106.865 54.6833 106.881 54.6848 106.896C54.6861 106.912 54.6875 106.928 54.6882 106.944C54.6903 106.972 54.6917 107.001 54.6924 107.029C54.6994 107.231 54.6848 107.436 54.6485 107.64C54.6276 107.755 54.6011 107.868 54.5691 107.976C54.5691 107.976 54.5698 107.977 54.5691 107.978C54.5252 108.123 54.4722 108.262 54.4102 108.395C54.2688 108.695 54.082 108.963 53.8591 109.194C53.1114 109.672 52.154 109.815 51.2335 109.482C51.1966 109.469 51.1604 109.454 51.1248 109.44C51.0893 109.426 51.0545 109.41 51.0203 109.395C51.0189 109.395 51.0182 109.394 51.0175 109.394C50.982 109.377 50.9472 109.361 50.913 109.343C50.8802 109.327 50.8482 109.31 50.8168 109.292C50.8147 109.292 50.8127 109.291 50.8113 109.289C50.7904 109.277 50.7694 109.265 50.7486 109.253C50.706 109.229 50.6648 109.202 50.6239 109.175C50.5971 109.158 50.5707 109.139 50.5445 109.121C50.5195 109.103 50.4946 109.085 50.4702 109.067C50.4645 109.063 50.4588 109.059 50.4531 109.054C50.4482 109.051 50.4433 109.047 50.4385 109.044C50.4294 109.036 50.4204 109.029 50.4113 109.021C50.3883 109.003 50.3653 108.985 50.3423 108.966C50.3137 108.941 50.2851 108.916 50.2573 108.89C50.2503 108.884 50.244 108.879 50.2371 108.872C50.2301 108.865 50.2231 108.858 50.2161 108.851C50.4844 108.229 50.7109 107.58 50.8913 106.906C51.0077 106.473 51.1011 106.04 51.1736 105.606C51.2537 105.129 51.3081 104.652 51.338 104.178C51.3484 104.176 51.3589 104.174 51.3694 104.174C51.3874 104.171 51.4056 104.17 51.4237 104.167C51.4321 104.167 51.4398 104.166 51.4481 104.165C51.4732 104.163 51.4982 104.161 51.5226 104.159C51.5289 104.158 51.5359 104.158 51.5422 104.158C51.5644 104.157 51.5868 104.156 51.609 104.155C51.6446 104.154 51.6794 104.153 51.715 104.153C52.0535 104.152 52.3999 104.211 52.7406 104.334ZM49.3256 106.175C49.3667 105.945 49.4322 105.727 49.5193 105.522C49.5625 105.42 49.6113 105.322 49.665 105.226C49.665 105.226 49.6657 105.226 49.6657 105.225C49.7012 105.163 49.7388 105.101 49.7785 105.041C49.8782 104.891 49.9904 104.752 50.1144 104.624C50.1144 104.623 50.1144 104.623 50.1158 104.623C50.1743 104.585 50.2349 104.549 50.2962 104.516C50.3199 104.503 50.3436 104.49 50.368 104.478C50.4091 104.457 50.4502 104.437 50.492 104.418C50.4969 104.416 50.5025 104.414 50.5081 104.411C50.4426 105.171 50.3116 105.935 50.1074 106.697C49.9786 107.181 49.8232 107.651 49.6448 108.107C49.6301 108.081 49.6155 108.054 49.6023 108.026C49.589 108.001 49.5758 107.974 49.564 107.948C49.5619 107.944 49.5605 107.941 49.5591 107.937C49.5479 107.914 49.5375 107.891 49.5277 107.868C49.4992 107.802 49.4727 107.735 49.4483 107.667C49.4386 107.638 49.4288 107.61 49.4198 107.581C49.4086 107.546 49.3982 107.512 49.3891 107.477C49.3822 107.453 49.3759 107.429 49.3703 107.405C49.364 107.382 49.3585 107.358 49.3529 107.334C49.3459 107.304 49.3396 107.274 49.3341 107.243C49.3313 107.231 49.3292 107.218 49.3271 107.205C49.3229 107.184 49.3195 107.163 49.3159 107.142C49.3104 107.105 49.3048 107.068 49.3006 107.031V107.027C49.2965 106.995 49.2929 106.962 49.2908 106.929C49.2881 106.901 49.2859 106.873 49.2853 106.845C49.2839 106.827 49.2832 106.808 49.2825 106.79C49.2747 106.587 49.2886 106.381 49.3256 106.175Z" fill="white"/>
<path d="M53.859 109.194C53.0625 110.018 51.8167 110.353 50.639 109.9C49.3214 109.394 48.5382 107.997 48.7897 106.607C48.9451 105.747 49.4454 105.051 50.1144 104.624C49.9903 104.752 49.8781 104.891 49.7785 105.041C49.7388 105.101 49.7011 105.163 49.6656 105.225C49.6656 105.226 49.6649 105.226 49.6649 105.226C49.6113 105.322 49.5625 105.42 49.5193 105.522C49.4322 105.727 49.3666 105.945 49.3255 106.175C49.2886 106.381 49.2747 106.587 49.2823 106.79C49.283 106.809 49.2837 106.827 49.2851 106.846C49.2858 106.873 49.2879 106.901 49.2907 106.929C49.2928 106.962 49.2962 106.995 49.3004 107.027V107.031C49.3046 107.068 49.3102 107.105 49.3158 107.142C49.3193 107.163 49.3227 107.184 49.3269 107.205C49.329 107.218 49.3311 107.231 49.3339 107.243C49.3395 107.274 49.3457 107.304 49.3527 107.334C49.3582 107.358 49.3639 107.382 49.3701 107.405C49.3757 107.429 49.382 107.453 49.3889 107.477C49.398 107.512 49.4084 107.547 49.4196 107.581C49.4286 107.61 49.4384 107.638 49.4481 107.667C49.4725 107.735 49.499 107.802 49.5276 107.868C49.5373 107.891 49.5478 107.914 49.5589 107.937C49.5603 107.941 49.5617 107.944 49.5638 107.948C49.5756 107.974 49.5889 108.001 49.6021 108.027C49.6154 108.054 49.63 108.081 49.6446 108.107C49.823 107.651 49.9784 107.181 50.1073 106.697C50.3115 105.935 50.4424 105.171 50.5079 104.412C50.5225 104.405 50.5372 104.398 50.5525 104.392C50.5978 104.373 50.6431 104.354 50.6898 104.338C50.703 104.332 50.717 104.327 50.7302 104.323C50.7539 104.314 50.7783 104.306 50.802 104.299C50.8117 104.295 50.8208 104.292 50.8298 104.29C50.8515 104.283 50.8724 104.276 50.8939 104.27C50.9218 104.262 50.9504 104.254 50.9782 104.247C51.0075 104.239 51.0368 104.232 51.0661 104.226C51.0759 104.223 51.0849 104.221 51.0946 104.219C51.1155 104.215 51.1364 104.211 51.158 104.207C51.1741 104.203 51.1908 104.2 51.2068 104.198C51.2291 104.194 51.2521 104.19 51.2751 104.187C51.2835 104.185 51.2912 104.184 51.2995 104.183C51.3058 104.182 51.3127 104.181 51.3197 104.18C51.326 104.179 51.3323 104.178 51.3378 104.178C51.3079 104.653 51.2535 105.129 51.1734 105.606C51.1009 106.04 51.0075 106.473 50.8912 106.906C50.7107 107.581 50.4842 108.229 50.216 108.852C50.2229 108.859 50.2299 108.866 50.2369 108.872C50.2438 108.879 50.2501 108.884 50.2571 108.891C50.285 108.917 50.3135 108.942 50.3421 108.966C50.3651 108.985 50.3881 109.004 50.4111 109.022C50.4202 109.029 50.4292 109.036 50.4383 109.044C50.4432 109.048 50.448 109.051 50.4529 109.054C50.4586 109.059 50.4642 109.063 50.47 109.067C50.4944 109.086 50.5193 109.104 50.5443 109.121C50.5705 109.14 50.5969 109.158 50.6237 109.176C50.6647 109.202 50.7057 109.229 50.7484 109.254C50.7693 109.266 50.7902 109.277 50.8111 109.289C50.8125 109.291 50.8146 109.292 50.8167 109.293C50.8481 109.31 50.8801 109.327 50.9128 109.344C50.947 109.361 50.9818 109.378 51.0173 109.394C51.018 109.394 51.0187 109.395 51.0201 109.395C51.0543 109.411 51.0891 109.426 51.1246 109.44C51.1602 109.454 51.1964 109.469 51.2334 109.482C52.1539 109.815 53.1113 109.672 53.859 109.194Z" fill="#C4D7F2"/>
<path d="M65.0356 106.987L63.1887 113.895C63.0863 114.278 62.689 114.508 62.3059 114.406C61.9227 114.303 61.6931 113.906 61.7955 113.523L63.6424 106.615C63.7448 106.232 64.1421 106.002 64.5253 106.104C64.9084 106.207 65.138 106.604 65.0356 106.987Z" fill="#36588E"/>
<path opacity="0.18" d="M51.542 104.159C51.5357 104.159 51.5288 104.159 51.5225 104.159C51.4981 104.161 51.473 104.163 51.448 104.166C51.4396 104.166 51.4319 104.167 51.4236 104.168C51.4055 104.17 51.3874 104.171 51.3692 104.174C51.3587 104.175 51.3483 104.176 51.3379 104.178C51.3079 104.653 51.2536 105.129 51.1734 105.606L50.4508 105.412C50.5463 105.054 50.6258 104.696 50.6899 104.338C51.0389 102.392 50.9344 100.452 50.4446 98.6372C50.4738 98.6176 50.5031 98.5988 50.5331 98.58C50.7393 98.4462 50.9497 98.3187 51.1636 98.1968C51.7099 100.09 51.8598 102.118 51.542 104.159Z" fill="#003889"/>
<path d="M51.3379 104.178C51.308 104.652 51.2536 105.129 51.1735 105.606C51.101 106.04 51.0076 106.473 50.8912 106.906C50.7108 107.58 50.4843 108.229 50.216 108.851C50.2028 108.84 50.1896 108.827 50.177 108.815C50.1763 108.815 50.1749 108.814 50.1742 108.812C50.1477 108.786 50.1219 108.759 50.0962 108.732C50.0711 108.705 50.0453 108.677 50.0209 108.649C49.9965 108.621 49.9722 108.592 49.9485 108.563C49.9248 108.534 49.9018 108.504 49.8795 108.474C49.8572 108.445 49.8356 108.415 49.814 108.383C49.7924 108.353 49.7722 108.322 49.752 108.29C49.7317 108.259 49.7122 108.227 49.6934 108.194C49.6767 108.166 49.6607 108.137 49.6447 108.108V108.107C49.823 107.651 49.9784 107.181 50.1073 106.697C50.3115 105.935 50.4425 105.171 50.5079 104.411C50.5225 104.405 50.5372 104.398 50.5526 104.392C50.5979 104.372 50.6432 104.354 50.6898 104.338C50.703 104.332 50.717 104.327 50.7303 104.323C50.754 104.314 50.7783 104.306 50.802 104.299C50.8117 104.295 50.8208 104.292 50.8299 104.29C50.8515 104.283 50.8724 104.276 50.894 104.27C50.9219 104.262 50.9504 104.254 50.9783 104.247C51.0075 104.239 51.0368 104.232 51.0661 104.225C51.0759 104.223 51.0849 104.221 51.0946 104.219C51.1155 104.215 51.1365 104.211 51.1581 104.207C51.1741 104.203 51.1909 104.2 51.2069 104.198C51.2292 104.193 51.2522 104.19 51.2752 104.186C51.2836 104.185 51.2912 104.184 51.2996 104.183C51.3058 104.182 51.3128 104.181 51.3198 104.18C51.3261 104.179 51.3323 104.178 51.3379 104.178Z" fill="white"/>
<path d="M50.4529 109.054C50.4586 109.059 50.4643 109.063 50.47 109.067C50.4596 109.059 50.4486 109.052 50.4383 109.044C50.4056 109.019 50.3735 108.992 50.3422 108.966C50.3652 108.985 50.3882 109.003 50.4112 109.022C50.425 109.033 50.439 109.044 50.4529 109.054Z" fill="white"/>
<path d="M50.5443 109.121C50.539 109.117 50.5335 109.114 50.5281 109.11C50.5093 109.097 50.4905 109.083 50.4718 109.068C50.4711 109.068 50.4706 109.067 50.47 109.067C50.4944 109.085 50.5193 109.103 50.5443 109.121Z" fill="white"/>
<path d="M50.6237 109.175C50.5968 109.158 50.5704 109.14 50.5443 109.121C50.5705 109.14 50.5969 109.158 50.6237 109.175Z" fill="white"/>
<path d="M50.7484 109.253C50.7059 109.229 50.6645 109.202 50.6237 109.175C50.6646 109.202 50.7057 109.229 50.7484 109.253Z" fill="white"/>
<path d="M50.2962 104.516C50.2349 104.55 50.1742 104.585 50.1157 104.623V104.622C50.1742 104.584 50.2349 104.549 50.2962 104.516Z" fill="white"/>
<path d="M51.3693 104.174C51.3588 104.175 51.3484 104.176 51.3379 104.178C51.308 104.653 51.2536 105.129 51.1735 105.606C51.101 106.04 51.0076 106.473 50.8912 106.906C50.7108 107.58 50.4843 108.229 50.216 108.851C50.223 108.858 50.23 108.865 50.237 108.872C50.23 108.865 50.2224 108.859 50.2154 108.852C50.2021 108.84 50.1896 108.828 50.177 108.815C50.1763 108.815 50.1749 108.814 50.1742 108.812C50.1477 108.786 50.122 108.759 50.0962 108.732C50.0711 108.705 50.0453 108.677 50.0209 108.649C49.9965 108.621 49.9722 108.592 49.9485 108.563C49.9248 108.534 49.9018 108.504 49.8795 108.475C49.8572 108.445 49.8356 108.415 49.814 108.383C49.7924 108.353 49.7722 108.322 49.752 108.29C49.7317 108.259 49.7122 108.227 49.6934 108.194C49.6767 108.166 49.6607 108.137 49.6447 108.108V108.107C49.823 107.651 49.9784 107.181 50.1073 106.697C50.3115 105.935 50.4425 105.171 50.5079 104.412C50.5024 104.414 50.4968 104.416 50.4919 104.418C50.4975 104.416 50.5023 104.413 50.5079 104.411C50.5225 104.405 50.5372 104.398 50.5526 104.392C50.5979 104.372 50.6432 104.354 50.6898 104.338C50.703 104.332 50.717 104.327 50.7303 104.323C50.754 104.314 50.7783 104.306 50.802 104.299C50.8117 104.295 50.8208 104.292 50.8299 104.29C50.8515 104.283 50.8724 104.276 50.894 104.27C50.9219 104.262 50.9504 104.254 50.9783 104.247C51.0075 104.239 51.0368 104.232 51.0661 104.225C51.0759 104.223 51.0849 104.221 51.0946 104.219C51.1155 104.215 51.1365 104.211 51.1581 104.207C51.1741 104.203 51.1909 104.2 51.2069 104.198C51.2292 104.193 51.2522 104.19 51.2752 104.186C51.2836 104.185 51.2912 104.184 51.2996 104.183C51.3058 104.182 51.3128 104.181 51.3198 104.18C51.326 104.179 51.3316 104.178 51.3379 104.177C51.3483 104.176 51.3588 104.175 51.3693 104.174Z" fill="white"/>
<path d="M53.3593 104.646C53.2959 104.604 53.2304 104.564 53.1636 104.527C53.2304 104.564 53.2959 104.604 53.3593 104.646Z" fill="white"/>
<path d="M53.6318 104.851C53.5739 104.802 53.5147 104.756 53.4534 104.711C53.5148 104.755 53.5739 104.802 53.6318 104.851Z" fill="white"/>
<path d="M53.7983 105.003C53.7453 104.951 53.6896 104.9 53.6324 104.851C53.6896 104.899 53.7453 104.95 53.7983 105.003Z" fill="white"/>
<path d="M53.8527 105.058C53.9251 105.132 53.9928 105.21 54.0561 105.291C53.992 105.21 53.9244 105.132 53.8527 105.058Z" fill="white"/>
<path d="M54.3028 105.659C54.2769 105.613 54.2486 105.568 54.2198 105.523C54.2105 105.509 54.201 105.494 54.1913 105.479C54.1773 105.457 54.1627 105.436 54.1481 105.416C54.1669 105.442 54.185 105.468 54.2024 105.495C54.2101 105.507 54.2185 105.521 54.2261 105.533C54.2359 105.547 54.245 105.562 54.2533 105.576C54.2659 105.597 54.2777 105.617 54.2895 105.637C54.2945 105.645 54.2986 105.652 54.3028 105.659Z" fill="white"/>
<path d="M54.569 107.978C54.5258 108.123 54.4729 108.262 54.4102 108.395C54.4722 108.262 54.5251 108.123 54.569 107.978Z" fill="white"/>
<path d="M54.6491 107.641C54.6282 107.756 54.6017 107.867 54.569 107.976C54.601 107.867 54.6275 107.755 54.6484 107.64C54.6846 107.436 54.6993 107.231 54.6923 107.029C54.6993 107.231 54.6854 107.436 54.6491 107.641Z" fill="white"/>
<path d="M54.4791 106.025C54.5547 106.213 54.6114 106.408 54.6475 106.609C54.6113 106.408 54.5547 106.212 54.4791 106.025Z" fill="white"/>
<path d="M50.533 98.5805V98.5799C50.4424 98.3311 50.3455 98.0844 50.241 97.8412C48.6147 94.0388 45.323 90.9923 41.0279 89.844C33.6049 87.8595 25.9505 92.2842 23.966 99.7072C21.9808 107.132 26.4055 114.786 33.8285 116.771C38.3996 117.993 43.0584 116.784 46.4253 113.942C46.3947 113.882 46.3647 113.822 46.3348 113.76C46.3132 113.716 46.2916 113.672 46.2707 113.627C46.2525 113.588 46.2337 113.549 46.2163 113.51C46.1933 113.461 46.171 113.412 46.1495 113.362C46.1265 113.311 46.1041 113.259 46.0819 113.208C46.0777 113.198 46.0742 113.188 46.07 113.179C42.8863 115.958 38.4191 117.158 34.0383 115.987C27.0473 114.118 22.8804 106.908 24.7492 99.917C26.6187 92.9259 33.8271 88.7583 40.8182 90.6279C44.9412 91.7302 48.0831 94.6902 49.5826 98.3666C49.6767 98.5965 49.7638 98.8286 49.8446 99.0634V99.0641C50.423 100.751 50.664 102.567 50.5079 104.411V104.411C50.4424 105.171 50.3114 105.935 50.1073 106.697C49.9784 107.181 49.823 107.651 49.6446 108.107V108.108C49.6607 108.137 49.6767 108.166 49.6934 108.194C49.7122 108.227 49.7317 108.258 49.752 108.29C49.7722 108.322 49.7924 108.352 49.814 108.383C49.8356 108.414 49.8572 108.444 49.8795 108.474C49.9017 108.504 49.9248 108.534 49.9484 108.563C49.9721 108.592 49.9965 108.621 50.0209 108.649C50.0453 108.677 50.0711 108.705 50.0962 108.732C50.1219 108.759 50.1478 108.786 50.1742 108.812C50.1749 108.814 50.1763 108.814 50.177 108.814C50.1896 108.828 50.2021 108.84 50.2153 108.852L50.216 108.851C50.4843 108.229 50.7108 107.58 50.8912 106.906C51.0076 106.473 51.101 106.04 51.1735 105.606C51.2536 105.129 51.3079 104.652 51.3379 104.178V104.177C51.4597 102.242 51.1712 100.342 50.533 98.5805Z" fill="#36588E"/>
<path d="M71.7148 42.2752C71.7148 42.2752 70.566 43.1722 69.4035 43.9464C68.978 44.2297 68.5511 44.4963 68.1782 44.6971C66.7845 45.4446 64.8981 44.3086 64.8981 44.3086C64.8981 44.3086 59.0519 35.576 58.2024 35.0163C57.3537 34.4566 55.5709 33.0683 55.8138 31.9691C56.0557 30.8689 58.6314 31.3894 59.3207 31.8818C60.0099 32.3741 60.1105 33.7715 60.286 34.3149C60.4624 34.8584 66.6268 41.5762 66.6268 41.5762L68.5747 39.7904L69.3105 39.1163L71.7148 42.2752Z" fill="#FDC8AA"/>
<path d="M71.7148 42.2752C71.7148 42.2752 70.566 43.1721 69.4035 43.9464C69.1912 42.9466 68.7059 40.6419 68.5746 39.7904L69.3104 39.1162L71.7148 42.2752Z" fill="#FBB188"/>
<path d="M57.098 56.9116L56.0281 57.7783L55.4481 58.2473C55.4481 58.2473 54.4219 59.4353 54.3095 59.5945C54.1981 59.7537 50.6099 58.7505 50.6099 58.7505L53.3327 56.458L55.123 54.95L57.098 56.9116Z" fill="#FDC8AA"/>
<path d="M56.2298 62.7548C55.2209 63.797 45.5996 62.381 45.0349 61.5837C44.9617 61.4795 44.9116 61.3802 44.884 61.2855C44.696 60.6527 45.459 60.2249 46.3386 60.12C47.35 59.9997 50.8294 58.1742 50.8967 58.1722C50.9629 58.1681 52.7133 58.927 53.4834 59.036C54.2546 59.1436 54.5564 57.9996 55.2495 57.8778C55.9425 57.7561 56.3752 58.5916 56.4004 58.6206C56.4004 58.6206 56.8371 60.23 56.7006 61.5191C56.648 62.0152 56.5103 62.4645 56.2298 62.7548Z" fill="#F4B545"/>
<path d="M56.2297 62.7548C55.2208 63.797 45.5996 62.381 45.0349 61.5836C44.9616 61.4795 44.9116 61.3801 44.8839 61.2854C50.1074 62.8883 55.1918 61.8859 56.7006 61.519C56.648 62.0152 56.5103 62.4645 56.2297 62.7548Z" fill="#1F3A6F"/>
<path d="M57.098 56.9118L56.0281 57.7785C55.5059 57.5303 54.2447 56.9091 53.3328 56.4583L55.123 54.9502L57.098 56.9118Z" fill="#F4A882"/>
<path d="M70.6534 82.5661L70.5857 83.8821L70.4195 87.1455L67.0653 87.2081L66.8812 82.5513L70.6534 82.5661Z" fill="#FDC8AA"/>
<path d="M73.6709 89.9076C72.8203 91.4019 61.3561 92.6157 60.4724 91.8669C60.3575 91.7689 60.2708 91.6697 60.2111 91.569C59.8085 90.898 60.5583 90.1817 61.5373 89.8016C62.6629 89.3649 66.119 86.2423 66.1956 86.2202C66.2704 86.1959 68.5041 86.5505 69.4203 86.4484C70.3375 86.3443 70.3464 84.9418 71.1062 84.5976C71.8659 84.2532 72.6093 85.0848 72.6467 85.1107C72.6467 85.1107 73.6231 86.8296 73.8469 88.3498C73.933 88.935 73.9075 89.4915 73.6709 89.9076Z" fill="#F4B545"/>
<path d="M73.6709 89.9076C72.8202 91.4019 61.356 92.6157 60.4724 91.8669C60.3575 91.7689 60.2708 91.6697 60.2111 91.569C66.6813 91.8677 72.2228 89.2163 73.8468 88.3499C73.9329 88.935 73.9074 89.4915 73.6709 89.9076Z" fill="#1F3A6F"/>
<path d="M70.6534 82.5661L70.5857 83.8821L66.9827 85.1186L66.8812 82.5513L70.6534 82.5661Z" fill="#F4A882"/>
<path d="M77.9389 53.9313C77.9389 53.9313 72.47 61.5619 70.6204 62.2355C70.1351 62.4125 69.6312 61.9786 69.1351 61.2192C67.7427 59.0815 66.4246 54.3626 65.8369 53.4209C65.0406 52.1431 56.3851 57.7576 56.3851 57.7576L54.6979 54.6971C54.6979 54.6971 64.1392 46.3332 67.5987 45.9855C70.6074 45.6829 72.805 51.9415 73.6074 53.7252C73.7271 53.9934 73.8158 54.1606 73.8712 54.19C74.2971 54.4159 74.9845 54.2169 75.128 54.2204L77.9389 53.9313Z" fill="#15315E"/>
<path d="M77.939 53.9314C77.939 53.9314 72.4701 61.562 70.6204 62.2356C70.1352 62.4126 69.6312 61.9787 69.1351 61.2193L73.6075 53.7253C73.7272 53.9935 73.8159 54.1607 73.8712 54.1901C74.2971 54.416 74.9846 54.217 75.128 54.2205L77.939 53.9314Z" fill="#072542"/>
<path d="M86.0152 58.6724C85.5737 61.1896 84.5026 64.0529 81.952 64.9004C77.114 66.509 71.9223 69.6728 71.9223 69.6728L70.7716 83.5033L66.6575 83.4038C66.6575 83.4038 66.0245 67.9665 66.3713 67.0043C66.6753 66.1607 73.4139 57.8922 75.1997 55.1756C75.4517 54.7923 75.6038 54.5199 75.6274 54.3943C75.8138 53.3742 86.3031 54.4366 86.3031 54.4366C86.3031 54.4366 86.4116 56.4161 86.0152 58.6724Z" fill="#1F3A6F"/>
<path d="M86.0153 58.6724C83.5513 55.9857 76.9287 55.3079 75.1998 55.1756C75.4518 54.7923 75.6039 54.5199 75.6275 54.3943C75.8139 53.3742 86.3032 54.4366 86.3032 54.4366C86.3032 54.4366 86.4117 56.4161 86.0153 58.6724Z" fill="#15315E"/>
<path d="M83.8408 22.4547C83.8408 22.4547 89.1447 17.1906 90.84 21.788C92.5353 26.3855 88.1159 25.1733 88.1159 25.1733L83.8408 22.4547Z" fill="#1F3A6F"/>
<path d="M84.8455 22.5355C83.3608 21.997 81.7086 22.1893 80.3741 23.0341C79.0584 23.867 77.2711 25.1414 77.2866 25.9092C77.3112 27.1231 77.6923 26.9705 79.1533 26.7632C80.6142 26.5559 83.9058 30.9223 83.7609 32.4556C83.616 33.9889 82.6434 39.7915 84.3607 42.3674C86.0778 44.9433 93.953 47.0749 93.1802 41.1246C92.4073 35.1744 89.7641 36.1866 90.5936 30.8682C91.2052 26.9471 87.9614 23.6656 84.8455 22.5355Z" fill="#1F3A6F"/>
<path d="M89.5609 25.4858L89.2252 25.9087C89.1203 26.0408 88.9284 26.0628 88.7963 25.958L84.0177 22.164C83.8857 22.0591 83.8636 21.8672 83.9684 21.7352L84.3042 21.3122C84.409 21.1802 84.601 21.1582 84.733 21.263L89.5117 25.057C89.6437 25.1618 89.6658 25.3538 89.5609 25.4858Z" fill="white"/>
<path d="M99.4103 65.4303C98.9393 64.8387 98.4063 64.045 98.2141 64.1482C98.0239 64.2514 100.181 66.4734 99.6553 66.987C99.1317 67.4996 97.7738 65.0941 97.4492 65.1402C97.1245 65.1863 98.696 67.0976 97.9814 67.0803C97.2679 67.063 96.6032 65.0259 95.5124 64.3784C94.4236 63.733 94.1139 63.6975 93.9844 64.0589C93.8538 64.4202 95.0617 65.7565 94.6484 66.124C94.2351 66.4914 92.5665 65.2519 92.1426 63.8256C91.8174 62.7317 88.7235 51.6189 87.3016 46.506C86.87 44.9545 86.5922 43.9555 86.5922 43.9555L90.1809 42.7212L90.433 43.8478L94.171 60.5778C94.171 60.5778 99.0214 62.5629 99.6848 64.1158C100.348 65.6686 99.8813 66.0219 99.4103 65.4303Z" fill="#FDC8AA"/>
<path d="M90.4329 43.8478L87.3015 46.506C86.8698 44.9545 86.592 43.9555 86.592 43.9555L90.1808 42.7212L90.4329 43.8478Z" fill="#F4A882"/>
<path d="M82.8965 34.7532L83.3257 34.8445C82.5993 37.0108 78.8255 36.9735 77.3283 36.452C75.831 35.9305 79.6695 34.4056 79.6695 34.4056C79.6695 34.4056 79.7 34.1712 79.7425 33.8412C79.8405 33.0875 80.0012 31.8382 80.0034 31.7445L83.6417 31.0042L83.314 32.6506L82.8965 34.7532Z" fill="#FDC8AA"/>
<path d="M85.8219 44.322C85.8703 44.6381 87.5241 55.2373 86.3245 55.0303C85.6661 54.9162 84.1658 54.6988 82.6127 54.5717C81.2995 54.4656 79.9482 54.4232 79.0388 54.5662C77.0533 54.8784 74.2371 55.3852 74.5396 53.3078C74.8412 51.2294 75.093 40.811 74.522 40.6527L71.6291 42.812L70.7025 41.6173L68.5616 38.8554C68.5616 38.8554 74.6091 34.0158 79.6695 34.4056L83.3257 34.8445C83.3257 34.8445 88.1717 34.018 89.4694 38.3363C90.767 42.6545 90.7487 43.409 90.7487 43.409C90.7487 43.409 87.8908 44.1632 86.1737 44.3794L85.8198 44.3144C85.82 44.3144 85.8209 44.3166 85.8219 44.322Z" fill="#F4B545"/>
<path d="M86.3244 55.0303C85.6661 54.9162 84.1658 54.6988 82.6127 54.5717C87.0732 50.9578 84.3032 40.4944 84.3032 40.4944L85.5124 41.0629L85.8174 41.0703L85.8199 44.3143C85.8199 44.3143 85.821 44.3165 85.8219 44.3219C85.8703 44.638 87.5241 55.2372 86.3244 55.0303Z" fill="#E59D29"/>
<path d="M74.522 40.6528L71.6291 42.8121L70.7025 41.6174C71.9428 41.3012 74.522 40.6528 74.522 40.6528Z" fill="#E59D29"/>
<path d="M82.8965 34.7532L83.3257 34.8445C82.5993 37.0108 78.8255 36.9735 77.3283 36.452C75.831 35.9305 79.6695 34.4056 79.6695 34.4056C79.6695 34.4056 79.7 34.1712 79.7425 33.8412C79.8405 33.0875 80.0012 31.8382 80.0034 31.7445L83.6417 31.0042L83.314 32.6506L82.8965 34.7532Z" fill="#FDC8AA"/>
<path d="M83.6418 31.0042L83.3141 32.6506C82.6546 33.2095 81.5009 33.8675 79.7426 33.8412C79.8406 33.0875 80.0013 31.8382 80.0035 31.7445L83.6418 31.0042Z" fill="#F4A882"/>
<path d="M85.155 28.6537C85.5236 26.1511 84.1685 23.8787 82.1284 23.5783C80.0882 23.2778 78.1355 25.063 77.767 27.5656C77.3984 30.0682 78.7535 32.3405 80.7936 32.641C82.8338 32.9414 84.7865 31.1563 85.155 28.6537Z" fill="#FDC8AA"/>
<path d="M78.2119 25.5541C78.2119 25.5541 80.4217 26.3444 81.7715 26.2692C83.1214 26.194 83.6636 26.8182 83.365 28.0153C83.0665 29.2123 83.8947 27.6686 84.284 28.6666C84.6732 29.6646 83.3791 30.4062 83.533 30.7335C83.6869 31.0607 84.0052 32.1828 84.2825 32.1536C84.5598 32.1243 86.3125 30.2614 85.9536 28.0059C85.5947 25.7505 85.2713 23.5139 83.4407 23.3977C81.6101 23.2815 80.5498 23.2739 79.8743 23.7069C79.1987 24.1399 78.2119 25.5541 78.2119 25.5541Z" fill="#1F3A6F"/>
<path d="M68.3239 30.9599L42.6179 36.8739C41.9385 37.0302 41.261 36.6062 41.1047 35.9268L40.1318 31.6978C39.9755 31.0185 40.3995 30.341 41.0789 30.1847L66.7849 24.2707C67.4643 24.1144 68.1417 24.5384 68.298 25.2178L69.271 29.4468C69.4273 30.1262 69.0032 30.8036 68.3239 30.9599Z" fill="white"/>
<path d="M45.8774 32.2783L44.9347 32.4952L45.448 31.6753L44.9128 31.3403L44.3996 32.1602L44.1827 31.2175L43.5674 31.3591L43.7843 32.3017L42.9644 31.7885L42.6294 32.3237L43.4493 32.837L42.5066 33.0538L42.6482 33.6692L43.5909 33.4523L43.0776 34.2722L43.6128 34.6072L44.126 33.7872L44.3429 34.7299L44.9582 34.5884L44.7413 33.6457L45.5613 34.1589L45.8963 33.6237L45.0763 33.1105L46.019 32.8936L45.8774 32.2783Z" fill="#3B82F4"/>
<path d="M51.0968 31.0776L50.1541 31.2945L50.6673 30.4746L50.1321 30.1396L49.6189 30.9595L49.402 30.0168L48.7867 30.1584L49.0036 31.1011L48.1837 30.5879L47.8487 31.1231L48.6686 31.6363L47.726 31.8532L47.8675 32.4685L48.8102 32.2516L48.297 33.0715L48.8321 33.4065L49.3454 32.5865L49.5623 33.5293L50.1775 33.3877L49.9607 32.445L50.7806 32.9582L51.1156 32.423L50.2957 31.9098L51.2383 31.6929L51.0968 31.0776Z" fill="#3B82F4"/>
<path d="M56.3161 29.8767L55.3735 30.0936L55.8867 29.2737L55.3515 28.9387L54.8383 29.7586L54.6214 28.8159L54.0061 28.9575L54.223 29.9002L53.4031 29.387L53.0681 29.9221L53.888 30.4353L52.9453 30.6522L53.0869 31.2675L54.0296 31.0507L53.5164 31.8706L54.0515 32.2056L54.5647 31.3856L54.7816 32.3283L55.3969 32.1867L55.1801 31.2441L56 31.7573L56.335 31.2221L55.515 30.7089L56.4577 30.492L56.3161 29.8767Z" fill="#3B82F4"/>
<path d="M61.5355 28.676L60.5928 28.8929L61.106 28.073L60.5709 27.738L60.0576 28.5579L59.8408 27.6152L59.2255 27.7568L59.4423 28.6994L58.6224 28.1862L58.2874 28.7214L59.1074 29.2346L58.1647 29.4515L58.3062 30.0668L59.2489 29.8499L58.7357 30.6699L59.2708 31.0048L59.7841 30.1849L60.001 31.1276L60.6162 30.986L60.3994 30.0434L61.2193 30.5566L61.5543 30.0214L60.7344 29.5082L61.677 29.2913L61.5355 28.676Z" fill="#3B82F4"/>
<path d="M66.7547 27.4753L65.8121 27.6922L66.3253 26.8723L65.7901 26.5373L65.2769 27.3572L65.06 26.4146L64.4447 26.5561L64.6616 27.4988L63.8417 26.9856L63.5067 27.5207L64.3266 28.0339L63.3839 28.2508L63.5255 28.8661L64.4682 28.6492L63.955 29.4692L64.4901 29.8042L65.0033 28.9842L65.2202 29.9269L65.8355 29.7854L65.6187 28.8427L66.4386 29.3559L66.7736 28.8207L65.9536 28.3075L66.8963 28.0906L66.7547 27.4753Z" fill="#3B82F4"/>
<path d="M60.187 34.0318C60.187 34.0318 59.9338 31.4213 58.9593 31.3622C57.9848 31.3031 58.3492 32.1233 58.7959 32.6381C59.2427 33.153 59.5428 34.4878 59.5428 34.4878L60.187 34.0318Z" fill="#FDC8AA"/>
<path d="M148.896 30.5774H134.69C130.625 30.5774 127.3 33.9032 127.3 37.968C127.3 42.0329 130.625 45.3586 134.69 45.3586H135.382C135.382 45.3586 133.362 50.5138 133.362 50.7228C133.362 50.9319 144.023 45.3586 144.023 45.3586H148.896C152.961 45.3586 156.287 42.0329 156.287 37.968C156.287 33.9032 152.961 30.5774 148.896 30.5774Z" fill="#C4D7F2"/>
<path d="M136.384 37.6841L134.832 37.6982L135.92 36.5903L135.197 35.8802L134.109 36.9879L134.095 35.4353L133.081 35.4445L133.095 36.9971L131.987 35.9091L131.277 36.6323L132.385 37.7202L130.832 37.7343L130.842 38.7477L132.394 38.7337L131.306 39.8415L132.029 40.5517L133.117 39.4438L133.131 40.9965L134.145 40.9874L134.131 39.4347L135.239 40.5227L135.949 39.7996L134.841 38.7116L136.394 38.6976L136.384 37.6841Z" fill="white"/>
<path d="M144.564 37.6841L143.012 37.6982L144.1 36.5903L143.377 35.8802L142.289 36.9879L142.275 35.4353L141.261 35.4445L141.275 36.9971L140.168 35.9091L139.457 36.6323L140.565 37.7202L139.012 37.7343L139.022 38.7477L140.574 38.7337L139.486 39.8415L140.209 40.5517L141.297 39.4438L141.311 40.9965L142.325 40.9874L142.311 39.4347L143.419 40.5227L144.129 39.7996L143.021 38.7116L144.574 38.6976L144.564 37.6841Z" fill="white"/>
<path d="M152.745 37.6841L151.192 37.6982L152.28 36.5903L151.557 35.8802L150.469 36.9879L150.455 35.4353L149.441 35.4445L149.455 36.9971L148.348 35.9091L147.637 36.6323L148.745 37.7202L147.193 37.7343L147.202 38.7477L148.754 38.7337L147.666 39.8415L148.39 40.5517L149.478 39.4438L149.492 40.9965L150.505 40.9874L150.491 39.4347L151.599 40.5227L152.309 39.7996L151.201 38.7116L152.754 38.6976L152.745 37.6841Z" fill="white"/>
<path d="M7.76025 57.0051H21.966C26.0309 57.0051 29.3567 60.3309 29.3567 64.3958C29.3567 68.4606 26.0309 71.7864 21.966 71.7864H21.2737C21.2737 71.7864 23.2945 76.9415 23.2945 77.1506C23.2945 77.3596 12.6334 71.7864 12.6334 71.7864H7.76025C3.69545 71.7864 0.369629 68.4606 0.369629 64.3958C0.369629 60.3309 3.69541 57.0051 7.76025 57.0051Z" fill="#C4D7F2"/>
<path d="M20.2718 64.1124L21.8244 64.1264L20.7364 63.0186L21.4595 62.3084L22.5475 63.4162L22.5615 61.8635L23.575 61.8727L23.5609 63.4254L24.6687 62.3374L25.3789 63.0605L24.2711 64.1485L25.8238 64.1625L25.8147 65.176L24.262 65.162L25.35 66.2697L24.6269 66.9799L23.5388 65.8721L23.5248 67.4248L22.5114 67.4156L22.5254 65.863L21.4176 66.9509L20.7074 66.2278L21.8152 65.1399L20.2626 65.1258L20.2718 64.1124Z" fill="white"/>
<path d="M12.0917 64.1124L13.6443 64.1264L12.5563 63.0186L13.2794 62.3084L14.3674 63.4162L14.3814 61.8635L15.3949 61.8727L15.3809 63.4254L16.4886 62.3374L17.1988 63.0605L16.091 64.1485L17.6437 64.1625L17.6346 65.176L16.0819 65.162L17.1699 66.2697L16.4468 66.9799L15.3588 65.8721L15.3448 67.4248L14.3313 67.4156L14.3453 65.863L13.2375 66.9509L12.5273 66.2278L13.6352 65.1399L12.0825 65.1258L12.0917 64.1124Z" fill="white"/>
<path d="M3.9116 64.1124L5.46428 64.1264L4.37628 63.0186L5.09938 62.3084L6.18734 63.4162L6.20138 61.8635L7.21481 61.8727L7.20081 63.4254L8.30864 62.3374L9.01878 63.0605L7.91095 64.1485L9.46368 64.1625L9.45455 65.176L7.90187 65.162L8.98986 66.2697L8.26676 66.9799L7.17872 65.8721L7.16472 67.4248L6.15125 67.4156L6.16525 65.863L5.05747 66.9509L4.34728 66.2278L5.45511 65.1399L3.90247 65.1258L3.9116 64.1124Z" fill="white"/>
<path d="M118.27 64.8953C120.329 64.8953 121.998 63.2258 121.998 61.1664C121.998 59.107 120.329 57.4375 118.27 57.4375C116.21 57.4375 114.541 59.107 114.541 61.1664C114.541 63.2258 116.21 64.8953 118.27 64.8953Z" fill="white"/>
<path d="M22.8899 15.9152C25.7875 13.0175 25.7875 8.31943 22.8899 5.42176C19.9922 2.52409 15.2941 2.5241 12.3965 5.42177C9.4988 8.31943 9.4988 13.0175 12.3965 15.9151C15.2941 18.8128 19.9922 18.8128 22.8899 15.9152Z" fill="#C4D7F2"/>
<path d="M136.394 95.4894C139.302 95.4894 141.661 93.1314 141.661 90.2225C141.661 87.3137 139.302 84.9556 136.394 84.9556C133.485 84.9556 131.127 87.3137 131.127 90.2225C131.127 93.1314 133.485 95.4894 136.394 95.4894Z" fill="white"/>
<path d="M139.17 90.2061C139.081 89.8803 138.936 89.5851 138.748 89.328C138.656 89.202 138.497 89.1435 138.346 89.1845L138.047 89.2658L137.769 88.2427C137.502 87.26 136.485 86.678 135.502 86.9453C134.519 87.2127 133.937 88.2296 134.205 89.2123L134.483 90.2354L134.184 90.3167C134.033 90.3578 133.926 90.489 133.911 90.6447C133.873 91.0189 133.914 91.4082 134.046 91.7912C134.481 93.049 135.802 93.805 137.106 93.5418C138.644 93.2315 139.575 91.6946 139.17 90.2061ZM134.802 89.0498C134.625 88.3966 135.012 87.7207 135.665 87.543C136.318 87.3654 136.994 87.7522 137.171 88.4054L137.45 89.4284L135.081 90.0728L134.802 89.0498Z" fill="#ECF3FE"/>
<path d="M137.124 90.9364C137.049 90.6608 136.765 90.4983 136.489 90.5732C136.214 90.6481 136.051 90.9323 136.126 91.2078C136.179 91.4033 136.338 91.5414 136.524 91.5788L136.666 92.1036C136.7 92.226 136.827 92.2989 136.949 92.2656C137.072 92.2323 137.145 92.105 137.111 91.9826L136.969 91.4577C137.11 91.3313 137.177 91.1319 137.124 90.9364Z" fill="white"/>
<path d="M65.4003 17.3236C67.4571 15.2668 67.4571 11.932 65.4003 9.87512C63.3434 7.81827 60.0086 7.81827 57.9518 9.87512C55.8949 11.932 55.8949 15.2668 57.9518 17.3236C60.0086 19.3805 63.3434 19.3805 65.4003 17.3236Z" fill="white"/>
<path d="M64.4532 13.5827C64.3646 13.2569 64.2193 12.9618 64.0312 12.7047C63.939 12.5787 63.7803 12.5202 63.6297 12.5612L63.3308 12.6425L63.0526 11.6195C62.7853 10.6367 61.7683 10.0547 60.7856 10.3221C59.8028 10.5894 59.2208 11.6063 59.4881 12.589L59.7663 13.6121L59.4675 13.6934C59.3164 13.7345 59.2095 13.8658 59.1939 14.0215C59.1563 14.3956 59.197 14.785 59.3294 15.168C59.7642 16.4257 61.0851 17.1818 62.3896 16.9185C63.927 16.6082 64.8581 15.0713 64.4532 13.5827ZM60.0858 12.4264C59.9081 11.7733 60.295 11.0974 60.9481 10.9197C61.6012 10.742 62.2772 11.1289 62.4548 11.782L62.7331 12.8051L60.364 13.4495L60.0858 12.4264Z" fill="#ECF3FE"/>
<path d="M62.407 14.3134C62.3321 14.0378 62.0479 13.8752 61.7724 13.9501C61.4968 14.0251 61.3342 14.3092 61.4091 14.5848C61.4623 14.7803 61.6209 14.9184 61.807 14.9558L61.9497 15.4806C61.983 15.603 62.1104 15.6758 62.2327 15.6425C62.3551 15.6092 62.428 15.4819 62.3947 15.3595L62.2519 14.8347C62.3934 14.7083 62.4602 14.5088 62.407 14.3134Z" fill="white"/>
</svg>
