<svg width="152" height="125" viewBox="0 0 152 125" fill="none" xmlns="http://www.w3.org/2000/svg">
<path d="M143.812 100.505L52.3925 103.636C49.9323 103.72 47.8695 101.794 47.7853 99.3339L46.2166 53.5341C46.1323 51.0739 48.0584 49.0112 50.5187 48.9269L141.938 45.7956C144.398 45.7114 146.461 47.6375 146.545 50.0977L148.114 95.8975C148.198 98.3577 146.272 100.42 143.812 100.505Z" fill="#E6EDFF"/>
<path d="M89.1288 115.182C88.8573 115.182 88.5825 115.113 88.331 114.968L72.5948 105.883C71.8302 105.441 71.5673 104.46 72.0087 103.696L77.9492 93.4065C78.163 93.0361 78.5082 92.7713 78.9213 92.6605C79.3342 92.5497 79.7658 92.6066 80.1362 92.8204L95.8725 101.906C96.637 102.347 96.8999 103.328 96.4585 104.093L90.5181 114.382C90.2218 114.895 89.6825 115.182 89.1288 115.182ZM79.3371 93.3228C79.2603 93.3228 79.1831 93.3329 79.107 93.3533C78.8789 93.4144 78.6883 93.5606 78.5703 93.7651L72.6298 104.054C72.3862 104.476 72.5313 105.018 72.9534 105.261L88.6896 114.347C88.894 114.465 89.1322 114.496 89.3603 114.435C89.5883 114.374 89.7789 114.228 89.897 114.023L95.8374 103.734C96.081 103.312 95.9359 102.771 95.5138 102.527L79.7776 93.4416C79.6414 93.363 79.4903 93.3228 79.3371 93.3228Z" fill="#B6CDFF"/>
<path d="M22.4327 75.8185C34.6842 75.8185 44.616 65.8867 44.616 53.6352C44.616 41.3837 34.6842 31.4519 22.4327 31.4519C10.1813 31.4519 0.249451 41.3837 0.249451 53.6352C0.249451 65.8867 10.1813 75.8185 22.4327 75.8185Z" fill="#E6EDFF"/>
<path d="M81.7713 120.917C120.402 120.917 151.719 119.991 151.719 118.849C151.719 117.706 120.402 116.78 81.7713 116.78C43.1401 116.78 11.8233 117.706 11.8233 118.849C11.8233 119.991 43.1401 120.917 81.7713 120.917Z" fill="#E6EDFF"/>
<path d="M45.8553 85.2057C45.8435 85.2057 45.8317 85.2051 45.8198 85.2039L33.8552 84.0282C31.4021 83.7872 29.1875 82.6025 27.6192 80.6924C26.0509 78.7823 25.32 76.3795 25.561 73.9264L30.0425 28.3194C30.541 23.2476 35.0728 19.527 40.1444 20.0252L66.6007 22.6249C66.7977 22.6443 66.9418 22.8197 66.9225 23.0169C66.9032 23.2139 66.7279 23.358 66.5305 23.3387L40.0743 20.739C35.3964 20.2791 31.216 23.7113 30.7563 28.3896L26.2748 73.9966C26.0524 76.259 26.7267 78.4754 28.1734 80.2373C29.6201 81.9994 31.6629 83.0922 33.9253 83.3145L45.8898 84.4902C46.0869 84.5096 46.231 84.685 46.2117 84.8822C46.1935 85.0673 46.0375 85.2057 45.8553 85.2057Z" fill="#B6CDFF"/>
<path d="M62.0148 86.7934C62.0031 86.7934 61.9913 86.7929 61.9793 86.7917L48.8914 85.5056C48.6944 85.4862 48.5503 85.3108 48.5696 85.1136C48.589 84.9166 48.7645 84.7722 48.9616 84.7918L62.0494 86.0779C62.2465 86.0973 62.3906 86.2727 62.3712 86.4699C62.3531 86.6551 62.197 86.7934 62.0148 86.7934Z" fill="#B6CDFF"/>
<path d="M125.807 93.0187C125.503 93.0187 125.197 93.0038 124.89 92.9736L65.7186 87.1592C65.5215 87.1399 65.3775 86.9644 65.3968 86.7673C65.4162 86.5702 65.5915 86.4263 65.7888 86.4454L124.96 92.2598C127.222 92.4821 129.439 91.8079 131.201 90.3612C132.963 88.9145 134.056 86.8718 134.278 84.6093L138.76 39.0023C139.219 34.3241 135.787 30.1441 131.109 29.6844L125.157 29.0995C124.96 29.0801 124.816 28.9047 124.835 28.7075C124.855 28.5105 125.03 28.3667 125.227 28.3857L131.179 28.9706C136.251 29.469 139.972 34.0007 139.473 39.0725L134.992 84.6795C134.751 87.1326 133.566 89.3472 131.656 90.9155C129.985 92.2876 127.936 93.0187 125.807 93.0187Z" fill="#B6CDFF"/>
<path d="M119.917 28.5827C119.906 28.5827 119.894 28.5821 119.882 28.581L105.993 27.2162C105.796 27.1968 105.652 27.0214 105.671 26.8242C105.69 26.6272 105.866 26.4834 106.063 26.5024L119.952 27.8672C120.149 27.8866 120.293 28.062 120.274 28.2592C120.256 28.4443 120.1 28.5827 119.917 28.5827Z" fill="#B6CDFF"/>
<path d="M125.358 88.2115L34.3232 79.2661C31.8733 79.0253 30.0825 76.8442 30.3232 74.3943L34.8047 28.7873C35.0455 26.3374 37.2266 24.5466 39.6765 24.7873L130.711 33.7327C133.161 33.9735 134.952 36.1546 134.711 38.6045L130.23 84.2114C129.989 86.6614 127.808 88.4522 125.358 88.2115Z" fill="#6FA0FF"/>
<path d="M61.3845 72.8027C71.5354 72.8027 79.7643 64.5738 79.7643 54.4228C79.7643 44.2719 71.5354 36.043 61.3845 36.043C51.2335 36.043 43.0046 44.2719 43.0046 54.4228C43.0046 64.5738 51.2335 72.8027 61.3845 72.8027Z" fill="#2A73DD"/>
<path d="M65.2817 51.0964C67.0778 49.3003 67.0778 46.3882 65.2817 44.5921C63.4856 42.796 60.5736 42.796 58.7775 44.5921C56.9814 46.3882 56.9814 49.3003 58.7775 51.0964C60.5736 52.8925 63.4856 52.8925 65.2817 51.0964Z" fill="white"/>
<path d="M70.2769 65.1644C70.2541 65.3961 70.2218 65.6251 70.181 65.8506C67.3765 68.0107 63.775 69.1486 59.9741 68.7751C56.1732 68.4016 52.862 66.5844 50.5317 63.9189C50.5356 63.6898 50.5484 63.4598 50.5712 63.2281C51.0662 58.1911 55.8788 54.5417 61.3202 55.0764C66.7624 55.6112 70.7718 60.1274 70.2769 65.1644Z" fill="#6FA0FF"/>
<path d="M119.158 52.0722L91.0124 49.3065C90.1273 49.2195 89.4803 48.4315 89.5673 47.5465C89.6542 46.6614 90.4423 46.0144 91.3274 46.1013L119.473 48.867C120.358 48.954 121.005 49.742 120.918 50.6271C120.831 51.5122 120.043 52.1592 119.158 52.0722Z" fill="#B6CDFF"/>
<path d="M100.541 59.8885L90.0737 58.86C89.1886 58.773 88.5416 57.985 88.6286 57.0999C88.7155 56.2148 89.5036 55.5678 90.3886 55.6548L100.856 56.6833C101.741 56.7703 102.388 57.5583 102.301 58.4434C102.214 59.3285 101.426 59.9755 100.541 59.8885Z" fill="#2A73DD"/>
<path d="M105.762 70.0471L89.135 68.4132C88.2499 68.3262 87.6029 67.5382 87.6898 66.6531C87.7768 65.7681 88.5648 65.1211 89.4499 65.208L106.077 66.8419C106.962 66.9289 107.609 67.7169 107.522 68.6019C107.435 69.487 106.647 70.134 105.762 70.0471Z" fill="#B6CDFF"/>
<path d="M110.48 4.09329L99.0754 26.8389L95.3654 26.4742L90.8071 26.0264L88.1002 21.8513L88.219 16.6321L91.0807 10.9231L95.2558 2.59741L110.48 4.09329Z" fill="#2A73DD"/>
<path opacity="0.3" d="M95.3654 26.4742L90.8071 26.0264L88.1002 21.8513L88.219 16.6321L91.0807 10.9231L95.3654 26.4742Z" fill="#1561BC"/>
<path d="M90.8071 26.0267L75.5825 24.5307L68.8239 0L84.0485 1.49603L90.8071 26.0267Z" fill="#B6CDFF"/>
<path d="M21.4385 106.561L22.0705 107.758L23.377 110.238L24.1382 111.682L27.9151 118.849H31.7912L25.8368 107.552L25.3146 106.561L23.77 103.629L23.377 102.884L20.3637 97.1686L17.663 92.0435L14.7558 93.8819L16.578 97.3404L21.4385 106.561Z" fill="#B6CDFF"/>
<path opacity="0.3" d="M25.8369 107.552L25.5739 108.192L24.1383 111.682L23.3771 110.237L22.0706 107.758L23.3106 104.745L23.7701 103.629L25.3146 106.561L25.8369 107.552Z" fill="#1561BC"/>
<path d="M18.8382 118.849L23.3771 110.238L25.3146 106.561L30.5082 96.7077L31.9973 93.8819L29.0901 92.0435L26.5371 96.8876L23.3771 102.884L21.4386 106.561L14.9619 118.849H18.8382Z" fill="#B6CDFF"/>
<path opacity="0.3" d="M17.6631 92.0435L20.3637 97.1686L16.578 97.3404L14.7558 93.8819L17.6631 92.0435Z" fill="#1561BC"/>
<path opacity="0.3" d="M31.9973 93.8819L30.5082 96.7077L26.5372 96.8876L29.0901 92.0435L31.9973 93.8819Z" fill="#1561BC"/>
<path d="M35.7839 95.7444H10.9691C10.1089 95.7444 9.41144 95.0471 9.41144 94.1868V90.5218C9.41144 89.6615 10.1088 88.9641 10.9691 88.9641H35.7839C36.6442 88.9641 37.3416 89.6615 37.3416 90.5218V94.1868C37.3416 95.047 36.6443 95.7444 35.7839 95.7444Z" fill="#B6CDFF"/>
<path d="M54.2361 112.8C54.3329 113.065 54.3274 113.099 54.3274 113.099C54.3274 113.099 48.2975 115.177 48.0546 115.023C47.964 114.965 47.5133 114.315 46.9356 113.524C46.9194 113.501 46.9025 113.478 46.8855 113.455C46.4026 112.794 45.8379 112.043 45.3222 111.459C45.3222 111.459 47.9492 110.895 48.4207 111.273C48.5907 111.409 48.764 111.546 48.9377 111.679C49.7562 112.302 50.6041 112.823 51.3464 112.706C53.654 112.341 54.1374 112.537 54.2361 112.8Z" fill="#FDC8AA"/>
<path d="M47.6044 114.794C47.6044 114.794 53.7879 112.86 54.3264 112.658C54.8649 112.456 55.6847 112.731 55.1347 113.256C54.5848 113.78 48.3944 115.691 48.006 115.663C47.6175 115.635 47.6044 114.794 47.6044 114.794Z" fill="#1E3C68"/>
<path d="M16.1069 79.9933L31.2167 88.1516L32.3949 94.5405L34.9409 98.097L39.1006 103.906L45.8065 113.274L49.6656 111.266L38.7013 88.4556L28.5276 78.8967L16.1069 79.9933Z" fill="#1A3863"/>
<path opacity="0.7" d="M34.941 98.0969L39.1007 103.906L39.5758 91.9397L34.941 98.0969Z" fill="#122D5B"/>
<path d="M34.5414 118.362C34.4304 118.622 34.4031 118.643 34.4031 118.643C34.4031 118.643 28.586 116.028 28.5146 115.749C28.4886 115.644 28.6049 114.862 28.7258 113.89C28.7296 113.863 28.7331 113.834 28.7365 113.806C28.8375 112.993 28.9406 112.059 28.9648 111.28C28.9648 111.28 31.2653 112.668 31.3498 113.267C31.3803 113.483 31.4126 113.701 31.4485 113.917C31.6183 114.931 31.879 115.892 32.5005 116.314C34.4316 117.629 34.6497 118.103 34.5414 118.362Z" fill="#FDC8AA"/>
<path d="M28.3437 115.273C28.3437 115.273 34.1739 118.099 34.7046 118.32C35.2353 118.542 35.644 119.304 34.8843 119.309C34.1246 119.315 28.3048 116.468 28.0408 116.182C27.7769 115.895 28.3437 115.273 28.3437 115.273Z" fill="#1E3C68"/>
<path d="M18.4562 89.717C25.4438 91.3376 30.833 91.2561 30.833 91.2561L28.1757 113.339L32.3116 114.466L39.7091 91.5272C40.4367 89.2718 39.3335 86.8319 37.1601 85.8883L22.3168 79.4451L16.585 80.3324L13.5026 80.8096C13.5026 80.8096 13.3053 81.5162 13.2452 82.5383C13.1107 84.798 13.6449 88.6008 18.4562 89.717Z" fill="#244272"/>
<path opacity="0.7" d="M13.2452 82.5382L21.9811 79.856L16.585 80.3324L13.5026 80.8095C13.5026 80.8095 13.3052 81.5162 13.2452 82.5382Z" fill="#122D5B"/>
<path d="M14.7139 49.9585C14.7139 49.9585 8.16928 55.6875 11.4236 58.0915C14.6779 60.4955 18.1245 58.6179 18.8595 57.8416C19.5943 57.0652 16.4167 50.0906 14.7139 49.9585Z" fill="#1F3D68"/>
<path d="M32.4988 64.4638L35.449 60.4692L36.3287 57.7913C36.3287 57.7913 38.9637 55.063 39.3864 55.4258C39.809 55.7886 37.8784 57.3811 37.9585 57.6194C38.0379 57.8582 38.7941 57.4905 39.0767 58.3337C39.3589 59.1763 37.0521 61.2529 37.0521 61.2529L34.1636 67.7041L32.4988 64.4638Z" fill="#FDC8AA"/>
<path d="M28.8617 78.8671L26.9564 71.1982L29.0778 73.7809C29.7452 74.594 31.0251 74.4634 31.5153 73.5333L37.0514 62.5375L34.6297 60.9246L30.3332 67.2153L26.8455 60.1071C26.4848 59.3727 25.7804 58.8662 24.9685 58.7588L21.2965 58.2732L17.2301 58.4911L12.7916 60.6828L12.7614 74.2836L12.7588 75.3999L12.7462 81.1833L28.8617 78.8671Z" fill="#F4B545"/>
<path d="M17.0392 64.7334L16.0355 70.371L14.4513 70.316L17.0392 64.7334Z" fill="#E59D29"/>
<path d="M20.0834 61.6512C22.8934 61.4616 21.6876 58.1754 21.6876 58.1754L21.618 57.7864L21.2987 55.987L17.9764 54.7979L17.8561 55.5358L17.3688 58.5178C17.3688 58.5178 17.2726 61.841 20.0834 61.6512Z" fill="#FDC8AA"/>
<path d="M17.8561 55.5358C19.6864 58.2677 20.9601 58.1729 21.618 57.7864L21.2987 55.987L17.9764 54.7979L17.8561 55.5358Z" fill="#EFA37D"/>
<path d="M17.5364 48.8013C17.9194 47.248 17.4168 45.7883 16.4138 45.541C15.4108 45.2937 14.2872 46.3524 13.9042 47.9057C13.5212 49.459 14.0238 50.9188 15.0268 51.1661C16.0298 51.4134 17.1534 50.3547 17.5364 48.8013Z" fill="#1F3D68"/>
<path d="M16.4117 51.5412C16.4117 51.5412 15.5347 51.2047 15.2538 51.6082C14.9728 52.0117 15.3315 53.4294 17.0308 53.6353L16.4117 51.5412Z" fill="#FDC8AA"/>
<path d="M22.3939 52.6147C23.4264 52.5793 24.2121 51.0547 24.149 49.2092C24.0858 47.3637 23.1977 45.8963 22.1652 45.9316C21.1328 45.967 20.347 47.4917 20.4102 49.3371C20.4733 51.1826 21.3615 52.65 22.3939 52.6147Z" fill="#1F3D68"/>
<path d="M23.3698 50.0872C23.3886 53.6842 22.4151 56.8162 20.7187 56.7931C19.0905 56.7711 15.616 53.6706 16.1527 50.5318C16.175 50.3996 16.2049 50.2679 16.2419 50.1358C17.1629 46.8672 18.9122 46.9461 18.9122 46.9461C18.9122 46.9461 22.5294 46.3281 23.247 49.0785C23.3239 49.3741 23.3676 49.7087 23.3698 50.0872Z" fill="#FDC8AA"/>
<path d="M23.2469 49.0785C23.0774 49.2909 22.8941 49.499 22.6971 49.7012C20.6536 51.8003 17.9273 52.4606 16.6077 51.1761C16.4162 50.9897 16.2651 50.7731 16.1526 50.5318C16.1749 50.3996 16.2049 50.2679 16.2419 50.1358C17.1629 46.8672 18.9122 46.9461 18.9122 46.9461C18.9122 46.9461 22.5293 46.3281 23.2469 49.0785Z" fill="#EFA37D"/>
<path d="M21.8265 48.7554C21.8265 48.7554 23.191 49.8692 23.4837 51.3531C23.4837 51.3531 24.0107 50.9911 23.674 49.6196C23.3373 48.2481 22.3688 47.6135 22.3688 47.6135L21.8265 48.7554Z" fill="#1F3D68"/>
<path d="M21.8401 49.8723C23.8837 47.7733 24.4707 45.0303 23.1512 43.7456C21.8317 42.461 19.1054 43.121 17.0618 45.22C15.0182 47.319 14.4312 50.062 15.7507 51.3466C17.0702 52.6313 19.7965 51.9712 21.8401 49.8723Z" fill="#244272"/>
<path d="M37.2806 62.5676L34.4794 60.7161L33.1854 62.0819L36.737 64.1032L37.2806 62.5676Z" fill="white"/>
<path d="M12.7588 75.4L20.6793 74.0317L12.7613 74.2837L12.7588 75.4Z" fill="#E59D29"/>
<path d="M26.4232 67.6104L24.9729 64.033L25.5789 67.6849L26.4232 67.6104Z" fill="#E59D29"/>
<path d="M23.8108 76.1653L32.9407 75.3593C33.1275 75.3428 33.274 75.169 33.2903 74.9446L33.8535 67.1623C33.8749 66.8673 33.6664 66.6131 33.4208 66.6348L24.291 67.4409C24.1042 67.4573 23.9576 67.6312 23.9414 67.8556L23.3782 75.6378C23.3568 75.9329 23.5652 76.187 23.8108 76.1653Z" fill="#244272"/>
<path d="M18.6548 71.4242L22.8747 71.4832C23.992 71.4824 26.2271 69.3963 26.2829 69.9514C26.3218 70.3379 25.7556 70.8697 25.4082 71.1569C25.3616 71.1954 25.4004 71.2707 25.4588 71.2547C25.8329 71.1522 26.4833 71.0527 27.0704 71.3545C27.9596 71.8116 26.836 74.4125 25.6339 73.9474C24.4319 73.4822 23.2239 73.451 23.2239 73.451L18.9834 73.7387L18.6548 71.4242Z" fill="#FDC8AA"/>
<path d="M12.6383 60.8549L9.61868 72.6308C9.33335 73.7435 10.2068 74.8146 11.3542 74.759L22.2772 73.9069L22.3944 70.4751L14.833 70.2067L17.1312 64.5052L13.0521 60.7329C12.9125 60.6039 12.6855 60.6707 12.6383 60.8549Z" fill="#F4B545"/>
<path d="M22.5763 73.9914L22.5651 70.4116L20.7379 70.0444L20.8028 74.3039L22.5763 73.9914Z" fill="white"/>
<path d="M19.3484 54.7176L21.5942 54.439C21.5942 54.439 21.7 55.9206 20.7318 56.0271C19.7636 56.1336 19.4625 55.3738 19.3484 54.7176Z" fill="white"/>
<path opacity="0.3" d="M105.514 119.756C115.537 119.756 123.663 111.631 123.663 101.608C123.663 91.585 115.537 83.4597 105.514 83.4597C95.4913 83.4597 87.366 91.585 87.366 101.608C87.366 111.631 95.4913 119.756 105.514 119.756Z" fill="#1561BC"/>
<path d="M116.802 112.167C123.89 105.08 123.89 93.5893 116.802 86.502C109.715 79.4147 98.2242 79.4147 91.1369 86.502C84.0496 93.5893 84.0496 105.08 91.1369 112.167C98.2242 119.255 109.715 119.255 116.802 112.167Z" fill="#61D14A"/>
<path d="M101.804 108.614L95.0979 103.86L97.2663 100.801L100.913 103.385L109.543 91.2117L112.602 93.38L101.804 108.614Z" fill="white"/>
<path d="M128.312 118.488C128.312 118.488 123.044 105.741 126.659 94.9461C130.275 84.1514 138.332 88.1655 139.519 91.8541C140.707 95.5427 138.435 106.338 130.998 118.488H128.312Z" fill="#B6CDFF"/>
<path d="M127.434 109.205C127.328 109.205 127.237 109.125 127.226 109.018C126.882 105.733 126.928 102.67 127.362 99.9128C127.71 97.7021 128.307 95.682 129.136 93.9083C130.555 90.8729 132.146 89.6245 132.213 89.5729C132.304 89.5023 132.436 89.5193 132.506 89.6109C132.577 89.7025 132.56 89.834 132.469 89.9046C132.453 89.9168 130.877 91.1598 129.502 94.1154C128.23 96.8477 126.876 101.644 127.642 108.974C127.655 109.089 127.571 109.192 127.456 109.204C127.449 109.205 127.441 109.205 127.434 109.205Z" fill="white"/>
<path d="M129.176 118.488C129.176 118.488 128.766 108.102 135.696 105.242C141.184 102.977 145.165 108.443 146.585 110.818C146.898 111.341 146.665 112.033 146.11 112.238L130.998 118.488H129.176Z" fill="#8CB0E5"/>
<path d="M130.998 118.489C130.998 118.489 130.197 108.128 137.015 104.982C142.413 102.49 146.596 107.788 148.104 110.101C148.437 110.611 148.23 111.312 147.684 111.54L130.998 118.489Z" fill="#B6CDFF"/>
<path d="M130.998 118.489C130.998 118.489 128.738 112.569 123.877 112.447C119.016 112.325 122.405 118.061 124.187 118.489H130.998Z" fill="#6FA0FF"/>
<path d="M129.052 117.839C128.993 117.839 128.934 117.814 128.893 117.766C125.689 114.03 122.98 113.884 122.953 113.883C122.838 113.878 122.748 113.781 122.752 113.666C122.756 113.551 122.85 113.461 122.968 113.464C123.085 113.468 125.875 113.602 129.211 117.493C129.286 117.581 129.276 117.713 129.188 117.788C129.149 117.822 129.1 117.839 129.052 117.839Z" fill="white"/>
<path d="M16.2673 37.6854C19.0043 37.6854 21.2231 35.4667 21.2231 32.7297C21.2231 29.9927 19.0043 27.7739 16.2673 27.7739C13.5304 27.7739 11.3116 29.9927 11.3116 32.7297C11.3116 35.4667 13.5304 37.6854 16.2673 37.6854Z" fill="#B6CDFF"/>
</svg>
