<svg width="179" height="125" viewBox="0 0 179 125" fill="none" xmlns="http://www.w3.org/2000/svg">
<path d="M164.355 111.959C175.513 100.522 180.598 81.8786 177.546 65.2508C176.739 60.853 174.804 51.6816 167.815 43.1942C158.587 31.9881 148.177 30.2668 127.78 22.3146C95.2517 9.63241 100.239 4.48046 83.1752 1.87415C44.4558 -4.03993 24.8953 8.74666 24.8953 8.74666C21.9998 10.6508 3.18704 23.0222 1.03877 42.4373C-0.415899 55.5841 7.54743 55.9009 10.017 79.627C11.1391 90.4077 10.745 98.9864 16.9673 107.633C19.7814 111.543 23.0927 113.568 25.3508 114.967C45.7048 127.582 85.6373 125.01 95.558 124.3C136.238 121.387 156.733 119.772 164.355 111.959Z" fill="#E3E9E7"/>
<path d="M165.947 23.1349C165.28 13.2687 151.027 5.09615 138.662 1.7061C130.899 -0.422323 118.743 -1.56969 117.361 4.53447C117.138 5.51927 117.258 6.52661 117.663 7.4835C121.498 16.5458 134.035 22.5631 145.726 26.8261C154.688 30.0943 166.651 33.5307 165.947 23.1349Z" fill="#E3E9E7"/>
<path d="M59.6553 44.404L57.5065 42.4458C57.3153 42.2716 57.0192 42.2853 56.845 42.4765L55.4777 43.9768C55.3363 44.132 55.109 44.1737 54.9213 44.0796C54.2407 43.7387 53.5244 43.4972 52.7933 43.3541C52.5808 43.3126 52.4235 43.1323 52.4135 42.9159L52.3275 41.064C52.3156 40.8056 52.0964 40.6059 51.8381 40.6179L48.934 40.7527C48.6756 40.7647 48.4759 40.9839 48.4879 41.2422L48.5812 43.253C48.5907 43.4565 48.4678 43.6432 48.2766 43.7136C47.7766 43.8976 47.2914 44.1307 46.8285 44.4123C46.6505 44.5206 46.4226 44.4994 46.2686 44.3591L44.8153 43.0347C44.6242 42.8605 44.328 42.8742 44.1538 43.0654L42.1955 45.2142C42.0213 45.4053 42.0351 45.7015 42.2262 45.8757L43.6423 47.1662C43.799 47.309 43.8396 47.539 43.7427 47.7275C43.4435 48.3093 43.2176 48.9181 43.0644 49.5405C43.0147 49.7424 42.8389 49.8879 42.6312 49.8975L40.5106 49.9959C40.2522 50.0079 40.0525 50.227 40.0645 50.4853L40.1992 53.3895C40.2112 53.6478 40.4304 53.8475 40.6887 53.8355L42.7382 53.7404C42.9508 53.7305 43.143 53.8654 43.2067 54.0684C43.415 54.7313 43.7073 55.3724 44.0825 55.9745C44.1934 56.1524 44.1724 56.3824 44.0312 56.5373L42.7844 57.9055C42.6102 58.0966 42.6239 58.3928 42.8151 58.567L44.9639 60.5252C45.1551 60.6994 45.4513 60.6856 45.6254 60.4945L46.8722 59.1264C47.0138 58.971 47.2413 58.9297 47.4292 59.0238C48.002 59.3107 48.6002 59.5274 49.2112 59.6741C49.4136 59.7227 49.5593 59.8995 49.569 60.1074L49.6572 62.0086C49.6692 62.267 49.8883 62.4667 50.1466 62.4547L53.0508 62.3199C53.3091 62.3079 53.5088 62.0887 53.4968 61.8304L53.4107 59.973C53.4008 59.7615 53.5342 59.5699 53.7359 59.5054C54.4105 59.2894 55.0619 58.9864 55.6722 58.597C55.8504 58.4833 56.0828 58.5034 56.2391 58.6458L57.6552 59.9363C57.8463 60.1105 58.1425 60.0967 58.3167 59.9056L60.275 57.7568C60.4492 57.5656 60.4355 57.2694 60.2443 57.0952L58.791 55.7707C58.6374 55.6308 58.5943 55.4065 58.6854 55.2198C58.9534 54.6707 59.1573 54.0992 59.2974 53.516C59.3461 53.3133 59.5228 53.1673 59.731 53.1576L61.4743 53.0767C61.7327 53.0647 61.9324 52.8455 61.9204 52.5872L61.7856 49.6831C61.7736 49.4247 61.5545 49.225 61.2962 49.237L59.5966 49.3159C59.3849 49.3257 59.1934 49.192 59.1288 48.9901C58.9216 48.3431 58.6344 47.7174 58.2677 47.1288C58.1568 46.9508 58.1776 46.7208 58.3189 46.5657L59.6862 45.0654C59.8602 44.8743 59.8465 44.5782 59.6553 44.404ZM54.4446 54.5312C52.799 56.3369 50.0011 56.4668 48.1953 54.8211C46.3896 53.1755 46.2598 50.3776 47.9054 48.5719C49.551 46.7662 52.3489 46.6363 54.1547 48.2819C55.9604 49.9275 56.0902 52.7255 54.4446 54.5312Z" fill="#D4D0D0"/>
<path d="M47.6424 54.3203C47.6107 54.3203 47.5793 54.3059 47.5587 54.2787C46.2463 52.5423 46.3594 50.1125 47.8279 48.5013C49.0549 47.1548 50.9585 46.6748 52.6775 47.2783C52.7321 47.2975 52.7609 47.3573 52.7417 47.412C52.7225 47.4666 52.6627 47.4953 52.608 47.4762C50.9686 46.9006 49.1531 47.3583 47.9829 48.6425C46.5824 50.1793 46.4744 52.4964 47.7261 54.1523C47.761 54.1984 47.7518 54.2642 47.7056 54.2991C47.6867 54.3134 47.6645 54.3203 47.6424 54.3203ZM40.6666 53.9408C40.3627 53.9408 40.1086 53.7009 40.0944 53.3942L39.9596 50.4901C39.9525 50.3372 40.0054 50.1906 40.1085 50.0775C40.2116 49.9644 40.3526 49.8981 40.5055 49.891L42.6262 49.7927C42.7883 49.7851 42.9235 49.6737 42.9624 49.5153C43.1192 48.8786 43.3502 48.261 43.6492 47.6794C43.7245 47.5331 43.6925 47.3539 43.5715 47.2435L42.1554 45.9531C41.9218 45.7403 41.905 45.377 42.1178 45.1435L44.0761 42.9946C44.289 42.7611 44.6522 42.7442 44.8857 42.957L46.339 44.2815C46.4575 44.3894 46.6362 44.4063 46.7738 44.3226C47.2372 44.0407 47.7306 43.8026 48.2402 43.615C48.3888 43.5603 48.4837 43.4167 48.4763 43.2577L48.3831 41.2469C48.376 41.094 48.4288 40.9474 48.5319 40.8343C48.6351 40.7212 48.7761 40.6549 48.929 40.6478L51.8331 40.513C52.0225 40.5044 52.204 40.5897 52.3181 40.7415C52.3529 40.7878 52.3436 40.8536 52.2973 40.8884C52.251 40.9232 52.1853 40.9138 52.1505 40.8675C52.078 40.7712 51.9632 40.717 51.8428 40.7225L48.9387 40.8573C48.8417 40.8618 48.7522 40.9038 48.6869 40.9755C48.6215 41.0473 48.588 41.1402 48.5925 41.2372L48.6858 43.248C48.6974 43.4988 48.5475 43.7254 48.3127 43.8119C47.8158 43.9947 47.3347 44.2269 46.8828 44.5018C46.6662 44.6335 46.3846 44.6067 46.1978 44.4365L44.7445 43.1121C44.5965 42.9771 44.3661 42.9878 44.2311 43.1359L42.2729 45.2847C42.1379 45.4329 42.1486 45.6632 42.2967 45.7981L43.7127 47.0886C43.9036 47.2626 43.9542 47.545 43.8358 47.7754C43.5442 48.3424 43.3189 48.9447 43.1661 49.5655C43.1056 49.8109 42.8876 49.9905 42.6359 50.0021L40.5152 50.1006C40.4183 50.1051 40.3289 50.1471 40.2635 50.2188C40.1981 50.2906 40.1646 50.3834 40.1691 50.4804L40.3038 53.3846C40.3131 53.5848 40.4842 53.7395 40.6837 53.7308L42.7332 53.6357C42.8592 53.6296 42.9852 53.6664 43.0884 53.7387C43.1358 53.7719 43.1473 53.8373 43.1141 53.8847C43.0809 53.9321 43.0155 53.9437 42.968 53.9104C42.9017 53.864 42.8236 53.8414 42.743 53.8451L40.6935 53.9402C40.6845 53.9406 40.6755 53.9408 40.6666 53.9408Z" fill="#07242B"/>
<path d="M93.8165 18.4658L96.8189 18.7567C97.1292 18.7868 97.3813 19.0196 97.4365 19.3263C97.619 20.3405 97.926 21.3165 98.3426 22.236C98.4726 22.523 98.3948 22.8612 98.1517 23.0614L96.1998 24.6685C95.9032 24.9128 95.8607 25.3513 96.1049 25.648L98.851 28.9832C99.0953 29.2799 99.5338 29.3224 99.8305 29.0781L101.833 27.4296C102.072 27.2328 102.412 27.2177 102.668 27.3926C103.404 27.8958 104.198 28.3225 105.041 28.6605C105.327 28.7755 105.503 29.0658 105.473 29.3731L105.192 32.2815C105.155 32.664 105.435 33.0041 105.817 33.0412L110.117 33.4578C110.5 33.4949 110.84 33.2148 110.877 32.8323L111.152 29.9985C111.182 29.6857 111.418 29.432 111.728 29.3797C112.788 29.2005 113.809 28.8852 114.767 28.4509C115.054 28.3211 115.392 28.3993 115.592 28.6422L117.348 30.7754C117.592 31.0721 118.031 31.1145 118.328 30.8703L121.663 28.1242C121.96 27.8799 122.002 27.4414 121.758 27.1447L119.96 24.9613C119.764 24.7225 119.748 24.3824 119.923 24.1271C120.45 23.3564 120.893 22.5215 121.239 21.6342C121.352 21.343 121.644 21.1619 121.955 21.192L124.693 21.4573C125.075 21.4943 125.415 21.2143 125.452 20.8318L125.869 16.5316C125.906 16.1491 125.626 15.809 125.243 15.7719L122.505 15.5066C122.195 15.4766 121.943 15.2441 121.888 14.9374C121.701 13.8998 121.385 12.9019 120.953 11.9637C120.821 11.6763 120.899 11.3362 121.143 11.1351L123.497 9.19713C123.793 8.95285 123.836 8.51434 123.592 8.21762L120.846 4.88238C120.601 4.58571 120.163 4.5432 119.866 4.78748L117.431 6.79272C117.192 6.98907 116.853 7.00397 116.597 6.831C115.808 6.29772 114.952 5.85184 114.043 5.50877C113.748 5.39759 113.563 5.10356 113.594 4.78999L113.868 1.95624C113.905 1.57374 113.625 1.23358 113.243 1.19654L108.943 0.779901C108.56 0.742856 108.22 1.0229 108.183 1.4054L107.901 4.31373C107.871 4.62192 107.641 4.87237 107.337 4.93041C106.546 5.08142 105.779 5.3081 105.044 5.60363C104.764 5.71662 104.442 5.63327 104.25 5.39962L102.348 3.09029C102.104 2.79361 101.665 2.7511 101.369 2.99538L98.0336 5.74145C97.7369 5.98574 97.6944 6.42425 97.9387 6.72097L99.6898 8.8478C99.8943 9.09627 99.9007 9.45174 99.7079 9.70938C99.0447 10.5957 98.4959 11.5759 98.0856 12.63C97.9724 12.9208 97.6803 13.1014 97.3697 13.0713L94.3674 12.7804C93.9848 12.7434 93.6447 13.0234 93.6077 13.4059L93.191 17.7061C93.154 18.0886 93.434 18.4288 93.8165 18.4658ZM103.119 16.4977C103.469 12.8841 106.683 10.2385 110.296 10.5886C113.91 10.9387 116.555 14.1519 116.205 17.7655C115.855 21.3792 112.642 24.0248 109.028 23.6747C105.415 23.3246 102.769 20.1114 103.119 16.4977Z" fill="#D4D0D0"/>
<path d="M116.211 16.6572C116.154 16.6572 116.106 16.614 116.101 16.5566C115.828 13.4622 113.383 10.9985 110.286 10.6984C107.697 10.4478 105.223 11.7618 103.981 14.0464C103.952 14.0999 103.885 14.1198 103.831 14.0906C103.778 14.0615 103.758 13.9946 103.787 13.9411C105.071 11.5786 107.63 10.2194 110.307 10.4789C113.509 10.7892 116.039 13.3371 116.321 16.5373C116.326 16.5979 116.281 16.6515 116.221 16.6568C116.217 16.6571 116.214 16.6572 116.211 16.6572ZM120.907 11.6273C120.899 11.6273 120.891 11.6264 120.883 11.6245C120.823 11.611 120.786 11.5518 120.8 11.4925C120.839 11.3197 120.936 11.1625 121.073 11.05L123.427 9.11203C123.676 8.90682 123.712 8.53702 123.507 8.28771L120.76 4.95248C120.555 4.70321 120.185 4.6674 119.936 4.87265L117.501 6.87785C117.227 7.10308 116.83 7.12148 116.535 6.9224C115.745 6.38845 114.894 5.94756 114.004 5.61198C113.663 5.48334 113.449 5.14102 113.484 4.77942L113.759 1.94563C113.79 1.62425 113.554 1.33741 113.232 1.30628L108.932 0.889685C108.776 0.874647 108.624 0.921042 108.503 1.02049C108.383 1.1199 108.308 1.26041 108.293 1.41609L108.011 4.32446C107.977 4.67821 107.708 4.97197 107.358 5.03883C106.583 5.18675 105.818 5.41123 105.086 5.70605C104.759 5.83739 104.389 5.74244 104.165 5.46984L102.263 3.16047C102.058 2.91116 101.688 2.87539 101.439 3.08064L98.1036 5.82672C97.9539 5.94994 97.875 6.13901 97.8926 6.33244C97.8982 6.39308 97.8535 6.44671 97.7928 6.45222C97.7324 6.45751 97.6785 6.41306 97.673 6.35242C97.6488 6.08626 97.7574 5.8261 97.9634 5.65648L101.299 2.91041C101.642 2.62789 102.151 2.67724 102.433 3.02036L104.335 5.32969C104.498 5.52771 104.766 5.59677 105.003 5.50151C105.749 5.20144 106.527 4.9729 107.316 4.82229C107.571 4.77364 107.766 4.56023 107.791 4.30325L108.073 1.39492C108.094 1.18063 108.197 0.987196 108.363 0.850346C108.529 0.713497 108.739 0.649637 108.953 0.670321L113.253 1.08691C113.696 1.12978 114.021 1.52458 113.978 1.96697L113.704 4.80077C113.678 5.06344 113.834 5.31222 114.081 5.40572C114.987 5.74738 115.855 6.19625 116.659 6.73981C116.877 6.88685 117.158 6.87397 117.36 6.70771L119.796 4.70251C120.139 4.41994 120.648 4.46929 120.931 4.81245L123.677 8.14774C123.959 8.4909 123.91 8.99992 123.567 9.28244L121.213 11.2204C121.112 11.3033 121.044 11.4144 121.015 11.5417C121.003 11.5927 120.958 11.6273 120.907 11.6273Z" fill="#210000"/>
<path d="M90.2061 106.018L92.8398 105.774C93.1119 105.748 93.3339 105.545 93.3834 105.276C93.4776 104.764 93.6092 104.264 93.7734 103.777H99.4901C98.6577 104.883 98.2184 106.29 98.3565 107.776C98.6509 110.946 101.459 113.277 104.629 112.983C107.799 112.688 110.13 109.88 109.836 106.71C109.733 105.605 109.325 104.603 108.703 103.777H117.859C117.911 103.858 117.946 103.951 117.955 104.054L118.305 107.826C118.337 108.161 118.09 108.459 117.754 108.49L115.353 108.713C115.081 108.738 114.859 108.941 114.809 109.21C114.642 110.119 114.361 110.993 113.979 111.814C113.863 112.066 113.929 112.364 114.143 112.541L116.2 114.249C116.459 114.464 116.495 114.849 116.28 115.108L113.86 118.023C113.645 118.283 113.26 118.318 113.001 118.103L110.872 116.336C110.664 116.163 110.367 116.149 110.142 116.3C109.448 116.765 108.696 117.153 107.897 117.45C107.638 117.547 107.475 117.804 107.501 118.079L107.732 120.565C107.763 120.901 107.516 121.198 107.181 121.229L103.408 121.579C103.073 121.611 102.776 121.364 102.744 121.028L102.507 118.477C102.482 118.207 102.281 117.986 102.015 117.934C101.322 117.799 100.65 117.598 100.007 117.336C99.7612 117.236 99.4788 117.308 99.3093 117.512L97.634 119.531C97.4188 119.79 97.0341 119.826 96.7748 119.61L93.8597 117.191C93.6003 116.976 93.5646 116.591 93.7798 116.332L95.3228 114.473C95.503 114.256 95.5098 113.944 95.3416 113.717C94.7632 112.938 94.2853 112.076 93.9292 111.151C93.831 110.895 93.5755 110.736 93.303 110.761L90.6693 111.006C90.3337 111.037 90.0364 110.79 90.0053 110.455L89.6549 106.682C89.6238 106.347 89.8705 106.05 90.2061 106.018Z" fill="#D4D0D0"/>
<path d="M103.351 121.687C103.185 121.687 103.025 121.629 102.895 121.522C102.749 121.4 102.658 121.228 102.64 121.038L102.403 118.487C102.383 118.265 102.215 118.08 101.995 118.037C101.303 117.902 100.621 117.699 99.9676 117.433C99.7636 117.35 99.5314 117.409 99.3901 117.579L97.7148 119.597C97.5928 119.744 97.4209 119.835 97.2307 119.853C97.0406 119.871 96.8549 119.813 96.7079 119.691L93.7928 117.271C93.6106 117.12 93.5152 116.889 93.5377 116.653C93.5431 116.595 93.5944 116.553 93.6519 116.559C93.7096 116.564 93.7519 116.615 93.7464 116.673C93.7306 116.84 93.798 117.003 93.9267 117.11L96.8419 119.53C97.0563 119.708 97.3755 119.678 97.5535 119.463L99.2288 117.445C99.4288 117.204 99.7573 117.121 100.047 117.239C100.688 117.5 101.357 117.699 102.035 117.831C102.346 117.892 102.583 118.153 102.612 118.467L102.849 121.018C102.861 121.153 102.926 121.274 103.029 121.361C103.133 121.447 103.264 121.487 103.399 121.475L107.171 121.125C107.449 121.099 107.653 120.852 107.628 120.575L107.397 118.089C107.367 117.768 107.558 117.465 107.861 117.352C108.641 117.061 109.389 116.678 110.083 116.213C110.345 116.037 110.697 116.055 110.939 116.256L113.068 118.022C113.282 118.2 113.602 118.171 113.78 117.956L116.199 115.041C116.377 114.827 116.348 114.508 116.133 114.33L114.076 112.622C113.955 112.522 113.869 112.382 113.835 112.229C113.822 112.172 113.858 112.116 113.914 112.103C113.971 112.09 114.027 112.126 114.04 112.183C114.064 112.293 114.123 112.389 114.21 112.461L116.267 114.168C116.57 114.42 116.612 114.872 116.361 115.175L113.941 118.09C113.819 118.237 113.647 118.328 113.457 118.346C113.267 118.363 113.081 118.306 112.934 118.184L110.805 116.417C110.634 116.275 110.386 116.263 110.2 116.387C109.492 116.861 108.73 117.252 107.934 117.549C107.719 117.629 107.584 117.843 107.605 118.069L107.836 120.555C107.873 120.948 107.583 121.297 107.19 121.333L103.418 121.684C103.396 121.686 103.373 121.687 103.351 121.687ZM104.091 113.113C101.945 113.113 99.9583 111.941 98.9261 110.024C98.8986 109.974 98.9177 109.91 98.9687 109.882C99.0197 109.855 99.0833 109.874 99.1107 109.925C100.19 111.93 102.353 113.089 104.62 112.878C107.333 112.626 109.483 110.478 109.732 107.769C109.738 107.711 109.789 107.669 109.846 107.674C109.904 107.68 109.946 107.731 109.941 107.788C109.682 110.597 107.452 112.826 104.639 113.087C104.456 113.104 104.273 113.113 104.091 113.113Z" fill="#07242B"/>
<path d="M167.276 18.4671V105.826C167.276 107.268 166.095 108.438 164.638 108.438H54.8762C53.4197 108.438 52.2388 107.268 52.2388 105.826V18.4671C52.2388 17.0245 53.4197 15.855 54.8762 15.855H164.638C166.095 15.855 167.276 17.0245 167.276 18.4671Z" fill="white"/>
<path d="M167.276 17.9158V26.1383H52.2388V17.9158C52.2388 16.7777 53.1704 15.855 54.3197 15.855H165.195C166.344 15.855 167.276 16.7777 167.276 17.9158Z" fill="#D9D7CB"/>
<path d="M61.9835 22.4045C62.7686 22.4045 63.4051 21.7741 63.4051 20.9965C63.4051 20.219 62.7686 19.5886 61.9835 19.5886C61.1984 19.5886 60.5619 20.219 60.5619 20.9965C60.5619 21.7741 61.1984 22.4045 61.9835 22.4045Z" fill="white"/>
<path d="M66.3271 22.4045C67.1122 22.4045 67.7487 21.7741 67.7487 20.9965C67.7487 20.219 67.1122 19.5886 66.3271 19.5886C65.542 19.5886 64.9055 20.219 64.9055 20.9965C64.9055 21.7741 65.542 22.4045 66.3271 22.4045Z" fill="white"/>
<path d="M57.4861 22.4047C58.2712 22.4047 58.9077 21.7744 58.9077 20.9968C58.9077 20.2192 58.2712 19.5889 57.4861 19.5889C56.701 19.5889 56.0645 20.2192 56.0645 20.9968C56.0645 21.7744 56.701 22.4047 57.4861 22.4047Z" fill="white"/>
<path d="M167.276 67.0564C167.215 67.0564 167.166 67.0071 167.166 66.9462V18.4588C167.166 17.0839 166.036 15.9654 164.647 15.9654H111.084C111.023 15.9654 110.974 15.916 110.974 15.8551C110.974 15.7942 111.023 15.7449 111.084 15.7449H164.647C166.157 15.7449 167.386 16.9623 167.386 18.4588V66.9462C167.386 67.0071 167.337 67.0564 167.276 67.0564Z" fill="#210000"/>
<path d="M95.9762 67.1718C95.3087 69.1553 94.3568 70.9615 93.1809 72.5629C93.1033 72.6688 93.0246 72.7735 92.9453 72.8776C92.7604 73.119 92.5703 73.3552 92.3755 73.5866C92.2612 73.7227 92.1452 73.8565 92.0274 73.9891C91.8181 74.2247 91.6041 74.455 91.3838 74.6789C91.3074 74.7579 91.2293 74.8359 91.1512 74.9132C91.1442 74.9202 91.1372 74.9272 91.1296 74.9342C91.0701 74.9929 91.0101 75.0511 90.95 75.1087C90.9389 75.1197 90.9273 75.1302 90.9162 75.1412C90.7582 75.2924 90.5979 75.4401 90.4352 75.5849C90.3863 75.6296 90.3367 75.6727 90.2872 75.7163C90.2376 75.7599 90.1875 75.8029 90.1374 75.8459C90.0808 75.8947 90.0237 75.9436 89.9666 75.9907C89.9543 76.0011 89.9427 76.0116 89.9304 76.0215C89.3761 76.4842 88.7985 76.915 88.1995 77.3125C87.9028 77.5101 87.601 77.699 87.2945 77.8797C87.0678 78.0133 86.8383 78.1428 86.6064 78.2671C86.4426 78.3554 86.2772 78.4414 86.1105 78.525C86.0907 78.5349 86.0704 78.5454 86.0499 78.5552C85.846 78.6563 85.6409 78.7539 85.4341 78.8479C85.3165 78.9013 85.1982 78.9542 85.0788 79.0053C84.8283 79.1132 84.5754 79.2166 84.3203 79.3141C84.315 79.3158 84.3098 79.3181 84.3045 79.3199C84.0692 79.411 83.8321 79.4963 83.5933 79.5769C83.5391 79.5955 83.4844 79.6141 83.4296 79.6314C83.408 79.639 83.3859 79.6465 83.3638 79.6535C82.486 79.9394 81.5873 80.1648 80.6723 80.3267C80.5191 80.3533 80.3654 80.3787 80.2116 80.4023C80.1068 80.4185 80.0014 80.4335 79.896 80.4479C79.546 80.4958 79.1937 80.5338 78.8396 80.5625C78.358 80.6015 77.8735 80.6224 77.3874 80.6253C77.3623 80.6258 77.3379 80.6258 77.3128 80.6258C76.3655 80.6286 75.4112 80.5628 74.4559 80.4248C74.095 80.3731 73.7352 80.3103 73.3749 80.2371C73.2992 80.2224 73.223 80.2066 73.1473 80.1902C73.1368 80.1879 73.1269 80.1861 73.1164 80.1838C73.0355 80.1662 72.9534 80.1481 72.8726 80.1293C72.7975 80.1123 72.7224 80.0942 72.6473 80.076C72.1734 79.9619 71.6997 79.8291 71.2283 79.6777C71.1363 79.6485 71.0449 79.6186 70.9535 79.5877C70.8785 79.5625 70.8034 79.5368 70.7289 79.5106C70.3907 79.3925 70.0584 79.2663 69.7314 79.1314C69.5382 79.0525 69.3473 78.9702 69.1582 78.8855C68.8323 78.7396 68.5123 78.5855 68.198 78.4237C67.9065 78.2743 67.6196 78.1173 67.3392 77.9545C67.2298 77.8915 67.1216 77.8273 67.014 77.762C65.9708 77.1307 64.9999 76.4109 64.1089 75.6156C63.8535 75.3882 63.6052 75.1544 63.3633 74.9148C63.3086 74.8612 63.2545 74.8069 63.201 74.7521C62.9237 74.4711 62.6556 74.1826 62.3963 73.8859C62.2759 73.7477 62.1573 73.6084 62.0405 73.4668C61.9166 73.317 61.7951 73.1654 61.676 73.0122C61.644 72.9708 61.612 72.9294 61.5807 72.8874C61.5708 72.8746 61.5609 72.8624 61.5516 72.8496C61.4818 72.7586 61.4132 72.6666 61.3458 72.5745C61.3156 72.5348 61.2865 72.4946 61.258 72.455C57.6462 67.4599 56.4202 60.8532 58.5365 54.5651C62.0175 44.2269 73.2208 38.6676 83.5591 42.148C93.8974 45.6297 99.4572 56.833 95.9762 67.1718Z" fill="#F2F0E3"/>
<path d="M79.9559 46.0146C78.7948 45.4029 77.497 45.0346 76.1801 44.9433C75.4684 44.8939 74.6968 44.9431 74.1434 45.3703C73.7771 45.653 73.5474 46.0722 73.1847 46.3592C72.5513 46.8602 71.6384 46.8723 70.9122 47.2404C69.7642 47.8224 69.2875 49.213 69.406 50.4597C69.5053 51.5048 69.6439 51.9774 69.0464 52.8196C68.5023 53.5866 67.9334 54.2486 67.6907 55.1888C67.3998 56.3159 67.6908 57.6679 68.6468 58.3197C68.9922 58.5552 69.4136 58.6982 69.6731 59.0276C69.8622 59.2676 69.9392 59.5751 70.0536 59.8592C70.5895 61.19 72.1128 62.0329 73.512 61.773C74.082 61.6671 74.6188 61.402 75.1956 61.345C76.2907 61.2367 77.2988 61.8805 78.329 62.271C79.3592 62.6615 80.7488 62.6885 81.3199 61.7388C81.4533 61.5169 81.5324 61.2527 81.7268 61.0829C82.0337 60.8148 82.4918 60.8823 82.8975 60.8753C84.5229 60.8475 85.829 59.3234 86.1341 57.7111C86.4392 56.0988 85.9663 54.444 85.3852 52.9111C85.1388 52.2613 84.8382 51.5559 84.3388 51.0595C83.7988 50.5226 83.1853 50.4233 82.8217 49.6899C82.4417 48.9238 82.5153 47.989 82.0408 47.2725C81.5933 46.5966 80.6869 46.3998 79.9559 46.0146Z" fill="#3A2B2F"/>
<path d="M83.1811 47.3234C83.4084 47.7437 83.5268 48.2214 83.828 48.5969C84.097 48.9323 84.4959 49.1639 84.7266 49.5245C85.2285 50.3086 84.7542 51.3227 84.9014 52.2298C84.9561 52.5668 85.0975 52.8862 85.1676 53.2207C85.3043 53.8726 85.1539 54.5731 84.7607 55.1158C84.5514 55.4047 84.2406 55.664 83.8725 55.6694C83.5454 55.6743 83.2512 55.479 83.0074 55.2674C82.5735 54.8908 82.2152 54.434 81.9582 53.9301C81.6894 53.403 81.5333 52.8317 81.3217 52.2815C80.9799 51.3931 80.4903 50.5562 79.8773 49.8124C79.6298 49.5121 79.36 49.2236 79.1766 48.8838C78.7233 48.0444 78.9318 46.3032 79.9632 45.8893C81.1045 45.4313 82.6661 46.3712 83.1811 47.3234Z" fill="#3A2B2F"/>
<path d="M81.6714 55.5394C81.6714 55.5394 82.7222 53.2481 84.1808 54.236C84.5834 54.5087 84.8634 54.9375 84.9685 55.4154C85.1914 56.4292 85.0559 58.1787 82.5651 58.7848C82.611 58.8911 81.6714 55.5394 81.6714 55.5394Z" fill="#DD7A5C"/>
<path d="M73.792 67.6741L74.0817 57.0903L80.9699 60.5078L80.7249 68.4518C80.7082 68.9935 80.9938 69.4988 81.4641 69.7599L84.8553 71.1679C84.8553 71.1679 78.3912 78.9178 68.9124 70.1274C70.1602 69.7975 71.7617 69.3218 72.7757 69.0149C73.3657 68.8364 73.775 68.2958 73.792 67.6741Z" fill="#F59979"/>
<path d="M73.9466 62.0292L73.9842 60.6536C74.3208 59.7364 74.8846 58.4772 75.255 57.6726L80.97 60.508L80.8252 65.2019C79.3868 65.4278 76.7907 65.2169 73.9466 62.0292Z" fill="#DD7A5C"/>
<path d="M72.4559 55.515C72.6667 60.1933 75.4344 63.5818 78.6387 63.7192C83.4576 63.9258 84.2691 59.6601 84.0584 54.9818C83.8476 50.3036 81.0795 46.6305 77.8755 46.7777C74.6716 46.925 72.2452 50.8368 72.4559 55.515Z" fill="#F59979"/>
<path d="M77.2835 55.3626C77.3173 55.676 77.2151 55.9445 77.055 55.9621C76.895 55.9798 76.7377 55.7399 76.7039 55.4264C76.67 55.1129 76.7723 54.8445 76.9323 54.8268C77.0924 54.8092 77.2496 55.049 77.2835 55.3626Z" fill="#3A2B2F"/>
<path d="M82.3501 56.1558C82.5102 56.1386 82.6128 55.8705 82.5791 55.557C82.5455 55.2435 82.3884 55.0032 82.2283 55.0204C82.0682 55.0376 81.9657 55.3057 81.9993 55.6192C82.033 55.9327 82.19 56.173 82.3501 56.1558Z" fill="#3A2B2F"/>
<path d="M75.7781 54.1626C75.731 54.1626 75.6873 54.1321 75.6727 54.0846C75.655 54.0264 75.6877 53.9647 75.746 53.9469C77.0407 53.5513 77.9236 53.8984 77.9605 53.9135C78.017 53.9363 78.0442 54.0006 78.0213 54.057C77.9985 54.1134 77.9343 54.1406 77.8779 54.1179C77.8658 54.1131 77.023 53.7873 75.8104 54.1578C75.7997 54.1611 75.7888 54.1626 75.7781 54.1626Z" fill="#3A2B2F"/>
<path d="M83.1186 54.4131C83.1078 54.4131 83.0968 54.4115 83.086 54.4081C83.076 54.405 82.0817 54.1027 81.2356 54.3348C81.1768 54.3511 81.1162 54.3164 81.1002 54.2577C81.084 54.1989 81.1186 54.1383 81.1773 54.1222C82.0867 53.8726 83.1083 54.1841 83.1514 54.1975C83.2095 54.2156 83.2419 54.2773 83.2239 54.3355C83.2092 54.3827 83.1656 54.4131 83.1186 54.4131Z" fill="#3A2B2F"/>
<path d="M79.9461 58.6045C79.7611 58.6045 79.5485 58.5824 79.3088 58.538C79.249 58.5269 79.2094 58.4694 79.2205 58.4095C79.2316 58.3496 79.2892 58.3102 79.349 58.3212C80.1203 58.464 80.4225 58.3405 80.5402 58.2119C80.6544 58.087 80.6184 57.9255 80.6128 57.9034C79.9416 55.997 80.1315 54.748 80.1399 54.6958C80.1496 54.6356 80.2064 54.5948 80.2663 54.6044C80.3264 54.6141 80.3673 54.6706 80.3577 54.7307C80.3557 54.743 80.1696 55.983 80.8221 57.8339C80.8227 57.8357 80.8233 57.8375 80.8239 57.8393C80.8274 57.8512 80.9077 58.1332 80.7057 58.3575C80.5577 58.5221 80.3032 58.6045 79.9461 58.6045Z" fill="#302626"/>
<path d="M80.69 60.2226C80.69 60.2226 80.3509 62.4394 77.8958 60.0745L80.69 60.2226Z" fill="white"/>
<path d="M73.0664 55.6558C73.0664 55.6558 71.1514 54.032 70.2464 55.552C69.9966 55.9715 69.9234 56.4798 70.0293 56.9576C70.2539 57.9709 71.1123 59.4967 73.6223 58.9772C73.6254 59.0932 73.0664 55.6558 73.0664 55.6558Z" fill="#F59979"/>
<path d="M72.8267 57.9018C72.7886 57.9018 72.7516 57.882 72.7312 57.8467C72.0089 56.5972 70.7446 56.4909 70.7319 56.49C70.6712 56.4855 70.6255 56.4328 70.6299 56.3722C70.6342 56.3115 70.6868 56.266 70.7474 56.27C70.8039 56.274 72.1394 56.3823 72.9221 57.7363C72.9526 57.789 72.9346 57.8565 72.8818 57.8869C72.8644 57.897 72.8454 57.9018 72.8267 57.9018Z" fill="#302626"/>
<path d="M71.4396 57.5919C71.4128 57.5919 71.3858 57.5821 71.3646 57.5624C71.32 57.521 71.3174 57.4512 71.3589 57.4066L71.8808 56.8448C71.9223 56.8002 71.9921 56.7976 72.0366 56.839C72.0812 56.8805 72.0838 56.9502 72.0424 56.9948L71.5204 57.5567C71.4987 57.5801 71.4692 57.5919 71.4396 57.5919Z" fill="#302626"/>
<path d="M81.0311 46.6101C80.9356 47.4389 80.5886 49.1321 79.8295 49.5356C78.9809 49.9866 77.7822 50.0985 77.4202 50.9617C77.2716 51.3162 77.3119 51.7282 77.1433 52.0743C76.6606 53.0653 74.9769 52.8137 74.24 53.6476C73.9305 53.9979 73.8452 54.4835 73.586 54.8697C73.3268 55.2558 72.711 55.5127 72.379 55.1759C72.1203 53.9041 71.8718 52.7081 72.0656 51.4298C72.2594 50.1514 72.8935 48.8884 74.008 48.1679C74.6616 47.7453 74.6038 46.4578 75.3726 46.2825C76.9313 45.927 79.6853 45.7594 81.0311 46.6101Z" fill="#3A2B2F"/>
<path d="M83.8779 53.1537C83.6976 52.8508 83.4162 52.6265 83.1627 52.383C82.9091 52.1395 82.669 51.8507 82.6151 51.5016C82.5758 51.247 82.6399 50.9828 82.5864 50.7309C82.5015 50.3301 82.1428 50.0517 81.785 49.8582C81.4271 49.6649 81.0331 49.5103 80.7617 49.2055C80.421 48.8229 80.3417 48.2252 80.5707 47.7656C81.1407 47.589 81.718 47.2402 82.2914 47.4052C82.8649 47.5703 83.3833 48.0044 83.5428 48.5845C83.7077 49.1841 83.5101 49.9218 83.9335 50.3739C84.0759 50.5261 84.269 50.6174 84.4385 50.738C85.1152 51.2193 85.3564 52.2304 84.971 52.9701C84.8899 53.1256 84.7856 53.2685 84.7127 53.4281C84.6042 53.6656 84.5632 53.942 84.3905 54.1369C84.2177 54.3317 84.0581 53.4565 83.8779 53.1537Z" fill="#3A2B2F"/>
<path d="M69.0271 57.5704C68.9932 57.5704 68.9599 57.5549 68.9382 57.5256C68.7785 57.3092 68.5538 57.1571 68.3159 56.996C68.1808 56.9046 68.0411 56.81 67.9131 56.702C67.0426 55.967 66.8252 54.5798 67.4286 53.6096C67.6889 53.1909 68.0691 52.8688 68.4367 52.5573C68.8538 52.2039 69.2478 51.8701 69.4793 51.4089C69.8018 50.7664 69.7393 49.9636 69.689 49.3185C69.6843 49.2578 69.7297 49.2047 69.7904 49.2C69.8509 49.1955 69.9041 49.2406 69.9089 49.3014C69.9613 49.9737 70.0265 50.8104 69.6764 51.5079C69.4246 52.0092 68.9949 52.3734 68.5793 52.7256C68.2247 53.026 67.8579 53.3368 67.6159 53.7261C67.0681 54.607 67.2653 55.8664 68.0554 56.5334C68.1745 56.6339 68.3092 56.7252 68.4396 56.8134C68.6824 56.9779 68.9336 57.1478 69.1157 57.3947C69.1519 57.4436 69.1415 57.5127 69.0925 57.5489C69.0727 57.5634 69.0498 57.5704 69.0271 57.5704Z" fill="#3A2B2F"/>
<path d="M84.9877 58.6031C84.9839 58.6031 84.98 58.6029 84.9761 58.6025C84.9155 58.5961 84.8716 58.5419 84.8779 58.4813C84.9022 58.2495 85.1 58.1064 85.2589 57.9914L85.2728 57.9813C85.9762 57.4714 86.4614 56.6844 86.6041 55.8218C86.7467 54.9592 86.5411 54.0554 86.0398 53.3422C85.8695 53.0998 85.6627 52.8757 85.4628 52.659C85.2836 52.4646 85.0982 52.2635 84.9353 52.0463C84.6853 51.7128 84.2924 51.0503 84.4706 50.3593C84.4858 50.3004 84.5461 50.2649 84.6049 50.2801C84.6639 50.2953 84.6993 50.3554 84.6841 50.4144C84.5289 51.0161 84.8854 51.6122 85.1116 51.914C85.2679 52.1223 85.4494 52.3191 85.6249 52.5094C85.8297 52.7315 86.0414 52.9611 86.2202 53.2154C86.7544 53.9755 86.9736 54.9386 86.8216 55.8578C86.6695 56.7771 86.1522 57.6162 85.4022 58.1599L85.3882 58.1701C85.252 58.2686 85.1112 58.3705 85.0972 58.5044C85.0913 58.561 85.0435 58.6031 84.9877 58.6031Z" fill="#3A2B2F"/>
<path d="M70.9535 79.5881C70.8785 79.5629 70.8034 79.5372 70.7289 79.5109L71.0814 76.058L71.4788 72.1719L71.7706 69.3157L71.8785 68.2597L71.8803 68.2422L71.9024 68.2428L73.6398 68.2823L77.8855 68.3791L77.9076 68.3797L78.0817 68.3834L78.1155 68.384L80.7252 68.4438L82.8969 68.4931C82.8969 68.4931 83.0544 69.2439 83.3229 70.531C83.4265 71.0284 83.5469 71.6067 83.6811 72.2532C83.8229 72.9341 83.9797 73.6906 84.1493 74.5077C84.43 75.8618 84.7448 77.3837 85.0787 79.0057C84.8282 79.1137 84.5754 79.217 84.3202 79.3145C84.315 79.3163 84.3097 79.3186 84.3045 79.3203C84.0692 79.4115 83.8321 79.4967 83.5933 79.5774C83.5391 79.5959 83.4843 79.6145 83.4295 79.6319C83.408 79.6394 83.3859 79.647 83.3638 79.6539C82.4859 79.9399 81.5872 80.1653 80.6723 80.3271C80.5191 80.3537 80.3654 80.3791 80.2116 80.4028C80.1067 80.419 80.0013 80.434 79.8959 80.4484C79.5459 80.4963 79.1936 80.5343 78.8396 80.5629C78.358 80.6019 77.8735 80.6229 77.3873 80.6257C77.3623 80.6263 77.3378 80.6262 77.3128 80.6262C76.3654 80.6291 75.4112 80.5633 74.4559 80.4252C74.0949 80.3735 73.7352 80.3108 73.3748 80.2375C73.2992 80.2229 73.2229 80.2071 73.1472 80.1907C73.1367 80.1883 73.1269 80.1866 73.1164 80.1842C73.0355 80.1667 72.9534 80.1485 72.8725 80.1297C72.7974 80.1128 72.7223 80.0946 72.6472 80.0765C72.1734 79.9623 71.6996 79.8295 71.2282 79.6781C71.1363 79.6489 71.0449 79.619 70.9535 79.5881Z" fill="#FDF3E4"/>
<path d="M92.0848 71.4607L93.1809 72.5632C93.1034 72.669 93.0246 72.7737 92.9453 72.8778C92.7604 73.1193 92.5703 73.3554 92.3755 73.5869C92.2612 73.723 92.1452 73.8568 92.0274 73.9893C91.8181 74.2249 91.6041 74.4552 91.3838 74.6791L92.0848 71.4607Z" fill="#4A6C61"/>
<path d="M60.389 74.5735L60.3895 74.5753C60.386 74.5782 60.3825 74.5804 60.379 74.5834L60.389 74.5735Z" fill="#ABA197"/>
<path d="M77.9781 68.2642L76.2509 70.3944L77.7281 71.885L78.1934 72.1247L78.5623 71.8714L80.0166 70.0393L77.9781 68.2642Z" fill="#4F8DB4"/>
<path d="M78.8397 80.5627C78.3581 80.6017 77.8736 80.6227 77.3875 80.6255C77.5048 78.09 77.5909 75.8827 77.6464 74.3206C77.7019 72.7957 77.7281 71.8851 77.7281 71.8851L78.5625 71.8716C78.7073 72.4616 78.8629 73.2706 79.0253 74.2466C79.3021 75.914 79.5992 78.0687 79.8961 80.4482C79.546 80.496 79.1938 80.534 78.8397 80.5627Z" fill="#4F8DB4"/>
<path d="M73.5918 66.1479L77.9781 68.2642L76.0208 71.4492L71.8802 68.2423L73.5918 66.1479Z" fill="#FDF3E4"/>
<path d="M76.0208 71.5594C75.9965 71.5594 75.9727 71.5514 75.9532 71.5363L71.8127 68.3295C71.7645 68.2922 71.7557 68.2229 71.793 68.1748C71.8303 68.1267 71.8995 68.1179 71.9476 68.1552L75.9911 71.2868L77.7671 68.397C77.799 68.3451 77.8669 68.3289 77.9187 68.3608C77.9706 68.3927 77.9868 68.4606 77.955 68.5124L76.1147 71.5069C76.0982 71.5336 76.0713 71.552 76.0405 71.5576C76.0339 71.5588 76.0273 71.5594 76.0208 71.5594Z" fill="#07242B"/>
<path d="M77.9781 68.2641L80.6874 71.373L82.897 68.493L81.3508 66.8069L77.9781 68.2641Z" fill="#FDF3E4"/>
<path d="M80.6874 71.4833C80.6555 71.4833 80.6252 71.4696 80.6042 71.4455L78.6472 69.1998C78.6072 69.1539 78.612 69.0843 78.6579 69.0443C78.7038 69.0042 78.7735 69.009 78.8135 69.0549L80.6819 71.1991L82.8095 68.426C82.8466 68.3777 82.9157 68.3685 82.9641 68.4056C83.0124 68.4427 83.0215 68.5119 82.9844 68.5602L80.7748 71.4402C80.7546 71.4665 80.7238 71.4823 80.6907 71.4833C80.6896 71.4833 80.6885 71.4833 80.6874 71.4833Z" fill="#07242B"/>
<path d="M86.6064 78.2673C86.4427 78.3556 86.2773 78.4416 86.1106 78.5252C86.0908 78.5351 86.0704 78.5455 86.05 78.5554C85.8461 78.6565 85.641 78.7541 85.4342 78.8481C85.3165 78.9015 85.1983 78.9543 85.0788 79.0055C84.8283 79.1134 84.5755 79.2168 84.3204 79.3143C84.3151 79.316 84.3099 79.3183 84.3046 79.3201C84.0693 79.4112 83.8322 79.4965 83.5934 79.5771C83.5392 79.5957 83.4844 79.6142 83.4297 79.6316C83.2926 77.0736 83.1779 74.7508 83.0827 72.686C83.0447 71.8801 83.0102 71.1138 82.9785 70.3883C82.949 69.7215 82.9219 69.0898 82.897 68.4929C82.897 68.4929 91.836 71.1878 92.0848 71.4607C92.0645 72.3008 92.0454 73.1433 92.0275 73.9893C91.8181 74.2249 91.6042 74.4552 91.3838 74.6791C91.3074 74.7582 91.2293 74.8361 91.1512 74.9135C91.1442 74.9204 91.1372 74.9274 91.1296 74.9344C91.0702 74.9932 91.0101 75.0513 90.95 75.1089C90.939 75.1199 90.9273 75.1304 90.9162 75.1414C90.7582 75.2926 90.5979 75.4403 90.4353 75.5851C90.3863 75.6299 90.3367 75.6729 90.2872 75.7165C90.2376 75.7601 90.1875 75.8031 90.1374 75.8461C90.0809 75.895 90.0238 75.9438 89.9666 75.9909C89.9543 76.0013 89.9427 76.0118 89.9304 76.0217C89.3761 76.4845 88.7986 76.9152 88.1995 77.3127C87.9029 77.5103 87.601 77.6992 87.2945 77.8799C87.0679 78.0135 86.8383 78.143 86.6064 78.2673Z" fill="#045385"/>
<path d="M71.8914 68.2506C71.8891 68.2517 71.8862 68.254 71.8832 68.2564C71.8815 68.2465 71.8804 68.2418 71.8804 68.2418C71.9107 68.2232 71.9486 68.2087 71.9025 68.2424C71.8996 68.2447 71.8961 68.247 71.8914 68.2506Z" fill="#ABA197"/>
<path d="M73.375 80.2371C73.2993 80.2224 73.223 80.2066 73.1474 80.1902C73.1369 80.1879 73.127 80.1861 73.1165 80.1838C73.0356 80.1662 72.9535 80.1481 72.8727 80.1293C72.7975 80.1123 72.7225 80.0942 72.6474 80.076C72.1735 79.9619 71.6998 79.8291 71.2283 79.6777C71.1364 79.6485 71.045 79.6187 70.9536 79.5877C70.8786 79.5626 70.8035 79.5368 70.729 79.5106C70.3908 79.3925 70.0585 79.2663 69.7315 79.1314C69.5383 79.0526 69.3474 78.9702 69.1583 78.8855C68.8324 78.7396 68.5124 78.5855 68.1981 78.4237C67.9066 78.2743 67.6197 78.1173 67.3393 77.9545C67.2299 77.8915 67.1217 77.8273 67.0141 77.762C65.9709 77.1307 65 76.4109 64.109 75.6156C63.8536 75.3882 63.6053 75.1544 63.3634 74.9148C63.3087 74.8612 63.2546 74.8069 63.2011 74.7521C62.9237 74.4711 62.6557 74.1826 62.3964 73.8859C62.276 73.7477 62.1574 73.6084 62.0406 73.4668C64.0602 72.2501 66.7466 70.9818 69.1407 69.7516C69.6586 69.4862 70.162 69.2219 70.6428 68.9605C71.4602 68.5161 71.7743 68.329 71.8786 68.2593C71.8804 68.2581 71.8821 68.2569 71.8833 68.2563C71.896 68.328 71.9561 68.6669 72.048 69.233C72.1774 70.0262 72.3686 71.2655 72.5779 72.8425C72.6915 73.6986 72.8109 74.6548 72.9289 75.6925C73.0855 77.075 73.2402 78.6037 73.375 80.2371Z" fill="#045385"/>
<path d="M72.8717 69.1206C72.8481 69.1206 72.8244 69.1131 72.8043 69.0975L71.8126 68.3295C71.7645 68.2922 71.7557 68.2229 71.793 68.1748C71.8303 68.1267 71.8995 68.1179 71.9476 68.1552L72.9393 68.9232C72.9874 68.9605 72.9962 69.0297 72.9589 69.0779C72.9372 69.1059 72.9046 69.1206 72.8717 69.1206Z" fill="#07242B"/>
<path d="M82.15 69.5765C82.1266 69.5765 82.103 69.5691 82.083 69.5537C82.0347 69.5166 82.0255 69.4474 82.0626 69.3991L82.8095 68.4257C82.8465 68.3775 82.9157 68.3682 82.9641 68.4054C83.0124 68.4425 83.0215 68.5117 82.9844 68.56L82.2375 69.5333C82.2158 69.5616 82.1831 69.5765 82.15 69.5765Z" fill="#07242B"/>
<path d="M159.776 43.0718C159.776 43.0718 159.776 43.0718 159.776 43.0718L101.775 42.9984C101.683 42.9984 101.609 42.9241 101.609 42.8326C101.609 42.7412 101.683 42.6672 101.775 42.6672C101.775 42.6672 101.775 42.6672 101.775 42.6672L159.776 42.7406C159.868 42.7407 159.942 42.815 159.942 42.9065C159.941 42.9978 159.867 43.0718 159.776 43.0718Z" fill="#045C94"/>
<path d="M159.769 51.5584C159.769 51.5584 159.769 51.5584 159.769 51.5584L101.764 51.485C101.672 51.4849 101.598 51.4107 101.599 51.3192C101.599 51.2278 101.673 51.1538 101.764 51.1538C101.764 51.1538 101.764 51.1538 101.764 51.1538L159.77 51.2272C159.861 51.2273 159.935 51.3015 159.935 51.393C159.935 51.4844 159.861 51.5584 159.769 51.5584Z" fill="#045C94"/>
<path d="M159.743 68.8919C159.743 68.8919 159.743 68.8919 159.743 68.8919L116.036 68.8366C115.945 68.8364 115.871 68.7622 115.871 68.6708C115.871 68.5794 115.945 68.5054 116.036 68.5054C116.036 68.5054 116.036 68.5054 116.036 68.5054L159.744 68.5607C159.835 68.5608 159.909 68.635 159.909 68.7265C159.909 68.8179 159.835 68.8919 159.743 68.8919Z" fill="#045C94"/>
<path d="M159.731 78.9353C159.731 78.9353 159.731 78.9353 159.73 78.9353L116.023 78.88C115.932 78.8799 115.858 78.8057 115.858 78.7142C115.858 78.6228 115.932 78.5488 116.024 78.5488C116.024 78.5488 116.024 78.5488 116.024 78.5488L159.731 78.6041C159.822 78.6043 159.896 78.6785 159.896 78.77C159.896 78.8613 159.822 78.9353 159.731 78.9353Z" fill="#045C94"/>
<path d="M159.756 58.8909C159.756 58.8909 159.756 58.8909 159.756 58.8909L101.755 58.8175C101.663 58.8174 101.589 58.7432 101.589 58.6517C101.589 58.5603 101.664 58.4863 101.755 58.4863C101.755 58.4863 101.755 58.4863 101.755 58.4863L159.756 58.5597C159.848 58.5598 159.922 58.6341 159.922 58.7255C159.921 58.8169 159.847 58.8909 159.756 58.8909Z" fill="#045C94"/>
<path d="M109.528 68.7017C109.53 67.5361 108.529 66.5899 107.293 66.5883C106.057 66.5867 105.054 67.5303 105.053 68.6959C105.051 69.8615 106.052 70.8077 107.288 70.8093C108.524 70.8109 109.527 69.8673 109.528 68.7017Z" fill="#045C94"/>
<path d="M109.515 78.7234C109.516 77.5578 108.515 76.6116 107.279 76.61C106.044 76.6084 105.04 77.552 105.039 78.7176C105.037 79.8832 106.038 80.8294 107.274 80.831C108.51 80.8326 109.513 79.889 109.515 78.7234Z" fill="#045C94"/>
<path d="M82.0294 38.234L85.1232 30.1782H86.2717L89.5687 38.234H88.3543L87.4146 35.7942H84.0461L83.1614 38.234H82.0294ZM84.3539 34.926H87.0849L86.2442 32.695C85.9877 32.0173 85.7972 31.4605 85.6727 31.0245C85.5701 31.541 85.4254 32.0539 85.2386 32.5631L84.3539 34.926Z" fill="#4A6C61"/>
<path d="M96.1684 35.4094L97.2344 35.6787C97.0109 36.5543 96.6088 37.2219 96.0282 37.6816C95.4475 38.1414 94.7377 38.3713 93.8989 38.3713C93.0306 38.3713 92.3245 38.1946 91.7805 37.841C91.2365 37.4875 90.8225 36.9755 90.5386 36.3052C90.2547 35.6348 90.1128 34.9149 90.1128 34.1456C90.1128 33.3067 90.273 32.5749 90.5936 31.9503C90.9141 31.3257 91.3702 30.8513 91.9618 30.5271C92.5534 30.2029 93.2046 30.0408 93.9153 30.0408C94.7212 30.0408 95.399 30.246 95.9486 30.6562C96.498 31.0665 96.8808 31.6435 97.097 32.3872L96.0474 32.6344C95.8606 32.0483 95.5894 31.6215 95.2342 31.3541C94.8788 31.0867 94.432 30.9529 93.8934 30.9529C93.2743 30.9529 92.7568 31.1013 92.3411 31.3981C91.9252 31.6948 91.633 32.0932 91.4646 32.5932C91.2961 33.0933 91.2118 33.609 91.2118 34.1401C91.2118 34.8252 91.3116 35.4232 91.5113 35.9342C91.7109 36.4453 92.0214 36.8272 92.4427 37.0799C92.864 37.3327 93.3201 37.4591 93.811 37.4591C94.408 37.4591 94.9136 37.287 95.3276 36.9426C95.7415 36.5983 96.0217 36.0872 96.1684 35.4094Z" fill="#4A6C61"/>
<path d="M104.296 35.4094L105.362 35.6787C105.138 36.5543 104.736 37.2219 104.155 37.6816C103.575 38.1414 102.865 38.3713 102.026 38.3713C101.158 38.3713 100.452 38.1946 99.9077 37.841C99.3637 37.4875 98.9497 36.9755 98.6658 36.3052C98.3819 35.6348 98.24 34.9149 98.24 34.1456C98.24 33.3067 98.4002 32.5749 98.7208 31.9503C99.0413 31.3257 99.4974 30.8513 100.089 30.5271C100.681 30.2029 101.332 30.0408 102.043 30.0408C102.848 30.0408 103.526 30.246 104.076 30.6562C104.625 31.0665 105.008 31.6435 105.224 32.3872L104.175 32.6344C103.988 32.0483 103.717 31.6215 103.361 31.3541C103.006 31.0867 102.559 30.9529 102.021 30.9529C101.401 30.9529 100.884 31.1013 100.468 31.3981C100.052 31.6948 99.7602 32.0932 99.5918 32.5932C99.4232 33.0933 99.339 33.609 99.339 34.1401C99.339 34.8252 99.4388 35.4232 99.6385 35.9342C99.8381 36.4453 100.149 36.8272 100.57 37.0799C100.991 37.3327 101.447 37.4591 101.938 37.4591C102.535 37.4591 103.041 37.287 103.455 36.9426C103.869 36.5983 104.149 36.0872 104.296 35.4094Z" fill="#4A6C61"/>
<path d="M106.351 34.3103C106.351 32.9732 106.71 31.9264 107.428 31.1699C108.146 30.4134 109.073 30.0352 110.208 30.0352C110.952 30.0352 111.622 30.2129 112.219 30.5682C112.817 30.9236 113.272 31.419 113.585 32.0546C113.898 32.6902 114.055 33.411 114.055 34.2169C114.055 35.0338 113.89 35.7647 113.56 36.4094C113.23 37.0543 112.763 37.5424 112.159 37.8739C111.555 38.2055 110.902 38.3712 110.203 38.3712C109.444 38.3712 108.767 38.1881 108.17 37.8217C107.572 37.4555 107.12 36.9554 106.812 36.3215C106.505 35.6877 106.351 35.0174 106.351 34.3103ZM107.45 34.3268C107.45 35.2976 107.711 36.0624 108.233 36.621C108.755 37.1797 109.41 37.459 110.197 37.459C110.999 37.459 111.66 37.1769 112.178 36.6127C112.697 36.0486 112.956 35.2482 112.956 34.2114C112.956 33.5557 112.845 32.9832 112.623 32.4942C112.402 32.0051 112.077 31.6259 111.651 31.3567C111.224 31.0874 110.745 30.9528 110.214 30.9528C109.459 30.9528 108.81 31.212 108.266 31.7304C107.722 32.2488 107.45 33.1143 107.45 34.3268Z" fill="#4A6C61"/>
<path d="M120.715 30.1782H121.781V34.8326C121.781 35.6422 121.689 36.2852 121.506 36.7613C121.323 37.2376 120.992 37.625 120.514 37.9235C120.036 38.2221 119.409 38.3714 118.632 38.3714C117.878 38.3714 117.26 38.2413 116.78 37.9812C116.3 37.7212 115.958 37.3448 115.753 36.852C115.548 36.3593 115.445 35.6862 115.445 34.8326V30.1782H116.511V34.827C116.511 35.5268 116.576 36.0424 116.706 36.3739C116.836 36.7055 117.06 36.9611 117.377 37.1405C117.693 37.32 118.081 37.4097 118.539 37.4097C119.323 37.4097 119.881 37.2321 120.215 36.8767C120.548 36.5214 120.715 35.8381 120.715 34.827L120.715 30.1782Z" fill="#4A6C61"/>
<path d="M123.545 38.234V30.1782H124.638L128.869 36.5031V30.1782H129.892V38.234H128.798L124.567 31.9037V38.234H123.545Z" fill="#4A6C61"/>
<path d="M133.733 38.234V31.1289H131.079V30.1782H137.464V31.1289H134.799V38.234H133.733Z" fill="#4A6C61"/>
<path d="M154.104 101.753H64.9924C62.9099 101.753 61.2216 100.064 61.2216 97.9819V92.1946C61.2216 90.1121 62.9099 88.4238 64.9924 88.4238H154.104C156.187 88.4238 157.875 90.1121 157.875 92.1946V97.9819C157.875 100.064 156.187 101.753 154.104 101.753Z" fill="#3B82F4"/>
<path d="M75.425 92.0266H77.9264C78.4905 92.0266 78.9205 92.0698 79.2165 92.1561C79.6141 92.2733 79.9547 92.4814 80.2383 92.7803C80.5219 93.0793 80.7377 93.4454 80.8857 93.8784C81.0336 94.3116 81.1076 94.8456 81.1076 95.4806C81.1076 96.0385 81.0382 96.5194 80.8995 96.9232C80.73 97.4164 80.488 97.8155 80.1736 98.1207C79.9362 98.3519 79.6157 98.5322 79.2119 98.6617C78.9097 98.7573 78.506 98.805 78.0005 98.805H75.425L75.425 92.0266ZM76.7936 93.1733V97.663H77.8155C78.1977 97.663 78.4736 97.6415 78.6431 97.5983C78.8651 97.5428 79.0492 97.4488 79.1957 97.3162C79.3421 97.1837 79.4615 96.9656 79.554 96.6619C79.6465 96.3583 79.6928 95.9445 79.6928 95.4205C79.6928 94.8964 79.6466 94.4942 79.554 94.2137C79.4615 93.9332 79.3321 93.7143 79.1656 93.5571C78.9991 93.3999 78.788 93.2935 78.5322 93.2381C78.341 93.1949 77.9665 93.1733 77.4086 93.1733H76.7936Z" fill="white"/>
<path d="M82.2682 98.805V92.0266H87.2942V93.1733H83.6368V94.676H87.0399V95.8181H83.6368V97.663H87.4237V98.805H82.2682Z" fill="white"/>
<path d="M94.6968 98.805H93.2079L92.6161 97.2654H89.9066L89.3471 98.805H87.8952L90.5354 92.0266H91.9826L94.6968 98.805ZM92.1769 96.1233L91.2429 93.608L90.3273 96.1233H92.1769Z" fill="white"/>
<path d="M99.7599 96.3129L101.087 96.7337C100.883 97.4735 100.545 98.023 100.072 98.3821C99.5988 98.7412 98.9984 98.9208 98.271 98.9208C97.3709 98.9208 96.6311 98.6133 96.0516 97.9983C95.472 97.3833 95.1823 96.5426 95.1823 95.4761C95.1823 94.3479 95.4736 93.4717 96.0562 92.8474C96.6388 92.2232 97.4047 91.9111 98.3542 91.9111C99.1834 91.9111 99.8569 92.1562 100.375 92.6463C100.683 92.9361 100.914 93.3523 101.068 93.8948L99.7135 94.2184C99.6334 93.867 99.4662 93.5896 99.2119 93.3862C98.9575 93.1827 98.6485 93.081 98.2848 93.081C97.7823 93.081 97.3746 93.2613 97.0618 93.622C96.7489 93.9827 96.5925 94.5668 96.5925 95.3743C96.5925 96.2314 96.7466 96.8417 97.0549 97.2054C97.3631 97.5691 97.7638 97.751 98.2571 97.751C98.6207 97.751 98.9336 97.6354 99.1957 97.4042C99.4578 97.173 99.6458 96.8093 99.7599 96.3129Z" fill="white"/>
<path d="M103.787 98.805V93.1733H101.776V92.0266H107.163V93.1733H105.156V98.805H103.787Z" fill="white"/>
<path d="M108.004 98.805V92.0266H109.373V98.805H108.004Z" fill="white"/>
<path d="M112.406 98.805L109.983 92.0266H111.467L113.183 97.0434L114.843 92.0266H116.294L113.867 98.805H112.406Z" fill="white"/>
<path d="M122.402 98.805H120.914L120.322 97.2654H117.612L117.053 98.805H115.601L118.241 92.0266H119.688L122.402 98.805ZM119.883 96.1233L118.949 93.608L118.033 96.1233H119.883Z" fill="white"/>
<path d="M123.951 98.805V93.1733H121.94V92.0266H127.327V93.1733H125.32V98.805H123.951Z" fill="white"/>
<path d="M128.168 98.805V92.0266H129.537V98.805H128.168Z" fill="white"/>
<path d="M130.563 95.4576C130.563 94.7671 130.667 94.1876 130.873 93.719C131.027 93.3738 131.238 93.064 131.504 92.7896C131.771 92.5153 132.063 92.3119 132.381 92.1793C132.803 92.0006 133.29 91.9111 133.842 91.9111C134.84 91.9111 135.639 92.2209 136.239 92.8405C136.839 93.4601 137.138 94.3217 137.138 95.4252C137.138 96.5195 136.841 97.3757 136.246 97.9937C135.651 98.6117 134.856 98.9208 133.86 98.9208C132.852 98.9208 132.051 98.6133 131.456 97.9983C130.861 97.3833 130.563 96.5365 130.563 95.4576ZM131.974 95.4113C131.974 96.1789 132.151 96.7607 132.505 97.1568C132.86 97.5529 133.31 97.7509 133.856 97.7509C134.401 97.7509 134.849 97.5545 135.199 97.1614C135.549 96.7684 135.723 96.1789 135.723 95.3928C135.723 94.6161 135.553 94.0366 135.213 93.6543C134.872 93.2721 134.42 93.0809 133.855 93.0809C133.291 93.0809 132.837 93.2744 132.491 93.6612C132.146 94.0481 131.974 94.6315 131.974 95.4113Z" fill="white"/>
<path d="M138.22 98.805V92.0266H139.552L142.326 96.5533V92.0266H143.598V98.805H142.224L139.492 94.3847V98.805H138.22Z" fill="white"/>
<path d="M32.2501 52.4667C31.5104 56.2808 30.7706 60.095 30.0308 63.9091L21.4526 56.5437L24.1732 42.8726C26.8656 46.0706 29.5579 49.2687 32.2501 52.4667Z" fill="#ED8364"/>
<path d="M34.0775 36.6689C34.2361 36.7105 34.8473 37.7153 35.1587 38.4803C35.6772 39.7543 35.4585 41.4386 35.8342 42.9819C36.182 44.4106 36.3318 44.9637 36.585 46.3229C36.8839 47.9277 36.3559 50.4782 36.338 51.1791C36.3598 51.9418 34.9888 53.0862 32.2378 52.6308C27.7767 51.8923 27.429 47.6318 27.429 47.6318C27.429 47.6318 25.7938 34.4974 34.0775 36.6689Z" fill="#F59979"/>
<path d="M35.0113 39.6584C35.0113 39.6584 36.4177 42.9924 38.2219 44.9887C38.3477 45.1278 38.3876 45.3273 38.3119 45.499C37.9104 46.4102 36.585 46.3229 36.585 46.3229L35.0113 39.6584Z" fill="#F59979"/>
<path d="M35.158 34.1502C35.2949 34.9071 36.3019 34.956 36.4475 35.5318C36.8197 37.0037 34.9438 38.6188 34.0855 38.567C32.7845 40.2742 31.0121 40.0246 29.9513 39.1439C30.0309 39.2293 28.951 41.5028 29.3067 43.9633C29.3454 44.2313 29.0977 44.638 28.7603 44.7636C28.198 44.973 27.4809 44.227 27.3751 44.1145C26.5775 45.1002 25.78 46.0859 24.9824 47.0715C24.5671 47.5848 24.2723 48.9285 23.2102 49.8405C23.0332 49.9925 22.7822 50.1838 22.4814 50.157C21.8848 50.1039 21.4996 49.229 21.2437 48.6479C20.8204 47.6867 21.0042 47.4412 20.5863 46.8617C20.3071 46.4745 19.9275 46.1485 19.4041 45.8463C18.7758 45.4835 17.987 45.1939 17.7679 44.4982C17.6193 44.0261 17.7905 43.4879 17.6101 43.0274C17.323 42.2948 16.3483 42.1477 15.8084 41.5791C15.3571 41.1039 15.2632 40.3701 15.4057 39.7252C15.6121 38.7904 16.1279 38.2947 16.0536 37.3355C16.0125 36.8043 16.0129 36.2706 16.1169 35.7448C16.4585 34.019 17.7909 32.885 19.383 32.3012C19.4161 32.289 19.622 31.7856 19.6598 31.7278C19.9669 31.2576 20.3965 30.8646 20.864 30.5609C21.5734 30.1 22.3964 29.8484 23.2281 29.7463C23.6525 29.6942 24.1595 29.6352 24.5811 29.7109C25.0664 29.798 25.48 30.1704 25.9964 30.1117C26.2148 30.0869 26.4149 29.9807 26.6226 29.9078C27.0795 29.7473 27.5899 29.7496 28.043 29.9141C28.5068 30.0824 28.9276 30.4171 29.4217 30.4201C29.8706 30.4227 30.2725 30.1488 30.7072 30.0326C31.1128 29.9241 31.5536 29.9576 31.9366 30.1259C32.1799 30.2329 32.3973 30.3909 32.6356 30.5087C33.4208 30.8969 34.2331 31.056 34.8221 31.7728C34.9412 31.9177 35.2484 32.3019 35.3153 32.8503C35.3922 33.4801 35.0735 33.683 35.158 34.1502Z" fill="#3A2B2F"/>
<path d="M32.0998 40.6764C31.3881 40.6764 30.4457 40.3011 29.3841 38.9238C29.3487 38.8779 29.3573 38.8121 29.4032 38.7768C29.449 38.7414 29.5149 38.7499 29.5502 38.7958C30.6948 40.2807 31.8986 40.8003 32.94 40.259C33.8306 39.7961 34.3821 38.6114 34.1923 38.0021C34.175 37.9468 34.2059 37.8881 34.2612 37.8708C34.3165 37.8534 34.3753 37.8844 34.3925 37.9397C34.6098 38.6373 34.0269 39.9304 33.0368 40.4451C32.8042 40.566 32.4859 40.6764 32.0998 40.6764Z" fill="#07242B"/>
<path d="M35.1804 34.49C35.1535 34.49 35.1266 34.4797 35.1062 34.4592C35.0653 34.4181 35.0654 34.3517 35.1064 34.3109C35.9958 33.4249 36.1758 32.4162 35.5877 31.6126C35.0858 30.9266 34.004 30.483 32.9876 31.0121C32.9362 31.0388 32.8729 31.0189 32.8461 30.9675C32.8194 30.9161 32.8394 30.8529 32.8907 30.8261C33.8738 30.3143 35.106 30.5992 35.7569 31.4887C36.2624 32.1795 36.3957 33.3226 35.2544 34.4594C35.234 34.4798 35.2072 34.49 35.1804 34.49Z" fill="#07242B"/>
<path d="M34.2532 43.7288C34.4578 43.6789 34.5451 43.3169 34.4483 42.9202C34.3516 42.5235 34.1073 42.2423 33.9028 42.2922C33.6983 42.3421 33.6109 42.7042 33.7077 43.1009C33.8045 43.4976 34.0487 43.7787 34.2532 43.7288Z" fill="#302626"/>
<path d="M27.7496 44.4266C27.7496 44.4266 25.4962 42.2627 24.2428 44.0638C23.8968 44.561 23.7638 45.1824 23.8564 45.781C24.0529 47.0507 24.9973 49.0057 28.169 48.5733C28.1633 48.7167 27.7496 44.4266 27.7496 44.4266Z" fill="#F59979"/>
<path d="M27.275 47.1478C27.2364 47.1478 27.1994 47.1265 27.181 47.0897C26.3753 45.4705 24.7913 45.2329 24.7754 45.2307C24.7181 45.2227 24.678 45.1698 24.6859 45.1125C24.6938 45.0552 24.7464 45.0152 24.8038 45.0229C24.8732 45.0324 26.5121 45.2748 27.3687 46.9963C27.3945 47.0481 27.3734 47.1111 27.3216 47.1369C27.3066 47.1443 27.2906 47.1478 27.275 47.1478Z" fill="#07242B"/>
<path d="M25.5715 46.6502C25.5435 46.6502 25.5155 46.639 25.4948 46.6168C25.4554 46.5745 25.4577 46.5082 25.5 46.4687L26.1969 45.8185C26.2392 45.7789 26.3056 45.7813 26.3451 45.8236C26.3846 45.866 26.3823 45.9323 26.34 45.9718L25.643 46.622C25.6228 46.6408 25.5972 46.6502 25.5715 46.6502Z" fill="#07242B"/>
<path d="M32.7513 42.0553C32.7257 42.0553 32.7001 42.046 32.6799 42.0273C32.6375 41.9879 32.635 41.9216 32.6744 41.8791C33.7066 40.7668 34.6624 40.7697 34.7031 40.7706C34.761 40.7715 34.8071 40.8192 34.8061 40.8772C34.8051 40.9344 34.7584 40.9802 34.7013 40.9802C34.7008 40.9802 34.7005 40.9802 34.6996 40.9802C34.6785 40.9802 33.7853 40.9903 32.8282 42.0218C32.8074 42.0441 32.7794 42.0553 32.7513 42.0553Z" fill="#07242B"/>
<path d="M36.7058 48.2302C36.7058 48.2302 35.293 48.3044 35.1127 48.3044C35.1552 48.3787 35.6908 49.0449 36.6645 48.907C36.6896 48.681 36.7058 48.2302 36.7058 48.2302Z" fill="white"/>
<path d="M6.87244 71.5152C5.77491 73.8342 4.38406 77.7304 4.78574 82.4859C4.9879 84.8792 5.23827 87.8432 7.54046 90.2883C9.28748 92.1439 11.4086 92.8429 12.5865 93.1267C13.6056 92.4805 14.6247 91.8342 15.6438 91.1879L14.2354 71.0081L6.87244 71.5152Z" fill="#F59979"/>
<path d="M67.0646 87.2169C67.0646 87.2169 66.7472 93.6014 65.1718 93.0751C59.7377 91.2598 39.6241 95.2211 39.7949 84.745C40.3095 79.0598 43.8403 79.2433 67.0646 87.2169Z" fill="#F59979"/>
<path d="M77.943 86.6121C77.2634 86.5875 75.0769 86.4986 73.2583 86.3137C72.5865 86.2454 71.9126 86.216 71.2378 86.2179C69.4629 86.2227 65.8916 86.3288 65.3747 88.2592C65.3329 88.4153 67.7488 92.0359 72.827 89.8865C72.8456 89.8939 72.0876 88.9009 75.363 88.4316C75.9706 88.4276 78.4751 87.9637 78.3077 86.9618C78.274 86.7597 78.1172 86.6183 77.943 86.6121Z" fill="#F59979"/>
<path d="M67.4832 87.0164C67.4832 87.0164 72.1539 87.8494 74.6838 88.5832C74.1599 90.7054 73.4988 95.2728 71.3831 96.948C69.887 96.5703 67.9627 96.1568 65.3973 93.3037C63.4996 92.0528 63.1905 87.3675 65.8999 87.1194C66.8859 87.029 67.4832 87.0164 67.4832 87.0164Z" fill="#F59979"/>
<path d="M75.7637 91.2246C75.6995 91.2087 75.6314 91.2322 75.5888 91.2838L75.5864 91.2866C75.5321 91.3527 75.5383 91.443 75.5857 91.5044C75.391 91.451 75.1964 91.3965 75.0023 91.3382C74.9654 91.3272 74.7663 91.2686 74.6301 91.2298C74.5968 91.2167 74.5642 91.2031 74.5458 91.1929C74.3311 91.0739 74.116 90.9537 73.897 90.8433C73.6489 90.7182 73.3991 90.6009 73.1457 90.5024L74.1381 88.4465C74.1381 88.4465 82.7939 90.5886 82.5933 91.8178C82.4017 92.3999 80.4429 92.3822 75.7637 91.2246Z" fill="#F59979"/>
<path d="M74.4028 88.6186C74.394 88.6186 74.385 88.6175 74.3761 88.6151C74.3631 88.6117 73.0649 88.2707 71.7482 87.9705C71.6917 87.9577 71.6564 87.9015 71.6692 87.845C71.6821 87.7886 71.7382 87.7531 71.7948 87.7661C73.115 88.067 74.4165 88.4089 74.4294 88.4124C74.4854 88.4271 74.5189 88.4844 74.5041 88.5404C74.4918 88.5875 74.4493 88.6186 74.4028 88.6186Z" fill="#07242B"/>
<path d="M76.7584 91.4631C77.4773 92.1396 76.6822 93.7264 75.6164 93.6191C75.9785 93.8838 76.0957 95.1712 74.6295 95.6254C74.8068 95.6719 74.9034 97.173 73.6845 97.4027C72.9892 97.5338 70.9414 96.835 70.9414 96.835C70.9414 96.835 74.2117 90.7457 74.3314 90.6933C74.4511 90.641 76.7584 91.4631 76.7584 91.4631Z" fill="#F59979"/>
<path d="M76.9272 91.7393C76.9134 91.7393 76.8995 91.7365 76.8861 91.7308L75.4852 91.1337C75.4319 91.111 75.4071 91.0494 75.4298 90.9961C75.4526 90.9429 75.5141 90.918 75.5674 90.9408L76.9683 91.538C77.0216 91.5607 77.0464 91.6223 77.0237 91.6755C77.0066 91.7154 76.9679 91.7393 76.9272 91.7393Z" fill="#07242B"/>
<path d="M75.6164 93.724C75.6028 93.724 75.589 93.7213 75.5756 93.7157L74.4348 93.2337C74.3814 93.2111 74.3565 93.1497 74.379 93.0964C74.4015 93.0429 74.4629 93.0179 74.5163 93.0406L75.6572 93.5226C75.7105 93.5451 75.7355 93.6066 75.713 93.6599C75.6961 93.6999 75.6573 93.724 75.6164 93.724Z" fill="#07242B"/>
<path d="M74.6295 95.7303C74.6171 95.7303 74.6044 95.7281 74.5921 95.7234L73.3031 95.2303C73.249 95.2096 73.2219 95.149 73.2426 95.0949C73.2633 95.0409 73.3239 95.0139 73.378 95.0345L74.6669 95.5275C74.7211 95.5483 74.7481 95.6089 74.7274 95.6629C74.7115 95.7047 74.6717 95.7303 74.6295 95.7303Z" fill="#07242B"/>
<path d="M65.3973 93.4085C65.3964 93.4085 65.3956 93.4085 65.3947 93.4085C65.3368 93.4071 65.291 93.3591 65.2925 93.3012L65.3169 92.2805C65.3182 92.2235 65.3649 92.1782 65.4216 92.1782C65.4225 92.1782 65.4233 92.1782 65.4242 92.1782C65.4821 92.1796 65.5279 92.2277 65.5265 92.2856L65.502 93.3062C65.5007 93.3632 65.454 93.4085 65.3973 93.4085Z" fill="#07242B"/>
<path d="M9.21716 95.4199C9.90436 94.1654 10.589 93.4032 10.589 93.4032C11.8209 92.0684 12.5973 92.2842 12.9053 89.0076C13.4901 82.785 34.903 86.8229 35.7062 98.7665C35.6357 99.1361 39.1562 110.953 40.2492 121.082C34.7179 121.711 28.5446 122.131 21.8267 122.14C15.954 122.148 10.5074 121.842 5.55543 121.358C5.49607 118.763 5.52213 116.638 5.55543 115.202C5.55543 115.202 5.87288 101.525 9.21716 95.4199Z" fill="#023759"/>
<path d="M9.21712 95.4199C8.07077 93.5396 8.71814 90.89 8.93808 88.5497C10.2262 74.8445 8.56356 73.3531 9.83675 68.2163C10.8955 63.9445 11.9967 59.7665 15.7252 57.693C17.8238 56.5258 20.0031 56.4435 21.4585 56.5463C22.709 57.2678 24.5582 58.1392 26.9271 58.6191C28.4827 58.9342 29.8689 59.0008 30.9846 58.9719C33.8846 60.7486 40.5001 65.1049 42.2951 69.6877C42.5607 70.3657 42.6322 70.7966 42.6365 70.9031C42.7766 74.3699 35.7156 76.9469 36.4377 87.6839C36.3977 87.8937 35.4969 90.7405 35.8942 98.1825C36.1112 102.246 10.2683 97.1441 9.21712 95.4199Z" fill="#3B82F4"/>
<path d="M39.9732 66.3455C40.1228 66.4936 40.2721 66.6428 40.4209 66.7932C44.0714 70.4808 47.1315 74.4892 49.6873 78.7068C49.7329 79.214 49.7605 79.9713 49.6319 80.8699C49.1316 84.364 46.7679 86.5458 45.8601 87.3595C44.2532 88.8 42.9391 89.9781 41.3045 89.7994C40.7885 89.743 39.9118 89.5155 36.6738 85.9625C35.4417 84.6106 34.4721 83.4403 33.8071 82.6107C33.5671 81.9715 31.2344 75.442 35.0771 70.1878C36.6747 68.0034 38.7188 66.8884 39.9732 66.3455Z" fill="#3B82F4"/>
<path d="M24.4094 59.5719C24.4094 59.5719 24.2982 66.3394 19.2724 82.5316C17.6411 87.7875 5.39443 82.6769 3.64833 78.2257C3.50945 77.8717 3.42147 77.5179 3.37177 77.1708C3.77654 75.2206 4.50586 72.3941 5.88467 69.1583C7.38256 65.643 8.52834 62.9541 11.1672 60.5643C12.3816 59.4645 14.9581 57.4808 19.2435 56.5835C20.9655 57.5796 22.6875 58.5757 24.4094 59.5719Z" fill="#3B82F4"/>
<path d="M15.1533 122.106C15.1136 122.106 15.0756 122.084 15.058 122.045C14.7797 121.439 14.5238 120.813 14.2974 120.187C13.8665 118.994 13.5273 117.755 13.2891 116.505C13.2783 116.448 13.3156 116.393 13.3725 116.383C13.4296 116.372 13.4843 116.409 13.4951 116.466C13.7312 117.705 14.0675 118.933 14.4946 120.115C14.719 120.737 14.9727 121.357 15.2485 121.958C15.2727 122.01 15.2496 122.073 15.197 122.097C15.1828 122.103 15.168 122.106 15.1533 122.106Z" fill="#07242B"/>
<path d="M26.6584 102.384C23.8837 102.384 21.1185 102.13 18.3801 101.622C14.8193 100.961 11.3279 99.8663 8.00278 98.3685C7.94999 98.3446 7.92648 98.2826 7.95025 98.2298C7.97407 98.177 8.03616 98.1535 8.08891 98.1772C11.3987 99.6683 14.874 100.758 18.4183 101.416C24.1785 102.485 30.0583 102.424 35.8944 101.234C35.9512 101.223 36.0066 101.259 36.0181 101.316C36.0297 101.373 35.9931 101.428 35.9363 101.44C32.8479 102.069 29.7473 102.384 26.6584 102.384Z" fill="#07242B"/>
<path d="M9.44702 81.4679C9.44429 81.4679 9.44151 81.4678 9.43869 81.4676C9.38096 81.463 9.33783 81.4126 9.34237 81.3549C9.35123 81.2417 10.2369 69.9938 10.8137 66.2529C10.8225 66.1957 10.8759 66.1566 10.9333 66.1653C10.9905 66.1741 11.0298 66.2276 11.0209 66.2849C10.4453 70.0181 9.56028 81.2581 9.55141 81.3712C9.54714 81.4262 9.50118 81.4679 9.44702 81.4679Z" fill="#07242B"/>
<path d="M37.6662 87.2857C37.6335 87.2857 37.601 87.2712 37.5793 87.2434C36.857 86.3217 36.0874 85.4189 35.2919 84.5601C34.0206 83.1877 32.6442 81.8853 31.2009 80.6891C31.154 80.6502 31.1475 80.5807 31.1864 80.5338C31.2252 80.487 31.2947 80.4804 31.3416 80.5193C32.7924 81.7216 34.1758 83.0307 35.4537 84.4102C36.2533 85.2735 37.0268 86.1809 37.7529 87.1074C37.7905 87.1554 37.782 87.2246 37.7341 87.2622C37.7139 87.278 37.69 87.2857 37.6662 87.2857Z" fill="#210000"/>
<path d="M33.4892 84.5854C33.2609 84.5854 33.0323 84.5738 32.8037 84.5508C31.9227 84.4617 31.078 84.2053 30.2934 83.7887C30.2396 83.7602 30.2192 83.6934 30.2477 83.6396C30.2763 83.5858 30.343 83.5654 30.3968 83.594C31.1561 83.9971 31.9734 84.2453 32.8259 84.3314C33.5977 84.4094 34.3712 84.351 35.1248 84.1578C35.1838 84.143 35.2439 84.1783 35.259 84.2373C35.2741 84.2963 35.2385 84.3564 35.1796 84.3715C34.624 84.5138 34.0578 84.5854 33.4892 84.5854Z" fill="#210000"/>
<path d="M46.7813 86.4799C46.7575 86.4799 46.7336 86.4722 46.7135 86.4565C46.6655 86.419 46.657 86.3498 46.6944 86.3018C48.5782 83.8885 49.2698 81.963 49.5183 80.7728C49.7868 79.4859 49.6093 78.7589 49.6075 78.7517C49.5926 78.6928 49.6281 78.6328 49.687 78.6177C49.7459 78.6027 49.8059 78.638 49.8211 78.6969C49.8291 78.7277 50.0126 79.4677 49.7382 80.7984C49.4872 82.0153 48.7855 83.9813 46.8683 86.4374C46.8465 86.4653 46.8141 86.4799 46.7813 86.4799Z" fill="#210000"/>
<path d="M37.7065 121.435C37.6527 121.435 37.6069 121.394 37.6022 121.339L37.2072 116.733C37.2069 116.73 37.2068 116.727 37.2068 116.724C37.2068 116.595 37.194 116.467 37.1804 116.332C37.1672 116.2 37.1535 116.063 37.1531 115.926C36.7619 112.845 36.3236 109.538 35.6525 105.959C35.5718 105.523 35.4951 105.087 35.4209 104.665C35.2427 103.653 35.0743 102.697 34.8523 101.721C34.8394 101.665 34.8748 101.609 34.9313 101.596C34.9879 101.583 35.0439 101.618 35.0568 101.675C35.2799 102.655 35.4487 103.614 35.6274 104.629C35.7015 105.05 35.7782 105.486 35.8586 105.92C36.5312 109.507 36.9701 112.82 37.3619 115.906C37.3624 115.91 37.3627 115.915 37.3627 115.919C37.3627 116.048 37.3755 116.176 37.389 116.311C37.4023 116.444 37.4161 116.582 37.4164 116.72L37.8111 121.321C37.816 121.379 37.7733 121.429 37.7155 121.434C37.7126 121.435 37.7095 121.435 37.7065 121.435Z" fill="#07242B"/>
<path d="M38.2338 19.4569C35.7493 20.2911 35.122 20.9674 34.3484 23.6464C33.5747 20.9674 32.9475 20.2911 30.4629 19.4569C32.9475 18.6226 33.5747 17.9464 34.3484 15.2673C35.122 17.9464 35.7493 18.6226 38.2338 19.4569Z" fill="white"/>
<path d="M48.0726 108.414C45.9434 109.129 45.4059 109.709 44.7429 112.005C44.0799 109.709 43.5424 109.129 41.4132 108.414C43.5424 107.7 44.0799 107.12 44.7429 104.824C45.4059 107.12 45.9434 107.7 48.0726 108.414Z" fill="white"/>
<path d="M12.7567 43.3664C10.6275 44.0813 10.0901 44.6609 9.42703 46.9567C8.764 44.6609 8.22652 44.0813 6.09735 43.3664C8.22652 42.6515 8.76404 42.072 9.42703 39.7761C10.09 42.072 10.6275 42.6515 12.7567 43.3664Z" fill="white"/>
<path d="M174.551 65.556C173.04 66.0632 172.659 66.4743 172.188 68.103C171.718 66.4743 171.337 66.0632 169.826 65.556C171.337 65.0489 171.718 64.6377 172.188 63.009C172.659 64.6377 173.04 65.0489 174.551 65.556Z" fill="white"/>
<path d="M75.96 6.87317C74.4495 7.38034 74.0682 7.79147 73.5979 9.42016C73.1275 7.79147 72.7462 7.38034 71.2357 6.87317C72.7462 6.36599 73.1275 5.95487 73.5979 4.32617C74.0682 5.95487 74.4495 6.36599 75.96 6.87317Z" fill="white"/>
<path d="M134.375 114.358C132.865 114.865 132.483 115.276 132.013 116.905C131.543 115.276 131.161 114.865 129.651 114.358C131.162 113.851 131.543 113.44 132.013 111.811C132.483 113.44 132.865 113.851 134.375 114.358Z" fill="white"/>
<path d="M142.613 9.44055C141.102 9.94773 140.721 10.3589 140.251 11.9875C139.78 10.3589 139.399 9.94773 137.888 9.44055C139.399 8.93338 139.78 8.52225 140.251 6.89355C140.721 8.52225 141.102 8.93338 142.613 9.44055Z" fill="white"/>
</svg>
