<svg width="306" height="302" viewBox="0 0 306 302" fill="none" xmlns="http://www.w3.org/2000/svg">
<path d="M102.241 6.24607L106.882 6.21997L106.929 10.7836C108.45 10.805 109.953 10.8077 111.459 11.0501C111.794 11.8208 111.493 15.4816 111.479 16.541C110.012 16.8026 108.435 16.7399 106.946 16.7788L106.892 19.9999C106.885 20.4915 106.974 20.9526 106.711 21.3738L106.092 21.4924L101.267 21.3556L101.251 16.8551L96.635 16.4482L96.709 10.8913L101.253 10.7885C101.249 9.73145 100.939 7.20603 101.427 6.35112L102.241 6.24607Z" fill="#E6EFF4"/>
<path d="M293.846 96.9004L299.946 96.9116L299.943 102.783L305.369 102.772L305.344 108.281C304.937 108.639 300.721 108.406 299.898 108.403L299.926 114.919C297.976 115.159 295.815 114.999 293.841 115.005L293.858 108.584L288.548 108.63L288.55 102.614L293.833 102.623L293.846 96.9004Z" fill="#E6EFF4"/>
<path d="M151.853 286.159L152.837 295.889L153.006 297.003C153.82 297.371 155.792 297.072 156.721 297.059L164.437 297.024L185.351 297.072L193.474 297.156C194.215 297.164 195.6 297.369 196.278 297.11L196.406 297.044L196.564 297.181L196.795 297.249C197.116 297.336 197.833 297.257 198.049 297.371C198.186 297.444 198.5 297.886 198.607 298.012C199.131 298.618 199.61 299.267 200.196 299.815C201.045 300.612 202.363 301.026 203.093 301.84L189.825 301.809L163.565 301.784L83.6248 301.819L38.8992 301.845L26.3947 301.825C24.5593 301.822 22.4571 302.009 20.6505 301.778C20.1877 301.72 19.7209 301.607 19.3707 301.279C18.9383 300.872 18.6424 300.284 18.6156 299.69C18.5812 298.927 18.7372 298.165 19.2786 297.599C19.5376 297.328 19.8388 297.131 20.2006 297.029C21.0703 296.78 22.6037 296.976 23.5327 296.976L34.115 297.036C37.3384 297.391 40.831 297.131 44.0925 297.13L66.4628 297.146L97.4322 297.077L106.494 296.998L132.621 297.055L138.409 297.05C139.125 297.05 140.219 296.925 140.892 297.131L142.563 289.407C145.869 288.8 148.817 287.553 151.853 286.159Z" fill="#3C96CA"/>
<path d="M151.853 286.159L152.837 295.889L152.771 297.021C152.274 297.354 142.057 297.298 140.892 297.131L142.563 289.407C145.869 288.8 148.817 287.553 151.853 286.159Z" fill="#FEFEFE"/>
<path d="M45.1287 57.1341L45.1868 37.6214L45.2189 32.6988C45.2251 31.8382 45.1234 30.7646 45.4742 29.9675L45.5657 29.7789C45.8055 29.2639 46.0553 28.8692 46.4646 28.4658C47.0209 27.9181 47.8137 27.4035 48.6118 27.3344C50.5502 27.1669 52.6541 27.3229 54.6087 27.3308L66.6062 27.3665L105.558 27.3942L105.589 55.3928L105.522 55.5227L105.557 87.0922L96.1518 89.8135L92.3694 91.3387L83.3149 91.379L66.476 91.3975L55.5673 91.4246L51.012 91.4603C50.1346 91.4656 49.1684 91.5343 48.3283 91.2386C46.9498 90.7537 46.0705 89.7686 45.4438 88.4902C44.8839 87.1197 45.0894 85.4402 45.0877 83.9748L45.0871 77.2271L45.1287 57.1341Z" fill="#FFCF60"/>
<path d="M45.4445 88.4904C46.0044 88.8593 46.4959 89.0893 47.1642 89.1864C49.3203 89.4995 51.8745 89.2448 54.0639 89.2415L68.2284 89.2432L86.8082 89.3895C89.6084 89.4107 92.6218 89.1679 95.3969 89.4305C95.7372 89.4629 95.9109 89.5891 96.1521 89.8137L92.3697 91.3388L83.3152 91.3791L66.4763 91.3976L55.5676 91.4247L51.0123 91.4604C50.1349 91.4657 49.1687 91.5344 48.3286 91.2388C46.9508 90.7538 46.0714 89.7688 45.4445 88.4904Z" fill="#E6A819"/>
<path d="M80.5464 78.711L68.6731 78.6981C68.3603 77.9139 68.5694 76.1948 68.568 75.2969L68.5611 65.9739L56.6545 66.0238C56.3367 65.3393 56.5455 63.5561 56.5455 62.7369L56.5517 53.7006L68.5965 53.6969L68.5733 40.6034L81.8354 40.6222L81.8152 53.5565C82.6106 53.8393 84.2689 53.6295 85.1635 53.6276L94.4357 53.6051C94.7135 54.2618 94.516 55.8345 94.5153 56.6197L94.5034 65.7701L94.218 66.0003L81.9787 65.9547L82.0141 74.4249C82.0048 75.7997 82.1175 77.31 81.9421 78.669L80.5464 78.711Z" fill="#FEFEFE"/>
<path d="M121.475 18.0054C122.466 15.4419 124.929 12.7993 127.469 11.7283C131.285 10.1192 135.165 11.1558 138.78 12.6648L140.309 9.67097C144.476 2.9374 152.628 0.195611 160.184 1.98669C164.429 2.99257 169.454 6.28965 173.935 5.1675C175.644 4.73939 176.346 3.61195 177.169 2.18291C178.582 5.21474 177.709 8.1838 177.081 11.2748L179.463 11.0802C180.525 10.9395 181.579 10.6098 182.589 11.0954C183.528 12.0768 184.378 13.2677 184.337 14.7033C184.296 16.1687 183.463 17.4748 182.404 18.4302L180.384 20.0343C181.598 20.2143 183.298 20.4875 184.073 21.5416L184.163 21.7015C184.472 22.2284 184.709 22.7536 184.568 23.3796C184.299 24.5784 183.163 25.7435 182.11 26.3014C180.812 26.9902 179.21 27.1273 177.778 27.3136L177.839 27.5726C178.544 30.6298 177.821 34.0884 176.196 36.7486C175.694 37.5712 175.023 38.3749 174.374 39.0871C175.38 39.2889 176.998 39.385 177.653 40.2677C178.196 41.0001 177.927 42.361 177.745 43.1918C177.099 46.1404 175.268 48.3596 172.749 49.9248L172.584 50.0258C172.562 52.3025 172.555 54.6218 172.058 56.8539C171.122 61.0561 168.103 65.1638 165.08 68.1217C163.983 69.1936 162.669 70.3749 161.175 70.8228L161.468 74.5279C161.497 75.0941 161.451 75.8786 161.697 76.3926C161.674 76.5961 161.649 76.7127 161.711 76.9116L161.762 77.309C166.601 81.3529 167.556 88.0356 168.098 93.9163L167.658 93.8951C166.847 94.3318 166.178 95.085 165.511 95.7193L161.605 99.642L152.656 91.5365L151.505 90.313L149.045 92.6709C148.57 92.7267 142.407 98.8941 141.554 99.6863L132.577 92.0482L132.02 88.0284C131.561 83.5688 133.17 80.1284 135.918 76.72L135.284 76.7282C134.368 76.675 133.591 76.9387 132.725 77.1864C130.597 77.7962 128.76 78.5609 126.873 79.7389C126.627 79.6963 126.37 79.6405 126.118 79.6851C125.693 79.761 125.258 80.0141 124.853 80.1657L121.402 81.4619L110.85 85.3351L105.558 87.0925L105.522 55.523L105.59 55.3931L105.558 27.3945C107.155 27.4275 108.45 27.3767 109.632 28.621C110.847 29.9001 110.865 31.1065 110.869 32.7628C111.67 32.6307 113.046 30.3325 113.595 29.6415C114.891 28.0093 116.266 26.4491 117.738 24.9741C118.415 24.2963 119.131 23.5097 120.038 23.1583C120.22 21.3728 120.783 19.6514 121.475 18.0054Z" fill="#F2AD87"/>
<path d="M165.846 40.1018L166.419 40.0162C166.973 40.1837 167.311 40.3776 167.595 40.9052C168.003 41.6653 168.127 42.6972 167.828 43.5128C167.597 44.1398 167.186 44.4315 166.616 44.7265L166.089 44.7754C165.612 44.56 165.293 44.3763 164.997 43.9304C164.569 43.2872 164.503 42.4363 164.663 41.6963C164.834 40.9022 165.169 40.515 165.846 40.1018Z" fill="#022943"/>
<path d="M147.96 40.432L148.581 40.3805C149.153 40.5896 149.481 40.7967 149.788 41.3405C150.228 42.1174 150.241 43.1269 150.013 43.9706C149.831 44.6468 149.521 45.1225 148.911 45.4617L148.173 45.4221C147.817 45.211 147.499 45.0082 147.268 44.6537C146.74 43.8411 146.579 42.6836 146.848 41.7577C147.053 41.0564 147.353 40.7809 147.96 40.432Z" fill="#022943"/>
<path d="M174.405 41.1991C174.886 40.8371 175.257 40.5983 175.834 40.4196C176.402 40.5494 176.395 40.5457 176.747 41.0102C176.636 43.4388 173.938 46.0772 172.482 47.9079C172.464 46.6897 172.547 45.3518 172.266 44.1672L172.648 43.6833C172.715 43.5475 172.686 43.378 172.748 43.24C173.036 42.6037 173.938 41.7591 174.405 41.1991Z" fill="#FFCF60"/>
<path d="M165.319 33.4545C166.206 33.5232 167.199 33.6527 167.967 34.1406C169.055 34.8323 169.754 35.9009 170.079 37.1288C169.949 37.6345 169.955 37.6851 169.557 38.0128L169.075 37.8255C168.388 37.3749 167.721 36.9114 166.946 36.6221C165.902 36.2323 164.637 36.3221 163.777 35.5716C163.666 35.1131 163.618 34.8366 163.848 34.4035C164.165 33.8073 164.708 33.619 165.319 33.4545Z" fill="#022943"/>
<path d="M148.657 33.7653C149.2 33.8264 149.691 33.8868 150.092 34.2961C150.476 34.6882 150.621 35.0199 150.636 35.5593C150.099 36.5044 148.778 36.4942 147.825 36.8684C147.126 37.143 146.573 37.4991 145.987 37.9562L145.779 38.1204C145.604 38.272 145.398 38.3659 145.195 38.4765C144.715 38.1994 144.527 37.9998 144.214 37.5413C144.171 37.098 144.156 36.7835 144.387 36.3868C145.208 34.9766 147.149 34.1696 148.657 33.7653Z" fill="#022943"/>
<path d="M158.095 40.1017L158.387 40.073C158.447 40.1374 158.539 40.1833 158.567 40.2669C158.656 40.5259 158.513 41.4353 158.496 41.7419L158.242 47.012C159.499 47.5145 160.625 48.0889 161.463 49.186C161.601 49.7132 161.519 50.1459 161.259 50.6213C160.683 51.6731 159.588 52.2234 158.491 52.5637C158.212 52.5518 158.085 52.5333 157.83 52.4504C157.536 51.3992 159.806 50.9863 160.042 49.7647C160.164 49.1358 157.424 48.1349 156.911 47.5343C156.887 45.8162 157.059 44.1593 157.385 42.4722C157.543 41.6494 157.655 40.8305 158.095 40.1017Z" fill="#FFCF60"/>
<path d="M146.025 46.3236L147.342 46.3355C148.133 46.4491 148.875 46.9238 149.305 47.6017C149.66 48.1636 149.736 48.9802 149.48 49.5989C149.171 50.3405 148.442 50.6444 147.758 50.942C146.985 51.0534 146.18 51.089 145.419 50.8684C144.918 50.7234 144.432 50.3326 144.213 49.8572C143.957 49.3003 143.993 48.4933 144.208 47.9261C144.526 47.0916 145.251 46.6655 146.025 46.3236Z" fill="#EF8274"/>
<path d="M166.837 45.8077L167.575 45.8107C168.606 45.8903 169.506 46.3614 170.124 47.2037C170.444 47.6414 170.446 48.0966 170.322 48.6077C170.093 49.5501 169.29 50.0823 168.502 50.5583C167.833 50.6518 167.154 50.6937 166.484 50.5722C165.953 50.4764 165.36 50.0397 165.086 49.5828C164.725 48.9803 164.696 48.1369 164.951 47.4868C165.278 46.6471 166.069 46.1817 166.837 45.8077Z" fill="#EF8274"/>
<path d="M171.427 26.2417C172.53 28.4847 173.011 31.2129 173.094 33.6964L173.074 37.7364C173.057 38.4598 172.988 39.4518 173.297 40.1066L173.292 40.3966C173.287 40.6249 173.265 40.8165 173.231 41.0444C173.178 41.4028 173.184 41.7226 173.193 42.084L173.331 41.9548C173.682 41.6334 173.961 41.3893 174.405 41.1993C173.938 41.7592 173.036 42.6039 172.748 43.2401C172.686 43.3779 172.715 43.5473 172.648 43.6834L172.266 44.1674C171.688 42.3396 171.929 39.8535 171.771 37.9297C171.743 37.5719 171.506 37.1421 171.551 36.8174C171.802 34.9969 171.638 32.8236 171.49 30.9919C171.368 29.473 170.879 27.7067 171.427 26.2417Z" fill="#F0925D"/>
<path d="M129.931 40.5973C130.554 40.5101 131.091 40.4661 131.61 40.8866C132.588 41.6788 133.388 45.8242 133.551 47.1488C133.051 47.4012 132.581 47.2905 132.027 47.2691C130.629 46.7006 129.079 45.955 128.369 44.5362C128.042 43.8815 128.083 42.8373 128.352 42.1664C128.682 41.3451 129.127 40.9286 129.931 40.5973Z" fill="#FFCF60"/>
<path d="M151.759 55.1844L163.854 55.8319C163.473 56.9392 162.969 57.766 162.236 58.6652C161.872 59.0107 161.504 59.3183 161.078 59.5858C159.821 60.376 158.09 60.6509 156.636 60.2617C154.326 59.6427 152.847 57.1093 151.759 55.1844Z" fill="#FEFEFE"/>
<path d="M161.596 80.0278L151.916 72.4532L144.808 66.078C143.077 64.508 141.219 62.9755 139.644 61.2485L150.111 67.5457C152.232 68.7643 154.592 70.1755 156.99 70.7619C158.384 71.1028 159.765 70.9667 161.175 70.822L161.468 74.5271C161.498 75.0933 161.451 75.8778 161.697 76.3918C161.674 76.5953 161.649 76.7119 161.711 76.9108L161.762 77.3082C161.77 78.2245 161.918 79.1584 161.596 80.0278Z" fill="#FFBB1C"/>
<path d="M135.917 76.7192L136.269 76.6726L146.471 85.7109L150.145 88.863C150.533 89.2066 151.25 89.7315 151.503 90.1744L161.596 80.0278C161.918 79.1584 161.769 78.2245 161.761 77.3085C166.601 81.3525 167.555 88.0352 168.097 93.9158L167.658 93.8947C166.847 94.3314 166.178 95.0846 165.511 95.7188L161.604 99.6415L152.655 91.5361L151.504 90.3125L149.045 92.6705C148.569 92.7263 142.407 98.8937 141.554 99.6858L132.576 92.0478L132.019 88.0279C131.562 83.568 133.171 80.1276 135.917 76.7192Z" fill="#13B2B5"/>
<path d="M165.346 15.5561L165.773 15.3262L169.97 18.4769C172.514 20.4646 176.134 24.3249 179.593 23.9734C180.635 23.8677 181.824 23.4178 182.647 22.7591C183.2 22.3167 183.44 21.8536 184.163 21.701C184.472 22.2279 184.708 22.7531 184.568 23.3791C184.299 24.5779 183.162 25.743 182.11 26.3009C180.812 26.9897 179.21 27.1268 177.778 27.3131L177.839 27.5721C178.544 30.6293 177.821 34.0879 176.196 36.7481C175.693 37.5707 175.023 38.3744 174.374 39.0866L173.297 40.1067C172.988 39.4519 173.057 38.4599 173.074 37.7365L173.094 33.6965C173.011 31.213 172.53 28.4848 171.427 26.2418C170.431 24.1095 169.121 22.4304 167.199 21.0519L167.116 21.3261L166.953 22.0185C166.456 24.6605 163.724 28.1617 161.499 29.6175C158.972 31.2712 155.83 31.4545 152.902 31.4476C150.045 31.441 147.115 31.177 144.321 30.5609C142.782 30.2214 141.422 29.6456 140.035 28.9231C139.531 31.5549 139.134 34.3192 137.982 36.761C137.803 37.1396 137.664 37.4541 137.37 37.7652L137.299 37.9258C137.035 38.4943 136.622 39.1688 136.018 39.4268C135.708 39.5593 135.506 39.5576 135.202 39.413C134.4 39.0311 133.866 38.3328 132.972 38.016L132.811 37.9578C131.738 37.613 130.127 37.8498 129.161 38.3618C127.904 39.0278 127.132 40.1298 126.755 41.4733C126.205 43.4332 126.405 45.5308 127.426 47.2931C128.249 48.7132 129.665 49.8995 131.267 50.3193C132.069 50.5298 133.035 50.4336 133.861 50.4178C134.126 51.3728 134.42 52.267 134.849 53.1619C135.462 54.4376 137.619 57.2224 137.524 58.5173C135.11 57.3961 132.592 55.6695 130.791 53.7145C128.982 51.7514 127.632 49.6375 126.309 47.3361C122.089 39.9993 119.745 31.6474 120.038 23.1571C120.219 21.3723 120.783 19.6509 121.474 18.0049L121.642 18.1297C122.071 18.5605 122.229 19.6612 122.456 20.2535L125.113 26.6362C125.69 27.9701 126.291 29.5491 127.202 30.6868C127.603 31.1879 128.11 31.5434 128.759 31.5979C130.105 31.7115 131.233 31.4664 132.261 30.5431C133.195 29.705 133.688 28.3133 133.991 27.1354L134.07 26.8394C134.523 25.0589 134.492 23.0884 134.6 21.2583C134.69 19.7395 134.654 18.4528 135.697 17.2441C136.337 17.216 137.3 17.6035 137.762 18.0567C139.142 19.4124 141.056 22.36 143.047 22.6071C144.816 23.8062 146.32 24.5686 148.415 25.0321C151.596 25.7361 155.425 25.3661 158.332 23.8373C161.517 22.1628 164.251 18.9969 165.346 15.5561Z" fill="#022943"/>
<path d="M137.371 37.765C137.455 35.3932 137.775 33.0339 137.994 30.672C138.092 29.6268 138.135 27.6901 138.704 26.8292C139.014 26.3598 140.341 26.8751 140.776 27.0205C145.527 28.6077 151.1 29.5865 156.068 28.5146C159.106 27.8595 161.638 26.6987 163.648 24.2694C164.644 23.0654 165.465 21.6231 166.317 20.312L167.199 21.052L167.116 21.3261L166.953 22.0185C166.456 24.6606 163.724 28.1618 161.499 29.6176C158.972 31.2712 155.83 31.4546 152.902 31.4476C150.044 31.441 147.115 31.1771 144.321 30.561C142.782 30.2214 141.422 29.6457 140.035 28.9232C139.53 31.555 139.134 34.3193 137.982 36.7611C137.803 37.1393 137.664 37.4535 137.371 37.765Z" fill="#F0925D"/>
<path d="M121.475 18.0054C122.466 15.442 124.929 12.7993 127.469 11.7283C131.285 10.1192 135.165 11.1558 138.78 12.6648L140.309 9.67098C144.476 2.9374 152.628 0.195611 160.184 1.98669C164.429 2.99257 169.454 6.28966 173.935 5.1675C175.644 4.73939 176.346 3.61195 177.169 2.18291C178.583 5.21474 177.709 8.1838 177.081 11.2748L179.463 11.0802C180.525 10.9395 181.579 10.6098 182.589 11.0954C183.528 12.0768 184.378 13.2677 184.337 14.7033C184.296 16.1687 183.463 17.4748 182.404 18.4302L180.384 20.0343C181.598 20.2143 183.298 20.4875 184.073 21.5416L184.164 21.7015C183.44 21.8544 183.201 22.3176 182.647 22.7596C181.825 23.4183 180.636 23.8685 179.593 23.9739C176.135 24.3254 172.514 20.465 169.971 18.4774L165.774 15.327L165.346 15.5562C164.251 18.9967 161.517 22.163 158.333 23.8381C155.426 25.3669 151.597 25.7365 148.416 25.0329C146.321 24.5695 144.817 23.8074 143.048 22.6079C141.057 22.3605 139.143 19.4133 137.763 18.0576C137.301 17.6043 136.337 17.2168 135.698 17.2449C134.655 18.4536 134.69 19.7403 134.601 21.2592C134.493 23.0892 134.524 25.0597 134.071 26.8402L133.992 27.1362C133.689 28.3142 133.195 29.7059 132.262 30.5439C131.233 31.4672 130.106 31.712 128.759 31.5987C128.11 31.5442 127.604 31.1884 127.203 30.6876C126.292 29.5503 125.69 27.9713 125.113 26.637L122.457 20.2543C122.229 19.662 122.072 18.5616 121.643 18.1306L121.475 18.0054Z" fill="#045385"/>
<path d="M164.564 7.56372C164.802 7.59874 165.033 7.7649 165.227 7.89769C168.031 9.81298 170.94 10.3475 174.19 11.025L173.687 11.2916C172.37 11.753 170.644 11.6133 169.31 11.2513C167.658 10.8027 165.096 9.63658 164.214 8.14181L164.564 7.56372Z" fill="#3C96CA"/>
<path d="M143.048 22.6078C141.854 21.4169 140.559 20.158 139.9 18.5899L140.572 19.3728C142.261 21.3347 145.079 22.548 147.591 22.9946L149.007 23.2268C154.177 23.8806 159.079 21.6191 162.584 17.8985C163.454 16.9749 164.138 15.5204 165.098 14.7834L165.346 15.5561C164.251 18.9966 161.517 22.1628 158.333 23.838C155.426 25.3668 151.597 25.7364 148.416 25.0328C146.321 24.569 144.817 23.8069 143.048 22.6078Z" fill="#3C96CA"/>
<path d="M110.869 32.7625C111.669 32.6304 113.046 30.3322 113.595 29.6411C114.89 28.0089 116.266 26.4488 117.738 24.9738C118.414 24.296 119.131 23.5094 120.038 23.158C119.746 31.6479 122.089 39.9998 126.309 47.3369C127.633 49.638 128.983 51.7522 130.791 53.7154C132.592 55.6703 135.11 57.397 137.525 58.5181C137.675 61.2517 137.409 64.1315 137.163 66.8598L136.269 76.6734L135.917 76.72L135.283 76.7283C134.368 76.6751 133.591 76.9387 132.725 77.1864C130.596 77.7962 128.76 78.561 126.873 79.7389C126.627 79.6963 126.37 79.6405 126.118 79.6851C125.693 79.7611 125.258 80.0141 124.852 80.1657L121.401 81.462L110.849 85.3352L105.558 87.0926L105.522 55.523L105.589 55.3932L105.558 27.3945C107.155 27.4276 108.45 27.3767 109.632 28.6211C110.847 29.8998 110.864 31.1062 110.869 32.7625Z" fill="#E6EFF4"/>
<path d="M105.558 27.394C107.155 27.4271 108.45 27.3762 109.632 28.6206C110.847 29.8996 110.864 31.106 110.869 32.7623L110.803 66.8035C110.321 65.9383 110.667 52.7222 110.681 50.5826C108.887 51.9654 107.262 53.8394 105.589 55.393L105.558 27.394Z" fill="#FFBB1C"/>
<path d="M105.589 55.3928C107.262 53.8395 108.887 51.9652 110.681 50.5824C110.667 52.722 110.321 65.9381 110.803 66.8032L110.849 85.3344L105.558 87.0918L105.522 55.5222L105.589 55.3928Z" fill="#E6A819"/>
<path d="M31.5291 276.548C30.6672 276.023 29.8054 275.139 29.0307 274.482C21.8145 268.366 16.4476 259.344 13.1165 250.569C9.72985 241.648 8.01375 231.459 8.59713 221.93C9.10353 213.665 11.406 205.108 14.8342 197.588C17.1968 192.405 20.2583 187.528 23.5412 182.885C25.2484 180.472 27.1082 178.181 29.0225 175.929L32.4927 172.035C32.9495 171.523 33.5966 170.956 33.8751 170.337L28.0265 166.665C23.1795 163.659 18.5482 160.13 14.6416 155.957C8.21493 149.091 3.91032 140.511 1.78758 131.38C-1.1392 118.79 -0.518831 105.343 3.99488 93.2021C5.13091 90.1465 6.45457 87.043 8.18487 84.2744C12.4984 77.3717 17.9503 71.1181 24.4559 66.211C26.4254 64.7254 28.4477 63.2878 30.6428 62.1495C35.137 59.8196 40.2113 58.2618 45.129 57.1337L45.088 77.2267L45.0887 83.9745C45.0904 85.4398 44.8849 87.1193 45.4448 88.4898C46.0718 89.7682 46.9511 90.7533 48.3293 91.2382C49.1694 91.5339 50.1353 91.4652 51.013 91.4599L55.5683 91.4242L66.477 91.3971L83.3159 91.3786L92.3704 91.3383L96.1527 89.8132L105.558 87.0919L110.85 85.3345L121.402 81.4613L124.853 80.165C125.258 80.0137 125.694 79.7604 126.119 79.6844C126.37 79.6395 126.627 79.6956 126.873 79.7382C128.761 78.5603 130.597 77.7955 132.726 77.1857C133.591 76.938 134.368 76.6744 135.284 76.7276L135.918 76.7193C133.171 80.1277 131.562 83.5685 132.02 88.0277L132.577 92.0476L133.39 97.3719L139.997 137.28C140.93 138.54 142.159 139.525 143.138 140.752C145.082 143.185 146.703 145.821 148.453 148.391C148.92 149.061 149.413 149.8 150.121 150.239L150.128 150.407L151.005 150.587L152.019 150.257C152.001 152.741 151.302 155.424 150.856 157.866C149.797 163.692 148.517 169.519 147.801 175.396L147.395 177.967C148.359 178.2 149.345 178.172 150.298 178.478C151.58 178.795 153.083 179.034 154.265 179.617L161.881 181.591C163.051 181.925 169.312 183.555 169.798 184.209L194.264 190.518L194.684 190.824L195.325 206.345L196.494 241.676L196.781 255.022C196.846 257.167 196.805 259.437 197.171 261.552L197.762 297.021C197.352 297.267 197.036 297.188 196.564 297.181L196.406 297.044L196.278 297.11C195.599 297.369 194.215 297.165 193.474 297.156L185.351 297.072L164.437 297.024L156.721 297.059C155.792 297.072 153.82 297.371 153.006 297.003L152.837 295.889L151.853 286.159C148.817 287.553 145.869 288.8 142.563 289.407L140.891 297.132C140.219 296.925 139.125 297.051 138.409 297.051L132.621 297.055L106.494 296.998L97.4321 297.077L66.4628 297.146L44.0924 297.13C40.831 297.131 37.3384 297.391 34.1149 297.036L33.809 295.557L31.5291 276.548Z" fill="#E6EFF4"/>
<path d="M46.2651 247.759L46.5469 248.067C48.2316 251.553 51.0335 254.513 52.4672 258.175L51.6159 258.076L45.6236 248.133L45.6117 248.005L46.2651 247.759Z" fill="#1E499F"/>
<path d="M50.0906 232.158C50.3027 231.57 50.3741 229.85 50.1693 229.272C49.9674 228.702 50.0748 228.027 50.1147 227.432C50.6522 228.032 50.2763 229.185 50.3886 229.963L50.4712 230.458L50.4728 230.706C50.5429 231.451 50.3962 232.572 50.6793 233.225C50.6347 232.567 50.6823 231.931 50.7298 231.274L51.8596 245.315C51.8685 246.673 52.0439 248.283 51.7777 249.606L51.5695 250.569C51.0417 249.832 51.229 247.442 51.1731 246.479C51.0863 244.983 50.9604 243.442 50.7021 241.965L50.0906 232.158Z" fill="#1E499F"/>
<path d="M49.5727 216.906L50.3483 216.888L50.3764 222.715C50.4672 222.763 50.5478 222.84 50.6489 222.857C51.3661 222.976 56.2891 218.675 57.5876 218.421L57.5764 219.005L50.3863 223.83L50.5442 228.299L50.7299 231.274C50.6823 231.931 50.6347 232.567 50.6793 233.225C50.3959 232.572 50.5429 231.451 50.4729 230.706L50.4712 230.458L50.3886 229.963C50.2763 229.185 50.6522 228.032 50.1148 227.432C50.0751 228.027 49.9678 228.702 50.1693 229.272C50.3738 229.85 50.3027 231.57 50.0907 232.158L49.7507 226.641L49.7127 224.424L42.1523 218.609L42.1685 217.852L49.4799 223.521L49.6972 223.356L49.762 222.669C49.616 220.847 50.0295 218.66 49.5727 216.906Z" fill="#045385"/>
<path d="M57.5765 219.005C57.8259 221.215 55.8974 224.19 54.5578 225.87C53.7155 226.927 52.2336 228.263 50.8842 228.593L50.5443 228.299L50.3864 223.83L57.5765 219.005Z" fill="#FEFEFE"/>
<path d="M42.1527 218.609L49.7131 224.425L49.7511 226.641L49.7405 229.14L48.5127 229.125C47.0311 229.026 45.501 227.916 44.5655 226.818C42.7698 224.709 41.9902 221.329 42.1527 218.609Z" fill="#FEFEFE"/>
<path d="M43.5131 233.406C43.782 233.675 44.039 233.892 44.2051 234.24C45.6606 235.89 47.3486 238.688 47.7249 240.864C47.8494 241.584 47.7401 242.793 48.007 243.414C47.7496 244.747 47.4025 247.008 46.5466 248.067L46.2648 247.759C45.1248 245.82 43.4523 244.162 42.3622 242.19L43.2733 238.715L42.8065 237.848L43.5131 233.406Z" fill="#FEFEFE"/>
<path d="M43.513 233.406C43.7819 233.675 44.0389 233.892 44.2051 234.24L43.2735 238.715L42.8068 237.848L43.513 233.406Z" fill="#1E499F"/>
<path d="M43.5325 210.986C44.798 212.427 46.1838 213.761 47.5758 215.078C48.1985 215.667 48.876 216.424 49.5727 216.906C50.0295 218.66 49.6163 220.847 49.7623 222.669L49.6975 223.356L49.4802 223.521L42.1688 217.852L42.0668 217.651C42.115 215.618 42.6359 212.82 43.5325 210.986Z" fill="#FEFEFE"/>
<path d="M66.1708 258.185L72.3999 258.173L72.3669 268.597C71.8324 268.59 70.3806 268.394 70.0404 268.775C69.9931 268.828 69.9304 269.02 69.9046 269.091L69.7137 268.615L62.8225 268.59L63.612 258.233L66.1708 258.185Z" fill="#FFBB1C"/>
<path d="M67.3296 290.006L71.943 290.901C77.1663 291.664 82.5729 291.869 87.8444 291.659L94.2348 291.091C95.2671 290.967 96.339 290.705 97.3789 290.748L97.4929 292.071L97.4321 297.077L66.4628 297.146L67.3296 290.006Z" fill="#FEFEFE"/>
<path d="M97.4928 292.071C97.7637 290.513 97.5857 288.67 97.5946 287.078L125 287.096L127.994 287.134C127.543 287.768 127.134 288.249 126.523 288.731L126.318 288.895C124.861 290.043 123.008 290.956 121.337 291.745C118.117 293.263 114.812 294.466 111.427 295.559C109.835 296.073 108.133 296.714 106.494 296.998L97.4324 297.077L97.4928 292.071Z" fill="#022943"/>
<path d="M43.7059 210.322C44.0366 208.018 45.461 206.266 46.6317 204.361L46.7047 204.157C47.0872 203.212 47.8853 202.246 48.5225 201.45C50.2971 199.231 52.3204 196.962 54.645 195.322C56.1804 197.986 57.0303 201.364 57.7455 204.34C58.4805 207.399 58.6992 210.777 58.6467 213.916C58.6212 215.449 58.5079 217.271 57.7825 218.652L57.5876 218.421C56.2887 218.675 51.3661 222.976 50.6489 222.857C50.5478 222.84 50.4672 222.763 50.3764 222.715L50.3483 216.888L49.5727 216.906C48.876 216.424 48.1985 215.667 47.5758 215.078C46.1838 213.761 44.7977 212.427 43.5325 210.986L43.7059 210.322Z" fill="#FEFEFE"/>
<path d="M50.348 210.864L50.9678 211.127L50.4134 215.271C50.319 215.028 50.2271 214.795 50.168 214.541L50.135 214.379L49.878 214.552C49.874 213.355 50.1733 212.055 50.348 210.864Z" fill="#045385"/>
<path d="M43.7059 210.322L49.4802 215.857C49.8736 215.556 49.8096 215.033 49.8776 214.552L50.1346 214.379L50.1676 214.541C50.2268 214.795 50.3186 215.028 50.4131 215.271L50.642 215.611C52.0763 214.929 53.5106 214.171 54.87 213.35C55.9538 212.694 56.9329 211.784 58.1552 211.404C56.8662 213.274 54.5565 214.395 52.5963 215.439C51.8742 215.822 50.8296 216.214 50.3487 216.888L49.573 216.906C48.8764 216.424 48.1988 215.667 47.5761 215.077C46.1841 213.761 44.798 212.427 43.5328 210.986L43.7059 210.322Z" fill="#28338F"/>
<path d="M50.348 210.864L50.4392 209.895L46.7603 204.774L46.8376 204.411L47.2505 204.383C48.5358 205.722 49.5034 207.553 50.6282 209.049C51.1296 206.869 51.6066 204.702 52.2802 202.566C52.5973 201.562 52.9042 200.47 53.4446 199.562L53.6924 199.443L53.9067 199.737L51.418 208.657L54.5549 206.636C54.9747 206.345 55.7874 205.658 56.2525 205.526C56.3651 205.495 56.4814 205.575 56.596 205.6C56.5508 206.031 56.413 206.162 56.0873 206.428C54.7022 207.557 52.9068 208.61 51.2835 209.373C51.232 209.673 51.1187 210.962 50.9677 211.127L50.348 210.864Z" fill="#28338F"/>
<path d="M45.6232 248.133C45.498 248.351 45.4286 248.438 45.1858 248.539C42.3542 249.725 38.3865 248.887 35.7709 247.538C33.1847 246.205 31.5235 244.051 29.7935 241.805C25.2712 235.932 21.9186 228.932 19.6641 221.891C24.8394 222.52 29.5312 223.833 34.2074 226.132C35.9747 227.001 37.816 227.967 39.3666 229.194C40.9113 230.415 42.2191 231.93 43.5133 233.406L42.8074 237.848L43.2742 238.715L42.3631 242.19C43.4532 244.162 45.1257 245.82 46.2657 247.759L45.612 248.005L45.6232 248.133Z" fill="#FEFEFE"/>
<path d="M36.6466 235.198L37.4229 229.37L37.6631 229.219C38.1126 229.783 37.9874 230.442 37.9121 231.106C37.7324 232.688 37.3073 234.399 37.2974 235.98C37.19 235.778 37.2389 235.892 37.158 235.587L37.0929 235.332C36.7953 235.212 36.9442 235.255 36.6466 235.198Z" fill="#045385"/>
<path d="M39.4258 243.001C36.9159 243.044 34.3782 242.915 31.9361 242.276C31.3012 242.111 30.477 242.018 30.0188 241.531L30.1437 241.267C31.3989 241.377 32.606 241.709 33.849 241.901C35.7627 242.198 37.5723 242.33 39.5094 242.327L40.0666 242.639L39.9117 242.697C39.7152 242.776 39.5883 242.869 39.4258 243.001Z" fill="#28338F"/>
<path d="M37.3605 236.039C38.8034 237.583 40.6754 239.726 41.6519 241.579L42.8071 237.848L43.2738 238.715L42.3628 242.19C43.4529 244.162 45.1254 245.82 46.2654 247.759L45.6116 248.005L41.7837 242.765L39.4261 243.001C39.5889 242.869 39.7155 242.776 39.912 242.697L40.0669 242.639L39.5097 242.327L41.2413 242.117L37.379 237.139L37.3 237.018C37.4639 236.655 37.3995 236.424 37.3605 236.039Z" fill="#045385"/>
<path d="M35.8393 235.421C34.0146 233.882 32.3094 232.265 30.4063 230.81L25.8473 227.498C24.7651 226.752 23.534 226.06 22.6768 225.051C25.9035 226.172 28.8983 228.805 31.6434 230.836C31.3867 228.849 30.8793 226.679 30.9903 224.681C31.3487 225.404 31.6031 226.018 31.7336 226.828L32.3123 230.405C32.3546 230.678 32.3698 231.299 32.4815 231.504C32.5994 231.72 33.2198 232.143 33.4431 232.338L36.1317 234.774L36.6467 235.198C36.9446 235.255 36.7953 235.212 37.0926 235.332L37.1577 235.587C37.2386 235.892 37.1897 235.778 37.2971 235.98L37.3605 236.039C37.3995 236.424 37.4639 236.655 37.2994 237.019C37.0771 236.806 36.8568 236.543 36.5439 236.469C35.4462 236.211 34.2299 236.147 33.1084 235.991L28.6978 235.215C27.7081 235.025 26.4459 234.911 25.696 234.199L25.8612 233.925L35.6735 235.674L35.8393 235.421Z" fill="#28338F"/>
<path d="M55.569 258.049L64.9466 258.056L66.1708 258.185L63.6117 258.233L62.8222 268.59L69.7133 268.615L69.9042 269.091L69.1573 274.639C66.2828 273.678 63.2787 273.164 60.2875 272.713C53.3303 271.545 46.1795 271.075 39.1318 271.061L31.2334 271.197L31.2374 268.323L29.0053 268.339L28.9227 258.005L51.6148 258.076L52.4661 258.175L54.8921 258.01L55.569 258.049Z" fill="#FFCF60"/>
<path d="M31.2381 268.323L62.8225 268.59L69.7136 268.615L69.9046 269.091L69.1577 274.639C66.2831 273.678 63.279 273.164 60.2878 272.713C53.3306 271.545 46.1798 271.074 39.1321 271.061L31.2338 271.197L31.2381 268.323Z" fill="#E6A819"/>
<path d="M53.174 246.902C54.2899 244.36 55.5907 241.759 57.1579 239.463C58.1059 238.074 59.2357 236.801 60.3066 235.506C61.1619 234.473 61.955 233.378 62.914 232.435C63.9466 231.421 65.1883 230.541 66.3273 229.642C69.712 226.973 73.2918 224.504 77.1406 222.55C77.2473 226.62 77.2119 230.668 76.6061 234.705C76.4115 236 76.0088 237.228 75.701 238.495C73.9948 245.528 71.1476 251.876 66.0419 257.153C65.7113 257.495 65.3347 257.784 64.9465 258.056L55.5689 258.05L54.8931 258.01L54.8627 257.868C53.9632 257.201 53.1357 254.939 52.8873 253.861L52.8255 253.582C52.2808 251.213 52.5893 249.221 53.174 246.902Z" fill="#FEFEFE"/>
<path d="M65.808 251.905L69.7975 251.187L70.0333 251.434C69.8444 251.799 69.8024 251.803 69.3829 251.935L65.3795 252.69C63.2185 252.997 60.3409 253.451 58.2175 252.848C58.3474 252.624 58.5234 252.419 58.68 252.214L58.9076 252.239C61.1377 252.544 63.5819 252.202 65.808 251.905Z" fill="#28338F"/>
<path d="M54.8627 257.868C55.5253 256.237 56.5077 254.768 57.3157 253.208C57.4565 252.936 57.8938 252.27 57.9275 251.993C57.9341 251.937 57.6352 251.36 57.6084 251.302C57.1988 250.415 56.7529 249.543 56.3984 248.632C55.7073 246.853 55.0496 244.89 55.2006 242.968C55.8652 244.205 56.0932 245.493 56.5048 246.82C56.9755 248.334 57.6015 249.811 58.3758 251.197L61.7228 245.36C61.838 245.634 61.919 245.875 61.9728 246.169C61.1675 248.247 59.7427 250.239 58.6804 252.214C58.5238 252.419 58.3477 252.624 58.2179 252.848C57.513 254.667 56.2263 256.166 55.5693 258.049L54.8934 258.01L54.8627 257.868Z" fill="#022943"/>
<path d="M62.7845 243.495L62.8856 243.351C63.7712 242.079 64.5204 240.713 65.3436 239.399C65.662 238.892 66.2025 238.264 66.4103 237.724C66.73 236.89 66.033 233.296 65.9065 232.254C65.8513 231.799 65.7126 231.738 66.0796 231.424L66.366 231.532L67.1476 236.858C68.9013 234.924 70.3406 232.382 71.8862 230.253C72.5773 229.3 73.2304 228.222 74.2382 227.581C72.9238 230.463 70.59 233.119 68.83 235.768C68.6344 236.062 67.615 237.365 67.6424 237.617C68.5498 237.574 69.4484 237.511 70.3482 237.38L74.0205 236.799C74.5603 236.711 75.1463 236.497 75.6425 236.735C75.5074 237.029 75.5797 237.029 75.2491 237.151C73.3595 237.846 70.8837 238.132 68.8874 238.39C68.5092 238.437 67.0369 238.439 66.7825 238.604C66.6438 238.695 66.329 239.323 66.2299 239.48C65.3789 240.826 64.57 242.479 63.5545 243.685L62.8892 244.745L62.9487 244.94L67.8247 244.829C69.7149 244.549 71.6907 243.987 73.5944 243.934L73.7596 244.151C73.1329 244.752 71.068 245.138 70.1834 245.143C67.8779 245.664 65.1451 245.958 62.7861 245.715C62.5298 245.688 62.6405 245.695 62.3184 245.736L61.9719 246.169C61.918 245.875 61.8371 245.634 61.7218 245.36C61.8995 245.047 62.1668 244.628 62.1321 244.25C62.0799 243.682 61.6597 242.806 61.4717 242.245L60.3162 238.406C60.195 237.93 59.9443 237.324 60.1322 236.872L60.4635 236.91C61.2147 238.314 61.4499 240.168 61.9662 241.695C62.139 242.207 62.3035 242.895 62.6401 243.323L62.7845 243.495Z" fill="#28338F"/>
<path d="M31.2338 271.197L39.1321 271.061C46.1798 271.074 53.3306 271.545 60.2878 272.713C63.279 273.164 66.2831 273.678 69.1577 274.639L67.3296 290.006L66.4631 297.146L44.0928 297.13C40.8313 297.131 37.3387 297.391 34.1153 297.036L33.8094 295.557L31.5288 276.548L31.2338 271.197Z" fill="#FFCF60"/>
<path d="M60.2878 272.713C63.2789 273.164 66.283 273.678 69.1576 274.639L67.3295 290.006L66.4631 297.146L44.0927 297.13C40.8313 297.132 37.3386 297.391 34.1152 297.036L33.8093 295.558C35.6189 295.513 37.4404 295.635 39.2424 295.416C44.3682 294.793 50.2891 291.927 53.9843 288.35C56.5358 285.88 58.7117 282.648 59.5812 279.176C60.1044 277.088 60.2438 274.859 60.2878 272.713Z" fill="#FFBB1C"/>
<path d="M169.797 184.209L194.263 190.519L194.683 190.824L195.324 206.345L196.493 241.676L196.78 255.022C196.845 257.167 196.804 259.437 197.17 261.552L197.762 297.021C197.352 297.267 197.036 297.188 196.564 297.181L196.405 297.044L196.278 297.11C195.599 297.369 194.215 297.164 193.474 297.156L185.351 297.072L164.437 297.024L156.721 297.059C155.792 297.072 153.82 297.371 153.006 297.003L152.837 295.889L151.853 286.159C148.817 287.553 145.869 288.8 142.563 289.406L140.891 297.131C140.219 296.925 139.125 297.05 138.409 297.05L132.621 297.055L106.494 296.998C108.133 296.713 109.835 296.073 111.426 295.559C114.812 294.466 118.117 293.263 121.337 291.745C123.008 290.956 124.861 290.042 126.318 288.894L126.523 288.731C127.133 288.249 127.542 287.768 127.994 287.134L124.999 287.096L124.988 286.97C123.656 286.8 122.15 286.929 120.797 286.929L112.676 286.927L102.912 286.926C101.268 286.926 99.506 286.795 97.8738 286.96C94.5509 287.294 90.8485 287.159 87.5148 286.949L93.6825 208.002L94.1119 201.748L99.4726 204.571C99.873 206.819 100.742 209.113 101.584 211.234C102.152 212.369 102.341 213.672 103.559 214.316C104.124 214.615 104.653 214.868 105.288 214.762C106.742 214.519 108.194 213.883 109.571 213.37L115.016 211.46L134.758 205.047L134.824 205.123L134.622 216.26L136.577 216.28L154.999 216.42C157.256 216.427 159.793 216.64 162.022 216.387L162.15 216.434L170.461 216.452L169.797 184.209Z" fill="#FEFEFE"/>
<path d="M94.1126 201.748L99.4733 204.571C99.8736 206.819 100.743 209.113 101.584 211.234C100.297 211.422 95.1267 208.591 93.6835 208.002L94.1126 201.748Z" fill="#AAB6E4"/>
<path d="M136.577 216.28L154.999 216.42C157.256 216.427 159.793 216.64 162.022 216.387L162.15 216.434L162.098 216.706C161.819 218.262 162.051 220.109 162.001 221.704C161.897 225.027 160.85 228.322 159.717 231.423L155.82 240.746L152.112 249.561C151.184 251.652 150.049 253.684 149.217 255.811C149.025 256.302 148.959 256.668 148.956 257.194L151.853 286.159C148.817 287.553 145.869 288.8 142.563 289.406L140.891 297.131C140.219 296.925 139.125 297.05 138.409 297.05L132.621 297.055L106.494 296.998C108.133 296.714 109.835 296.073 111.426 295.559C114.812 294.466 118.117 293.263 121.337 291.745C123.008 290.956 124.861 290.042 126.318 288.894L126.523 288.731C127.133 288.249 127.542 287.768 127.994 287.134L124.999 287.096L124.988 286.97L133.137 286.954L134.572 221.975L134.622 216.26L136.577 216.28Z" fill="#045385"/>
<path d="M134.622 216.26L136.577 216.28L138.544 216.448C138.08 217.502 135.622 222.873 134.872 223.234L134.701 223.108L134.573 221.975L134.622 216.26Z" fill="#022943"/>
<path d="M142.563 289.406L146.872 268.217L148.178 260.875C148.371 259.736 148.401 258.208 148.956 257.194L151.853 286.159C148.817 287.553 145.869 288.8 142.563 289.406Z" fill="#E6EFF4"/>
<path d="M169.797 184.209L194.263 190.519L194.683 190.824L195.324 206.345L196.493 241.676L196.78 255.022C196.845 257.167 196.803 259.437 197.17 261.552L197.761 297.021C197.352 297.267 197.036 297.188 196.564 297.181L196.405 297.044L196.278 297.11C195.599 297.369 194.215 297.164 193.474 297.156L185.351 297.072L164.437 297.024L156.72 297.059C155.792 297.072 153.82 297.371 153.006 297.003L152.837 295.889L151.853 286.159L148.956 257.194C148.959 256.668 149.025 256.302 149.217 255.811C150.049 253.684 151.184 251.652 152.112 249.561L155.82 240.746L159.717 231.423C160.85 228.322 161.897 225.027 162.001 221.704C162.05 220.109 161.819 218.262 162.098 216.706L162.15 216.434L170.461 216.452L169.797 184.209Z" fill="#FEFEFE"/>
<path d="M162.15 216.434L170.461 216.452L172.479 286.955L195.946 286.931L196.405 297.044L196.278 297.11C195.599 297.369 194.215 297.164 193.474 297.156L185.351 297.072L164.437 297.024L156.72 297.059C155.792 297.072 153.82 297.371 153.006 297.003L152.837 295.889L151.853 286.159L148.956 257.194C148.959 256.669 149.025 256.302 149.217 255.811C150.049 253.684 151.184 251.652 152.112 249.561L155.82 240.746L159.717 231.423C160.85 228.322 161.897 225.027 162.001 221.704C162.05 220.109 161.819 218.262 162.098 216.706L162.15 216.434Z" fill="#022943"/>
<path d="M126.873 79.7383C128.76 78.5603 130.596 77.7956 132.725 77.1858C133.591 76.938 134.368 76.6744 135.283 76.7276L135.917 76.7194C133.17 80.1278 131.561 83.5686 132.019 88.0278L132.576 92.0476L133.389 97.372L139.997 137.28C140.929 138.54 142.158 139.525 143.138 140.752C145.082 143.185 146.702 145.821 148.452 148.391C148.92 149.061 149.412 149.8 150.12 150.239L150.127 150.407L151.004 150.587L152.018 150.257C152 152.741 151.301 155.424 150.855 157.866C149.797 163.692 148.517 169.519 147.8 175.396L147.394 177.967C148.358 178.2 149.344 178.172 150.297 178.478C151.579 178.795 153.082 179.034 154.265 179.617L161.881 181.591C163.05 181.925 169.312 183.555 169.797 184.209L170.461 216.452L162.15 216.433L162.023 216.387C159.793 216.64 157.256 216.427 155 216.42L136.577 216.28L134.622 216.26L134.824 205.123L134.758 205.047L115.016 211.46L109.571 213.37C108.194 213.883 106.742 214.519 105.289 214.762C104.654 214.868 104.124 214.615 103.559 214.316C102.341 213.672 102.152 212.369 101.584 211.234C100.743 209.113 99.8736 206.819 99.4729 204.571L94.1122 201.748C92.7615 200.922 91.6413 199.979 90.5585 198.826C89.1588 201.337 87.8398 204.284 86.09 206.543L84.548 205.655L72.1908 197.899L58.2899 189.013C54.0355 186.281 49.3824 183.844 45.9813 180.042C42.9114 176.612 40.7372 171.567 41.0348 166.897C41.1765 164.67 41.5861 162.488 42.3971 160.405C43.0366 158.762 44.0082 157.204 44.8532 155.66L49.6321 147.202L63.9747 124.624L69.121 117.07L73.9142 111.09L82.3658 100.735C85.4115 97.2907 88.9111 94.3491 92.3697 91.339L96.1521 89.8139L105.558 87.0926L110.849 85.3352L121.401 81.462L124.852 80.1658C125.258 80.0145 125.693 79.7611 126.118 79.6851C126.37 79.6399 126.627 79.6957 126.873 79.7383Z" fill="#4472B0"/>
<path d="M128.133 144.352C129.523 143.765 130.999 143.055 132.477 142.735L132.754 142.919C132.751 143.198 132.841 143.616 132.61 143.798C131.995 144.281 130.566 144.521 129.79 144.756C129.107 144.778 128.73 144.683 128.133 144.352Z" fill="#FEFEFE"/>
<path d="M119.308 160.666C119.778 160.782 119.934 160.751 120.237 161.142L106.463 166.16C106.135 165.942 106.073 165.74 105.934 165.382C106.816 164.599 108.903 164.163 110.043 163.781L119.308 160.666Z" fill="#FEFEFE"/>
<path d="M117.144 150.495C113.739 151.947 110.01 153.019 106.495 154.215C105.186 154.659 103.507 155.485 102.169 155.62C101.915 155.264 101.763 155.186 101.784 154.728L111.085 151.546C112.957 150.915 115.01 150.011 116.956 149.717L117.144 150.495Z" fill="#FEFEFE"/>
<path d="M131.672 168.107L132.149 168.097L132.325 168.272C131.063 169.425 128.665 170.028 127.053 170.637L110.097 176.605L109.888 176.57C109.5 176.437 109.446 176.21 109.276 175.87C110.191 175.287 111.353 175.021 112.379 174.677L118.049 172.748L127.01 169.585C128.52 169.062 130.1 168.386 131.672 168.107Z" fill="#FEFEFE"/>
<path d="M122.992 123.512L123.303 123.602L123.485 123.985C122.984 124.799 97.527 133.524 94.5711 134.511L94.178 134.392C94.0257 134.06 93.9785 133.964 93.9867 133.587C94.9834 133.063 96.2119 132.778 97.2848 132.427L102.995 130.498L122.992 123.512Z" fill="#FEFEFE"/>
<path d="M127.006 133.752C127.228 133.713 127.406 133.716 127.629 133.723L127.714 134.248C127.089 135.065 122.35 136.463 121.083 136.925L98.3699 145.016L97.9457 144.976C97.6924 144.604 97.5943 144.625 97.659 144.158L127.006 133.752Z" fill="#FEFEFE"/>
<path d="M99.9358 163.928C100.395 163.866 100.88 163.804 101.343 163.851C102.307 163.948 103.222 164.444 103.821 165.202C104.42 165.962 104.567 167.009 104.355 167.942C104.108 169.027 103.041 169.797 102.139 170.302C101.531 170.505 100.817 170.613 100.188 170.441C99.2398 170.18 98.5675 169.471 98.0869 168.644C97.706 167.988 97.6637 166.931 97.8685 166.208C98.1992 165.035 98.9299 164.501 99.9358 163.928Z" fill="#FFBB1C"/>
<path d="M100.356 165.96C100.66 165.869 100.938 165.823 101.255 165.818C101.94 165.808 102.261 165.99 102.727 166.455C102.911 166.925 103.056 167.359 102.868 167.856C102.643 168.447 102.217 168.758 101.673 169.029C101.484 169.088 101.296 169.154 101.095 169.158C100.621 169.164 100.008 168.978 99.6952 168.603C99.2879 168.115 99.201 167.664 99.3295 167.04C99.4431 166.49 99.9026 166.211 100.356 165.96Z" fill="#EDD0D0"/>
<path d="M96.7397 153.338L96.8738 153.353C97.4304 153.404 97.989 153.427 98.5152 153.635C99.4722 154.013 100.182 154.781 100.56 155.731C100.827 156.405 100.855 157.52 100.533 158.177C99.9948 159.275 99.1098 159.736 98.0002 160.119L97.7766 160.121C97.0717 160.134 96.4064 160.187 95.7635 159.84C94.9354 159.394 94.2159 158.407 93.949 157.515C93.7039 156.696 93.8116 155.747 94.2493 155.012C94.832 154.031 95.6618 153.594 96.7397 153.338Z" fill="#FFBB1C"/>
<path d="M96.7784 155.389C97.233 155.244 97.7334 155.312 98.2048 155.33C98.6603 155.558 99.0604 155.748 99.2886 156.228C99.4872 156.648 99.504 157.107 99.3488 157.54C99.1354 158.134 98.7568 158.408 98.217 158.693C97.9362 158.777 97.7027 158.833 97.4064 158.825C96.897 158.808 96.456 158.706 96.1055 158.313C95.7246 157.885 95.5945 157.353 95.682 156.793C95.795 156.073 96.2066 155.758 96.7784 155.389Z" fill="#EDD0D0"/>
<path d="M92.2475 142.777L93.7578 142.965C94.6335 143.167 95.5505 143.679 96.0179 144.47C96.4685 145.232 96.4929 146.264 96.2425 147.099C95.8584 148.383 94.7474 149.083 93.6303 149.645C92.7278 149.709 91.9284 149.767 91.1019 149.329C90.2991 148.903 89.5754 147.945 89.4026 147.048C89.2325 146.164 89.3349 145.143 89.8162 144.374C90.3956 143.448 91.2234 143.041 92.2475 142.777Z" fill="#FFBB1C"/>
<path d="M92.2729 144.818C92.665 144.714 93.1149 144.645 93.5199 144.705C94.0171 144.778 94.503 145.051 94.7736 145.484C94.9889 145.829 95.0752 146.421 94.9467 146.814C94.7369 147.456 94.1053 147.795 93.5599 148.1C93.2735 148.142 93.004 148.175 92.7139 148.152C92.1031 148.102 91.6321 147.887 91.2849 147.364C91.0576 147.02 90.9602 146.586 91.0553 146.181C91.2198 145.482 91.6819 145.15 92.2729 144.818Z" fill="#EDD0D0"/>
<path d="M104.249 174.968C104.853 174.945 105.466 174.897 106.05 175.082C107.114 175.419 107.93 175.964 108.412 176.998C108.751 177.727 108.773 178.749 108.506 179.504C108.083 180.703 107.232 181.449 106.101 181.973L105.928 181.985C105.284 182.037 104.74 182.095 104.124 181.854C103.119 181.459 102.449 180.865 102.011 179.872C101.624 178.997 101.568 177.807 101.951 176.922C102.401 175.883 103.265 175.393 104.249 174.968Z" fill="#FFBB1C"/>
<path d="M104.882 177.026C105.256 176.957 105.604 177.003 105.971 177.097C106.572 177.249 106.842 177.618 107.157 178.116C107.217 178.561 107.268 178.944 107.077 179.365C106.793 179.988 106.246 180.328 105.637 180.574C105.153 180.681 104.569 180.685 104.126 180.427C103.721 180.193 103.475 179.872 103.355 179.423C103.215 178.899 103.257 178.402 103.548 177.935C103.886 177.393 104.281 177.178 104.882 177.026Z" fill="#EDD0D0"/>
<path d="M87.9214 132.539C88.7716 132.48 89.4908 132.438 90.3077 132.742C91.1273 133.046 91.7176 133.697 92.0466 134.496C92.5031 135.604 92.4248 136.918 91.9541 138.002C91.5775 138.87 90.902 139.281 90.056 139.618C89.398 139.683 88.4952 139.725 87.8662 139.503C87.0985 139.232 86.46 138.588 86.0893 137.878C85.5773 136.898 85.3946 135.819 85.7289 134.744C86.0986 133.556 86.8811 133.079 87.9214 132.539Z" fill="#FFBB1C"/>
<path d="M88.4582 134.413C88.7773 134.372 89.1318 134.343 89.4509 134.385C89.9051 134.444 90.4062 134.682 90.6764 135.062C90.9536 135.451 91.0345 135.936 90.942 136.399C90.793 137.146 90.4082 137.536 89.7815 137.918C89.2589 138.074 88.9088 138.156 88.3776 137.973C87.8814 137.802 87.4847 137.306 87.304 136.829C87.1197 136.343 87.1157 135.771 87.337 135.297C87.5825 134.774 87.9389 134.609 88.4582 134.413Z" fill="#EDD0D0"/>
<path d="M118.52 100.431L118.774 100.522L121.781 99.42C122.329 99.9264 122.736 100.854 123.042 101.541L125.346 107.399L132.393 125.886L135.066 132.874C135.498 134.052 136.058 135.299 136.251 136.54C135.638 137.931 136.452 139.962 136.976 141.303L139.319 146.401L136.34 146.176L120.83 104.204C119.631 104.193 117.921 105 116.768 105.401C113.845 106.418 110.834 107.609 107.833 108.347L106.383 104.618C108.7 104.2 111.152 103.076 113.42 102.36C114.18 102.121 115.683 101.892 116.219 101.307C116.987 101.171 118.005 101.06 118.52 100.431Z" fill="#045385"/>
<path d="M150.297 178.478C151.579 178.795 153.082 179.035 154.265 179.618C155.488 182.364 156.46 185.291 157.51 188.111C158.485 190.728 159.629 193.335 160.32 196.047C158.836 196.84 157.34 197.276 155.763 197.829L149.461 199.989L138.21 203.95L134.758 205.047L115.016 211.46L109.571 213.37C108.194 213.883 106.742 214.519 105.288 214.762C104.653 214.868 104.124 214.615 103.559 214.316C102.341 213.672 102.152 212.369 101.584 211.234C100.742 209.113 99.8734 206.819 99.4727 204.571L101.757 205.139C106.458 207.067 112.623 205.712 117.272 204.3C117.002 204.692 116.615 204.783 116.189 204.946L115.978 205.025L115.813 205.514C115.93 205.871 115.858 205.909 116.207 206.097L116.373 205.932C116.564 205.896 116.868 205.866 117.033 205.767C117.324 205.594 117.24 205.585 117.612 205.531C117.867 205.494 118.093 205.47 118.341 205.392L118.603 205.306L124.826 203.076L142.512 196.838L149.362 194.403C150.631 193.952 152.148 193.53 153.288 192.816C153.729 192.54 154.436 192.012 154.563 191.465C154.727 190.763 154.424 190.223 154.196 189.584L152.743 185.792L150.953 180.919C150.682 180.186 150.122 179.233 150.297 178.478Z" fill="url(#paint0_linear_102_2696)"/>
<path d="M97.6244 185.516C100.072 184.414 102.772 183.767 105.294 182.835C106.168 182.513 107.021 181.912 107.905 181.679C108.346 181.562 108.88 181.527 109.323 181.651C109.795 181.783 110.252 182.262 110.427 182.718C110.618 183.217 110.57 183.935 110.337 184.411C109.026 187.085 105.372 188.064 102.917 189.323C105.361 189.809 107.872 190.226 110.37 190.283C113.386 190.35 116.424 189.762 119.438 189.607C120.493 189.553 122.027 189.341 122.924 189.964C123.051 190.302 123.09 190.402 122.936 190.76C122.658 191.409 121.875 191.774 121.245 191.977C118.344 192.909 115.139 192.859 112.223 193.708L112.172 193.938C112.986 194.05 114.006 193.745 114.822 193.612L120.131 192.752C121.549 192.483 123.227 192.539 124.631 192.867C125.072 193.198 125.221 193.322 125.39 193.873C125.292 194.448 125.214 194.646 124.714 194.978C121.696 196.98 117.099 196.533 113.715 197.492L113.686 197.735C114.432 197.857 115.333 197.629 116.078 197.52C118.513 197.168 121.495 196.176 123.925 196.476C124.688 196.572 125.14 196.709 125.685 197.259C125.865 197.649 125.943 197.932 125.787 198.354C125.629 198.785 125.21 199.058 124.796 199.21C123.757 199.588 122.437 199.636 121.341 199.813C118.965 200.199 116.562 200.576 114.225 201.164V201.443C115.072 201.456 115.999 201.177 116.832 201.012C119.185 200.546 121.826 199.709 124.204 199.606L124.377 199.985C123.532 201.762 120.299 203.047 118.569 203.76C118.27 203.884 117.448 204.101 117.271 204.3C112.623 205.713 106.458 207.067 101.757 205.139L99.4723 204.571L94.1116 201.749C92.7609 200.923 91.6407 199.98 90.5579 198.827L94.6818 190.973C95.4875 189.212 96.3814 186.987 97.6244 185.516Z" fill="#F2AD87"/>
<path d="M90.5588 198.827L94.6828 190.973C94.8165 192.582 94.727 194.2 95.099 195.773C95.8122 198.789 97.5306 201.19 99.765 203.288C100.419 203.902 101.209 204.427 101.757 205.139L99.473 204.571L94.1123 201.748C92.7618 200.923 91.6417 199.98 90.5588 198.827Z" fill="#EF8274"/>
<path d="M126.873 79.7383C128.76 78.5603 130.596 77.7956 132.725 77.1858C133.591 76.938 134.368 76.6744 135.283 76.7276L135.917 76.7194C133.17 80.1278 131.561 83.5686 132.019 88.0278L132.576 92.0476L133.389 97.372L139.997 137.28C139.466 136.757 138.758 135.994 138.009 135.849C137.344 135.721 136.778 136.198 136.251 136.54C136.058 135.298 135.498 134.051 135.066 132.874L132.393 125.885L125.346 107.398L123.042 101.54C122.736 100.853 122.329 99.9261 121.781 99.4194L118.774 100.521L118.52 100.43C118.005 101.06 116.987 101.171 116.219 101.306L116.301 100.057C117.185 92.261 120.677 84.6871 126.873 79.7383Z" fill="#FEFEFE"/>
<path d="M126.873 79.7382C128.76 78.5602 130.596 77.7955 132.725 77.1857C133.591 76.9379 134.368 76.6743 135.283 76.7275C128.941 79.1019 124.14 84.2856 121.376 90.3955C119.867 93.7289 119.101 96.841 118.52 100.431C118.005 101.06 116.987 101.171 116.219 101.306L116.301 100.058C117.185 92.2609 120.677 84.6869 126.873 79.7382Z" fill="#022943"/>
<path d="M154.265 179.618L161.88 181.592C163.05 181.925 169.311 183.555 169.797 184.209L170.461 216.452L162.15 216.434L162.022 216.388C159.793 216.64 157.256 216.427 155 216.421L136.577 216.28L134.622 216.26L134.824 205.123L134.758 205.047L138.21 203.95L149.461 199.99L155.763 197.829C157.34 197.276 158.836 196.84 160.32 196.047C159.629 193.335 158.485 190.729 157.51 188.111C156.46 185.291 155.488 182.365 154.265 179.618Z" fill="#13B2B5"/>
<path d="M154.516 207.087C154.824 207.496 154.653 208.705 154.634 209.234L154.032 209.302L153.792 209.052C153.756 208.502 153.614 207.771 153.866 207.275L154.516 207.087Z" fill="#FEFEFE"/>
<path d="M134.758 205.047L138.21 203.95L138.41 204.066C138.922 204.332 139.674 204.271 140.24 204.342L145.278 204.869C147.157 205.017 149.034 205.116 150.894 205.442C151.447 205.537 152.116 205.599 152.575 205.931C152.412 206.256 152.215 206.268 151.885 206.373C150.953 206.669 150.058 206.728 149.11 206.902L142.708 207.863C140.136 208.212 137.568 208.705 134.975 208.861C134.985 207.926 135.239 205.896 134.824 205.123L134.758 205.047Z" fill="#0993A0"/>
<path d="M161.88 181.592C163.05 181.925 169.311 183.555 169.797 184.209L170.461 216.452L162.15 216.434L162.022 216.388C162.163 213.671 162.026 210.878 162.012 208.156L161.852 189.429L161.803 184.748C161.776 183.694 161.671 182.629 161.88 181.592Z" fill="#0993A0"/>
<path d="M136.251 136.54C136.778 136.199 137.343 135.721 138.008 135.849C138.758 135.994 139.466 136.758 139.996 137.28C140.929 138.541 142.158 139.525 143.137 140.752C145.081 143.186 146.702 145.821 148.452 148.391C148.919 149.062 149.411 149.8 150.12 150.239L150.127 150.408L151.004 150.588L152.018 150.257C152 152.742 151.301 155.424 150.855 157.867C149.796 163.692 148.516 169.519 147.8 175.396L147.394 177.968L147.331 178.113C146.956 178.597 144.684 178.42 144 178.43C144.091 177.546 144.805 171.944 144.707 171.762C144.681 171.714 143.003 171.154 142.841 171.098L128.411 165.937C125.857 164.891 122.25 163.669 120.67 161.291L120.238 161.142C119.934 160.751 119.778 160.782 119.308 160.666C118.98 160.491 118.707 160.278 118.434 160.025C117.896 159.528 117.633 159.109 117.626 158.362C117.621 157.842 117.767 157.343 118.158 156.983C118.441 156.722 118.959 156.496 119.346 156.496C120.273 156.492 121.747 157.194 122.665 157.464L128.616 159.013C130.007 159.386 131.802 160.07 133.22 160.073L133.271 159.788C132.599 159.363 131.237 159.257 130.433 159.048L123.217 157.039C121.795 156.621 120.099 156.208 118.803 155.497C118.164 155.145 117.49 154.563 117.322 153.82C117.107 152.865 117.401 152.116 117.86 151.301C118.484 151.139 119.471 151.741 120.1 151.917L130.234 154.646C131.208 154.905 132.981 155.642 133.927 155.452C133.88 155.361 133.862 155.249 133.787 155.179C133.694 155.094 133.211 155.013 133.058 154.968L130.133 154.17C125.956 153.024 121.412 152.086 117.451 150.352L117.144 150.495L116.956 149.717C116.784 149.301 116.813 148.962 116.926 148.535C117.08 147.953 117.635 147.397 118.239 147.276C118.979 147.127 120.244 147.532 120.988 147.687C122.529 148.011 133.785 151.138 134.317 150.847C134.071 150.352 131.866 150 131.246 149.84L123.889 147.867C122.141 147.412 119.566 147.078 118.08 146.067C117.481 145.657 116.98 145.06 116.876 144.323C116.805 143.829 117.004 143.201 117.342 142.836C117.474 142.695 117.84 142.377 118.026 142.319C118.681 142.116 119.598 142.427 120.256 142.573L125.118 143.759C125.967 143.98 127.017 144.352 127.893 144.356L128.135 144.352C128.732 144.684 129.108 144.778 129.791 144.757C131.865 145.512 134.237 145.458 136.341 146.176L139.32 146.401L136.977 141.303C136.452 139.962 135.637 137.931 136.251 136.54Z" fill="#F2AD87"/>
<path d="M150.127 150.408L151.004 150.588L152.018 150.257C152 152.741 151.301 155.424 150.855 157.867C149.797 163.692 148.517 169.519 147.8 175.396L147.394 177.968L147.332 178.113C146.957 178.597 144.684 178.42 144 178.43C144.091 177.546 144.805 171.944 144.707 171.762C144.681 171.714 143.003 171.154 142.841 171.098L128.411 165.937C125.858 164.891 122.251 163.669 120.67 161.291C122.626 162.032 124.577 162.782 126.598 163.327C129.14 164.013 131.749 164.437 134.321 164.994L146.884 167.65C146.772 165.55 147.488 163.415 147.99 161.4L149.313 155.368L150.127 150.408Z" fill="#022943"/>
<path d="M150.127 150.408L151.004 150.588L150.272 154.188L147.553 167.537C147.185 167.745 147.258 167.702 146.884 167.65C146.772 165.55 147.487 163.415 147.99 161.4L149.313 155.368L150.127 150.408Z" fill="#EF8274"/>
<path d="M110.85 85.3347L121.402 81.4615L124.853 80.1653C125.258 80.014 125.693 79.7606 126.119 79.6846C126.37 79.6397 126.627 79.6959 126.873 79.7385C120.677 84.6869 117.185 92.2612 116.301 100.058L116.219 101.306C115.683 101.892 114.18 102.12 113.42 102.36C111.152 103.075 108.7 104.199 106.383 104.617L107.833 108.346L109.18 112.252L92.1348 117.92L86.643 119.8C85.9348 120.044 85.102 120.473 84.3607 120.542L83.3109 117.783L73.6383 121.404L88.113 160.658L93.6333 175.642L95.2734 180.199C95.6282 181.178 95.898 182.183 96.5901 182.989C97.192 183.587 97.7796 184.147 97.7086 185.068C97.6904 185.306 97.6795 185.314 97.6247 185.516C96.3816 186.987 95.4874 189.212 94.6831 190.973L90.5591 198.827C89.1595 201.337 87.8405 204.284 86.0907 206.543L84.5487 205.655L72.1908 197.898L58.2899 189.012C54.0355 186.281 49.3824 183.844 45.9813 180.042C42.9114 176.612 40.7372 171.567 41.0348 166.896C41.1765 164.67 41.5861 162.488 42.3971 160.405C43.0366 158.762 44.0082 157.204 44.8532 155.66L49.6321 147.202L63.9747 124.624L69.121 117.069L73.9142 111.09L82.3658 100.735C85.4115 97.2906 88.9111 94.3489 92.3697 91.3389L96.1521 89.8138L105.558 87.0924L110.85 85.3347Z" fill="#FEFEFE"/>
<path d="M95.1892 183.083C95.6771 182.766 96.0408 182.914 96.5901 182.989C97.192 183.587 97.7797 184.147 97.7086 185.068C97.6905 185.306 97.6796 185.314 97.6247 185.516C96.3817 186.987 95.4875 189.212 94.6831 190.973L90.5592 198.827C89.1595 201.337 87.8405 204.284 86.0907 206.543L84.5487 205.655L92.678 190.169L94.7521 186.322C95.0841 185.714 95.571 184.979 95.7005 184.294C95.8062 183.734 95.4984 183.517 95.1892 183.083Z" fill="#022943"/>
<path d="M81.7772 114.03C81.58 113.809 81.4006 113.627 81.2837 113.351C81.1895 113.128 81.2754 113.066 81.3577 112.855C83.0265 112.089 85.031 111.662 86.7917 111.109L84.2408 103.598C85.1532 103.046 86.4181 102.833 87.4273 102.483L94.9226 99.9835C95.871 99.6968 96.784 99.2792 97.7919 99.2934C99.4783 100.547 100.583 103.924 101.585 105.796C103.039 105.399 104.896 104.606 106.383 104.616L107.833 108.346L109.18 112.251L92.1349 117.919L86.6431 119.8C85.9348 120.044 85.102 120.472 84.3608 120.542L83.3109 117.782C82.7576 116.557 82.4508 115.195 81.7772 114.03Z" fill="#BCD5E6"/>
<path d="M81.7771 114.03C82.4507 115.195 82.7579 116.558 83.3109 117.783L73.6383 121.404L88.113 160.658L93.6332 175.642L95.2733 180.199C95.6281 181.179 95.898 182.183 96.59 182.989C96.0407 182.914 95.6773 182.766 95.1891 183.083C91.8755 180.316 87.9812 178.073 84.3769 175.693L71.8792 167.316L65.4189 163.05C64.075 162.143 62.7008 161.284 61.4614 160.235L61.5374 160.075L71.3659 166.138C72.5581 165.301 73.3621 163.826 74.1708 162.637C75.6107 160.518 76.97 158.332 78.6237 156.374L74.9576 141.928L72.4563 133.274C71.8303 131.21 70.8364 128.872 70.6593 126.743L70.6438 126.532L68.0764 118.863C72.3982 116.804 77.3351 115.855 81.7771 114.03Z" fill="#045385"/>
<path d="M77.8505 170.433C78.6459 168.659 79.8784 167.047 80.9725 165.444C81.7696 164.277 82.5049 162.969 83.5722 162.029L89.6464 178.283C88.1084 177.566 86.6662 176.468 85.2609 175.518L77.8505 170.433Z" fill="#FEFEFE"/>
<path d="M70.6436 126.532C72.176 129.011 72.8376 132.4 73.8604 135.154L80.7063 154.099L83.5716 162.029C82.5046 162.969 81.7689 164.277 80.9718 165.445C79.8781 167.047 78.6453 168.659 77.8498 170.433C77.0441 170.061 76.2913 169.45 75.5494 168.956L71.3653 166.138C72.5575 165.301 73.3616 163.826 74.1702 162.637C75.6102 160.518 76.9695 158.332 78.6231 156.373L74.9571 141.928L72.4558 133.273C71.8298 131.21 70.8358 128.872 70.6587 126.743L70.6436 126.532Z" fill="#AAB6E4"/>
<path d="M182.589 11.095C186.504 8.74366 190.853 6.89212 195.125 5.28966C205.341 1.45842 216.201 -0.630952 227.138 0.169453C231.677 0.502101 236.09 1.3808 240.499 2.48544C245.371 3.70669 249.844 5.63354 254.257 8.01031C265.038 13.8166 273.854 22.189 280.159 32.7158C288.104 45.9811 290.657 62.6086 286.896 77.6098C285.935 81.4474 284.481 86.1718 282.286 89.491L282.265 98.5713C282.265 100.069 282.498 102.022 282.111 103.464C281.885 104.308 281.394 105.052 280.788 105.674C279.946 106.539 279.089 107.017 277.919 107.277L277.607 107.357C276.03 107.726 273.78 107.449 272.142 107.45L259.695 107.414C258.902 107.401 256.712 107.092 256.102 107.398C258.479 109.078 261.138 110.405 263.619 111.936C266.917 113.973 270.128 116.629 272.528 119.683L275.984 116.32L280.288 120.331L277.954 122.961C288.237 133.495 296.299 146.645 300.187 160.906C302.521 169.473 303.375 178.229 303.273 187.085C303.137 198.714 300.154 210.46 295.582 221.106L292.768 226.937C292.208 227.979 291.285 229.204 290.908 230.293C290.779 230.665 290.761 231.15 290.73 231.537L290.705 276.434L290.698 289.255C290.695 291.019 290.916 293.093 290.624 294.817C290.332 296.548 289.195 298.198 287.962 299.409C286.708 300.64 284.761 301.563 283.031 301.796C280.242 302.169 277.12 301.916 274.294 301.916L257.43 301.908L203.361 301.873C203.161 301.872 203.237 301.887 203.093 301.84C202.363 301.026 201.045 300.612 200.196 299.815C199.61 299.267 199.131 298.618 198.607 298.012C198.5 297.886 198.186 297.444 198.049 297.371C197.833 297.257 197.116 297.336 196.795 297.249L196.564 297.181C197.036 297.188 197.352 297.267 197.762 297.021L197.17 261.553C196.804 259.437 196.845 257.167 196.78 255.022L196.493 241.676L195.324 206.345L194.683 190.824L194.263 190.519L169.797 184.209C169.311 183.555 163.05 181.925 161.88 181.591L154.265 179.618C153.082 179.035 151.579 178.795 150.297 178.478C149.344 178.172 148.358 178.201 147.394 177.968L147.8 175.396C148.516 169.519 149.796 163.692 150.855 157.867C151.301 155.424 152 152.742 152.018 150.257L151.004 150.588L150.127 150.408L150.12 150.239C149.412 149.8 148.919 149.062 148.452 148.391C146.702 145.821 145.082 143.185 143.137 140.752C142.158 139.525 140.929 138.541 139.996 137.28L133.389 97.3722L132.576 92.0479L141.554 99.6859C142.407 98.8937 148.57 92.7264 149.045 92.6705L151.505 90.3126L152.656 91.5362L161.605 99.6416L165.511 95.7189C166.178 95.0843 166.847 94.3311 167.658 93.8948L168.097 93.9159C167.556 88.0353 166.601 81.3529 161.762 77.3086L161.71 76.9112C161.649 76.7123 161.674 76.5957 161.697 76.3922C161.451 75.8782 161.497 75.0933 161.468 74.5275L161.175 70.8224C162.668 70.3745 163.983 69.1932 165.08 68.1213C168.102 65.1634 171.122 61.0557 172.058 56.8535C172.555 54.6214 172.562 52.3021 172.583 50.0254L172.748 49.9244C175.267 48.3592 177.099 46.1404 177.745 43.1914C177.926 42.3607 178.196 40.9997 177.652 40.2673C176.998 39.385 175.38 39.2885 174.374 39.0867C175.023 38.3745 175.693 37.5708 176.196 36.7482C177.821 34.088 178.544 30.6294 177.839 27.5722L177.778 27.3132C179.21 27.1269 180.812 26.9898 182.11 26.301C183.162 25.7431 184.299 24.578 184.568 23.3792C184.708 22.7532 184.472 22.228 184.163 21.7011L184.072 21.5412C183.298 20.4874 181.598 20.2139 180.384 20.0339L182.404 18.4298C183.463 17.4744 184.295 16.1683 184.337 14.7029C184.378 13.2673 183.527 12.0764 182.589 11.095Z" fill="#E6EFF4"/>
<path d="M224.874 45.7808L224.968 44.5615C225.031 44.326 225.117 44.0696 225.346 43.953C225.815 43.7145 226.531 43.8176 227.059 43.813C228.41 43.8014 230.585 43.5299 231.826 43.9709C232.33 44.5374 232.211 44.8862 232.221 45.6034L224.874 45.7808Z" fill="#FFCF60"/>
<path d="M224.874 45.7807L232.221 45.6033L232.539 45.9901V49.2056L223.083 49.2713C221.648 49.2723 219.805 49.0298 218.452 49.4636L218.219 49.787C217.131 51.5364 217.674 55.2679 217.714 57.312C217.522 59.0199 217.552 60.7304 217.549 62.4461C217.547 63.4923 217.466 64.6247 217.606 65.6576C217.55 66.1218 217.53 66.4524 217.232 66.8363L217.052 45.9353L224.874 45.7807Z" fill="#FEFEFE"/>
<path d="M274.385 126.745C275.082 128.917 275.977 130.976 276.168 133.279C276.593 138.36 275.562 143.139 272.396 147.215C269.228 151.296 264.83 153.782 259.703 154.378C254.967 154.93 250.107 153.366 246.423 150.381C242.558 147.25 239.701 142.662 239.202 137.639C238.712 132.711 240.119 127.839 243.254 123.997C246.418 120.119 250.863 117.679 255.858 117.214C260.208 116.809 265.507 117.869 268.906 120.771L270.252 122.023L267.5 125.001C266.554 124.329 265.583 123.568 264.542 123.051C261.982 121.778 258.49 121.275 255.673 121.748C251.79 122.401 248.101 124.545 245.85 127.822C243.8 130.806 243.003 134.545 243.701 138.102C244.488 142.11 246.684 145.433 250.077 147.692C253.298 149.84 256.959 150.586 260.765 149.782C264.387 149.019 267.657 146.576 269.626 143.477C271.78 140.086 272.472 136.04 271.564 132.116L271.104 130.427L274.385 126.745Z" fill="#1E499F"/>
<path d="M240.191 52.569L246.574 52.4511C246.569 51.2213 246.311 49.4397 247.021 48.4114C247.19 48.2922 247.309 48.195 247.517 48.1571C248.519 47.9744 249.844 48.1405 250.883 48.1382C252.873 48.1346 255.261 47.8812 257.207 48.1891C257.607 48.2522 257.952 48.4329 258.185 48.7728C258.695 49.5157 258.479 51.6223 258.489 52.5479L270.743 52.5092C272.097 52.5046 274.059 52.238 275.343 52.5604C275.608 52.6272 275.876 52.828 276.073 53.013C276.527 53.4405 276.517 53.7999 276.507 54.3888L276.489 54.9778L276.492 59.8387C276.454 60.7766 276.728 62.2218 275.985 62.9003L275.346 63.3899L275.194 63.5084C274.371 64.0958 268.007 63.6881 266.594 63.6809L249.76 63.6799C246.83 63.6908 243.757 63.5203 240.847 63.8153C240.485 63.7813 240.443 63.7806 240.162 63.555L240.191 52.569Z" fill="#FFCF60"/>
<path d="M232.539 45.9901C233.093 45.5332 233.838 45.6865 234.546 45.6816L239.428 45.6472L239.524 51.8377C239.531 52.9846 239.463 54.2584 239.653 55.3859C239.752 54.5319 239.509 53.346 239.836 52.5721L240.192 52.5688L240.162 63.5554C240.443 63.7807 240.486 63.7814 240.847 63.8157C240.854 65.1648 241.226 69.1434 240.322 69.998C240.073 70.2345 239.79 70.4224 239.463 70.5351C238.426 70.8932 236.67 70.7254 235.578 70.725L225.478 70.5896L225.515 80.1436C225.52 81.6297 225.693 83.362 225.444 84.8182C225.186 83.3574 225.331 81.6304 225.326 80.1413L225.307 70.4697L221.765 70.436L220.231 70.3947C219.286 70.357 218.417 70.3709 217.755 69.583C217.086 68.7866 217.19 67.8058 217.232 66.8353C217.531 66.4518 217.55 66.1208 217.606 65.6567C217.466 64.6237 217.547 63.4913 217.549 62.4451C217.552 60.7297 217.522 59.0189 217.714 57.3111C217.674 55.2669 217.131 51.5355 218.219 49.786L218.452 49.4626C219.805 49.0289 221.648 49.2713 223.083 49.2703L232.539 49.2046V45.9901Z" fill="#AAB6E4"/>
<path d="M217.714 57.3118L217.801 57.4733C218.257 58.3447 218.292 59.2257 218.571 60.1553C219.341 62.7286 220.949 64.7751 223.485 65.7413L223.853 65.5599C225.018 65.6207 226.218 65.4308 227.284 64.9491C229.693 63.86 230.921 61.0994 231.779 58.7738C232.029 60.4278 231.296 62.8601 230.314 64.2155C228.901 66.1701 226.205 66.6784 223.955 66.9929C222.974 67.1303 218.962 67.0256 218.538 67.5628L218.346 67.4442C217.699 66.9926 217.71 66.3795 217.606 65.6574C217.466 64.6244 217.547 63.492 217.549 62.4459C217.552 60.7301 217.522 59.0196 217.714 57.3118Z" fill="#BCD5E6"/>
<path d="M239.653 55.3861C239.752 54.5322 239.509 53.3463 239.836 52.5723L240.192 52.569L240.162 63.5556C240.443 63.7809 240.486 63.7816 240.847 63.8159C240.854 65.165 241.226 69.1436 240.322 69.9982C240.073 70.2347 239.79 70.4227 239.463 70.5353C238.426 70.8934 236.67 70.7256 235.578 70.7252L225.478 70.5898L225.515 80.1438C225.52 81.63 225.693 83.3623 225.444 84.8184C225.186 83.3576 225.331 81.6306 225.326 80.1415L225.307 70.4699L221.765 70.4362L220.231 70.3949C219.286 70.3572 218.417 70.3711 217.755 69.5833C217.086 68.7868 217.19 67.8061 217.232 66.8355C217.531 66.452 217.55 66.121 217.606 65.6569C217.711 66.3787 217.699 66.9921 218.346 67.4437L218.538 67.5623C219.622 68.0627 220.824 67.9864 221.998 68.0238L227.703 68.0997L239.516 68.109L239.653 55.3861Z" fill="#E6E5E8"/>
<path d="M218.495 50.2C219.433 49.8561 220.413 49.9566 221.395 49.9764L225.772 50.0567L232.414 49.9952C232.424 52.0717 232.448 54.1512 232.234 56.2194C232.143 57.0865 231.913 57.9163 231.78 58.7736C230.921 61.0991 229.693 63.8598 227.284 64.9489C226.218 65.4305 225.018 65.6201 223.853 65.5597C222.256 64.9677 220.984 63.9232 220.049 62.4971C218.042 59.4375 217.775 53.6795 218.495 50.2Z" fill="#FEFEFE"/>
<path d="M224.773 197.788C224.857 196.691 225.105 196.237 225.951 195.546C226.296 195.262 226.6 195.058 227.036 194.944C228.017 194.689 229.234 194.82 230.248 194.826L236.064 194.904V188.857C236.067 187.732 235.962 186.461 236.252 185.367C236.421 184.74 236.766 184.203 237.22 183.74C237.663 183.289 238.231 182.904 238.845 182.734C239.945 182.43 241.401 182.587 242.537 182.587L249.664 182.627C250.87 182.665 252.07 182.949 252.924 183.864C253.24 184.203 253.524 184.652 253.648 185.1C253.905 186.038 253.773 187.24 253.77 188.213L253.735 194.854L260.165 194.8C260.743 194.795 261.809 194.663 262.332 194.836C262.716 194.963 263.335 195.437 263.622 195.731C264.098 196.222 264.48 196.704 264.43 197.414L264.4 197.742C264.321 198.034 264.321 198.15 264.334 198.444C264.404 199.996 264.676 202.021 263.469 203.22C263.054 203.633 262.476 203.968 261.886 204.023C260.506 204.148 259.009 204.044 257.618 204.039L249.826 204.021L227.477 203.967C226.668 203.949 225.9 203.958 225.328 203.288C224.251 202.023 224.734 199.335 224.773 197.788Z" fill="#F1A43E"/>
<path d="M244.37 186.053C245.388 186.001 246.156 186.021 247.084 186.479C248.144 187.004 249 188.084 249.334 189.214C249.684 190.396 249.486 191.819 248.888 192.882C248.148 194.192 247.096 194.76 245.688 195.105C245.018 195.125 244.431 195.026 243.8 194.792C242.479 194.299 241.486 193.249 240.94 191.961C240.522 190.978 240.545 189.884 240.996 188.918C241.701 187.402 242.838 186.603 244.37 186.053Z" fill="#FEFEFE"/>
<path d="M244.377 188.423C244.856 188.302 245.381 188.249 245.865 188.391C246.338 188.529 246.779 189.047 247.021 189.453C247.347 189.997 247.406 190.717 247.208 191.318C246.977 192.015 246.498 192.476 245.865 192.81C245.515 192.965 245.157 192.942 244.787 192.882C244.166 192.782 243.713 192.441 243.36 191.926C242.998 191.397 242.833 190.416 243.028 189.802C243.277 189.019 243.665 188.785 244.377 188.423Z" fill="#022943"/>
<path d="M276.489 54.9785C278.403 55.2567 279.791 55.8252 280.985 57.4365C281.632 58.3093 282.007 59.187 282.164 60.2563C282.334 61.4098 282.27 62.6179 282.273 63.7813L282.278 69.694L282.286 89.491L282.265 98.5713C282.265 100.069 282.498 102.022 282.111 103.464C281.885 104.308 281.394 105.052 280.788 105.674C279.946 106.539 279.089 107.017 277.919 107.277L245.313 107.235H235.669C233.757 107.234 231.732 107.37 229.844 107.045C227.915 106.713 225.923 105.716 224.502 104.371C223.143 103.084 222.238 101.454 221.874 99.6185C221.643 98.4537 221.721 97.1694 221.717 95.9845L221.729 90.38L221.765 70.4363L225.307 70.47L225.326 80.1416C225.331 81.631 225.186 83.3577 225.444 84.8184L225.493 100.836L226.127 100.877L259.448 100.973L270.594 100.967C272.333 100.965 274.239 101.118 275.955 100.936C276.448 100.884 276.91 100.673 277.254 100.313C277.592 99.9574 277.766 99.4652 277.805 98.9839C277.911 97.7035 277.762 96.2999 277.756 95.0057L277.738 86.0182L277.742 60.9797C277.452 60.5268 276.913 60.179 276.492 59.8391L276.489 54.9785Z" fill="url(#paint1_linear_102_2696)"/>
<path d="M272.528 119.684L275.983 116.32L280.288 120.331L277.954 122.961L274.385 126.745L271.104 130.427L271.564 132.116C272.472 136.039 271.78 140.085 269.626 143.476C267.657 146.576 264.387 149.018 260.765 149.781C256.959 150.586 253.298 149.839 250.077 147.692C246.684 145.433 244.488 142.109 243.701 138.102C243.003 134.545 243.8 130.806 245.85 127.821C248.101 124.544 251.79 122.401 255.673 121.748C258.49 121.274 261.982 121.778 264.542 123.05C265.583 123.568 266.554 124.329 267.5 125.001L270.252 122.022L272.528 119.684Z" fill="#FEFEFE"/>
<path d="M272.528 119.684L275.983 116.32L280.288 120.331L277.954 122.961L274.385 126.745L271.104 130.427L262.093 139.687C260.79 141.016 259.432 142.7 257.922 143.764C257.693 143.926 257.432 144.097 257.144 144.035C255.93 143.771 254.799 142.259 253.907 141.412C251.885 139.494 249.362 137.544 247.837 135.22C249.021 133.792 250.402 132.154 251.945 131.109L252.31 131.38C254.107 132.685 255.656 134.291 257.245 135.836L267.5 125L270.252 122.022L272.528 119.684Z" fill="#FFCF60"/>
<path d="M276.492 59.8394C276.913 60.1793 277.452 60.5271 277.742 60.98L277.737 86.0185L277.756 95.006C277.762 96.3002 277.911 97.7038 277.805 98.9842C277.766 99.4655 277.592 99.958 277.254 100.313C276.91 100.674 276.448 100.884 275.955 100.936C274.239 101.118 272.333 100.965 270.594 100.968L259.448 100.973L226.127 100.877L225.493 100.836L225.444 84.8184C225.693 83.3623 225.52 81.63 225.515 80.1438L225.478 70.5898L235.578 70.7253C236.67 70.7256 238.426 70.8934 239.463 70.5353C239.79 70.4227 240.073 70.2347 240.322 69.9982C241.225 69.1436 240.854 65.1647 240.847 63.8159C243.757 63.5213 246.83 63.6914 249.76 63.6805L266.594 63.6815C268.007 63.6888 274.371 64.0964 275.194 63.5091L275.346 63.3905L275.985 62.9009C276.728 62.2221 276.454 60.7772 276.492 59.8394Z" fill="#FEFEFE"/>
<path d="M251.357 73.9613L251.504 73.9227C253.083 73.6475 255.034 73.8603 256.639 73.8593L269.423 73.8655C270.175 73.8665 272.196 73.6488 272.788 74.0373C272.844 74.5275 272.885 74.7991 272.622 75.2473L258.52 75.2906L253.808 75.2979C253.05 75.2989 252.12 75.4016 251.388 75.2153C251.235 74.7925 251.321 74.4023 251.357 73.9613Z" fill="#045385"/>
<path d="M251.349 85.523L251.52 85.4543C252.69 85.1087 272.447 85.4202 272.647 85.523V86.6792L272.513 86.7459C272.061 86.9127 271.36 86.8278 270.868 86.8281L266.749 86.8285L251.943 86.8397C251.56 86.8245 251.717 86.8585 251.372 86.6792L251.349 85.523Z" fill="#1E499F"/>
<path d="M251.423 91.304C253.104 91.0261 255.154 91.2392 256.874 91.2372L268.944 91.2369C269.735 91.2402 272.155 91.0347 272.586 91.4691L272.52 92.6253C271.889 92.846 270.982 92.7294 270.308 92.7257L265.87 92.7013C261.105 92.6742 256.195 92.9573 251.458 92.6435C251.259 92.1883 251.359 91.7777 251.423 91.304Z" fill="#045385"/>
<path d="M272.612 79.577L272.814 79.7035C272.839 80.1551 272.948 80.6675 272.692 81.0635L251.811 81.1408L251.39 80.9744C251.335 80.495 251.312 80.17 251.423 79.6916C252.122 79.5202 252.938 79.6021 253.661 79.6028L257.84 79.6094L272.612 79.577Z" fill="#045385"/>
<path d="M230.893 86.5166L245.464 86.5282L245.462 93.2122L231.173 93.348L230.873 93.377L230.893 86.5166Z" fill="#FFCF60"/>
<path d="M230.911 74.0314L245.454 74.0367L245.315 82.7453L230.921 82.6872L230.911 74.0314Z" fill="#E6EFF4"/>
<path d="M161.697 76.392C165.678 77.3238 168.37 78.5421 171.463 81.2354C172.4 81.3262 173.099 81.6569 173.959 81.9885L178.891 84.072L194.116 90.647C196.491 91.6875 199.284 92.5642 201.496 93.8836C203.007 94.7851 204.464 96.1725 205.582 97.5209C206.539 98.6758 207.421 99.9611 208.103 101.296C209.254 103.553 210.04 106.07 210.92 108.445L214.784 119.115L224.849 151.539L227.46 162.377C228.085 165.654 228.519 169.162 228.197 172.5C227.652 178.164 225.383 183.558 220.9 187.227C217.755 189.798 212.835 191.427 208.767 190.988L194.661 188.02L194.684 190.322L194.263 190.519L169.797 184.209C169.311 183.555 163.05 181.925 161.88 181.591L154.265 179.617C153.082 179.034 151.579 178.795 150.297 178.478C149.344 178.172 148.358 178.2 147.394 177.967L147.8 175.396C148.516 169.519 149.796 163.692 150.855 157.866C151.301 155.424 152 152.741 152.018 150.257L151.004 150.587L150.127 150.407L150.12 150.239C149.412 149.8 148.919 149.061 148.452 148.391C146.702 145.821 145.082 143.185 143.137 140.752C142.158 139.525 140.929 138.54 139.996 137.28L133.389 97.3723L132.576 92.0479L141.554 99.686C142.407 98.8938 148.57 92.7264 149.045 92.6706L151.505 90.3127L152.656 91.5362L161.605 99.6417L165.511 95.7189C166.178 95.0844 166.847 94.3312 167.658 93.8948L168.097 93.916C167.556 88.0353 166.601 81.353 161.762 77.3086L161.71 76.9113C161.649 76.7124 161.674 76.5955 161.697 76.392Z" fill="#FEFEFE"/>
<path d="M147.8 175.396L194.661 188.02L194.684 190.322L194.263 190.519L169.797 184.209C169.311 183.555 163.05 181.925 161.88 181.591L154.264 179.618C153.082 179.035 151.579 178.795 150.297 178.478C149.344 178.172 148.358 178.2 147.394 177.968L147.8 175.396Z" fill="#AAB6E4"/>
<path d="M161.697 76.392C165.678 77.3238 168.37 78.5421 171.463 81.2354C173.358 83.2795 175.039 85.3926 176.404 87.8351C181.306 96.6211 181.78 107.026 181.527 116.834L182.175 116.969C184.176 117.405 185.919 118.421 187.017 120.191C188.064 121.876 188.367 123.947 187.878 125.869C187.415 127.684 186.193 129.378 184.548 130.3C182.789 131.286 180.67 131.61 178.724 131.01C176.673 130.377 175.247 129.118 174.326 127.189C173.429 125.314 173.508 123.182 174.263 121.272C175.241 118.79 176.929 118.057 179.216 117.09C179.453 115.281 179.416 113.406 179.426 111.585C179.467 104.992 178.63 98.2328 176.039 92.1229C173.181 85.387 168.611 79.6848 161.71 76.9106C161.649 76.7124 161.674 76.5955 161.697 76.392Z" fill="#022943"/>
<path d="M180.482 118.697C181.659 118.663 182.558 118.701 183.603 119.341C184.847 120.103 185.731 121.309 186.053 122.732C186.362 124.091 186.205 125.733 185.418 126.902C184.46 128.326 183.088 129.118 181.431 129.436L181.202 129.425C180.039 129.376 179.129 129.255 178.087 128.658C176.779 127.908 175.903 126.616 175.586 125.159C175.295 123.831 175.688 122.293 176.423 121.162C177.439 119.6 178.726 119.025 180.482 118.697Z" fill="#FEFEFE"/>
<path d="M180.126 119.677C181.101 119.588 182.113 119.611 182.997 120.072C184.087 120.64 184.938 121.763 185.247 122.951C185.537 124.073 185.366 125.31 184.75 126.287C183.995 127.48 182.893 128.029 181.572 128.364C180.624 128.417 179.699 128.377 178.843 127.931C177.763 127.367 176.845 126.304 176.516 125.119C176.194 123.957 176.468 122.577 177.119 121.584C177.865 120.445 178.848 119.986 180.126 119.677Z" fill="#EF8274"/>
<path d="M180.627 121.145L180.832 121.163C181.925 121.271 182.619 121.587 183.299 122.479C183.684 122.981 184.036 123.819 183.833 124.461C183.468 125.603 182.229 126.2 181.208 126.603C180.576 126.596 180.009 126.574 179.418 126.325C178.338 125.871 177.95 124.753 177.558 123.742L177.882 123.029C178.486 121.83 179.423 121.527 180.627 121.145Z" fill="#FEFEFE"/>
<path d="M182.379 124.605C182.227 125.025 181.894 125.425 181.484 125.625C181.055 125.836 180.31 125.818 179.866 125.654C179.476 125.509 179.145 125.034 178.977 124.668C178.774 124.23 178.721 123.712 178.926 123.264C179.111 122.859 179.482 122.576 179.885 122.408C180.422 122.186 180.98 122.238 181.511 122.432C181.981 122.689 182.259 122.856 182.441 123.391C182.601 123.86 182.554 124.164 182.379 124.605Z" fill="#1E499F"/>
<path d="M181.511 122.432C181.981 122.689 182.259 122.856 182.44 123.391C182.601 123.86 182.554 124.164 182.379 124.605C182.107 124.558 181.876 124.515 181.613 124.42L181.449 124.174H180.624C180.619 122.918 180.693 123.353 181.428 122.536L181.511 122.432Z" fill="#28338F"/>
<path d="M167.402 97.8744C167.674 97.476 167.777 97.4436 168.219 97.2368L169.306 148.782L169.323 153.615C166.766 152.73 163.762 152.216 161.091 151.724L164.774 119.782L166.317 105.849C166.564 103.732 166.629 101.446 167.144 99.3817C167.245 98.9826 167.199 98.9833 167.078 98.6127C167.233 98.4247 167.293 98.3236 167.356 98.0812L167.402 97.8744Z" fill="#0993A0"/>
<path d="M169.306 148.782C171.999 149.222 192.529 153.42 193.566 152.946L195.963 105.343H196.187C196.832 121.003 197.431 136.828 199.608 152.358C199.824 153.901 199.819 156.114 200.462 157.512L209.222 161.348C210.403 161.88 212.072 162.371 213.073 163.152L169.323 153.615L169.306 148.782Z" fill="#AAB6E4"/>
<path d="M151.505 90.3121L152.656 91.5357L161.605 99.6412L165.511 95.7184C166.178 95.0838 166.847 94.3307 167.658 93.8943L168.097 93.9154L168.22 97.2363C167.777 97.4431 167.675 97.4755 167.402 97.8739L167.356 98.0803C167.293 98.3231 167.234 98.4239 167.078 98.6118C167.199 98.9825 167.245 98.9818 167.144 99.3809C166.629 101.445 166.565 103.731 166.317 105.849L164.774 119.781L161.091 151.723L153.444 149.868L152.127 149.703L152.018 150.257L151.004 150.587L150.127 150.407L150.12 150.238C149.412 149.799 148.92 149.061 148.452 148.39C146.702 145.82 145.082 143.184 143.138 140.751C142.158 139.525 140.93 138.54 139.997 137.279L133.389 97.3721L132.576 92.0477L141.554 99.6858C142.407 98.8936 148.57 92.7262 149.045 92.6704L151.505 90.3121Z" fill="#13B2B5"/>
<path d="M152.358 102.804L153.219 102.04C153.277 102.123 153.353 102.196 153.394 102.288C153.698 102.961 153.421 145.048 153.444 149.869L152.127 149.704C151.683 149.005 151.936 140.918 151.937 139.397L151.951 104.179L152.358 102.804Z" fill="#39D3D4"/>
<path d="M150.145 105.502C150.72 105.556 150.999 105.539 151.538 105.333C151.789 104.989 151.851 104.585 151.95 104.178L151.937 139.397C151.936 140.918 151.683 149.005 152.127 149.704L152.018 150.257L151.004 150.588L150.127 150.408L150.12 150.239C150.266 149.002 150.153 147.641 150.147 146.388L150.111 139.093L150.016 114.255C150.343 111.462 150.114 108.326 150.145 105.502Z" fill="#01848C"/>
<path d="M151.505 90.3121L152.656 91.5357L161.605 99.6412L165.511 95.7184C166.178 95.0838 166.847 94.3307 167.658 93.8943L168.097 93.9154L168.22 97.2363C167.777 97.4431 167.674 97.4755 167.402 97.8739L160.448 104.398C158.881 103.342 157.712 101.915 156.456 100.521L152.644 96.2863C152.616 97.7586 152.785 99.5487 152.484 100.975L152.358 102.803L151.95 104.178C151.851 104.584 151.789 104.988 151.538 105.333C150.999 105.538 150.72 105.555 150.145 105.502L150.125 100.835C150.302 98.7734 150.537 96.0161 149.47 94.186C149.534 93.9065 149.27 93.1091 149.199 92.7976L149.045 92.6694L151.505 90.3121Z" fill="#01848C"/>
<path d="M151.505 90.3121L152.656 91.5357L152.484 100.976L152.358 102.804L151.95 104.178C151.851 104.585 151.789 104.989 151.538 105.333C150.999 105.539 150.72 105.556 150.145 105.502L150.125 100.836C150.302 98.774 150.537 96.0167 149.47 94.1866C149.534 93.9072 149.27 93.1098 149.199 92.7982L149.045 92.6701L151.505 90.3121Z" fill="#045385"/>
<path d="M132.577 92.0475L141.554 99.6855C142.407 98.8934 148.57 92.726 149.045 92.6702L149.199 92.7983C149.27 93.1102 149.534 93.9076 149.47 94.1867C150.537 96.0168 150.302 98.7741 150.126 100.836L150.145 105.502C150.114 108.326 150.344 111.462 150.017 114.255L150.111 139.093L150.147 146.387C150.153 147.641 150.266 149.002 150.12 150.239C149.412 149.8 148.92 149.062 148.452 148.391C146.702 145.821 145.082 143.185 143.138 140.752C142.158 139.525 140.929 138.541 139.997 137.28L133.389 97.3722L132.577 92.0475Z" fill="#13B2B5"/>
<path d="M148.452 148.391L148.679 101.025C149.082 101.444 149.886 102.083 150.03 102.64C150.215 103.361 150.002 104.665 149.997 105.459L150.016 114.255L150.111 139.093L150.147 146.388C150.154 147.641 150.266 149.002 150.12 150.239C149.412 149.8 148.92 149.062 148.452 148.391Z" fill="#39D3D4"/>
<path d="M132.577 92.0475L141.554 99.6855C142.407 98.8934 148.57 92.726 149.045 92.6702L149.199 92.7983C149.27 93.1102 149.534 93.9076 149.47 94.1867C150.537 96.0168 150.302 98.7741 150.126 100.836C149.838 99.3439 150.023 97.5347 150.015 96.0039C148.875 97.612 147.811 99.3192 146.51 100.801C145.172 102.324 143.527 103.648 142.038 105.024C140.523 103.061 138.552 101.347 136.713 99.6948C135.767 98.8445 134.787 97.7474 133.535 97.4098L133.389 97.3722L132.577 92.0475Z" fill="#01848C"/>
<path d="M197.17 261.553C197.628 259.009 197.52 256.482 197.525 253.909L197.547 244.154L197.819 215.083L197.854 207.473C197.861 206.157 197.748 204.735 197.958 203.435L197.999 203.205C198.323 201.273 199.403 199.636 200.997 198.498C201.82 197.912 202.746 197.507 203.747 197.353C205.78 197.041 208.134 197.263 210.205 197.271C214.642 197.289 219.337 197.008 223.718 197.732L224.773 197.788C224.733 199.335 224.251 202.023 225.328 203.288C225.899 203.958 226.668 203.949 227.477 203.967L249.826 204.021L257.618 204.039C259.009 204.044 260.505 204.148 261.886 204.023C262.476 203.968 263.054 203.633 263.469 203.22C264.676 202.021 264.403 199.996 264.334 198.444C264.321 198.15 264.321 198.034 264.4 197.742L267.784 197.694C268.792 197.514 269.909 197.6 270.933 197.596L276.421 197.583L282.508 197.547C283.599 197.542 284.754 197.462 285.836 197.6C286.704 197.709 287.618 198.126 288.325 198.638C289.519 199.501 290.502 200.967 290.682 202.446L290.73 231.537L290.705 276.434L290.698 289.255C290.695 291.019 290.916 293.093 290.624 294.817C290.332 296.548 289.195 298.198 287.961 299.409C286.708 300.64 284.76 301.563 283.031 301.796C280.241 302.169 277.12 301.916 274.294 301.916L257.43 301.908L203.361 301.873C203.161 301.872 203.237 301.887 203.093 301.84C202.363 301.026 201.045 300.612 200.196 299.815C199.61 299.267 199.131 298.618 198.607 298.012C198.5 297.886 198.186 297.444 198.049 297.371C197.832 297.257 197.116 297.336 196.795 297.249L196.564 297.181C197.036 297.188 197.352 297.267 197.761 297.021L197.17 261.553Z" fill="#FEFEFE"/>
<path d="M262.129 231.244C263.921 233.06 265.512 234.346 268.201 234.371C270.075 234.388 271.379 233.922 273.065 233.205L273.585 233.743C271.768 234.938 269.737 235.397 267.58 235.179C264.967 234.914 263.158 233.72 261.518 231.735L262.129 231.244Z" fill="#F1A43E"/>
<path d="M228.516 276.457C230.072 276.116 232.249 276.391 233.89 276.385L241.673 276.345C242.864 276.34 244.212 276.188 245.37 276.424C245.437 277.037 245.35 277.49 245.204 278.086L245.077 278.112C243.825 278.312 242.288 278.145 241.011 278.147L231.877 278.154C231.106 278.154 228.937 278.385 228.357 277.982C228.314 277.452 228.417 276.976 228.516 276.457Z" fill="#E6EFF4"/>
<path d="M237.774 231.537L245.598 231.438L245.536 233.499L235.831 233.472L228.509 233.453V231.66C229.528 231.489 230.685 231.588 231.722 231.58L237.774 231.537Z" fill="#E6EFF4"/>
<path d="M228.493 257.554L245.553 257.547L245.515 259.538L228.514 259.554L228.493 257.554Z" fill="#E6EFF4"/>
<path d="M228.486 283.064C228.78 282.968 228.661 282.983 228.978 282.978L243.713 282.993L246.564 282.996C246.711 282.996 247.165 282.945 247.269 282.998C247.37 283.047 247.433 283.152 247.514 283.229L247.447 284.716C246.95 284.889 246.303 284.816 245.776 284.816H242.327L228.605 284.788C228.328 284.384 228.471 283.569 228.486 283.064Z" fill="#E6EFF4"/>
<path d="M261.518 231.735C260.131 229.736 258.976 227.183 259.409 224.692L259.61 223.851L259.673 223.599C260.251 221.37 262 219.157 264.015 218.027C266.176 216.818 269.132 216.473 271.514 217.21C273.795 217.915 275.721 219.484 276.804 221.621C278.01 224.002 277.969 227.08 277.054 229.55C276.4 231.315 275.123 232.699 273.585 233.743L273.065 233.205C274.735 231.948 275.909 230.443 276.456 228.403L276.524 228.146C277.09 226.017 276.938 223.909 275.84 221.97C274.699 219.952 273.01 218.495 270.723 217.93C268.487 217.38 266.039 217.783 264.098 219.007C262.238 220.178 260.876 222.11 260.402 224.264C259.823 226.89 260.697 229.074 262.129 231.244L261.518 231.735Z" fill="#F0925D"/>
<path d="M228.517 250.856L228.793 250.794C230.288 250.59 232.098 250.787 233.621 250.789L244.844 250.798L247.832 250.808C248.096 250.81 248.77 250.729 249.003 250.813C249.112 250.855 249.19 250.952 249.284 251.021C249.362 251.6 249.34 251.941 249.203 252.508C247.973 252.799 246.161 252.589 244.871 252.592L234.128 252.632C232.465 252.643 230.466 252.923 228.853 252.708C228.691 252.686 228.616 252.635 228.486 252.566C228.418 251.97 228.451 251.451 228.517 250.856Z" fill="#E6EFF4"/>
<path d="M228.498 224.925C229.733 224.547 231.829 224.827 233.149 224.827L244.314 224.806L247.561 224.799C248.115 224.798 248.681 224.735 249.21 224.925C249.269 225.519 249.249 226.038 249.168 226.629C248.833 226.704 248.554 226.738 248.207 226.74C246.904 226.742 228.982 226.79 228.688 226.656C228.582 226.608 228.522 226.492 228.441 226.411L228.498 224.925Z" fill="#E6EFF4"/>
<path d="M228.615 217.945L251.392 217.973L251.433 220.016L228.607 220.019L228.615 217.945Z" fill="#E6EFF4"/>
<path d="M231.786 243.921L251.56 243.842L251.522 245.99L248.177 245.989L232.994 245.979L230.017 245.974C229.748 245.974 229.175 246.043 228.935 245.972C228.821 245.939 228.757 245.815 228.668 245.736L228.613 243.936L231.786 243.921Z" fill="#E6EFF4"/>
<path d="M228.655 269.307L251.591 269.281L251.57 271.492L228.663 271.494L228.655 269.307Z" fill="#E6EFF4"/>
<path d="M222.078 268.034L222.403 267.984L225.363 271.131C221.551 274.979 217.137 278.345 213.776 282.608L211.18 280.035L207.9 276.849L211.598 272.964L214.093 275.84L222.078 268.034Z" fill="#FFCF60"/>
<path d="M221.969 243.128L225.388 246.512L213.702 257.934L210.929 255.113L207.597 251.585C209.011 250.439 210.174 249.211 211.37 247.845L214.13 250.984L221.969 243.128Z" fill="#FFCF60"/>
<path d="M221.836 216.969C223.065 217.963 224.139 219.265 225.227 220.413L213.393 232.03L210.901 229.472L207.25 225.929L211.254 222.067L213.994 224.988L221.836 216.969Z" fill="#FFCF60"/>
<path d="M267.785 197.693C268.321 198.349 268.054 201.707 267.966 202.695C267.842 204.067 267.92 205.478 267.933 206.859C267.173 207.215 225.847 206.839 221.539 206.88L221.493 202.389L221.438 197.773L223.718 197.731L224.773 197.788C224.733 199.335 224.251 202.023 225.328 203.288C225.9 203.958 226.668 203.948 227.477 203.967L249.826 204.021L257.618 204.039C259.009 204.044 260.506 204.148 261.886 204.023C262.476 203.968 263.054 203.633 263.469 203.22C264.676 202.021 264.404 199.996 264.334 198.443C264.321 198.149 264.321 198.034 264.4 197.741L267.785 197.693Z" fill="#045385"/>
<path d="M262.129 231.244C260.697 229.074 259.823 226.89 260.401 224.264C260.876 222.11 262.238 220.178 264.098 219.007C266.039 217.783 268.486 217.38 270.723 217.93C273.01 218.495 274.698 219.952 275.84 221.97C276.938 223.909 277.09 226.017 276.524 228.146L276.456 228.403C275.909 230.443 274.735 231.948 273.065 233.205C271.379 233.922 270.075 234.387 268.201 234.371C265.512 234.346 263.921 233.059 262.129 231.244Z" fill="#FEFEFE"/>
<path d="M273.575 221.291C274.081 221.323 274.472 221.582 274.804 221.949C275.273 222.465 275.402 223.063 275.326 223.746C275.288 224.104 275.199 224.469 275.011 224.779C274.447 225.704 273.372 226.603 272.622 227.401C271.23 228.882 269.905 230.481 268.328 231.771C266.62 231.73 264.595 229.135 263.378 227.956C262.6 227.136 261.913 226.314 261.254 225.397C261.477 224.936 261.695 224.426 262.038 224.041C262.351 223.694 262.545 223.506 263.043 223.521C264.214 223.556 266.493 226.491 267.314 227.353C268.754 226.043 270.12 224.565 271.466 223.154C272.109 222.48 272.665 221.588 273.575 221.291Z" fill="#13B2B5"/>
<path d="M263.674 260.763C261.592 259.42 260.259 257.405 259.762 254.986C259.259 252.536 259.898 249.865 261.274 247.799C262.545 245.89 264.661 244.565 266.901 244.114C269.261 243.638 271.925 244.083 273.892 245.475C275.84 246.853 277.12 248.661 277.521 251.033C277.97 253.684 277.406 256.536 275.823 258.728C275.017 259.843 273.466 261.361 272.1 261.634C271.507 261.947 270.786 262.134 270.125 262.236C267.882 262.58 265.523 262.089 263.674 260.763Z" fill="#F0925D"/>
<path d="M265.099 260.786C264.215 260.21 263.403 259.615 262.681 258.839C261.019 257.05 260.324 254.827 260.464 252.412C260.583 250.384 261.68 248.153 263.226 246.823C265.061 245.241 267.482 244.585 269.876 244.849C272.02 245.085 274.036 246.408 275.303 248.124C276.714 250.035 277.022 252.42 276.616 254.711C276.174 257.224 274.93 258.971 272.864 260.423C270.592 261.584 268.325 261.842 265.882 261.049L265.099 260.786Z" fill="#FEFEFE"/>
<path d="M272.682 248.048C272.956 247.996 273.253 247.997 273.531 247.976C273.836 248.103 274.112 248.209 274.352 248.445C274.964 249.051 275.179 249.77 275.196 250.609C274.765 251.553 273.688 252.356 272.953 253.096C271.106 254.957 269.322 256.959 267.304 258.632C266.184 257.874 265.198 256.956 264.194 256.056C263.462 255.349 262.511 254.546 262.137 253.583C261.926 253.038 262.027 252.591 262.311 252.095C262.616 251.562 262.973 251.35 263.538 251.164C264.6 251.464 265.878 253.276 266.822 254.074C268.186 252.842 269.435 251.425 270.685 250.077C271.334 249.376 271.91 248.617 272.682 248.048Z" fill="#0993A0"/>
<path d="M263.135 270.682L263.878 270.161C265.953 268.828 268.823 268.718 271.162 269.274C273.4 269.806 275.458 271.24 276.636 273.227C277.866 275.303 278.284 277.894 277.863 280.256L277.828 280.486C277.468 282.694 275.795 284.879 274.013 286.154C272.029 287.575 269.545 288.208 267.129 287.824C264.316 287.378 262.179 286.012 260.57 283.692C259.293 281.854 258.727 279.288 259.135 277.082L259.262 276.457L259.318 276.183C259.564 275.032 260.162 273.648 260.95 272.773C261.502 271.965 262.308 271.199 263.135 270.682Z" fill="#F0925D"/>
<path d="M264.767 270.516C266.263 270.065 267.413 269.725 268.994 269.768C269.672 269.786 270.234 269.869 270.888 270.059L271.142 270.13C273.283 270.753 275.064 272.094 276.124 274.058C277.244 276.135 277.624 278.658 276.917 280.935C276.23 283.152 274.66 285.211 272.578 286.283C270.614 287.293 267.692 287.435 265.603 286.757C263.479 286.069 261.743 284.506 260.798 282.486C259.63 279.984 259.63 277.495 260.601 274.945C260.662 274.783 260.892 274.353 260.874 274.213C262.037 272.569 263.052 271.587 264.767 270.516Z" fill="#FEFEFE"/>
<path d="M273.737 273.484L273.934 273.466C274.837 273.881 275.387 275.005 275.86 275.841C274.649 277.724 272.705 279.401 271.131 281.001C270.171 281.979 269.15 283.234 267.998 283.956C267.368 283.815 266.969 283.269 266.523 282.836L263.835 280.357C263.003 279.637 261.924 278.737 261.51 277.696C261.581 277.171 261.667 276.827 261.98 276.393C262.374 275.846 263.049 275.152 263.758 275.091C264.364 275.037 267.289 278.145 267.922 278.75C269.752 276.976 271.625 274.906 273.737 273.484Z" fill="#28338F"/>
<path d="M197.17 261.553C197.628 259.009 197.52 256.482 197.525 253.909L197.547 244.154L197.819 215.083L197.854 207.473C197.861 206.157 197.748 204.735 197.958 203.435L197.999 203.205C198.323 201.273 199.403 199.636 200.997 198.498C201.82 197.912 202.746 197.507 203.747 197.353C205.78 197.041 208.134 197.263 210.205 197.271C214.642 197.289 219.337 197.008 223.718 197.732L221.438 197.773L221.493 202.389L208.849 202.409L206.197 202.399C206.01 202.399 205.481 202.341 205.326 202.394C205.106 202.47 204.553 203.029 204.358 203.232C203.833 203.773 203.557 204.376 203.518 205.128C203.228 210.697 203.516 216.409 203.598 221.992L203.584 241.149L203.537 276.426L203.562 288.041L203.59 293.8C203.628 294.477 203.741 294.857 204.243 295.326C205.282 296.294 208.884 295.822 210.271 295.808L260.935 295.718L276.33 295.752C278.641 295.757 281.186 295.975 283.462 295.729C284.034 295.668 284.478 295.51 284.798 294.984C284.949 294.74 285.003 294.447 285.025 294.165C285.137 292.69 285.03 291.121 285.021 289.636L284.98 280.978L284.977 255.265L284.907 218.272L284.924 210.02C284.927 208.577 285.187 206.486 284.68 205.138C284.305 204.143 283.056 203.222 282.078 202.877C280.778 202.414 278.89 202.591 277.511 202.574L268.06 202.541C268.062 203.732 268.341 205.79 267.933 206.859C267.92 205.478 267.842 204.067 267.966 202.695C268.054 201.707 268.321 198.349 267.784 197.694C268.792 197.514 269.909 197.6 270.933 197.596L276.421 197.583L282.508 197.547C283.599 197.542 284.754 197.462 285.836 197.6C286.704 197.709 287.618 198.126 288.325 198.638C289.519 199.501 290.502 200.967 290.682 202.446L290.73 231.537L290.705 276.434L290.698 289.255C290.695 291.019 290.916 293.093 290.624 294.817C290.332 296.548 289.195 298.198 287.961 299.409C286.708 300.64 284.76 301.563 283.031 301.796C280.241 302.169 277.12 301.916 274.294 301.916L257.43 301.908L203.361 301.873C203.161 301.872 203.237 301.887 203.093 301.84C202.363 301.026 201.045 300.612 200.196 299.815C199.61 299.267 199.131 298.618 198.607 298.012C198.5 297.886 198.186 297.444 198.049 297.371C197.832 297.257 197.116 297.336 196.795 297.249L196.564 297.181C197.036 297.188 197.352 297.267 197.761 297.021L197.17 261.553Z" fill="#639DDF"/>
<defs>
<linearGradient id="paint0_linear_102_2696" x1="121.106" y1="187.578" x2="140.614" y2="211.435" gradientUnits="userSpaceOnUse">
<stop stop-color="#0C1F67"/>
<stop offset="1" stop-color="#19397F"/>
</linearGradient>
<linearGradient id="paint1_linear_102_2696" x1="235.732" y1="59.8235" x2="275.583" y2="109.352" gradientUnits="userSpaceOnUse">
<stop stop-color="#042E83"/>
<stop offset="1" stop-color="#1F488E"/>
</linearGradient>
</defs>
</svg>
