<svg width="220" height="101" viewBox="0 0 220 101" fill="none" xmlns="http://www.w3.org/2000/svg">
<path opacity="0.1" d="M210.686 64.2009C216.19 76.8188 219.022 90.3425 219.022 104L146.306 104C146.306 99.4112 145.355 94.8672 143.505 90.6277C141.656 86.3882 138.946 82.536 135.529 79.2912C132.112 76.0464 128.056 73.4725 123.592 71.7164C119.128 69.9604 114.343 69.0565 109.511 69.0565C104.679 69.0565 99.8944 69.9603 95.4302 71.7164C90.966 73.4725 86.9097 76.0464 83.493 79.2912C80.0762 82.536 77.3659 86.3882 75.5168 90.6277C73.6677 94.8672 72.7159 99.4112 72.7159 104L-4.78688e-06 104C-4.15826e-06 90.3425 2.83259 76.8188 8.33601 64.2009C13.8395 51.5831 21.906 40.1182 32.0751 30.4609C42.2441 20.8036 54.3165 13.143 67.603 7.91652C80.8895 2.69002 95.1299 -1.42631e-05 109.511 -4.54596e-06C123.892 -3.94897e-06 138.133 2.69004 151.419 7.91652C164.706 13.143 176.778 20.8036 186.947 30.4609C197.116 40.1182 205.183 51.5831 210.686 64.2009Z" fill="white"/>
</svg>
