<svg width="252" height="69" viewBox="0 0 252 69" fill="none" xmlns="http://www.w3.org/2000/svg">
<path d="M20.252 12.972C20.0093 12.972 19.784 12.9373 19.576 12.868C18.9173 12.7293 18.4493 12.3307 18.172 11.672C17.964 11.0827 18.016 10.424 18.328 9.696C18.6747 8.968 19.1253 8.15333 19.68 7.252C19.888 6.94 20.0787 6.628 20.252 6.316C20.46 5.96933 20.6333 5.65733 20.772 5.38C20.8413 5.276 20.8933 5.18933 20.928 5.12C20.9627 5.016 20.9973 4.92933 21.032 4.86C19.992 4.68667 18.7787 4.652 17.392 4.756C16.04 4.82533 14.5147 5.08533 12.816 5.536C11.3253 5.91733 9.71333 6.42 7.98 7.044C6.28133 7.63333 4.47867 8.344 2.572 9.176C2.19067 9.31467 1.80933 9.31467 1.428 9.176C1.04667 9.03733 0.769333 8.77733 0.596 8.396C0.388 8.01467 0.370667 7.616 0.544 7.2C0.717333 6.74933 0.994667 6.45467 1.376 6.316C3.31733 5.44933 5.172 4.704 6.94 4.08C8.74267 3.42133 10.4413 2.90133 12.036 2.52C16.3 1.44533 19.784 1.272 22.488 2C23.2853 2.208 23.84 2.69333 24.152 3.456C24.464 4.21867 24.3947 5.068 23.944 6.004C23.4933 6.94 22.956 7.91067 22.332 8.916C22.2973 8.98533 22.2453 9.072 22.176 9.176C22.1067 9.28 22.0373 9.40133 21.968 9.54C22.7653 9.36667 23.944 9.02 25.504 8.5C27.064 7.98 29.2133 7.21733 31.952 6.212C32.3333 6.07333 32.7147 6.108 33.096 6.316C33.512 6.48933 33.7893 6.784 33.928 7.2C34.1013 7.58133 34.1013 7.98 33.928 8.396C33.7547 8.77733 33.4427 9.05467 32.992 9.228C31.3973 9.78267 29.9413 10.2853 28.624 10.736C27.3067 11.1867 26.128 11.568 25.088 11.88C23.7013 12.296 22.644 12.5907 21.916 12.764C21.188 12.9027 20.6333 12.972 20.252 12.972ZM36.7811 16.456C36.5384 16.456 36.2958 16.4213 36.0531 16.352C35.8104 16.3173 35.5678 16.2827 35.3251 16.248C34.7011 16.0747 34.2678 15.7107 34.0251 15.156C33.7131 14.4627 33.7131 13.6307 34.0251 12.66C34.3718 11.6547 34.9264 10.372 35.6891 8.812C35.8278 8.53467 35.9664 8.22267 36.1051 7.876C36.2784 7.52933 36.4344 7.2 36.5731 6.888C36.1224 7.06133 35.6371 7.356 35.1171 7.772C34.6318 8.15333 34.1291 8.552 33.6091 8.968C33.2624 9.21067 32.8811 9.31467 32.4651 9.28C32.0144 9.21067 31.6504 9.02 31.3731 8.708C31.1304 8.36133 31.0438 7.98 31.1131 7.564C31.1478 7.148 31.3211 6.784 31.6331 6.472C32.1184 6.12533 32.6211 5.744 33.1411 5.328C33.6958 4.912 34.2504 4.56533 34.8051 4.288C36.2264 3.56 37.5264 3.36933 38.7051 3.716C39.2598 3.82 39.6758 4.16667 39.9531 4.756C40.2304 5.31067 40.2131 6.004 39.9011 6.836C39.6238 7.668 39.1384 8.79467 38.4451 10.216C38.2718 10.632 38.0811 11.048 37.8731 11.464C37.6998 11.88 37.5264 12.2787 37.3531 12.66C37.3184 12.7987 37.2664 12.92 37.1971 13.024C37.1624 13.128 37.1278 13.232 37.0931 13.336C37.8211 13.232 38.8784 12.868 40.2651 12.244C41.6864 11.5853 43.5931 10.3027 45.9851 8.396C47.2678 7.39067 48.4291 6.42 49.4691 5.484C50.5091 4.51333 51.3411 3.716 51.9651 3.092C52.5891 2.468 52.9011 2.156 52.9011 2.156C53.3171 1.67067 53.8198 1.51467 54.4091 1.688C54.6864 1.72267 54.9118 1.844 55.0851 2.052C55.2584 2.22533 55.3971 2.39867 55.5011 2.572C55.7438 3.05733 55.7611 3.62933 55.5531 4.288C55.3798 4.912 54.9984 5.93467 54.4091 7.356C54.2011 7.80667 53.9931 8.25733 53.7851 8.708C53.6118 9.15867 53.4384 9.57467 53.2651 9.956C53.2304 10.0947 53.1958 10.216 53.1611 10.32C53.1611 10.3893 53.1438 10.4587 53.1091 10.528C53.7678 10.424 54.4611 10.1467 55.1891 9.696C55.9518 9.21067 56.6798 8.67333 57.3731 8.084C58.1011 7.49467 58.7078 6.992 59.1931 6.576C59.5398 6.264 59.9211 6.12533 60.3371 6.16C60.7531 6.19467 61.1171 6.368 61.4291 6.68C61.7064 7.02667 61.8278 7.408 61.7931 7.824C61.7931 8.24 61.6198 8.604 61.2731 8.916C60.1984 9.852 59.0891 10.736 57.9451 11.568C56.8358 12.4 55.7091 13.024 54.5651 13.44C53.4558 13.8213 52.3291 13.8733 51.1851 13.596C50.6304 13.3533 50.2318 13.0067 49.9891 12.556C49.7811 12.0707 49.7118 11.5333 49.7811 10.944C49.8851 10.3547 50.0931 9.62667 50.4051 8.76C50.0238 9.10667 49.6251 9.436 49.2091 9.748C48.8278 10.06 48.4118 10.4067 47.9611 10.788C43.1771 14.5667 39.4504 16.456 36.7811 16.456ZM78.5489 12.972C78.3062 12.972 78.0809 12.9373 77.8729 12.868C77.2142 12.7293 76.7462 12.3307 76.4689 11.672C76.2609 11.0827 76.3129 10.424 76.6249 9.696C76.9715 8.968 77.4222 8.15333 77.9769 7.252C78.1849 6.94 78.3755 6.628 78.5489 6.316C78.7569 5.96933 78.9302 5.65733 79.0689 5.38C79.1382 5.276 79.1902 5.18933 79.2249 5.12C79.2595 5.016 79.2942 4.92933 79.3289 4.86C78.2889 4.68667 77.0755 4.652 75.6889 4.756C74.3369 4.82533 72.8115 5.08533 71.1129 5.536C69.6222 5.91733 68.0102 6.42 66.2769 7.044C64.5782 7.63333 62.7755 8.344 60.8689 9.176C60.4875 9.31467 60.1062 9.31467 59.7249 9.176C59.3435 9.03733 59.0662 8.77733 58.8929 8.396C58.6849 8.01467 58.6675 7.616 58.8409 7.2C59.0142 6.74933 59.2915 6.45467 59.6729 6.316C61.6142 5.44933 63.4689 4.704 65.2369 4.08C67.0395 3.42133 68.7382 2.90133 70.3329 2.52C74.5969 1.44533 78.0809 1.272 80.7849 2C81.5822 2.208 82.1369 2.69333 82.4489 3.456C82.7609 4.21867 82.6915 5.068 82.2409 6.004C81.7902 6.94 81.2529 7.91067 80.6289 8.916C80.5942 8.98533 80.5422 9.072 80.4729 9.176C80.4035 9.28 80.3342 9.40133 80.2649 9.54C81.0622 9.36667 82.2409 9.02 83.8009 8.5C85.3609 7.98 87.5102 7.21733 90.2489 6.212C90.6302 6.07333 91.0115 6.108 91.3929 6.316C91.8089 6.48933 92.0862 6.784 92.2249 7.2C92.3982 7.58133 92.3982 7.98 92.2249 8.396C92.0515 8.77733 91.7395 9.05467 91.2889 9.228C89.6942 9.78267 88.2382 10.2853 86.9209 10.736C85.6035 11.1867 84.4249 11.568 83.3849 11.88C81.9982 12.296 80.9409 12.5907 80.2129 12.764C79.4849 12.9027 78.9302 12.972 78.5489 12.972ZM97.47 16.56C97.2966 16.56 97.1233 16.5427 96.95 16.508C96.7766 16.508 96.586 16.4907 96.378 16.456C95.962 16.3173 95.6153 16.0227 95.338 15.572C95.1993 15.2947 95.13 14.9133 95.13 14.428C95.13 13.9427 95.286 13.1453 95.598 12.036C95.91 10.9267 96.4126 9.28 97.106 7.096C96.3433 7.37333 95.4593 7.70267 94.454 8.084C93.4833 8.46533 92.478 8.84667 91.438 9.228C91.0566 9.36667 90.6753 9.34933 90.294 9.176C89.878 8.968 89.5833 8.656 89.41 8.24C89.2713 7.85867 89.306 7.47733 89.514 7.096C89.6873 6.68 89.982 6.38533 90.398 6.212C91.8886 5.65733 93.2753 5.13733 94.558 4.652C95.8753 4.16667 96.95 3.768 97.782 3.456C98.614 3.144 99.03 2.988 99.03 2.988C99.3766 2.84933 99.706 2.832 100.018 2.936C100.469 3.04 100.798 3.3 101.006 3.716C101.179 4.028 101.231 4.30533 101.162 4.548C101.127 4.79067 101.075 5.05067 101.006 5.328C100.937 5.46667 100.885 5.62267 100.85 5.796C100.815 5.93467 100.763 6.108 100.694 6.316C100.451 6.90533 100.191 7.63333 99.914 8.5C99.6713 9.332 99.4113 10.1813 99.134 11.048C98.9606 11.5333 98.822 11.9493 98.718 12.296C98.614 12.6427 98.5273 12.9547 98.458 13.232C99.1166 13.0933 100.07 12.6947 101.318 12.036C102.393 11.4467 103.537 10.7707 104.75 10.008C105.998 9.21067 107.263 8.37867 108.546 7.512C108.823 7.33867 109.101 7.16533 109.378 6.992C109.69 6.81867 109.967 6.628 110.21 6.42C110.591 6.17733 110.99 6.108 111.406 6.212C111.857 6.28133 112.203 6.50667 112.446 6.888C112.689 7.23467 112.758 7.616 112.654 8.032C112.585 8.448 112.359 8.77733 111.978 9.02C111.701 9.228 111.406 9.436 111.094 9.644C110.817 9.81733 110.522 10.008 110.21 10.216C108.893 11.0827 107.61 11.9147 106.362 12.712C105.114 13.5093 103.935 14.2027 102.826 14.792C100.573 15.9707 98.7873 16.56 97.47 16.56ZM154.721 12.972C154.478 12.972 154.253 12.9373 154.045 12.868C153.386 12.7293 152.918 12.3307 152.641 11.672C152.433 11.0827 152.485 10.424 152.797 9.696C153.143 8.968 153.594 8.15333 154.149 7.252C154.357 6.94 154.547 6.628 154.721 6.316C154.929 5.96933 155.102 5.65733 155.241 5.38C155.31 5.276 155.362 5.18933 155.397 5.12C155.431 5.016 155.466 4.92933 155.501 4.86C154.461 4.68667 153.247 4.652 151.861 4.756C150.509 4.82533 148.983 5.08533 147.285 5.536C145.794 5.91733 144.182 6.42 142.449 7.044C140.75 7.63333 138.947 8.344 137.041 9.176C136.659 9.31467 136.278 9.31467 135.897 9.176C135.515 9.03733 135.238 8.77733 135.065 8.396C134.857 8.01467 134.839 7.616 135.013 7.2C135.186 6.74933 135.463 6.45467 135.845 6.316C137.786 5.44933 139.641 4.704 141.409 4.08C143.211 3.42133 144.91 2.90133 146.505 2.52C150.769 1.44533 154.253 1.272 156.957 2C157.754 2.208 158.309 2.69333 158.621 3.456C158.933 4.21867 158.863 5.068 158.413 6.004C157.962 6.94 157.425 7.91067 156.801 8.916C156.766 8.98533 156.714 9.072 156.645 9.176C156.575 9.28 156.506 9.40133 156.437 9.54C157.234 9.36667 158.413 9.02 159.973 8.5C161.533 7.98 163.682 7.21733 166.421 6.212C166.802 6.07333 167.183 6.108 167.565 6.316C167.981 6.48933 168.258 6.784 168.397 7.2C168.57 7.58133 168.57 7.98 168.397 8.396C168.223 8.77733 167.911 9.05467 167.461 9.228C165.866 9.78267 164.41 10.2853 163.093 10.736C161.775 11.1867 160.597 11.568 159.557 11.88C158.17 12.296 157.113 12.5907 156.385 12.764C155.657 12.9027 155.102 12.972 154.721 12.972ZM171.25 16.456C171.007 16.456 170.765 16.4213 170.522 16.352C170.279 16.3173 170.037 16.2827 169.794 16.248C169.17 16.0747 168.737 15.7107 168.494 15.156C168.182 14.4627 168.182 13.6307 168.494 12.66C168.841 11.6547 169.395 10.372 170.158 8.812C170.297 8.53467 170.435 8.22267 170.574 7.876C170.747 7.52933 170.903 7.2 171.042 6.888C170.591 7.06133 170.106 7.356 169.586 7.772C169.101 8.15333 168.598 8.552 168.078 8.968C167.731 9.21067 167.35 9.31467 166.934 9.28C166.483 9.21067 166.119 9.02 165.842 8.708C165.599 8.36133 165.513 7.98 165.582 7.564C165.617 7.148 165.79 6.784 166.102 6.472C166.587 6.12533 167.09 5.744 167.61 5.328C168.165 4.912 168.719 4.56533 169.274 4.288C170.695 3.56 171.995 3.36933 173.174 3.716C173.729 3.82 174.145 4.16667 174.422 4.756C174.699 5.31067 174.682 6.004 174.37 6.836C174.093 7.668 173.607 8.79467 172.914 10.216C172.741 10.632 172.55 11.048 172.342 11.464C172.169 11.88 171.995 12.2787 171.822 12.66C171.787 12.7987 171.735 12.92 171.666 13.024C171.631 13.128 171.597 13.232 171.562 13.336C172.29 13.232 173.347 12.868 174.734 12.244C176.155 11.5853 178.062 10.3027 180.454 8.396C181.737 7.39067 182.898 6.42 183.938 5.484C184.978 4.51333 185.81 3.716 186.434 3.092C187.058 2.468 187.37 2.156 187.37 2.156C187.786 1.67067 188.289 1.51467 188.878 1.688C189.155 1.72267 189.381 1.844 189.554 2.052C189.727 2.22533 189.866 2.39867 189.97 2.572C190.213 3.05733 190.23 3.62933 190.022 4.288C189.849 4.912 189.467 5.93467 188.878 7.356C188.67 7.80667 188.462 8.25733 188.254 8.708C188.081 9.15867 187.907 9.57467 187.734 9.956C187.699 10.0947 187.665 10.216 187.63 10.32C187.63 10.3893 187.613 10.4587 187.578 10.528C188.237 10.424 188.93 10.1467 189.658 9.696C190.421 9.21067 191.149 8.67333 191.842 8.084C192.57 7.49467 193.177 6.992 193.662 6.576C194.009 6.264 194.39 6.12533 194.806 6.16C195.222 6.19467 195.586 6.368 195.898 6.68C196.175 7.02667 196.297 7.408 196.262 7.824C196.262 8.24 196.089 8.604 195.742 8.916C194.667 9.852 193.558 10.736 192.414 11.568C191.305 12.4 190.178 13.024 189.034 13.44C187.925 13.8213 186.798 13.8733 185.654 13.596C185.099 13.3533 184.701 13.0067 184.458 12.556C184.25 12.0707 184.181 11.5333 184.25 10.944C184.354 10.3547 184.562 9.62667 184.874 8.76C184.493 9.10667 184.094 9.436 183.678 9.748C183.297 10.06 182.881 10.4067 182.43 10.788C177.646 14.5667 173.919 16.456 171.25 16.456ZM201.682 11.932C201.508 11.932 201.37 11.9147 201.266 11.88C200.711 11.7413 200.312 11.5333 200.07 11.256C199.862 10.944 199.723 10.7013 199.654 10.528C199.411 9.76533 199.498 8.98533 199.914 8.188C200.33 7.356 200.867 6.48933 201.526 5.588C201.734 5.31067 201.924 5.016 202.098 4.704C202.306 4.35733 202.479 4.06267 202.618 3.82C202.652 3.78533 202.704 3.716 202.774 3.612C202.566 3.68133 202.306 3.78533 201.994 3.924C201.716 4.06267 201.387 4.27067 201.006 4.548C200.382 4.92933 199.723 5.432 199.03 6.056C198.336 6.64533 197.626 7.26933 196.898 7.928C196.724 8.06667 196.534 8.22267 196.326 8.396C196.152 8.56933 195.979 8.74267 195.806 8.916C195.494 9.19333 195.13 9.332 194.714 9.332C194.263 9.29733 193.899 9.10667 193.622 8.76C193.31 8.448 193.171 8.084 193.206 7.668C193.24 7.21733 193.414 6.85333 193.726 6.576C193.899 6.40267 194.09 6.22933 194.298 6.056C194.471 5.88267 194.644 5.72667 194.818 5.588C195.927 4.58267 197.019 3.664 198.094 2.832C199.168 1.96533 200.226 1.30667 201.266 0.855999C202.306 0.405332 203.311 0.318666 204.282 0.595999C204.871 0.734666 205.287 0.977333 205.53 1.324C205.807 1.636 205.963 1.91333 205.998 2.156C206.31 2.91867 206.24 3.73333 205.79 4.6C205.339 5.432 204.767 6.35067 204.074 7.356C204.004 7.42533 203.918 7.54667 203.814 7.72C203.744 7.85867 203.658 7.99733 203.554 8.136C204.074 7.928 204.75 7.668 205.582 7.356C206.414 7.044 207.419 6.66267 208.598 6.212C209.048 6.07333 209.464 6.108 209.846 6.316C210.227 6.48933 210.487 6.784 210.626 7.2C210.799 7.58133 210.782 7.98 210.574 8.396C210.4 8.77733 210.123 9.05467 209.742 9.228C208.632 9.60933 207.627 9.956 206.726 10.268C205.824 10.58 205.062 10.8573 204.438 11.1C204.091 11.2387 203.779 11.36 203.502 11.464C203.259 11.5333 203.034 11.6027 202.826 11.672C202.583 11.7413 202.375 11.8107 202.202 11.88C202.028 11.9147 201.855 11.932 201.682 11.932ZM215.638 16.56C215.465 16.56 215.291 16.5427 215.118 16.508C214.945 16.508 214.754 16.4907 214.546 16.456C214.13 16.3173 213.783 16.0227 213.506 15.572C213.367 15.2947 213.298 14.9133 213.298 14.428C213.298 13.9427 213.454 13.1453 213.766 12.036C214.078 10.9267 214.581 9.28 215.274 7.096C214.511 7.37333 213.627 7.70267 212.622 8.084C211.651 8.46533 210.646 8.84667 209.606 9.228C209.225 9.36667 208.843 9.34933 208.462 9.176C208.046 8.968 207.751 8.656 207.578 8.24C207.439 7.85867 207.474 7.47733 207.682 7.096C207.855 6.68 208.15 6.38533 208.566 6.212C210.057 5.65733 211.443 5.13733 212.726 4.652C214.043 4.16667 215.118 3.768 215.95 3.456C216.782 3.144 217.198 2.988 217.198 2.988C217.545 2.84933 217.874 2.832 218.186 2.936C218.637 3.04 218.966 3.3 219.174 3.716C219.347 4.028 219.399 4.30533 219.33 4.548C219.295 4.79067 219.243 5.05067 219.174 5.328C219.105 5.46667 219.053 5.62267 219.018 5.796C218.983 5.93467 218.931 6.108 218.862 6.316C218.619 6.90533 218.359 7.63333 218.082 8.5C217.839 9.332 217.579 10.1813 217.302 11.048C217.129 11.5333 216.99 11.9493 216.886 12.296C216.782 12.6427 216.695 12.9547 216.626 13.232C217.285 13.0933 218.238 12.6947 219.486 12.036C220.561 11.4467 221.705 10.7707 222.918 10.008C224.166 9.21067 225.431 8.37867 226.714 7.512C226.991 7.33867 227.269 7.16533 227.546 6.992C227.858 6.81867 228.135 6.628 228.378 6.42C228.759 6.17733 229.158 6.108 229.574 6.212C230.025 6.28133 230.371 6.50667 230.614 6.888C230.857 7.23467 230.926 7.616 230.822 8.032C230.753 8.448 230.527 8.77733 230.146 9.02C229.869 9.228 229.574 9.436 229.262 9.644C228.985 9.81733 228.69 10.008 228.378 10.216C227.061 11.0827 225.778 11.9147 224.53 12.712C223.282 13.5093 222.103 14.2027 220.994 14.792C218.741 15.9707 216.955 16.56 215.638 16.56ZM241.204 13.492C240.788 13.492 240.441 13.3707 240.164 13.128C239.609 12.6773 239.453 12.1053 239.696 11.412C239.696 11.3773 239.817 10.9613 240.06 10.164C240.337 9.36667 240.649 8.46533 240.996 7.46C241.169 6.87067 241.325 6.368 241.464 5.952C241.602 5.50133 241.724 5.10267 241.828 4.756C240.892 5.10267 239.748 5.536 238.396 6.056C237.044 6.54133 235.622 7.06133 234.132 7.616C232.676 8.17067 231.254 8.708 229.868 9.228C229.486 9.36667 229.105 9.34933 228.724 9.176C228.308 8.968 228.013 8.656 227.84 8.24C227.701 7.85867 227.736 7.47733 227.944 7.096C228.117 6.68 228.412 6.38533 228.828 6.212C230.388 5.65733 232 5.08533 233.664 4.496C235.328 3.872 236.87 3.3 238.292 2.78C239.713 2.22533 240.874 1.77467 241.776 1.428C242.677 1.08133 243.128 0.907999 243.128 0.907999C243.301 0.873332 243.474 0.855999 243.648 0.855999C243.821 0.821333 243.977 0.838666 244.116 0.907999C244.601 0.977332 244.948 1.25467 245.156 1.74C245.329 2.01733 245.398 2.38133 245.364 2.832C245.364 3.248 245.277 3.85467 245.104 4.652C245 5.10267 244.861 5.60533 244.688 6.16C244.549 6.68 244.358 7.28667 244.116 7.98C244.081 8.11867 244.046 8.24 244.012 8.344C243.977 8.448 243.942 8.56933 243.908 8.708C245.294 7.94533 246.993 7.148 249.004 6.316C249.385 6.14267 249.766 6.14267 250.148 6.316C250.564 6.45467 250.841 6.71467 250.98 7.096C251.188 7.47733 251.205 7.876 251.032 8.292C250.858 8.708 250.581 9.00267 250.2 9.176C248.64 9.86933 247.236 10.528 245.988 11.152C244.774 11.776 243.804 12.2787 243.076 12.66C242.348 13.0413 241.984 13.232 241.984 13.232C241.776 13.4053 241.516 13.492 241.204 13.492ZM13.856 65.492C13.44 65.492 13.0933 65.3707 12.816 65.128C12.2613 64.6773 12.1053 64.1053 12.348 63.412C12.348 63.3773 12.4693 62.9613 12.712 62.164C12.9893 61.3667 13.3013 60.4653 13.648 59.46C13.8213 58.8707 13.9773 58.368 14.116 57.952C14.2547 57.5013 14.376 57.1027 14.48 56.756C13.544 57.1027 12.4 57.536 11.048 58.056C9.696 58.5413 8.27467 59.0613 6.784 59.616C5.328 60.1707 3.90667 60.708 2.52 61.228C2.13867 61.3667 1.75733 61.3493 1.376 61.176C0.96 60.968 0.665333 60.656 0.492 60.24C0.353333 59.8587 0.388 59.4773 0.596 59.096C0.769333 58.68 1.064 58.3853 1.48 58.212C3.04 57.6573 4.652 57.0853 6.316 56.496C7.98 55.872 9.52267 55.3 10.944 54.78C12.3653 54.2253 13.5267 53.7747 14.428 53.428C15.3293 53.0813 15.78 52.908 15.78 52.908C15.9533 52.8733 16.1267 52.856 16.3 52.856C16.4733 52.8213 16.6293 52.8387 16.768 52.908C17.2533 52.9773 17.6 53.2547 17.808 53.74C17.9813 54.0173 18.0507 54.3813 18.016 54.832C18.016 55.248 17.9293 55.8547 17.756 56.652C17.652 57.1027 17.5133 57.6053 17.34 58.16C17.2013 58.68 17.0107 59.2867 16.768 59.98C16.7333 60.1187 16.6987 60.24 16.664 60.344C16.6293 60.448 16.5947 60.5693 16.56 60.708C17.9467 59.9453 19.6453 59.148 21.656 58.316C22.0373 58.1427 22.4187 58.1427 22.8 58.316C23.216 58.4547 23.4933 58.7147 23.632 59.096C23.84 59.4773 23.8573 59.876 23.684 60.292C23.5107 60.708 23.2333 61.0027 22.852 61.176C21.292 61.8693 19.888 62.528 18.64 63.152C17.4267 63.776 16.456 64.2787 15.728 64.66C15 65.0413 14.636 65.232 14.636 65.232C14.428 65.4053 14.168 65.492 13.856 65.492ZM28.7629 68.56C28.5896 68.56 28.4163 68.5427 28.2429 68.508C28.0696 68.508 27.8789 68.4907 27.6709 68.456C27.2549 68.3173 26.9083 68.0227 26.6309 67.572C26.4923 67.2947 26.4229 66.9133 26.4229 66.428C26.4229 65.9427 26.5789 65.1453 26.8909 64.036C27.2029 62.9267 27.7056 61.28 28.3989 59.096C27.6363 59.3733 26.7523 59.7027 25.7469 60.084C24.7763 60.4653 23.7709 60.8467 22.7309 61.228C22.3496 61.3667 21.9683 61.3493 21.5869 61.176C21.1709 60.968 20.8763 60.656 20.7029 60.24C20.5643 59.8587 20.5989 59.4773 20.8069 59.096C20.9803 58.68 21.2749 58.3853 21.6909 58.212C23.1816 57.6573 24.5683 57.1373 25.8509 56.652C27.1683 56.1667 28.2429 55.768 29.0749 55.456C29.9069 55.144 30.3229 54.988 30.3229 54.988C30.6696 54.8493 30.9989 54.832 31.3109 54.936C31.7616 55.04 32.0909 55.3 32.2989 55.716C32.4723 56.028 32.5243 56.3053 32.4549 56.548C32.4203 56.7907 32.3683 57.0507 32.2989 57.328C32.2296 57.4667 32.1776 57.6227 32.1429 57.796C32.1083 57.9347 32.0563 58.108 31.9869 58.316C31.7443 58.9053 31.4843 59.6333 31.2069 60.5C30.9643 61.332 30.7043 62.1813 30.4269 63.048C30.2536 63.5333 30.1149 63.9493 30.0109 64.296C29.9069 64.6427 29.8203 64.9547 29.7509 65.232C30.4096 65.0933 31.3629 64.6947 32.6109 64.036C33.6856 63.4467 34.8296 62.7707 36.0429 62.008C37.2909 61.2107 38.5563 60.3787 39.8389 59.512C40.1163 59.3387 40.3936 59.1653 40.6709 58.992C40.9829 58.8187 41.2603 58.628 41.5029 58.42C41.8843 58.1773 42.2829 58.108 42.6989 58.212C43.1496 58.2813 43.4963 58.5067 43.7389 58.888C43.9816 59.2347 44.0509 59.616 43.9469 60.032C43.8776 60.448 43.6523 60.7773 43.2709 61.02C42.9936 61.228 42.6989 61.436 42.3869 61.644C42.1096 61.8173 41.8149 62.008 41.5029 62.216C40.1856 63.0827 38.9029 63.9147 37.6549 64.712C36.4069 65.5093 35.2283 66.2027 34.1189 66.792C31.8656 67.9707 30.0803 68.56 28.7629 68.56ZM54.3287 65.492C53.9127 65.492 53.566 65.3707 53.2887 65.128C52.734 64.6773 52.578 64.1053 52.8207 63.412C52.8207 63.3773 52.942 62.9613 53.1847 62.164C53.462 61.3667 53.774 60.4653 54.1207 59.46C54.294 58.8707 54.45 58.368 54.5887 57.952C54.7273 57.5013 54.8487 57.1027 54.9527 56.756C54.0167 57.1027 52.8727 57.536 51.5207 58.056C50.1687 58.5413 48.7473 59.0613 47.2567 59.616C45.8007 60.1707 44.3793 60.708 42.9927 61.228C42.6113 61.3667 42.23 61.3493 41.8487 61.176C41.4327 60.968 41.138 60.656 40.9647 60.24C40.826 59.8587 40.8607 59.4773 41.0687 59.096C41.242 58.68 41.5367 58.3853 41.9527 58.212C43.5127 57.6573 45.1247 57.0853 46.7887 56.496C48.4527 55.872 49.9953 55.3 51.4167 54.78C52.838 54.2253 53.9993 53.7747 54.9007 53.428C55.802 53.0813 56.2527 52.908 56.2527 52.908C56.426 52.8733 56.5993 52.856 56.7727 52.856C56.946 52.8213 57.102 52.8387 57.2407 52.908C57.726 52.9773 58.0727 53.2547 58.2807 53.74C58.454 54.0173 58.5233 54.3813 58.4887 54.832C58.4887 55.248 58.402 55.8547 58.2287 56.652C58.1247 57.1027 57.986 57.6053 57.8127 58.16C57.674 58.68 57.4833 59.2867 57.2407 59.98C57.206 60.1187 57.1713 60.24 57.1367 60.344C57.102 60.448 57.0673 60.5693 57.0327 60.708C58.4193 59.9453 60.118 59.148 62.1287 58.316C62.51 58.1427 62.8913 58.1427 63.2727 58.316C63.6887 58.4547 63.966 58.7147 64.1047 59.096C64.3127 59.4773 64.33 59.876 64.1567 60.292C63.9833 60.708 63.706 61.0027 63.3247 61.176C61.7647 61.8693 60.3607 62.528 59.1127 63.152C57.8993 63.776 56.9287 64.2787 56.2007 64.66C55.4727 65.0413 55.1087 65.232 55.1087 65.232C54.9007 65.4053 54.6407 65.492 54.3287 65.492ZM69.2356 68.56C69.0623 68.56 68.8889 68.5427 68.7156 68.508C68.5423 68.508 68.3516 68.4907 68.1436 68.456C67.7276 68.3173 67.3809 68.0227 67.1036 67.572C66.9649 67.2947 66.8956 66.9133 66.8956 66.428C66.8956 65.9427 67.0516 65.1453 67.3636 64.036C67.6756 62.9267 68.1783 61.28 68.8716 59.096C68.1089 59.3733 67.2249 59.7027 66.2196 60.084C65.2489 60.4653 64.2436 60.8467 63.2036 61.228C62.8223 61.3667 62.4409 61.3493 62.0596 61.176C61.6436 60.968 61.3489 60.656 61.1756 60.24C61.0369 59.8587 61.0716 59.4773 61.2796 59.096C61.4529 58.68 61.7476 58.3853 62.1636 58.212C63.6543 57.6573 65.0409 57.1373 66.3236 56.652C67.6409 56.1667 68.7156 55.768 69.5476 55.456C70.3796 55.144 70.7956 54.988 70.7956 54.988C71.1423 54.8493 71.4716 54.832 71.7836 54.936C72.2343 55.04 72.5636 55.3 72.7716 55.716C72.9449 56.028 72.9969 56.3053 72.9276 56.548C72.8929 56.7907 72.8409 57.0507 72.7716 57.328C72.7023 57.4667 72.6503 57.6227 72.6156 57.796C72.5809 57.9347 72.5289 58.108 72.4596 58.316C72.2169 58.9053 71.9569 59.6333 71.6796 60.5C71.4369 61.332 71.1769 62.1813 70.8996 63.048C70.7263 63.5333 70.5876 63.9493 70.4836 64.296C70.3796 64.6427 70.2929 64.9547 70.2236 65.232C70.8823 65.0933 71.8356 64.6947 73.0836 64.036C74.1583 63.4467 75.3023 62.7707 76.5156 62.008C77.7636 61.2107 79.0289 60.3787 80.3116 59.512C80.5889 59.3387 80.8663 59.1653 81.1436 58.992C81.4556 58.8187 81.7329 58.628 81.9756 58.42C82.3569 58.1773 82.7556 58.108 83.1716 58.212C83.6223 58.2813 83.9689 58.5067 84.2116 58.888C84.4543 59.2347 84.5236 59.616 84.4196 60.032C84.3503 60.448 84.1249 60.7773 83.7436 61.02C83.4663 61.228 83.1716 61.436 82.8596 61.644C82.5823 61.8173 82.2876 62.008 81.9756 62.216C80.6583 63.0827 79.3756 63.9147 78.1276 64.712C76.8796 65.5093 75.7009 66.2027 74.5916 66.792C72.3383 67.9707 70.5529 68.56 69.2356 68.56ZM101.197 64.972C100.955 64.972 100.729 64.9373 100.521 64.868C99.8626 64.7293 99.3946 64.3307 99.1173 63.672C98.9093 63.0827 98.9613 62.424 99.2733 61.696C99.62 60.968 100.071 60.1533 100.625 59.252C100.833 58.94 101.024 58.628 101.197 58.316C101.405 57.9693 101.579 57.6573 101.717 57.38C101.787 57.276 101.839 57.1893 101.873 57.12C101.908 57.016 101.943 56.9293 101.977 56.86C100.937 56.6867 99.724 56.652 98.3373 56.756C96.9853 56.8253 95.46 57.0853 93.7613 57.536C92.2706 57.9173 90.6586 58.42 88.9253 59.044C87.2266 59.6333 85.424 60.344 83.5173 61.176C83.136 61.3147 82.7546 61.3147 82.3733 61.176C81.992 61.0373 81.7146 60.7773 81.5413 60.396C81.3333 60.0147 81.316 59.616 81.4893 59.2C81.6626 58.7493 81.94 58.4547 82.3213 58.316C84.2626 57.4493 86.1173 56.704 87.8853 56.08C89.688 55.4213 91.3866 54.9013 92.9813 54.52C97.2453 53.4453 100.729 53.272 103.433 54C104.231 54.208 104.785 54.6933 105.097 55.456C105.409 56.2187 105.34 57.068 104.889 58.004C104.439 58.94 103.901 59.9107 103.277 60.916C103.243 60.9853 103.191 61.072 103.121 61.176C103.052 61.28 102.983 61.4013 102.913 61.54C103.711 61.3667 104.889 61.02 106.449 60.5C108.009 59.98 110.159 59.2173 112.897 58.212C113.279 58.0733 113.66 58.108 114.041 58.316C114.457 58.4893 114.735 58.784 114.873 59.2C115.047 59.5813 115.047 59.98 114.873 60.396C114.7 60.7773 114.388 61.0547 113.937 61.228C112.343 61.7827 110.887 62.2853 109.569 62.736C108.252 63.1867 107.073 63.568 106.033 63.88C104.647 64.296 103.589 64.5907 102.861 64.764C102.133 64.9027 101.579 64.972 101.197 64.972ZM125.422 65.492C125.006 65.492 124.66 65.3707 124.382 65.128C123.828 64.6773 123.672 64.1053 123.914 63.412C123.914 63.3773 124.036 62.9613 124.278 62.164C124.556 61.3667 124.868 60.4653 125.214 59.46C125.388 58.8707 125.544 58.368 125.682 57.952C125.821 57.5013 125.942 57.1027 126.046 56.756C125.11 57.1027 123.966 57.536 122.614 58.056C121.262 58.5413 119.841 59.0613 118.35 59.616C116.894 60.1707 115.473 60.708 114.086 61.228C113.705 61.3667 113.324 61.3493 112.942 61.176C112.526 60.968 112.232 60.656 112.058 60.24C111.92 59.8587 111.954 59.4773 112.162 59.096C112.336 58.68 112.63 58.3853 113.046 58.212C114.606 57.6573 116.218 57.0853 117.882 56.496C119.546 55.872 121.089 55.3 122.51 54.78C123.932 54.2253 125.093 53.7747 125.994 53.428C126.896 53.0813 127.346 52.908 127.346 52.908C127.52 52.8733 127.693 52.856 127.866 52.856C128.04 52.8213 128.196 52.8387 128.334 52.908C128.82 52.9773 129.166 53.2547 129.374 53.74C129.548 54.0173 129.617 54.3813 129.582 54.832C129.582 55.248 129.496 55.8547 129.322 56.652C129.218 57.1027 129.08 57.6053 128.906 58.16C128.768 58.68 128.577 59.2867 128.334 59.98C128.3 60.1187 128.265 60.24 128.23 60.344C128.196 60.448 128.161 60.5693 128.126 60.708C129.513 59.9453 131.212 59.148 133.222 58.316C133.604 58.1427 133.985 58.1427 134.366 58.316C134.782 58.4547 135.06 58.7147 135.198 59.096C135.406 59.4773 135.424 59.876 135.25 60.292C135.077 60.708 134.8 61.0027 134.418 61.176C132.858 61.8693 131.454 62.528 130.206 63.152C128.993 63.776 128.022 64.2787 127.294 64.66C126.566 65.0413 126.202 65.232 126.202 65.232C125.994 65.4053 125.734 65.492 125.422 65.492Z" fill="white"/>
</svg>
